<svg width="14" height="14" viewBox="0 0 14 14" fill="#ffffff" xmlns="http://www.w3.org/2000/svg">
<path fill-rule="evenodd" clip-rule="evenodd" d="M10.799 8.91067L13.6326 10.8005C13.9991 11.0442 14.109 11.5331 13.8821 11.9102L13.1696 13.0945C12.9508 13.4669 12.5963 13.7401 12.1804 13.8567C11.8229 13.9534 11.4541 14.0015 11.0839 14C9.47503 14 7.13434 13.1544 3.99017 10.0103C0.0376108 6.05697 -0.283385 3.37361 0.143306 1.8188C0.260019 1.40296 0.53317 1.04844 0.905482 0.829547L2.09041 0.117707C2.4674 -0.108927 2.95596 0.00104058 3.19947 0.367364L5.0892 3.20122C5.3268 3.56095 5.24842 4.04287 4.90908 4.30877L3.84852 5.134C3.70859 5.24093 3.66879 5.43459 3.75521 5.58803L3.8413 5.74506L3.84131 5.74507C4.12501 6.26464 4.47893 6.9128 5.78376 8.21819C7.0886 9.52359 7.73623 9.87681 8.25672 10.1605L8.41373 10.2471C8.56719 10.3324 8.76002 10.2918 8.86609 10.1519L9.69151 9.09055C9.95736 8.75105 10.4394 8.67277 10.799 8.91067ZM12.7693 12.8558L13.4801 11.6708C13.5787 11.5072 13.531 11.2951 13.3719 11.1895L10.5385 9.2996C10.3824 9.19653 10.1734 9.2304 10.0579 9.37753L9.23273 10.4384C8.98588 10.7613 8.53921 10.8534 8.18475 10.6547L8.03148 10.5702L8.03091 10.5699C7.48441 10.2718 6.80433 9.90084 5.45143 8.54809C4.09856 7.19534 3.72764 6.51501 3.42953 5.96822L3.4292 5.96761L3.34496 5.81456C3.1462 5.46004 3.23839 5.01336 3.56122 4.7665L4.62203 3.94127C4.76922 3.82581 4.80313 3.61667 4.69995 3.46063L3.83836 2.1683L2.81184 0.627026C2.70617 0.468061 2.49412 0.42035 2.33055 0.51878L1.14562 1.22969C0.876488 1.38701 0.678603 1.64236 0.593413 1.94224C0.199365 3.37781 0.52572 5.88526 4.32033 9.68014C8.11495 13.475 10.6224 13.8014 12.0577 13.4074C12.3572 13.3223 12.6122 13.1246 12.7693 12.8558Z" fill="black"/>
</svg>
