<?xml version="1.0" encoding="utf-8"?>
<!-- Generator: Adobe Illustrator 16.2.0, SVG Export Plug-In . SVG Version: 6.00 Build 0)  -->
<!DOCTYPE svg PUBLIC "-//W3C//DTD SVG 1.1//EN" "http://www.w3.org/Graphics/SVG/1.1/DTD/svg11.dtd">
<svg version="1.1" id="Layer_1" xmlns="http://www.w3.org/2000/svg" xmlns:xlink="http://www.w3.org/1999/xlink" x="0px" y="0px"
	 width="40px" height="40px" viewBox="0 0 40 40" enable-background="new 0 0 40 40" xml:space="preserve">
<circle fill="none" stroke="#010101" stroke-width="2" stroke-linecap="round" stroke-miterlimit="10" cx="20.047" cy="20.046" r="18.904"/>
<rect x="0.355" y="0.355" fill="none" width="39.383" height="39.383"/>
<path fill="#010101" d="M19.085,13.148c-0.171,0-0.281-0.113-0.281-0.283v-2.062c0-0.17,0.111-0.283,0.281-0.283h1.919
	c0.172,0,0.285,0.113,0.285,0.283v2.062c0,0.169-0.115,0.283-0.285,0.283H19.085z M19.143,29.729c-0.169,0-0.282-0.11-0.282-0.281
	V16.481c0-0.17,0.114-0.283,0.282-0.283h1.807c0.171,0,0.283,0.112,0.283,0.283v12.966c0,0.171-0.113,0.281-0.283,0.281H19.143z"/>
</svg>
