<svg xmlns="http://www.w3.org/2000/svg" xmlns:xlink="http://www.w3.org/1999/xlink" width="0" height="0" style="position:absolute">
						<symbol id="icon-award" vieBox="0 0 23 24">
								<path d="M16.272,17.485c0.086,0.029,0.208,0.067,0.352,0.058c0.238-0.01,0.455-0.105,0.627-0.275
								c0.183-0.181,0.276-0.416,0.267-0.663c-0.018-1.583,0.989-2.966,2.493-3.441c0.105-0.028,0.209-0.086,0.284-0.143
								c0.2-0.151,0.324-0.368,0.363-0.596c0.048-0.247-0.021-0.493-0.172-0.702c-0.951-1.27-0.951-2.975-0.009-4.235l0.065-0.076
								c0.038-0.048,0.058-0.085,0.076-0.143c0.01-0.009,0.019-0.047,0.019-0.057c0.077-0.237,0.049-0.493-0.057-0.702
								c-0.114-0.227-0.313-0.388-0.552-0.463c-1.502-0.474-2.512-1.849-2.492-3.421c0-0.114-0.02-0.228-0.057-0.322
								c-0.076-0.228-0.247-0.417-0.476-0.531c-0.229-0.104-0.466-0.113-0.695-0.038c-0.371,0.123-0.761,0.189-1.15,0.189
								c-1.161-0.019-2.256-0.577-2.92-1.516c-0.067-0.095-0.144-0.17-0.22-0.218c-0.418-0.294-1.008-0.199-1.303,0.218
								c-0.666,0.938-1.759,1.497-2.911,1.497c-0.39,0-0.78-0.066-1.132-0.189c-0.314-0.113-0.723-0.028-0.97,0.228
								c-0.182,0.18-0.276,0.417-0.268,0.663c0.02,1.583-0.989,2.957-2.492,3.431c-0.105,0.029-0.2,0.076-0.305,0.151
								C2.23,6.492,2.145,7.08,2.449,7.487c0.952,1.27,0.952,2.975,0,4.246c-0.057,0.085-0.105,0.18-0.133,0.265
								c-0.076,0.236-0.058,0.474,0.067,0.712c0.123,0.217,0.313,0.377,0.542,0.453c1.512,0.483,2.51,1.868,2.492,3.423
								c-0.009,0.112,0.01,0.226,0.047,0.341c0.076,0.227,0.248,0.418,0.476,0.53c0.219,0.104,0.476,0.114,0.704,0.038
								c0.38-0.125,0.771-0.19,1.161-0.19c1.16,0,2.216,0.551,2.901,1.498c0.057,0.087,0.134,0.161,0.218,0.219
								c0.164,0.113,0.344,0.171,0.542,0.171c0.058,0,0.106-0.01,0.164-0.01c0.246-0.048,0.465-0.182,0.599-0.38
								C13.151,17.515,14.778,16.982,16.272,17.485z M11.477,18.263c-0.846-1.185-2.216-1.896-3.662-1.896
								c-0.495,0-0.99,0.085-1.456,0.246c0.028-1.99-1.237-3.733-3.138-4.33c1.198-1.603,1.198-3.764-0.01-5.355
								c1.912-0.597,3.187-2.341,3.148-4.322c0.466,0.162,0.952,0.237,1.447,0.237c1.455,0,2.834-0.71,3.661-1.895
								c0.848,1.185,2.217,1.895,3.684,1.895c0.493,0,0.979-0.085,1.436-0.237c-0.019,1.981,1.246,3.715,3.148,4.293l-0.009,0.009
								c-1.198,1.602-1.189,3.762,0.02,5.355c-1.913,0.596-3.188,2.339-3.159,4.332h-0.01C14.684,15.959,12.619,16.622,11.477,18.263z"/>
							<path d="M11.477,5.336c-2.359,0-4.28,1.914-4.28,4.265c0,2.35,1.921,4.266,4.28,4.266
								c2.36,0,4.281-1.916,4.281-4.266C15.758,7.25,13.837,5.336,11.477,5.336z M11.477,12.936c-1.845,0-3.339-1.497-3.339-3.326
								c0-1.829,1.503-3.327,3.339-3.327c1.836,0,3.339,1.498,3.339,3.327C14.816,11.439,13.313,12.936,11.477,12.936z"/>
							<path d="M8.271,18.89c-0.219-0.145-0.514-0.087-0.656,0.132l-2.273,3.477l-1.17-2.378
								c-0.076-0.161-0.238-0.267-0.419-0.267l-2.406-0.009l2.378-3.629C3.772,16.14,3.8,16.054,3.8,15.959l0,0
								c0-0.256-0.21-0.464-0.475-0.464c-0.171,0-0.324,0.095-0.399,0.227l-2.845,4.342c-0.095,0.144-0.105,0.331-0.02,0.483
								c0.086,0.151,0.238,0.246,0.409,0.246l2.987,0.01l1.408,2.861c0.076,0.152,0.229,0.256,0.39,0.266c0.01,0,0.019,0,0.028,0
								c0.162,0,0.305-0.076,0.391-0.209l2.73-4.169C8.557,19.324,8.49,19.03,8.271,18.89z"/>
							<path d="M22.874,20.063l-2.863-4.371c-0.143-0.216-0.437-0.272-0.656-0.132c-0.219,0.143-0.275,0.437-0.133,0.655
								l2.388,3.638l-2.416,0.011c-0.183,0-0.343,0.104-0.42,0.266l-1.17,2.379l-2.282-3.479c-0.144-0.219-0.438-0.274-0.657-0.133
								c-0.22,0.143-0.274,0.436-0.134,0.654l2.74,4.169c0.086,0.133,0.238,0.209,0.391,0.209c0.01,0,0.02,0,0.027,0
								c0.172-0.01,0.323-0.113,0.393-0.266l1.397-2.861l2.986-0.01c0.172,0,0.333-0.095,0.409-0.246
								C22.978,20.385,22.97,20.207,22.874,20.063z"/>
						</symbol>
						<symbol id="icon-yb" viewBox="0 0 30 30">
							<path d="M28.821,9.162c-0.755-1.787-1.837-3.391-3.214-4.768s-2.981-2.459-4.768-3.215C18.99,0.397,17.025,0,15,0
							c-2.024,0-3.989,0.396-5.838,1.179C7.375,1.935,5.771,3.016,4.394,4.393C3.017,5.771,1.935,7.375,1.179,9.161
							C0.397,11.01,0,12.975,0,14.999s0.396,3.989,1.179,5.839c0.755,1.787,1.837,3.391,3.214,4.768c1.377,1.378,2.981,2.459,4.768,3.215
							C11.01,29.604,12.975,30,15,30l0,0c2.025,0,3.989-0.396,5.839-1.18c1.786-0.755,3.39-1.836,4.768-3.213
							c1.377-1.378,2.458-2.982,3.214-4.768c0.783-1.85,1.18-3.814,1.18-5.839C30,12.976,29.604,11.012,28.821,9.162z M15,28.604
							L15,28.604c-3.634,0-7.05-1.416-9.62-3.984c-2.569-2.57-3.984-5.986-3.984-9.62c0-7.5,6.103-13.603,13.604-13.603
							c3.634,0,7.05,1.416,9.618,3.985c2.57,2.57,3.984,5.986,3.984,9.62C28.604,22.502,22.5,28.604,15,28.604z"/>
						<path d="M18.338,8.784c-1.701-0.05-3.401-0.062-5.102-0.036C8.423,8.84,6.403,8.767,6.161,12.469
							c-0.052,1.566-0.056,3.129-0.011,4.695c0.24,4.038,1.535,3.964,7.087,4.09c1.551,0.023,3.102,0.016,4.652-0.023
							c3.904-0.107,5.721-0.012,5.962-4.068c0.045-1.564,0.041-3.127-0.011-4.693C23.598,8.751,21.504,8.875,18.338,8.784z
							 M13.196,17.311c-0.01-1.68-0.009-3.359,0.002-5.038c1.561,0.828,3.14,1.681,4.715,2.519C16.34,15.627,14.76,16.48,13.196,17.311z"
							/>
						</symbol>
						<symbol id="icon-vk" viewBox="0 0 30 30">
							<path d="M28.821,9.162c-0.755-1.787-1.837-3.391-3.214-4.768s-2.981-2.459-4.768-3.215C18.99,0.397,17.025,0,15,0
							c-2.024,0-3.989,0.396-5.838,1.179C7.375,1.935,5.771,3.016,4.394,4.393C3.017,5.771,1.935,7.375,1.179,9.161
							C0.397,11.01,0,12.975,0,14.999s0.396,3.989,1.179,5.839c0.755,1.787,1.837,3.391,3.214,4.768c1.377,1.378,2.981,2.459,4.768,3.215
							C11.01,29.604,12.975,30,15,30l0,0c2.025,0,3.988-0.396,5.839-1.179c1.786-0.756,3.39-1.837,4.768-3.214
							c1.377-1.378,2.458-2.982,3.214-4.768c0.783-1.85,1.18-3.814,1.18-5.839C30,12.976,29.604,11.012,28.821,9.162z M15,28.604
							L15,28.604c-3.634,0-7.05-1.416-9.62-3.984c-2.569-2.57-3.984-5.986-3.984-9.62c0-7.5,6.103-13.603,13.604-13.603
							c3.634,0,7.05,1.416,9.618,3.985c2.57,2.57,3.984,5.986,3.984,9.62C28.604,22.502,22.5,28.604,15,28.604z"/>
						<path d="M4.526,11.699c0.226,0.589,0.504,1.156,0.791,1.717c0.682,1.333,1.384,2.626,2.326,3.798
							c0.951,1.184,2.075,2.33,3.398,3.096c0.368,0.213,0.755,0.393,1.158,0.529c1.555,0.527,3.261,0.477,3.787,0.125
							c0.527-0.351-0.1-2.658,0.377-2.934c0.477-0.276,1.328,0.326,1.956,0.877c0.627,0.553,1.104,1.029,1.454,1.404
							c0.221,0.236,0.375,0.518,0.662,0.686c0.475,0.277,1.105,0.247,1.635,0.248c0.295,0.002,0.59,0.002,0.885-0.002
							c0.199-0.002,0.398,0.004,0.598-0.005c0.328-0.017,0.756-0.146,0.73-0.555c-0.006-0.097-0.027-0.212-0.065-0.302
							c-0.083-0.192-0.199-0.392-0.324-0.559c-0.652-0.871-1.085-1.316-1.411-1.668s-1.668-1.618-1.756-1.869
							c-0.088-0.25-0.115-0.361,0.134-0.7s0.794-1.193,1.222-1.808c0.267-0.385,0.51-0.788,0.75-1.191
							c0.283-0.475,0.549-0.961,0.775-1.466c0.102-0.226,0.193-0.431,0.131-0.684c-0.042-0.169-0.137-0.318-0.314-0.36
							c-0.097-0.023-0.203-0.025-0.302-0.025c-0.37,0-1.335,0-1.335,0c-0.175,0-0.35-0.002-0.523-0.002c-0.18,0-0.36-0.001-0.539,0.014
							c-0.254,0.021-0.409,0.217-0.537,0.415c-0.156,0.241-0.298,0.493-0.449,0.737c-0.104,0.167-0.205,0.335-0.305,0.505
							c-0.156,0.265-0.316,0.526-0.477,0.789c-0.066,0.109-0.133,0.217-0.199,0.327c-0.188,0.313-1.818,2.458-2.145,2.546
							s-0.438,0.063-0.438-0.602s0-4.439,0-4.439s-0.024-0.291-0.301-0.291s-1.556,0-1.556,0h-2.64c0,0-0.621,0.002-0.401,0.561
							c0.22,0.558,0.869,0.728,0.869,1.659s0,3.649,0,3.649s-0.11,0.817-0.818,0.141c-0.558-0.533-1.019-1.165-1.425-1.818
							c-0.423-0.68-0.763-1.387-1.066-2.127c-0.087-0.212-0.173-0.424-0.262-0.635c-0.093-0.22-0.185-0.44-0.274-0.662
							c-0.104-0.257-0.214-0.594-0.494-0.712c-0.14-0.06-0.295-0.057-0.445-0.057c-0.555,0-1.11,0.001-1.665,0c-0.163,0-0.326,0-0.489,0
							c-0.384,0.001-0.863-0.01-0.954,0.47c-0.053,0.277,0.052,0.572,0.139,0.831C4.433,11.47,4.482,11.583,4.526,11.699z"/>
						</symbol>
						<symbol id="icon-inst" viewBox="0 0 30 30">
							<path d="M28.821,9.162c-0.755-1.787-1.837-3.391-3.214-4.768s-2.981-2.459-4.768-3.215C18.99,0.397,17.025,0,15,0
							c-2.024,0-3.989,0.396-5.838,1.179C7.375,1.935,5.771,3.016,4.394,4.393C3.017,5.771,1.935,7.375,1.179,9.161
							C0.397,11.01,0,12.975,0,14.999s0.396,3.989,1.179,5.839c0.755,1.787,1.837,3.391,3.214,4.768c1.377,1.378,2.981,2.459,4.768,3.215
							C11.01,29.604,12.975,30,15,30l0,0c2.025,0,3.988-0.396,5.839-1.179c1.786-0.756,3.39-1.837,4.768-3.214
							c1.377-1.378,2.458-2.982,3.214-4.768c0.783-1.85,1.18-3.814,1.18-5.839C30,12.976,29.604,11.012,28.821,9.162z M15,28.604
							L15,28.604c-3.634,0-7.05-1.416-9.62-3.984c-2.569-2.57-3.984-5.986-3.984-9.62c0-7.5,6.103-13.603,13.604-13.603
							c3.634,0,7.05,1.416,9.618,3.985c2.57,2.57,3.984,5.986,3.984,9.62C28.604,22.502,22.5,28.604,15,28.604z"/>
						<circle cx="19.3" cy="10.681" r="0.971"/>
						<path d="M15,19.217c-2.325,0-4.216-1.893-4.216-4.217c0-2.325,1.892-4.216,4.216-4.216
							c2.324,0,4.217,1.892,4.217,4.216C19.217,17.324,17.324,19.217,15,19.217z M15,12.102c-1.598,0-2.898,1.3-2.898,2.898
							s1.3,2.898,2.898,2.898s2.898-1.301,2.898-2.898S16.598,12.102,15,12.102z"/>
						<path d="M17.686,23.438h-5.371c-3.029,0-5.493-2.464-5.493-5.493v-5.889c0-3.029,2.464-5.493,5.493-5.493h5.37
							c3.029,0,5.493,2.464,5.493,5.493v5.889C23.178,20.974,20.714,23.438,17.686,23.438z M12.315,7.881
							c-2.302,0-4.175,1.873-4.175,4.175v5.889c0,2.302,1.873,4.175,4.175,4.175h5.37c2.302,0,4.175-1.873,4.175-4.175v-5.889
							c0-2.302-1.873-4.175-4.175-4.175H12.315z"/>
						</symbol>
					</svg>

