<?xml version="1.0" encoding="utf-8"?>
<!-- Generator: Adobe Illustrator 16.2.0, SVG Export Plug-In . SVG Version: 6.00 Build 0)  -->
<!DOCTYPE svg PUBLIC "-//W3C//DTD SVG 1.1//EN" "http://www.w3.org/Graphics/SVG/1.1/DTD/svg11.dtd">
<svg version="1.1" id="Layer_1" xmlns="http://www.w3.org/2000/svg" xmlns:xlink="http://www.w3.org/1999/xlink" x="0px" y="0px"
	 width="51px" height="47px" viewBox="0 0 51 47" enable-background="new 0 0 51 47" xml:space="preserve">
<g>
	<g>
		<path fill="#010101" d="M48.73,20.615h-0.747v-2.241v-7.965c0-2.607-2.12-4.729-4.729-4.729H22.746L8.91,1.726
			C8.906,1.725,8.902,1.725,8.898,1.724S8.89,1.72,8.886,1.72C8.877,1.718,8.87,1.717,8.861,1.715
			C8.849,1.712,8.835,1.709,8.823,1.708C8.812,1.706,8.8,1.704,8.788,1.703C8.774,1.702,8.761,1.7,8.748,1.699
			c-0.011,0-0.021-0.001-0.033-0.001c-0.014,0-0.028,0-0.042,0c-0.01,0-0.021,0.001-0.031,0.001C8.628,1.702,8.614,1.703,8.6,1.706
			C8.59,1.707,8.581,1.708,8.572,1.71C8.557,1.713,8.542,1.715,8.529,1.719C8.52,1.721,8.51,1.724,8.501,1.726
			C8.487,1.73,8.474,1.734,8.459,1.74C8.451,1.742,8.443,1.745,8.435,1.749C8.42,1.754,8.406,1.76,8.392,1.767
			C8.385,1.771,8.377,1.774,8.37,1.778C8.355,1.785,8.342,1.792,8.329,1.8C8.321,1.804,8.314,1.809,8.308,1.813
			C8.294,1.822,8.281,1.83,8.269,1.839c-0.007,0.005-0.013,0.01-0.02,0.015c-0.013,0.01-0.025,0.019-0.037,0.029
			C8.206,1.889,8.2,1.895,8.193,1.9c-0.01,0.012-0.022,0.022-0.032,0.033c-0.007,0.006-0.012,0.014-0.02,0.021
			C8.133,1.965,8.124,1.976,8.115,1.988c-0.006,0.007-0.013,0.017-0.02,0.024C8.089,2.023,8.081,2.035,8.074,2.046
			c-0.006,0.01-0.012,0.02-0.018,0.03C8.049,2.087,8.043,2.099,8.038,2.11C8.032,2.121,8.027,2.133,8.022,2.144
			c-0.005,0.011-0.01,0.022-0.014,0.034C8.004,2.19,8,2.203,7.996,2.215C7.993,2.224,7.99,2.231,7.987,2.239
			C7.986,2.243,7.985,2.247,7.984,2.25c0,0.004-0.002,0.008-0.004,0.013L7.126,5.68H4.723c-2.603,0-4.721,2.113-4.729,4.713
			c0,0.005,0,0.01,0,0.016v25.887c0,0.412,0.336,0.747,0.747,0.747s0.747-0.335,0.747-0.747V13.853
			c0.847,0.796,1.985,1.286,3.236,1.286h38.532c0.001,0,0.002,0,0.002,0c1.784,0.001,3.233,1.452,3.233,3.235v5.228h-8.215
			c-0.001,0-0.002,0-0.002,0c-0.021,0-0.042,0.001-0.064,0.003c-0.023,0.002-0.048,0.005-0.069,0.01
			c-0.005,0.001-0.008,0.001-0.01,0.001c-0.021,0.004-0.04,0.009-0.058,0.015c-0.005,0-0.01,0.002-0.014,0.003
			c-0.018,0.005-0.035,0.011-0.05,0.017c-0.007,0.003-0.013,0.004-0.02,0.007c-0.013,0.006-0.027,0.013-0.039,0.019
			c-0.011,0.004-0.018,0.008-0.028,0.013c-0.01,0.005-0.02,0.012-0.029,0.017c-0.01,0.007-0.022,0.013-0.032,0.021
			c-0.008,0.004-0.016,0.01-0.021,0.015c-0.013,0.01-0.026,0.019-0.038,0.029c-0.005,0.004-0.011,0.009-0.017,0.014
			c-0.012,0.011-0.024,0.022-0.037,0.035c-0.008,0.007-0.016,0.015-0.021,0.022c-0.009,0.01-0.02,0.021-0.029,0.033
			c-0.016,0.019-0.029,0.038-0.044,0.058c0,0-0.001,0-0.001,0.001l-3.981,5.974c-0.027,0.041-0.05,0.086-0.069,0.131
			c-0.009,0.018-0.015,0.033-0.019,0.051c-0.003,0.006-0.006,0.012-0.007,0.018c-0.006,0.02-0.008,0.035-0.014,0.055
			c-0.001,0.006-0.002,0.01-0.003,0.016c-0.005,0.015-0.006,0.032-0.008,0.052c-0.001,0.006-0.001,0.012-0.005,0.02
			c0,0.014,0,0.027-0.001,0.041c-0.001,0.012-0.001,0.021-0.001,0.033c0,0.01,0,0.02,0.001,0.029
			c0.001,0.016,0.001,0.029,0.001,0.041c0.004,0.008,0.004,0.016,0.005,0.023c0.002,0.016,0.003,0.033,0.009,0.05
			c0,0.006,0.001,0.012,0.002,0.016c0.006,0.018,0.009,0.037,0.015,0.055c0,0.006,0.003,0.012,0.006,0.018
			c0.004,0.016,0.011,0.033,0.019,0.051c0.02,0.045,0.042,0.09,0.07,0.131l3.98,5.973c0,0,0.001,0,0.001,0.002
			c0.017,0.023,0.034,0.047,0.053,0.068c0.006,0.008,0.013,0.014,0.018,0.02c0.014,0.016,0.025,0.027,0.041,0.039
			c0.008,0.008,0.016,0.016,0.024,0.024c0.015,0.012,0.029,0.025,0.045,0.035c0.007,0.004,0.014,0.01,0.021,0.016
			c0.021,0.016,0.044,0.027,0.068,0.041c0.005,0.004,0.013,0.008,0.018,0.01c0.02,0.01,0.039,0.018,0.06,0.025
			c0.008,0.004,0.016,0.006,0.021,0.01c0.021,0.006,0.041,0.012,0.06,0.016c0.009,0.004,0.017,0.006,0.024,0.008
			c0.021,0.004,0.042,0.008,0.062,0.01c0.008,0.004,0.015,0.004,0.022,0.006c0.026,0.002,0.052,0.004,0.078,0.004
			c0.002,0,0.004,0,0.006,0c0,0,0.002,0,0.003,0h8.212v5.228c0,1.785-1.45,3.236-3.235,3.236H4.723
			c-1.784,0-3.236-1.451-3.236-3.236c0-0.002,0-0.008,0-0.012v-2.976c0-0.411-0.335-0.746-0.747-0.746
			c-0.411,0-0.747,0.335-0.747,0.746v2.987c0,0.008,0,0.016,0,0.023C0.006,44.893,2.123,47,4.723,47h38.532
			c2.608,0,4.729-2.119,4.729-4.729l0,0v-5.228h0.747c1.234,0,2.24-1.003,2.24-2.24V22.854
			C50.971,21.619,49.965,20.615,48.73,20.615z M9.243,3.375L22.419,7.14c0,0,0.001,0,0.002,0l8.83,2.523H7.67L9.243,3.375z
			 M46.49,14.93c-0.847-0.796-1.983-1.285-3.235-1.285h-0.004H4.723c-1.785,0-3.236-1.452-3.236-3.236
			c0-1.784,1.451-3.236,3.236-3.236h2.031l-0.623,2.49H4.723c-0.413,0-0.747,0.334-0.747,0.747c0,0.412,0.334,0.746,0.747,0.746
			h1.989c0.001,0,0.002,0.001,0.003,0.001c0.001,0,0.002-0.001,0.002-0.001H36.58c0.002,0,0.004,0.001,0.004,0.001
			c0.001,0,0.002-0.001,0.002-0.001h5.673c0.411,0,0.747-0.334,0.747-0.746c0-0.413-0.336-0.747-0.747-0.747h-5.57l-8.716-2.49
			h15.282c1.785,0,3.235,1.452,3.235,3.236V14.93z M49.478,34.803L49.478,34.803c0,0.412-0.337,0.747-0.747,0.747H38.674
			l-3.485-5.226l3.485-5.229H48.73c0.01,0,0.02-0.002,0.03-0.002c0.251-0.004,0.493-0.047,0.717-0.127V34.803z M48.73,23.601
			c-0.005,0-0.01,0-0.015,0.001h-0.732v-1.493h0.747c0.41,0,0.747,0.334,0.747,0.746C49.478,23.266,49.141,23.601,48.73,23.601z"/>
	</g>
</g>
<g>
	<g>
		<path fill="#010101" d="M41.298,26.844c-1.506,0-2.729,1.223-2.729,2.729c0,1.503,1.224,2.729,2.729,2.729
			c1.503,0,2.728-1.226,2.728-2.729C44.025,28.066,42.801,26.844,41.298,26.844z M41.298,30.812c-0.686,0-1.241-0.556-1.241-1.239
			c0-0.685,0.556-1.24,1.241-1.24c0.684,0,1.239,0.556,1.239,1.24C42.537,30.256,41.981,30.812,41.298,30.812z"/>
	</g>
</g>
</svg>
