<svg width="66" height="66" viewBox="0 0 66 66" fill="none" xmlns="http://www.w3.org/2000/svg">

<simbol id="icon-circle-phone" fill="none" fill-rule="evenodd"><path fill="#DCBE84" fill-rule="nonzero" d="M32.62 36.79c1.44 2.83 3.76 5.14 6.59 6.59l2.2-2.2c.27-.27.67-.36 1.02-.24 1.12.37 2.33.57 3.57.57.55 0 1 .45 1 1V46c0 .55-.45 1-1 1-9.39 0-17-7.61-17-17 0-.55.45-1 1-1h3.5c.55 0 1 .45 1 1 0 1.25.2 2.45.57 3.57.11.35.03.74-.25 1.02l-2.2 2.2z"></path><path stroke="#DCBE84" d="M43.606 63.95L37.576 68l-6.05-4.02-7.19 1.032-3.708-6.247-6.927-2.19-.628-7.237-5.291-4.977 2.574-6.793-2.608-6.78 5.266-5.005.593-7.24 6.915-2.224 3.676-6.265 7.196.997L37.424 7l6.05 4.02 7.19-1.033 3.708 6.247 6.927 2.19.628 7.237 5.291 4.977-2.574 6.793 2.608 6.78-5.266 5.005-.593 7.24-6.915 2.224-3.676 6.265z"></path><path stroke="#DCBE84" d="M38 65.59l-6.898 2.633-5.073-5.365-7.357-.621-2.243-7.035-6.359-3.752 1.032-7.311L7 38l4.102-6.139-1.032-7.311 6.359-3.752 2.243-7.035 7.357-.621 5.073-5.365L38 10.41l6.898-2.633 5.073 5.365 7.357.621 2.243 7.035 6.359 3.752-1.032 7.311L69 38l-4.102 6.139 1.032 7.311-6.359 3.752-2.243 7.035-7.357.621-5.073 5.365z"></path></simbol>
<simbol id="icon-circle-mail" fill="none" fill-rule="evenodd"><path fill="#DCBE84" fill-rule="nonzero" d="M46 30H30c-1.1 0-1.99.9-1.99 2L28 44c0 1.1.9 2 2 2h16c1.1 0 2-.9 2-2V32c0-1.1-.9-2-2-2zm0 4l-8 5-8-5v-2l8 5 8-5v2z"></path><path stroke="#DCBE84" d="M43.606 63.95L37.576 68l-6.05-4.02-7.19 1.032-3.708-6.247-6.927-2.19-.628-7.237-5.291-4.977 2.574-6.793-2.608-6.78 5.266-5.005.593-7.24 6.915-2.224 3.676-6.265 7.196.997L37.424 7l6.05 4.02 7.19-1.033 3.708 6.247 6.927 2.19.628 7.237 5.291 4.977-2.574 6.793 2.608 6.78-5.266 5.005-.593 7.24-6.915 2.224-3.676 6.265z"></path><path stroke="#DCBE84" d="M38 65.59l-6.898 2.633-5.073-5.365-7.357-.621-2.243-7.035-6.359-3.752 1.032-7.311L7 38l4.102-6.139-1.032-7.311 6.359-3.752 2.243-7.035 7.357-.621 5.073-5.365L38 10.41l6.898-2.633 5.073 5.365 7.357.621 2.243 7.035 6.359 3.752-1.032 7.311L69 38l-4.102 6.139 1.032 7.311-6.359 3.752-2.243 7.035-7.357.621-5.073 5.365z"></path></simbol>
<symbol id="icon-play" viewBox="0 0 36 36" fill="ffffff"><path fill-rule="evenodd" d="M36 18c0 9.941-8.059 18-18 18S0 27.941 0 18 8.059 0 18 0s18 8.059 18 18zm-21-3.511v8.022a1 1 0 0 0 1.528.85l6.453-4.012a1 1 0 0 0 0-1.698l-6.453-4.012a1 1 0 0 0-1.528.85z"></path></symbol>
<simbol viewBox="0 0 2012 2027" height="20" id="whatsup"><path fill="white" d="M1487 1212c-25,-14 -146,-79 -169,-88 -23,-10 -39,-15 -57,10 -18,25 -68,80 -84,96 -15,16 -30,18 -55,4 -24,-13 -105,-43 -198,-133 -72,-69 -120,-154 -133,-179 -14,-26 0,-39 13,-51 11,-11 26,-29 39,-43 13,-14 18,-25 27,-41 9,-17 5,-32 -1,-45 -5,-12 -51,-138 -70,-190 -19,-51 -41,-43 -55,-44 -15,0 -32,-3 -49,-4 -16,0 -44,5 -68,29 -24,25 -91,83 -96,207 -5,124 81,248 93,265 12,17 164,286 416,397 253,110 254,76 301,74 46,-2 151,-55 174,-113 23,-59 25,-109 19,-120 -6,-10 -22,-17 -47,-31zm-463 598c-167,0 -322,-50 -452,-136l-316 101 103 -305c-99,-136 -157,-302 -157,-482 0,-454 369,-823 822,-823 453,0 822,369 822,823 0,453 -369,822 -822,822zm0 -1810c-545,0 -987,442 -987,988 0,186 51,361 141,510l-178 529 547 -175c141,79 304,123 477,123 546,0 988,-442 988,-987 0,-546 -442,-988 -988,-988z"></path>
</simbol>
<simbol viewBox="0 0 1521 1642" height="20" id="vider"><path fill="white" fill-rule="nonzero" d="M1349 160c-40,-38 -201,-157 -559,-159 0,0 -17,-1 -46,-1l-11 0c-122,0 -413,18 -573,169 -114,117 -155,289 -159,502 -1,24 -1,49 -1,76 0,222 32,549 367,646l1 0 0 165c0,0 -3,67 40,81 52,16 83,-35 133,-90 27,-30 65,-74 93,-108 257,22 455,-28 478,-36 52,-17 346,-55 394,-455 49,-412 -24,-673 -157,-790zm45 760c-41,334 -279,355 -323,369 -19,7 -193,51 -411,36l-237 263 0 -303 -2 0c-319,-91 -308,-430 -304,-608 3,-178 36,-324 133,-422 175,-162 534,-138 534,-138 303,1 449,95 482,126 112,98 169,333 128,677zm-274 50c0,0 -48,-41 -72,-59 -22,-17 -57,-39 -77,-50 -36,-21 -72,-8 -87,12l-31 40c-16,20 -40,17 -47,15 -46,-11 -94,-40 -144,-88 -51,-49 -81,-100 -92,-153l-1 -3c-3,-22 1,-32 9,-47l2 -1c21,-20 60,-44 65,-66 15,-39 -51,-121 -60,-136 0,0 -49,-64 -66,-76 -18,-15 -47,-24 -76,-6l-1 1c-83,56 -114,88 -105,137l4 19c42,133 123,275 245,401 120,124 250,199 378,251 33,11 68,1 103,-29l1 0c27,-26 48,-53 64,-82l0 0c16,-31 11,-60 -12,-80zm-200 -291c-5,0 -9,-4 -9,-9 -2,-35 -11,-61 -28,-79 -16,-17 -41,-27 -73,-29 -6,0 -10,-5 -9,-10 0,-6 4,-10 10,-9 37,2 66,13 86,35 20,21 31,51 33,91 0,5 -4,10 -9,10l-1 0zm95 32l0 0c-5,0 -10,-4 -9,-10 1,-66 -18,-122 -58,-166 -20,-22 -43,-39 -71,-52 -28,-12 -60,-20 -96,-22 -5,-1 -9,-5 -8,-11 0,-5 5,-9 10,-9 76,6 137,33 179,81 43,48 64,108 63,180 0,5 -5,9 -10,9zm97 39c-5,0 -9,-4 -9,-9 -1,-59 -10,-112 -27,-158 -17,-45 -42,-85 -75,-119 -34,-33 -72,-59 -114,-75 -41,-17 -88,-26 -138,-26 -5,0 -9,-5 -9,-10 0,-6 4,-10 10,-10l0 0c104,1 193,37 264,107 35,36 62,78 80,126 18,48 27,104 28,164 0,6 -4,10 -10,10l0 0z"></path>
</simbol>
<simbol height="20" viewBox="0 0 27 27" fill="none" id="foot-phone"><path d="M7.39035 2.0769L4.15381 5.93405V10.0879L7.39035 17.6538L12.7846 23.2912L17.1 24.9231L21.8077 23.2912L20.925 20.1264L18.2769 17.6538L14.3048 18.7912L9.00862 10.978L11.6567 7.81317L10.5778 4.54943L7.39035 2.0769Z" fill="white"></path></simbol>
<simbol id="percent" stroke="currentColor" stroke-linecap="round" stroke-linejoin="round" stroke-width="2" viewBox="0 0 24 24" width="20" xmlns="http://www.w3.org/2000/svg" height="20" fill="#ffffff"><line x1="19" x2="5" y1="5" y2="19"/><circle cx="6.5" cy="6.5" r="2.5"/><circle cx="17.5" cy="17.5" r="2.5"/></simbol>
</svg>


