<svg width="31" height="31" viewBox="0 0 31 31" fill="none" xmlns="http://www.w3.org/2000/svg">
    <defs>
        <style>
            g {
            display: none;
            }
            g:target {
            display: inline;
            }
            g:target:hover path {
            fill:#dcbe84;
            }
        </style>
    </defs>
    <g id="white">
        <path d="M23.0907 9.44907L20.4152 22.0668C20.2134 22.9574 19.687 23.1789 18.9389 22.7595L14.8623 19.7554L12.8953 21.6473C12.6777 21.8649 12.4955 22.0471 12.076 22.0471L12.3689 17.8952L19.9244 11.0678C20.253 10.7749 19.8532 10.6127 19.4139 10.9056L10.0733 16.7869L6.05213 15.5284C5.17743 15.2552 5.16168 14.6537 6.23418 14.2342L21.9627 8.17462C22.6909 7.90158 23.3281 8.33689 23.0907 9.44907Z"
              fill="white"/>
        <path d="M15.5 1C23.5081 1 30 7.49187 30 15.5C30 23.5081 23.5081 30 15.5 30C7.49187 30 1 23.5081 1 15.5C1 7.49187 7.49187 1 15.5 1Z"
              stroke="white" stroke-width="1.5" />
    </g>
    <g id="yellow">
        <path d="M23.0907 9.44907L20.4152 22.0668C20.2134 22.9574 19.687 23.1789 18.9389 22.7595L14.8623 19.7554L12.8953 21.6473C12.6777 21.8649 12.4955 22.0471 12.076 22.0471L12.3689 17.8952L19.9244 11.0678C20.253 10.7749 19.8532 10.6127 19.4139 10.9056L10.0733 16.7869L6.05213 15.5284C5.17743 15.2552 5.16168 14.6537 6.23418 14.2342L21.9627 8.17462C22.6909 7.90158 23.3281 8.33689 23.0907 9.44907Z"
              fill="#b39253"/>
        <path d="M15.5 1C23.5081 1 30 7.49187 30 15.5C30 23.5081 23.5081 30 15.5 30C7.49187 30 1 23.5081 1 15.5C1 7.49187 7.49187 1 15.5 1Z"
              stroke="#b39253" stroke-width="1.5" />
    </g>
</svg>
