<svg width="20" height="20" viewBox="0 0 2012 2027" fill="none" xmlns="http://www.w3.org/2000/svg">
<path fill="white" d="M1487 1212c-25,-14 -146,-79 -169,-88 -23,-10 -39,-15 -57,10 -18,25 -68,80 -84,96 -15,16 -30,18 -55,4 -24,-13 -105,-43 -198,-133 -72,-69 -120,-154 -133,-179 -14,-26 0,-39 13,-51 11,-11 26,-29 39,-43 13,-14 18,-25 27,-41 9,-17 5,-32 -1,-45 -5,-12 -51,-138 -70,-190 -19,-51 -41,-43 -55,-44 -15,0 -32,-3 -49,-4 -16,0 -44,5 -68,29 -24,25 -91,83 -96,207 -5,124 81,248 93,265 12,17 164,286 416,397 253,110 254,76 301,74 46,-2 151,-55 174,-113 23,-59 25,-109 19,-120 -6,-10 -22,-17 -47,-31zm-463 598c-167,0 -322,-50 -452,-136l-316 101 103 -305c-99,-136 -157,-302 -157,-482 0,-454 369,-823 822,-823 453,0 822,369 822,823 0,453 -369,822 -822,822zm0 -1810c-545,0 -987,442 -987,988 0,186 51,361 141,510l-178 529 547 -175c141,79 304,123 477,123 546,0 988,-442 988,-987 0,-546 -442,-988 -988,-988z"></path>
</svg>


