<?xml version="1.0" encoding="utf-8"?>
<!-- Generator: Adobe Illustrator 16.2.0, SVG Export Plug-In . SVG Version: 6.00 Build 0)  -->
<!DOCTYPE svg PUBLIC "-//W3C//DTD SVG 1.1//EN" "http://www.w3.org/Graphics/SVG/1.1/DTD/svg11.dtd">
<svg version="1.1" id="Layer_1" xmlns="http://www.w3.org/2000/svg" xmlns:xlink="http://www.w3.org/1999/xlink" x="0px" y="0px"
	 width="30px" height="30px" viewBox="0 0 30 30" enable-background="new 0 0 30 30" xml:space="preserve">
<g id="yellow">
	<path fill="#B39253" d="M28.821,9.162c-0.755-1.787-1.837-3.391-3.214-4.768s-2.981-2.459-4.768-3.215C18.99,0.397,17.025,0,15,0
		c-2.024,0-3.989,0.396-5.838,1.179C7.375,1.935,5.771,3.016,4.394,4.393C3.017,5.771,1.935,7.375,1.179,9.161
		C0.397,11.01,0,12.975,0,14.999s0.396,3.989,1.179,5.839c0.755,1.787,1.837,3.391,3.214,4.768c1.377,1.378,2.981,2.459,4.768,3.215
		C11.01,29.604,12.975,30,15,30l0,0c2.025,0,3.989-0.396,5.839-1.18c1.786-0.755,3.39-1.836,4.768-3.213
		c1.377-1.378,2.458-2.982,3.214-4.768c0.783-1.85,1.18-3.814,1.18-5.839C30,12.976,29.604,11.012,28.821,9.162z M15,28.604
		L15,28.604c-3.634,0-7.05-1.416-9.62-3.984c-2.569-2.57-3.984-5.986-3.984-9.62c0-7.5,6.103-13.603,13.604-13.603
		c3.634,0,7.05,1.416,9.618,3.985c2.57,2.57,3.984,5.986,3.984,9.62C28.604,22.502,22.5,28.604,15,28.604z"/>
	<path fill="#B39253" d="M18.338,8.784c-1.701-0.05-3.401-0.062-5.102-0.036C8.423,8.84,6.403,8.767,6.161,12.469
		c-0.052,1.566-0.056,3.129-0.011,4.695c0.24,4.038,1.535,3.964,7.087,4.09c1.551,0.023,3.102,0.016,4.652-0.023
		c3.904-0.107,5.721-0.012,5.962-4.068c0.045-1.564,0.041-3.127-0.011-4.693C23.598,8.751,21.504,8.875,18.338,8.784z
		 M13.196,17.311c-0.01-1.68-0.009-3.359,0.002-5.038c1.561,0.828,3.14,1.681,4.715,2.519C16.34,15.627,14.76,16.48,13.196,17.311z"
		/>
</g>
</svg>
