<?xml version="1.0" encoding="utf-8"?>
<!-- Generator: Adobe Illustrator 16.2.0, SVG Export Plug-In . SVG Version: 6.00 Build 0)  -->
<!DOCTYPE svg PUBLIC "-//W3C//DTD SVG 1.1//EN" "http://www.w3.org/Graphics/SVG/1.1/DTD/svg11.dtd">
<svg version="1.1" id="Layer_1" xmlns="http://www.w3.org/2000/svg" xmlns:xlink="http://www.w3.org/1999/xlink" x="0px" y="0px"
	 width="40px" height="40px" viewBox="0 0 40 40" enable-background="new 0 0 40 40" xml:space="preserve">
<circle fill="none" stroke="#010101" stroke-width="2" stroke-linecap="round" stroke-miterlimit="10" cx="20" cy="20" r="18.84"/>
<rect x="0.375" y="0.375" fill="none" width="39.25" height="39.25"/>
<g>
	<path fill="#010101" d="M18.849,24.244v-1.153c0-1.127,0.253-1.717,0.843-2.535l1.888-2.59c0.983-1.352,1.321-1.999,1.321-2.956
		c0-1.605-1.125-2.619-2.731-2.619c-1.576,0-2.59,0.957-2.928,2.675c-0.028,0.168-0.14,0.253-0.31,0.225l-1.773-0.31
		c-0.169-0.028-0.253-0.141-0.227-0.311c0.424-2.702,2.367-4.476,5.295-4.476c3.04,0,5.094,1.999,5.094,4.786
		c0,1.352-0.477,2.337-1.436,3.661L22,21.231c-0.562,0.761-0.73,1.154-0.73,2.109v0.901c0,0.17-0.114,0.281-0.282,0.281H19.13
		C18.96,24.527,18.849,24.413,18.849,24.244z M18.708,26.948c0-0.168,0.112-0.281,0.282-0.281h2.14c0.168,0,0.28,0.113,0.28,0.281
		v2.42c0,0.171-0.113,0.282-0.28,0.282h-2.14c-0.17,0-0.282-0.111-0.282-0.282V26.948z"/>
</g>
</svg>
