<?xml version="1.0" encoding="utf-8"?>
<!-- Generator: Adobe Illustrator 16.2.0, SVG Export Plug-In . SVG Version: 6.00 Build 0)  -->
<!DOCTYPE svg PUBLIC "-//W3C//DTD SVG 1.1//EN" "http://www.w3.org/Graphics/SVG/1.1/DTD/svg11.dtd">
<svg version="1.1" id="Layer_1" xmlns="http://www.w3.org/2000/svg" xmlns:xlink="http://www.w3.org/1999/xlink" x="0px" y="0px"
	 width="30px" height="30px" viewBox="0 0 30 30" enable-background="new 0 0 30 30" xml:space="preserve">
<g id="yellow">
	<path fill="#B39253" d="M28.821,9.162c-0.755-1.787-1.837-3.391-3.214-4.768s-2.981-2.459-4.768-3.215C18.99,0.397,17.025,0,15,0
		c-2.024,0-3.989,0.396-5.838,1.179C7.375,1.935,5.771,3.016,4.394,4.393C3.017,5.771,1.935,7.375,1.179,9.161
		C0.397,11.01,0,12.975,0,14.999s0.396,3.989,1.179,5.839c0.755,1.787,1.837,3.391,3.214,4.768c1.377,1.378,2.981,2.459,4.768,3.215
		C11.01,29.604,12.975,30,15,30l0,0c2.025,0,3.988-0.396,5.839-1.179c1.786-0.756,3.39-1.837,4.768-3.214
		c1.377-1.378,2.458-2.982,3.214-4.768c0.783-1.85,1.18-3.814,1.18-5.839C30,12.976,29.604,11.012,28.821,9.162z M15,28.604
		L15,28.604c-3.634,0-7.05-1.416-9.62-3.984c-2.569-2.57-3.984-5.986-3.984-9.62c0-7.5,6.103-13.603,13.604-13.603
		c3.634,0,7.05,1.416,9.618,3.985c2.57,2.57,3.984,5.986,3.984,9.62C28.604,22.502,22.5,28.604,15,28.604z"/>
	<circle fill="#B39253" cx="19.3" cy="10.681" r="0.971"/>
	<path fill="#B39253" d="M15,19.217c-2.325,0-4.216-1.893-4.216-4.217c0-2.325,1.892-4.216,4.216-4.216
		c2.324,0,4.217,1.892,4.217,4.216C19.217,17.324,17.324,19.217,15,19.217z M15,12.102c-1.598,0-2.898,1.3-2.898,2.898
		s1.3,2.898,2.898,2.898s2.898-1.301,2.898-2.898S16.598,12.102,15,12.102z"/>
	<path fill="#B39253" d="M17.686,23.438h-5.371c-3.029,0-5.493-2.464-5.493-5.493v-5.889c0-3.029,2.464-5.493,5.493-5.493h5.37
		c3.029,0,5.493,2.464,5.493,5.493v5.889C23.178,20.974,20.714,23.438,17.686,23.438z M12.315,7.881
		c-2.302,0-4.175,1.873-4.175,4.175v5.889c0,2.302,1.873,4.175,4.175,4.175h5.37c2.302,0,4.175-1.873,4.175-4.175v-5.889
		c0-2.302-1.873-4.175-4.175-4.175H12.315z"/>
</g>
</svg>
