<?xml version="1.0" encoding="utf-8"?>
<!-- Generator: Adobe Illustrator 16.2.0, SVG Export Plug-In . SVG Version: 6.00 Build 0)  -->
<!DOCTYPE svg PUBLIC "-//W3C//DTD SVG 1.1//EN" "http://www.w3.org/Graphics/SVG/1.1/DTD/svg11.dtd">
<svg version="1.1" id="Layer_1" xmlns="http://www.w3.org/2000/svg" xmlns:xlink="http://www.w3.org/1999/xlink" x="0px" y="0px"
	 width="23px" height="24px" viewBox="0 0 23 24" enable-background="new 0 0 23 24" xml:space="preserve">
<g>
	<path fill="#010101" d="M16.272,17.485c0.086,0.029,0.208,0.067,0.352,0.058c0.238-0.01,0.455-0.105,0.627-0.275
		c0.183-0.181,0.276-0.416,0.267-0.663c-0.018-1.583,0.989-2.966,2.493-3.441c0.105-0.028,0.209-0.086,0.284-0.143
		c0.2-0.151,0.324-0.368,0.363-0.596c0.048-0.247-0.021-0.493-0.172-0.702c-0.951-1.27-0.951-2.975-0.009-4.235l0.065-0.076
		c0.038-0.048,0.058-0.085,0.076-0.143c0.01-0.009,0.019-0.047,0.019-0.057c0.077-0.237,0.049-0.493-0.057-0.702
		c-0.114-0.227-0.313-0.388-0.552-0.463c-1.502-0.474-2.512-1.849-2.492-3.421c0-0.114-0.02-0.228-0.057-0.322
		c-0.076-0.228-0.247-0.417-0.476-0.531c-0.229-0.104-0.466-0.113-0.695-0.038c-0.371,0.123-0.761,0.189-1.15,0.189
		c-1.161-0.019-2.256-0.577-2.92-1.516c-0.067-0.095-0.144-0.17-0.22-0.218c-0.418-0.294-1.008-0.199-1.303,0.218
		c-0.666,0.938-1.759,1.497-2.911,1.497c-0.39,0-0.78-0.066-1.132-0.189c-0.314-0.113-0.723-0.028-0.97,0.228
		c-0.182,0.18-0.276,0.417-0.268,0.663c0.02,1.583-0.989,2.957-2.492,3.431c-0.105,0.029-0.2,0.076-0.305,0.151
		C2.23,6.492,2.145,7.08,2.449,7.487c0.952,1.27,0.952,2.975,0,4.246c-0.057,0.085-0.105,0.18-0.133,0.265
		c-0.076,0.236-0.058,0.474,0.067,0.712c0.123,0.217,0.313,0.377,0.542,0.453c1.512,0.483,2.51,1.868,2.492,3.423
		c-0.009,0.112,0.01,0.226,0.047,0.341c0.076,0.227,0.248,0.418,0.476,0.53c0.219,0.104,0.476,0.114,0.704,0.038
		c0.38-0.125,0.771-0.19,1.161-0.19c1.16,0,2.216,0.551,2.901,1.498c0.057,0.087,0.134,0.161,0.218,0.219
		c0.164,0.113,0.344,0.171,0.542,0.171c0.058,0,0.106-0.01,0.164-0.01c0.246-0.048,0.465-0.182,0.599-0.38
		C13.151,17.515,14.778,16.982,16.272,17.485z M11.477,18.263c-0.846-1.185-2.216-1.896-3.662-1.896
		c-0.495,0-0.99,0.085-1.456,0.246c0.028-1.99-1.237-3.733-3.138-4.33c1.198-1.603,1.198-3.764-0.01-5.355
		c1.912-0.597,3.187-2.341,3.148-4.322c0.466,0.162,0.952,0.237,1.447,0.237c1.455,0,2.834-0.71,3.661-1.895
		c0.848,1.185,2.217,1.895,3.684,1.895c0.493,0,0.979-0.085,1.436-0.237c-0.019,1.981,1.246,3.715,3.148,4.293l-0.009,0.009
		c-1.198,1.602-1.189,3.762,0.02,5.355c-1.913,0.596-3.188,2.339-3.159,4.332h-0.01C14.684,15.959,12.619,16.622,11.477,18.263z"/>
	<path fill="#010101" d="M11.477,5.336c-2.359,0-4.28,1.914-4.28,4.265c0,2.35,1.921,4.266,4.28,4.266
		c2.36,0,4.281-1.916,4.281-4.266C15.758,7.25,13.837,5.336,11.477,5.336z M11.477,12.936c-1.845,0-3.339-1.497-3.339-3.326
		c0-1.829,1.503-3.327,3.339-3.327c1.836,0,3.339,1.498,3.339,3.327C14.816,11.439,13.313,12.936,11.477,12.936z"/>
	<path fill="#010101" d="M8.271,18.89c-0.219-0.145-0.514-0.087-0.656,0.132l-2.273,3.477l-1.17-2.378
		c-0.076-0.161-0.238-0.267-0.419-0.267l-2.406-0.009l2.378-3.629C3.772,16.14,3.8,16.054,3.8,15.959l0,0
		c0-0.256-0.21-0.464-0.475-0.464c-0.171,0-0.324,0.095-0.399,0.227l-2.845,4.342c-0.095,0.144-0.105,0.331-0.02,0.483
		c0.086,0.151,0.238,0.246,0.409,0.246l2.987,0.01l1.408,2.861c0.076,0.152,0.229,0.256,0.39,0.266c0.01,0,0.019,0,0.028,0
		c0.162,0,0.305-0.076,0.391-0.209l2.73-4.169C8.557,19.324,8.49,19.03,8.271,18.89z"/>
	<path fill="#010101" d="M22.874,20.063l-2.863-4.371c-0.143-0.216-0.437-0.272-0.656-0.132c-0.219,0.143-0.275,0.437-0.133,0.655
		l2.388,3.638l-2.416,0.011c-0.183,0-0.343,0.104-0.42,0.266l-1.17,2.379l-2.282-3.479c-0.144-0.219-0.438-0.274-0.657-0.133
		c-0.22,0.143-0.274,0.436-0.134,0.654l2.74,4.169c0.086,0.133,0.238,0.209,0.391,0.209c0.01,0,0.02,0,0.027,0
		c0.172-0.01,0.323-0.113,0.393-0.266l1.397-2.861l2.986-0.01c0.172,0,0.333-0.095,0.409-0.246
		C22.978,20.385,22.97,20.207,22.874,20.063z"/>
</g>
</svg>
