<svg xmlns="http://www.w3.org/2000/svg" xmlns:xlink="http://www.w3.org/1999/xlink" width="0" height="0" style="position:absolute">
			<symbol id="icon-arrow-down" viewBox="0 0 11 16">
				<path fill-rule="evenodd" d="M5 14.293V0h1v13.95L9.95 10l.707.707L6 15.364V16H5v-.393l-.05.05L0 10.707.707 10 5 14.293z"></path>
			</symbol>
			<symbol id="icon-arrow-left-short" viewBox="0 0 21 7">
				<path fill="#C8A86B" fill-rule="evenodd" d="M1.75 3.072h19.242v.966H1.86l2.316 2.317-.683.683L0 3.545.044 3.5 0 3.455 3.493-.038l.683.683L1.75 3.072z"></path>
			</symbol>
			<symbol id="icon-arrow-left-xlong" viewBox="0 0 50 12">
				<path fill-rule="evenodd" d="M1.922 5.904h48.07v-.966H1.922L6.176.683 5.493 0-.048 5.538l5.541 5.538.683-.683z"></path>
			</symbol>
			<symbol id="icon-arrow-right" viewBox="0 0 30 7">
				<path fill-rule="evenodd" d="M30 3.492v.016l.032.032-.032.033V4h-.427L26.82 6.753l-.86-.86L27.853 4H0V3h27.853L25.96 1.108l.86-.86L29.573 3H30v.427l.032.033-.032.032z"></path>
			</symbol>
			<symbol id="icon-arrow-right-long" viewBox="0 0 40 7">
				<path fill-rule="evenodd" d="M38.304 3.866H0v-.967h38.07L35.816.645l.683-.683 2.938 2.937h.323v.324l.232.232-.044.045.044.045-.232.232v.089h-.089L36.5 7.038l-.683-.683 2.488-2.489z"></path>
			</symbol>
			<symbol id="icon-arrow-right-short" viewBox="0 0 20 7">
				<path fill-rule="evenodd" d="M18.304 3.866H0v-.967h18.07L15.816.645l.683-.683 2.938 2.937h.323v.324l.232.232-.044.045.044.045-.232.232v.089h-.089L16.5 7.038l-.683-.683 2.488-2.489z"></path>
			</symbol>
			<symbol id="icon-arrow-right-xlong" viewBox="0 0 50 12">
				<path fill-rule="evenodd" d="M48.078 6.096H.008v.966h48.07l-4.254 4.255.683.683 5.541-5.538L44.507.924l-.683.683z"></path>
			</symbol>
			<symbol id="icon-arrow-select" viewBox="0 0 10 5">
				<path fill-rule="evenodd" d="M9.243 0L5 4.242.757 0z"></path>
			</symbol>
			<symbol id="icon-bad-1" viewBox="0 0 62 62">
				<g fill="none" fill-rule="evenodd">
					<path stroke="#D6D6D6" d="M9.5 34.5h43V14a1.5 1.5 0 0 0-1.5-1.5H11A1.5 1.5 0 0 0 9.5 14v20.5z"></path>
					<path stroke="#D6D6D6" d="M14.5 34.5h15V27a1.5 1.5 0 0 0-1.5-1.5H16a1.5 1.5 0 0 0-1.5 1.5v7.5zm18 0h15V27a1.5 1.5 0 0 0-1.5-1.5H34a1.5 1.5 0 0 0-1.5 1.5v7.5z"></path>
					<path fill="#C8A86B" d="M5 55h52v1H5z"></path>
					<path fill="#DCBE84" fill-opacity=".2" stroke="#C8A86B" d="M5.5 40.5V48A1.5 1.5 0 0 0 7 49.5h48a1.5 1.5 0 0 0 1.5-1.5v-7.5h-51zm0 0h51V36a1.5 1.5 0 0 0-1.5-1.5H7A1.5 1.5 0 0 0 5.5 36v4.5z"></path>
					<path fill="#C8A86B" d="M5 55.5L8 53v5zm52 0L54 53v5z"></path>
				</g>
			</symbol>
			<symbol id="icon-bad-2" viewBox="0 0 62 62">
				<g fill="none" fill-rule="evenodd">
					<path stroke="#D6D6D6" d="M5.5 40.5V48A1.5 1.5 0 0 0 7 49.5h48a1.5 1.5 0 0 0 1.5-1.5v-7.5h-51z"></path>
					<path fill="#DCBE84" fill-opacity=".2" stroke="#C8A86B" d="M9.5 34.5h43V14a1.5 1.5 0 0 0-1.5-1.5H11A1.5 1.5 0 0 0 9.5 14v20.5z"></path>
					<path stroke="#C8A86B" d="M14.5 34.5h15V27a1.5 1.5 0 0 0-1.5-1.5H16a1.5 1.5 0 0 0-1.5 1.5v7.5zm18 0h15V27a1.5 1.5 0 0 0-1.5-1.5H34a1.5 1.5 0 0 0-1.5 1.5v7.5z"></path>
					<path fill="#C8A86B" d="M2 12h1v22H2z"></path>
					<path stroke="#D6D6D6" d="M5.5 40.5h51V36a1.5 1.5 0 0 0-1.5-1.5H7A1.5 1.5 0 0 0 5.5 36v4.5z"></path>
					<path fill="#C8A86B" d="M2.5 12L5 15H0zm0 22L5 31H0zM9 34h44v1H9z"></path>
				</g>
			</symbol>
			<symbol id="icon-bad-3" viewBox="0 0 62 62">
				<g fill="none" fill-rule="evenodd">
					<path stroke="#D6D6D6" d="M5.5 40.5V48A1.5 1.5 0 0 0 7 49.5h48a1.5 1.5 0 0 0 1.5-1.5v-7.5h-51z"></path>
					<path fill="#DCBE84" fill-opacity=".2" stroke="#C8A86B" d="M9.5 34.5h43V14a1.5 1.5 0 0 0-1.5-1.5H11A1.5 1.5 0 0 0 9.5 14v20.5z"></path>
					<path fill="#C8A86B" d="M9 6h44v1H9z"></path>
					<path fill="#C8A86B" d="M9 6.5L12 4v5zm44 0L50 4v5z"></path>
					<path stroke="#D6D6D6" d="M5.5 40.5h51V36a1.5 1.5 0 0 0-1.5-1.5H7A1.5 1.5 0 0 0 5.5 36v4.5z"></path>
					<path fill="#C8A86B" d="M9 34h44v1H9z"></path>
					<path stroke="#C8A86B" d="M14.5 34.5h15V27a1.5 1.5 0 0 0-1.5-1.5H16a1.5 1.5 0 0 0-1.5 1.5v7.5zm18 0h15V27a1.5 1.5 0 0 0-1.5-1.5H34a1.5 1.5 0 0 0-1.5 1.5v7.5z"></path>
				</g>
			</symbol>
			<symbol id="icon-bad-4" viewBox="0 0 62 62">
				<g fill="none" fill-rule="evenodd">
					<path stroke="#CDCDCD" d="M19.5 34.5h15V27a1.5 1.5 0 0 0-1.5-1.5H21a1.5 1.5 0 0 0-1.5 1.5v7.5zm18 0h15V27a1.5 1.5 0 0 0-1.5-1.5H39a1.5 1.5 0 0 0-1.5 1.5v7.5z"></path>
					<path stroke="#C8A86B" d="M19.5 34.5h15V27a1.5 1.5 0 0 0-1.5-1.5H21a1.5 1.5 0 0 0-1.5 1.5v7.5z"></path>
					<path stroke="#D6D6D6" d="M14.5 49.5h5V52a1.5 1.5 0 0 1-1.5 1.5h-2a1.5 1.5 0 0 1-1.5-1.5v-2.5zm38 0h5V52a1.5 1.5 0 0 1-1.5 1.5h-2a1.5 1.5 0 0 1-1.5-1.5v-2.5z"></path>
					<path stroke="#C8A86B" d="M37.5 34.5h15V27a1.5 1.5 0 0 0-1.5-1.5H39a1.5 1.5 0 0 0-1.5 1.5v7.5z"></path>
					<path fill="#DCBE84" fill-opacity=".2" stroke="#C8A86B" d="M10.5 40.5h51V36a1.5 1.5 0 0 0-1.5-1.5H12a1.5 1.5 0 0 0-1.5 1.5v4.5z"></path>
					<path fill="#C8A86B" d="M4 12h1v38H4z"></path>
					<path fill="#C8A86B" d="M4.5 12L7 15H2zm0 38L7 47H2z"></path>
					<path fill="#DCBE84" fill-opacity=".2" stroke="#C8A86B" d="M10.5 40.5V48a1.5 1.5 0 0 0 1.5 1.5h48a1.5 1.5 0 0 0 1.5-1.5v-7.5h-51zm4-6h43V14a1.5 1.5 0 0 0-1.5-1.5H16a1.5 1.5 0 0 0-1.5 1.5v20.5z"></path>
				</g>
			</symbol>
			<symbol id="icon-calendar" viewBox="0 0 19 17">
				<path fill="none" d="M.5.5h18v16H.5z"></path>
				<path stroke="transparent" d="M3 13h1v1H3zm3 0h1v1H6zm3 0h1v1H9zm3 0h1v1h-1zm3 0h1v1h-1zM3 10h1v1H3zm3 0h1v1H6zm3 0h1v1H9zm3 0h1v1h-1zm3 0h1v1h-1zM3 7h1v1H3zm3 0h1v1H6zm3 0h1v1H9zm3 0h1v1h-1zm3 0h1v1h-1zM0 4h19v1H0z"></path>
			</symbol>
			<symbol id="icon-check" viewBox="0 0 22 22">
				<path fill-rule="evenodd" d="M19.93 4.576l-9.98 9.98-4.243-4.242L5 11.02l4.243 4.242.707.708L20.489 5.43A10.95 10.95 0 0 1 22 11c0 6.075-4.925 11-11 11S0 17.075 0 11 4.925 0 11 0c3.677 0 6.933 1.804 8.93 4.576z"></path>
			</symbol>
			<symbol id="icon-checkbox-icon" viewBox="0 0 17 12">
				<g fill="#FFF" fill-rule="evenodd">
					<path d="M0 8.02l.707-.706 4.95 4.95-.708.706z" transform="translate(0 -1)"></path>
					<path d="M4.243 12.263L15.556.95l.707.707L4.95 12.97z" transform="translate(0 -1)"></path>
				</g>
			</symbol>
			<symbol id="icon-circle-check" viewBox="0 0 81 81">
				<g fill="none" fill-rule="evenodd">
					<path stroke="#C8A86B" d="M45.685 67.029l-6.03 4.05-6.05-4.02-7.19 1.033-3.708-6.247-6.926-2.19-.629-7.236-5.291-4.979 2.573-6.793-2.607-6.78 5.266-5.004.593-7.24 6.916-2.225 3.675-6.265 7.196.997 6.03-4.05 6.05 4.02 7.191-1.033 3.707 6.248 6.927 2.189.629 7.237 5.29 4.977-2.573 6.794 2.607 6.78-5.266 5.004-.592 7.24-6.916 2.224-3.676 6.266z"></path>
					<path stroke="#C8A86B" d="M51.31 65.067l-5.147 5.127-6.707-2.793-6.861 2.386-4.83-5.425-7.218-.827-1.998-6.984-6.143-3.877 1.229-7.16-3.853-6.158 4.215-5.917-.8-7.22 6.365-3.502 2.412-6.853 7.254-.393 5.146-5.127 6.706 2.792 6.862-2.386 4.83 5.425 7.218.827 1.998 6.984 6.144 3.878-1.23 7.159 3.853 6.158-4.215 5.917.8 7.22-6.365 3.503-2.412 6.852z"></path>
					<path fill="#C8A86B" d="M29.414 40.435l7.779 7.779-.707.707-7.779-7.779z"></path>
					<path fill="#C8A86B" d="M50.285 34.364l.707.707-14.143 14.143-.707-.707z"></path>
				</g>
			</symbol>
			<symbol id="icon-circle-error" viewBox="0 0 63 63">
				<g fill="none" fill-rule="evenodd">
					<path stroke="#C1262D" d="M45.685 67.029l-6.03 4.05-6.05-4.02-7.19 1.033-3.708-6.247-6.926-2.19-.629-7.236-5.291-4.979 2.573-6.793-2.607-6.78 5.266-5.004.593-7.24 6.916-2.225 3.675-6.265 7.196.997 6.03-4.05 6.05 4.02 7.191-1.033 3.707 6.248 6.927 2.189.629 7.237 5.29 4.977-2.573 6.794 2.607 6.78-5.266 5.004-.592 7.24-6.916 2.224-3.676 6.266z" transform="translate(-9 -9)"></path>
					<path stroke="#C1262D" d="M51.31 65.067l-5.147 5.127-6.707-2.793-6.861 2.386-4.83-5.425-7.218-.827-1.998-6.984-6.143-3.877 1.229-7.16-3.853-6.158 4.215-5.917-.8-7.22 6.365-3.502 2.412-6.853 7.254-.393 5.146-5.127 6.706 2.792 6.862-2.386 4.83 5.425 7.218.827 1.998 6.984 6.144 3.878-1.23 7.159 3.853 6.158-4.215 5.917.8 7.22-6.365 3.503-2.412 6.852z" transform="translate(-9 -9)"></path>
					<path fill="#C1262D" d="M47.285 32.364l.707.707-14.143 14.143-.707-.707z" transform="translate(-9 -9)"></path>
					<path fill="#C1262D" d="M33.142 33.071l.707-.707 14.143 14.143-.707.707z" transform="translate(-9 -9)"></path>
				</g>
			</symbol>
			<symbol id="icon-circle-mail" viewBox="0 0 75 75">
				<g fill="none" fill-rule="evenodd">
					<path fill="#DCBE84" fill-rule="nonzero" d="M46 30H30c-1.1 0-1.99.9-1.99 2L28 44c0 1.1.9 2 2 2h16c1.1 0 2-.9 2-2V32c0-1.1-.9-2-2-2zm0 4l-8 5-8-5v-2l8 5 8-5v2z"></path>
					<path stroke="#DCBE84" d="M43.606 63.95L37.576 68l-6.05-4.02-7.19 1.032-3.708-6.247-6.927-2.19-.628-7.237-5.291-4.977 2.574-6.793-2.608-6.78 5.266-5.005.593-7.24 6.915-2.224 3.676-6.265 7.196.997L37.424 7l6.05 4.02 7.19-1.033 3.708 6.247 6.927 2.19.628 7.237 5.291 4.977-2.574 6.793 2.608 6.78-5.266 5.005-.593 7.24-6.915 2.224-3.676 6.265z"></path>
					<path stroke="#DCBE84" d="M38 65.59l-6.898 2.633-5.073-5.365-7.357-.621-2.243-7.035-6.359-3.752 1.032-7.311L7 38l4.102-6.139-1.032-7.311 6.359-3.752 2.243-7.035 7.357-.621 5.073-5.365L38 10.41l6.898-2.633 5.073 5.365 7.357.621 2.243 7.035 6.359 3.752-1.032 7.311L69 38l-4.102 6.139 1.032 7.311-6.359 3.752-2.243 7.035-7.357.621-5.073 5.365z"></path>
				</g>
			</symbol>
			<symbol id="icon-circle-phone" viewBox="0 0 75 75">
				<g fill="none" fill-rule="evenodd">
					<path fill="#DCBE84" fill-rule="nonzero" d="M32.62 36.79c1.44 2.83 3.76 5.14 6.59 6.59l2.2-2.2c.27-.27.67-.36 1.02-.24 1.12.37 2.33.57 3.57.57.55 0 1 .45 1 1V46c0 .55-.45 1-1 1-9.39 0-17-7.61-17-17 0-.55.45-1 1-1h3.5c.55 0 1 .45 1 1 0 1.25.2 2.45.57 3.57.11.35.03.74-.25 1.02l-2.2 2.2z"></path>
					<path stroke="#DCBE84" d="M43.606 63.95L37.576 68l-6.05-4.02-7.19 1.032-3.708-6.247-6.927-2.19-.628-7.237-5.291-4.977 2.574-6.793-2.608-6.78 5.266-5.005.593-7.24 6.915-2.224 3.676-6.265 7.196.997L37.424 7l6.05 4.02 7.19-1.033 3.708 6.247 6.927 2.19.628 7.237 5.291 4.977-2.574 6.793 2.608 6.78-5.266 5.005-.593 7.24-6.915 2.224-3.676 6.265z"></path>
					<path stroke="#DCBE84" d="M38 65.59l-6.898 2.633-5.073-5.365-7.357-.621-2.243-7.035-6.359-3.752 1.032-7.311L7 38l4.102-6.139-1.032-7.311 6.359-3.752 2.243-7.035 7.357-.621 5.073-5.365L38 10.41l6.898-2.633 5.073 5.365 7.357.621 2.243 7.035 6.359 3.752-1.032 7.311L69 38l-4.102 6.139 1.032 7.311-6.359 3.752-2.243 7.035-7.357.621-5.073 5.365z"></path>
				</g>
			</symbol>
			<symbol id="icon-close" viewBox="0 0 20 20">
				<path fill="#fff" fill-rule="evenodd" d="M9.546 8.839L18.385 0l.707.707-8.839 8.839 8.839 8.839-.707.707-8.84-8.839-8.838 8.839L0 18.385l8.839-8.84L0 .708.707 0l8.839 8.839z"></path>
			</symbol>
			<symbol id="icon-close-gray" viewBox="0 0 20 20">
				<path fill="#D3D3D3" fill-rule="evenodd" d="M9.546 8.839L18.385 0l.707.707-8.839 8.839 8.839 8.839-.707.707-8.84-8.839-8.838 8.839L0 18.385l8.839-8.84L0 .708.707 0l8.839 8.839z"></path>
			</symbol>
			<symbol id="icon-close-gray-bold" viewBox="0 0 20 20">
				<path fill="#D3D3D3" d="M20 1.41L18.59 0 10 8.59 1.41 0 0 1.41 8.59 10 0 18.59 1.41 20 10 11.41 18.59 20 20 18.59 11.41 10z"></path>
			</symbol>
			<symbol id="icon-logo" viewBox="0 0 137 53">
				<path d="M67.306 24.156v.088c0 1.966-.497 3.341-1.495 4.128-.993.786-2.785 1.18-5.378 1.18H56.56v-9.51h.932c1.85 0 3.044.22 3.571.665.526.442.788 1.306.788 2.593v.251h.427v-7.49h-.427v.12c0 1.317-.29 2.213-.872 2.69-.582.478-1.745.715-3.487.715h-.932v-9.168h3.782c2.159 0 3.63.31 4.413.935.785.625 1.25 1.791 1.396 3.5h.458l-.368-4.865H51.416v.43h2.115v19.134h-.01v.427h14.212v-5.823h-.427zM48.268 42.51c0-1.338.254-2.63.758-3.876a10.652 10.652 0 0 1 2.202-3.38c.918-.96 1.93-1.694 3.035-2.2a8.276 8.276 0 0 1 3.458-.754c2.528 0 4.732 1.016 6.612 3.047 1.88 2.034 2.819 4.421 2.819 7.163a10.1 10.1 0 0 1-.76 3.865 11.275 11.275 0 0 1-2.202 3.415c-.9.96-1.891 1.685-2.972 2.173a8.391 8.391 0 0 1-3.497.734 8.289 8.289 0 0 1-3.47-.746c-1.1-.496-2.105-1.215-3.023-2.161a10.66 10.66 0 0 1-2.202-3.38 10.312 10.312 0 0 1-.758-3.9zm4.36 2.908c0 2.254.42 3.915 1.255 4.985.837 1.072 2.117 1.609 3.838 1.609 1.738 0 3.015-.537 3.828-1.609.816-1.07 1.22-2.73 1.22-4.985V39.58c0-2.254-.404-3.916-1.22-4.987-.813-1.073-2.09-1.608-3.828-1.608-1.72 0-3 .535-3.838 1.608-.836 1.07-1.254 2.733-1.254 4.987v5.838z"></path>
				<path d="M68.498 33.682h-2.75v-.685h2.321c1.012 0 1.898-.047 2.655-.14.758-.096 1.375-.245 1.85-.45v4.326c.914-1.466 1.93-2.554 3.044-3.262 1.112-.71 2.382-1.064 3.803-1.064 1.626 0 2.976.408 4.051 1.218 1.075.811 1.732 1.925 1.968 3.344.962-1.544 2.018-2.69 3.162-3.44 1.145-.748 2.437-1.122 3.874-1.122 1.91 0 3.416.54 4.514 1.62 1.098 1.079 1.646 2.557 1.646 4.431v13.117h2.82v.686h-9.572v-.686h2.723v-14.51c0-1.434-.197-2.415-.591-2.945-.396-.527-1.09-.79-2.085-.79-1.216 0-2.334.377-3.352 1.133-1.02.757-2.02 1.962-2.997 3.617v13.495H88.4v.686h-9.548v-.686h2.702v-14.51c0-1.434-.198-2.415-.594-2.945-.394-.527-1.082-.79-2.061-.79-1.264 0-2.41.389-3.447 1.17-1.037.78-1.995 1.972-2.879 3.58v13.495h2.678v.686h-9.503v-.686h2.75V33.682zm52.836 15.983c-.727.898-1.414 1.54-2.06 1.927a4.088 4.088 0 0 1-2.133.578c-1.012 0-1.856-.264-2.536-.79-.678-.53-1.122-1.28-1.328-2.259a5.92 5.92 0 0 1-2.664 2.413c-1.146.534-2.556.803-4.231.803-1.61 0-2.948-.466-4.003-1.395-1.058-.93-1.588-2.08-1.588-3.452 0-2.079 1.047-3.69 3.139-4.834 2.094-1.14 5.061-1.713 8.898-1.713h.238V36.05c0-1.228-.294-2.114-.876-2.657-.586-.543-1.536-.817-2.845-.817-1.105 0-2.077.27-2.913.806-.84.534-1.257 1.054-1.257 1.56 0 .046.224.281.676.709.448.425.673.897.673 1.418 0 .708-.188 1.266-.567 1.677-.378.41-.884.614-1.518.614-.68 0-1.22-.208-1.623-.626-.404-.417-.603-.972-.603-1.665 0-1.436.687-2.656 2.062-3.665 1.376-1.008 3.096-1.512 5.166-1.512 1.025 0 1.989.143 2.89.426.9.283 1.744.709 2.536 1.276.757.552 1.28 1.125 1.56 1.726.288.597.429 1.575.429 2.93v9.713c0 1.041.12 1.809.368 2.307.244.494.61.743 1.101.743.378 0 .755-.135 1.126-.402.371-.267.816-.75 1.338-1.442l.545.496zm-8.268-1.464v-6.524a9.07 9.07 0 0 0-.57-.034 20.927 20.927 0 0 0-.876-.015c-2.243 0-3.907.436-4.988 1.3-1.082.869-1.623 2.206-1.623 4.02 0 1.371.298 2.434.902 3.19.598.757 1.435 1.134 2.51 1.134.948 0 1.845-.275 2.69-.826a5.501 5.501 0 0 0 1.955-2.245zm12.487.165c0 1.071.16 1.832.474 2.279.317.45.854.674 1.611.674.806 0 1.509-.232 2.109-.696.6-.466 1.052-1.124 1.35-1.974h.711c-.364 1.183-.966 2.092-1.81 2.73-.847.638-1.878.958-3.093.958a6.302 6.302 0 0 1-2.192-.38 4.977 4.977 0 0 1-1.766-1.086 3.168 3.168 0 0 1-.815-1.24c-.167-.467-.25-1.132-.25-1.998V33.168h-3.365v-.686c1.912 0 3.383-.511 4.406-1.534 1.027-1.025 1.715-2.656 2.063-4.894h.567v6.428h5.378v.686h-5.378v15.198zm-91.948-3.583h-.045V31.255h.045V18.946a7.334 7.334 0 0 1-2.075.885c-.717.183-1.526.273-2.426.273H26.78v.684h2.75v30.679h-2.75v.686h9.504v-.686h-2.68v-6.684z"></path>
				<path d="M46.614 51.525V48.9h-.002v-.46h.002V38.351c0-1.874-.55-3.353-1.648-4.432-1.098-1.08-2.604-1.619-4.514-1.619-1.42 0-2.688.354-3.8 1.063-.705.449-1.367 1.067-1.992 1.817v1.145c.578-.796 1.186-1.454 1.825-1.934 1.034-.78 2.183-1.17 3.446-1.17.979 0 1.665.265 2.062.792.393.527.591 1.508.591 2.943v10.128h-.002v4.441h-2.697v.685h9.547v-.685h-2.818zM26.86 46.943a11.404 11.404 0 0 1-1.734 1.594c-1.482 1.047-3.743 2.082-7.064 2.347-.643.051-1.198.057-1.69.035v.002s-.375.02-.982-.061c-.026-.001-9.413-.322-9.413-15.311 0 0-.002-.11 0-.293 0-.096-.005-.182-.005-.278l.011-.104c.08-2.928.884-14.408 8.626-15.135.249-.03.503-.045.766-.04h.017c.332.01.675.043 1.029.11.308.04.62.103.94.202.798.255 1.55.645 2.267 1.143.055.032.107.062.16.097l-.005.016c.492.355.968.75 1.422 1.219 1.853 1.919 2.938 4.36 3.253 7.322h.612v-9.52h-.612c-.032.626-.158 1.104-.379 1.432-.22.33-.534.496-.942.496-.33 0-.866-.237-1.602-.707l-.66-.4a5.432 5.432 0 0 0-.353-.211c-2.215-1.301-4.266-1.952-6.15-1.952-1.873 0-3.666.42-5.387 1.258-1.72.839-3.256 2.033-4.606 3.585-1.366 1.584-2.42 3.447-3.158 5.594a20.17 20.17 0 0 0-.862 3.579A19.66 19.66 0 0 0 0 36.699c0 2.07.346 3.967 1.041 5.694.695 1.726 1.769 3.362 3.228 4.91C5.718 48.82 7.32 50 9.065 50.858c1.023.416 7.848 2.959 13.835-.17 1.784-.667 3.436-1.912 4.95-3.733v-1.3c-.303.45-.63.883-.989 1.29M35.016.157v.639h3.374v28.546h-3.374v.637h16.902v-.637h-8.966V.796h3.197V.157zm98.646 24.423c.353 0 .697.07 1.032.208.335.138.627.332.878.583.249.248.441.54.578.875.134.334.203.68.203 1.042 0 .35-.071.692-.213 1.026a2.811 2.811 0 0 1-.606.892 2.607 2.607 0 0 1-.863.575c-.321.13-.668.196-1.04.196-.351 0-.689-.067-1.012-.201a2.732 2.732 0 0 1-.872-.586 2.642 2.642 0 0 1-.796-1.91 2.728 2.728 0 0 1 .788-1.909c.251-.253.543-.448.876-.585a2.734 2.734 0 0 1 1.047-.205zm0 .316a2.373 2.373 0 0 0-1.684.707 2.374 2.374 0 0 0-.696 1.683c0 .324.059.63.178.914.12.286.295.542.525.77a2.313 2.313 0 0 0 1.668.692 2.287 2.287 0 0 0 1.67-.693c.225-.229.398-.488.519-.776.12-.288.18-.59.18-.907 0-.316-.06-.624-.182-.923a2.216 2.216 0 0 0-.51-.768 2.346 2.346 0 0 0-.771-.516 2.303 2.303 0 0 0-.897-.183zm-1.442.796h1.511c.376 0 .675.071.893.21.22.14.329.327.329.562 0 .194-.089.352-.266.475-.18.123-.457.219-.838.287.239.075.421.174.547.298.126.124.216.294.274.512.014.056.028.137.042.242.032.224.108.337.227.337.081 0 .144-.044.19-.13a.85.85 0 0 0 .067-.38h.165v.046c0 .226-.053.396-.156.512-.103.116-.257.175-.46.175a.65.65 0 0 1-.3-.065.428.428 0 0 1-.188-.188 1.205 1.205 0 0 1-.08-.435 2.146 2.146 0 0 0-.034-.367.663.663 0 0 0-.272-.386c-.13-.083-.304-.125-.524-.125h-.127v.952c0 .138.033.234.101.29.069.054.194.087.378.097v.153h-1.48v-.153c.185-.007.312-.039.383-.093.07-.056.106-.153.106-.294v-1.978c0-.142-.034-.239-.1-.292-.066-.054-.196-.086-.388-.096v-.166zm1 1.432l.123.005c.04.002.084.002.13.002.287 0 .51-.058.667-.174a.576.576 0 0 0 .236-.493.56.56 0 0 0-.203-.451c-.137-.114-.319-.17-.55-.17a.532.532 0 0 0-.302.07.235.235 0 0 0-.101.206v1.005z"></path>
			</symbol>
			<symbol id="icon-logo-symbol" viewBox="0 0 80 100">
				<g fill="#C8A86B" fill-rule="evenodd">
					<path d="M78.729 74.173H80v23.014h-1.271c-.267-1.575-.664-2.772-1.207-3.593-.542-.821-1.213-1.23-2.035-1.23-.821 0-2.276.737-4.37 2.212-.623.435-1.1.752-1.428.954l-.095.103C65.371 98.543 61.262 100 57.265 100c-3.728 0-7.406-.948-11.02-2.84-3.62-1.89-6.914-4.58-9.9-8.062-2.844-3.381-4.948-6.958-6.305-10.728C28.68 74.6 28 70.455 28 65.934c0-5.158.77-10.036 2.306-14.626 1.538-4.586 3.734-8.572 6.585-11.958 2.814-3.315 6.013-5.868 9.597-7.663C50.076 29.897 53.815 29 57.708 29c3.928 0 8.2 1.39 12.821 4.172.29.165.531.317.73.452.33.201.786.484 1.38.855 1.534 1.004 2.647 1.506 3.337 1.506.855 0 1.504-.35 1.965-1.056.458-.704.72-1.725.788-3.068H80v20.354h-1.271c-.655-6.331-2.914-11.549-6.778-15.651-3.862-4.105-8.384-6.155-13.554-6.155-6.45 0-11.263 2.904-14.437 8.716-3.175 5.811-4.763 14.615-4.763 26.404 0 5.161.321 9.734.955 13.718.641 3.988 1.567 7.12 2.775 9.399 1.573 3.015 3.676 5.4 6.31 7.159 2.64 1.76 5.349 2.64 8.129 2.64 3.339 0 6.607-.982 9.792-2.94 3.197-1.96 5.903-4.68 8.128-8.166.986-1.506 1.744-3.284 2.287-5.327.54-2.042.923-4.656 1.156-7.839"></path>
					<path d="M53.628 45v1.712c0 6.967-1.581 11.695-4.76 14.18-1.687 1.322-4.33 2.281-7.868 2.9V66h14V45h-1.372zM17.835 64.554V1.412h7.157V0H.069v1.412h7.554v63.142H0V66h25v-1.446z"></path>
				</g>
			</symbol>
			<symbol id="icon-logo-symbol-light" viewBox="0 0 80 100">
				<g fill="#EDD3A3" fill-rule="evenodd">
					<path d="M78.729 74.173H80v23.014h-1.271c-.267-1.575-.664-2.772-1.207-3.593-.542-.821-1.213-1.23-2.035-1.23-.821 0-2.276.737-4.37 2.212-.623.435-1.1.752-1.428.954l-.095.103C65.371 98.543 61.262 100 57.265 100c-3.728 0-7.406-.948-11.02-2.84-3.62-1.89-6.914-4.58-9.9-8.062-2.844-3.381-4.948-6.958-6.305-10.728C28.68 74.6 28 70.455 28 65.934c0-5.158.77-10.036 2.306-14.626 1.538-4.586 3.734-8.572 6.585-11.958 2.814-3.315 6.013-5.868 9.597-7.663C50.076 29.897 53.815 29 57.708 29c3.928 0 8.2 1.39 12.821 4.172.29.165.531.317.73.452.33.201.786.484 1.38.855 1.534 1.004 2.647 1.506 3.337 1.506.855 0 1.504-.35 1.965-1.056.458-.704.72-1.725.788-3.068H80v20.354h-1.271c-.655-6.331-2.914-11.549-6.778-15.651-3.862-4.105-8.384-6.155-13.554-6.155-6.45 0-11.263 2.904-14.437 8.716-3.175 5.811-4.763 14.615-4.763 26.404 0 5.161.321 9.734.955 13.718.641 3.988 1.567 7.12 2.775 9.399 1.573 3.015 3.676 5.4 6.31 7.159 2.64 1.76 5.349 2.64 8.129 2.64 3.339 0 6.607-.982 9.792-2.94 3.197-1.96 5.903-4.68 8.128-8.166.986-1.506 1.744-3.284 2.287-5.327.54-2.042.923-4.656 1.156-7.839"></path>
					<path d="M53.628 45v1.712c0 6.967-1.581 11.695-4.76 14.18-1.687 1.322-4.33 2.281-7.868 2.9V66h14V45h-1.372zM17.835 64.554V1.412h7.157V0H.069v1.412h7.554v63.142H0V66h25v-1.446z"></path>
				</g>
			</symbol>
			<symbol id="icon-logo-symbol-white" viewBox="0 0 80 100">
				<g fill="#fff" fill-rule="evenodd">
					<path d="M78.729 74.173H80v23.014h-1.271c-.267-1.575-.664-2.772-1.207-3.593-.542-.821-1.213-1.23-2.035-1.23-.821 0-2.276.737-4.37 2.212-.623.435-1.1.752-1.428.954l-.095.103C65.371 98.543 61.262 100 57.265 100c-3.728 0-7.406-.948-11.02-2.84-3.62-1.89-6.914-4.58-9.9-8.062-2.844-3.381-4.948-6.958-6.305-10.728C28.68 74.6 28 70.455 28 65.934c0-5.158.77-10.036 2.306-14.626 1.538-4.586 3.734-8.572 6.585-11.958 2.814-3.315 6.013-5.868 9.597-7.663C50.076 29.897 53.815 29 57.708 29c3.928 0 8.2 1.39 12.821 4.172.29.165.531.317.73.452.33.201.786.484 1.38.855 1.534 1.004 2.647 1.506 3.337 1.506.855 0 1.504-.35 1.965-1.056.458-.704.72-1.725.788-3.068H80v20.354h-1.271c-.655-6.331-2.914-11.549-6.778-15.651-3.862-4.105-8.384-6.155-13.554-6.155-6.45 0-11.263 2.904-14.437 8.716-3.175 5.811-4.763 14.615-4.763 26.404 0 5.161.321 9.734.955 13.718.641 3.988 1.567 7.12 2.775 9.399 1.573 3.015 3.676 5.4 6.31 7.159 2.64 1.76 5.349 2.64 8.129 2.64 3.339 0 6.607-.982 9.792-2.94 3.197-1.96 5.903-4.68 8.128-8.166.986-1.506 1.744-3.284 2.287-5.327.54-2.042.923-4.656 1.156-7.839"></path>
					<path d="M53.628 45v1.712c0 6.967-1.581 11.695-4.76 14.18-1.687 1.322-4.33 2.281-7.868 2.9V66h14V45h-1.372zM17.835 64.554V1.412h7.157V0H.069v1.412h7.554v63.142H0V66h25v-1.446z"></path>
				</g>
			</symbol>
			<symbol id="icon-play" viewBox="0 0 36 36">
				<path fill-rule="evenodd" d="M36 18c0 9.941-8.059 18-18 18S0 27.941 0 18 8.059 0 18 0s18 8.059 18 18zm-21-3.511v8.022a1 1 0 0 0 1.528.85l6.453-4.012a1 1 0 0 0 0-1.698l-6.453-4.012a1 1 0 0 0-1.528.85z"></path>
			</symbol>
			<symbol id="icon-scroll" viewBox="0 0 19 32">
				<path fill="#FFF" d="M9 20h1v5H9v-5zm.5-19A8.5 8.5 0 0 0 1 9.5v13a8.5 8.5 0 0 0 17 0v-13A8.5 8.5 0 0 0 9.5 1zm0-1A9.5 9.5 0 0 1 19 9.5v13a9.5 9.5 0 1 1-19 0v-13A9.5 9.5 0 0 1 9.5 0z"></path>
			</symbol>
			<symbol id="icon-scrollup" viewBox="0 0 45 45">
				<g fill="none" fill-rule="evenodd">
					<rect fill-opacity=".1" fill="#000" fill-rule="nonzero" width="45" height="45" rx="4"></rect>
					<path d="M22.966 14.75v18.242H22V14.86l-2.317 2.317-.683-.684 3-3v-.26h.261l.232-.233.045.045.045-.045.232.232h.151v.152l3.11 3.11-.683.683-2.427-2.427z" fill="#A8A8A8"></path>
				</g>
			</symbol>
			<symbol id="icon-social-fb" viewBox="0 0 9 20">
				<path fill-rule="evenodd" d="M1.994 20v-9.66H0V7.014h1.994v-2c0-2.715 1.126-4.33 4.325-4.33h2.663v3.33H7.317c-1.245 0-1.327.465-1.327 1.333l-.005 1.666H9l-.353 3.328H5.985V20H1.994z"></path>
			</symbol>
			<symbol id="icon-social-ig" viewBox="0 0 20 20">
				<path d="M6.667 10a3.333 3.333 0 1 1 6.667 0 3.333 3.333 0 0 1-6.667 0m-1.802 0a5.135 5.135 0 1 0 10.27 0 5.135 5.135 0 0 0-10.27 0m9.274-5.338a1.2 1.2 0 1 0 2.4 0 1.2 1.2 0 0 0-2.4 0M5.959 18.14c-.974-.045-1.504-.207-1.856-.344a3.11 3.11 0 0 1-1.15-.748 3.09 3.09 0 0 1-.749-1.15c-.137-.352-.3-.882-.344-1.857-.048-1.054-.058-1.37-.058-4.041 0-2.67.01-2.986.058-4.041.045-.975.208-1.504.344-1.857.182-.467.399-.8.748-1.15a3.08 3.08 0 0 1 1.15-.748c.353-.138.883-.3 1.858-.345 1.054-.048 1.37-.058 4.04-.058s2.987.01 4.042.058c.975.045 1.504.208 1.857.345.467.18.8.398 1.15.748.35.35.566.683.748 1.15.137.352.3.882.344 1.857.049 1.055.058 1.37.058 4.041 0 2.67-.01 2.986-.058 4.041-.044.975-.207 1.505-.344 1.857a3.1 3.1 0 0 1-.748 1.15c-.35.35-.683.566-1.15.748-.352.137-.882.3-1.857.344-1.054.048-1.371.058-4.042.058-2.67 0-2.986-.01-4.04-.058M5.877.06C4.813.11 4.086.279 3.45.526a4.907 4.907 0 0 0-1.77 1.153 4.893 4.893 0 0 0-1.154 1.77C.278 4.087.11 4.814.061 5.878.01 6.943 0 7.284 0 10s.011 3.057.06 4.123c.05 1.064.218 1.791.465 2.427a4.89 4.89 0 0 0 1.154 1.771 4.904 4.904 0 0 0 1.771 1.154c.637.247 1.363.416 2.427.464C6.945 19.988 7.285 20 10 20c2.717 0 3.057-.011 4.123-.06 1.065-.049 1.792-.218 2.428-.465a4.918 4.918 0 0 0 1.771-1.154 4.91 4.91 0 0 0 1.154-1.77c.247-.637.417-1.364.464-2.428.049-1.067.06-1.407.06-4.123s-.011-3.057-.06-4.123c-.048-1.064-.217-1.791-.464-2.427a4.918 4.918 0 0 0-1.154-1.771 4.904 4.904 0 0 0-1.77-1.154c-.637-.247-1.364-.417-2.428-.464C13.058.012 12.717 0 10.001 0S6.945.011 5.877.06"></path>
			</symbol>
			<symbol id="icon-social-vimeo" viewBox="0 0 24 20">
				<path d="M23.184 4.627c-.104 2.25-1.68 5.332-4.726 9.244C15.307 17.957 12.64 20 10.459 20c-1.35 0-2.493-1.246-3.428-3.74l-1.87-6.855c-.692-2.493-1.436-3.74-2.233-3.74-.173 0-.779.364-1.817 1.091L.02 5.354c1.133-.996 2.258-2 3.376-3.013C4.919 1.026 6.062.333 6.824.264 8.624.09 9.732 1.32 10.148 3.95c.45 2.84.761 4.606.935 5.298.519 2.355 1.09 3.532 1.713 3.532.485 0 1.212-.762 2.182-2.285.97-1.524 1.489-2.684 1.558-3.48.138-1.316-.381-1.974-1.558-1.974-.554 0-1.126.121-1.714.364C14.406 1.7 16.588-.1 19.808.004c2.39.07 3.514 1.61 3.376 4.623z"></path>
			</symbol>
			<symbol id="icon-social-yb" viewBox="0 0 22 16">
				<path d="M2.611 15.64c-.595-.124-1.112-.4-1.491-.802-.294-.304-.527-.768-.707-1.411-.155-.536-.216-.982-.302-2.071-.132-2.458-.163-4.468 0-6.714.135-1.24.2-2.712 1.095-3.571A2.9 2.9 0 0 1 2.67.303C3.533.134 7.206 0 11.008 0c3.794 0 7.474.134 8.337.303.69.134 1.336.536 1.716 1.054.816 1.33.83 2.983.913 4.276.035.617.035 4.116 0 4.732-.129 2.044-.232 2.767-.525 3.517-.182.473-.336.723-.604 1a2.85 2.85 0 0 1-1.535.812c-3.626.283-6.704.344-10.199.286-4.19-.08-5.62-.152-6.5-.34zm6.13-11.096v6.41c2.077-1.17 4.268-2.24 5.931-3.196-2.025-1.107-3.957-2.142-5.931-3.214z"></path>
			</symbol>
			<symbol id="icon-square-calouneni" viewBox="0 0 62 62">
				<defs>
					<path id="a" d="M0 1l62-1v7L0 27z"></path>
					<path id="c" d="M0 0h62v6L0 26z"></path>
				</defs>
				<g fill="none" fill-rule="evenodd">
					<path stroke="#C8A86B" d="M.5.5h61v61H.5z"></path>
					<g transform="matrix(-1 0 0 1 62 0)">
						<mask id="b" fill="#fff">
							<use xlink:href="#a"></use>
						</mask>
						<path stroke="#C8A86B" d="M.5 1.492v24.821l61-19.677V.508l-61 .984z"></path>
						<path fill="#FFF" stroke="#C8A86B" d="M.5-13.313v9.949l61 19.677V6.364L.5-13.313zm0 10v9.949l61 19.677v-9.949L.5-3.313zm0 10v9.949l61 19.677v-9.949L.5 6.687z" mask="url(#b)"></path>
					</g>
					<g transform="matrix(1 0 0 -1 0 62)">
						<mask id="d" fill="#fff">
							<use xlink:href="#c"></use>
						</mask>
						<path stroke="#C8A86B" d="M.5.5v24.813l61-19.677V.5H.5z"></path>
						<path fill="#FFF" stroke="#C8A86B" d="M.5-13.313v9.949l61 19.677V6.364L.5-13.313zm0 10v9.949l61 19.677v-9.949L.5-3.313zm0 10v9.949l61 19.677v-9.949L.5 6.687z" mask="url(#d)"></path>
					</g>
					<g stroke="#C8A86B">
						<path d="M.5.687v29.949l61 19.677V20.364L.5.687z" transform="translate(0 6)"></path>
						<path d="M.5.687v9.949l61 19.677v-9.949L.5.687zm0 10v9.949l61 19.677v-9.949L.5 10.687zm0 10v9.949l61 19.677v-9.949L.5 20.687z" transform="translate(0 6)"></path>
					</g>
					<path stroke="#C8A86B" d="M.5.5h61v61H.5z"></path>
				</g>
			</symbol>
			<symbol id="icon-square-materialy" viewBox="0 0 62 62">
				<g fill="none" fill-rule="evenodd">
					<path stroke="#C8A86B" d="M.5.5h61v61H.5z"></path>
					<path fill="#C8A86B" d="M7 7h2v2H7zm3 3h2v2h-2zm3 3h2v2h-2zm-6 0h2v2H7zm6-6h2v2h-2zm14 0h2v2h-2zm3 3h2v2h-2zm3 3h2v2h-2zm-6 0h2v2h-2zm6-6h2v2h-2zm14 0h2v2h-2zm3 3h2v2h-2zm3 3h2v2h-2zm-6 0h2v2h-2zm6-6h2v2h-2zM7 27h2v2H7zm3 3h2v2h-2zm3 3h2v2h-2zm-6 0h2v2H7zm6-6h2v2h-2zm14 0h2v2h-2zm3 3h2v2h-2zm3 3h2v2h-2zm-6 0h2v2h-2zm6-6h2v2h-2zM17 37h2v2h-2zm3 3h2v2h-2zm3 3h2v2h-2zm-6 0h2v2h-2zm6-6h2v2h-2zm14 0h2v2h-2zm3 3h2v2h-2zm3 3h2v2h-2zm-6 0h2v2h-2zm6-6h2v2h-2zm4-10h2v2h-2zm3 3h2v2h-2zm3 3h2v2h-2zm-6 0h2v2h-2zm6-6h2v2h-2zM17 17h2v2h-2zm3 3h2v2h-2zm3 3h2v2h-2zm-6 0h2v2h-2zm6-6h2v2h-2zm14 0h2v2h-2zm3 3h2v2h-2zm3 3h2v2h-2zm-6 0h2v2h-2zm6-6h2v2h-2zM7 47h2v2H7zm3 3h2v2h-2zm3 3h2v2h-2zm-6 0h2v2H7zm6-6h2v2h-2zm14 0h2v2h-2zm3 3h2v2h-2zm3 3h2v2h-2zm-6 0h2v2h-2zm6-6h2v2h-2zm14 0h2v2h-2zm3 3h2v2h-2zm3 3h2v2h-2zm-6 0h2v2h-2zm6-6h2v2h-2z"></path>
				</g>
			</symbol>
			<symbol id="icon-square-nozicky" viewBox="0 0 63 63">
				<g fill="none" fill-rule="evenodd" stroke="#C8A86B">
					<path d="M.5.5h62v62H.5z"></path>
					<path d="M.5.5v13.2l31 16.468V.5H.5zm62 0v13.2l-31 16.468V.5h31z"></path>
					<path fill="#FFF" d="M42.27 25.643a.5.5 0 0 0-.683-.531l-9.775 3.96a.5.5 0 0 0-.312.463v27.498a.5.5 0 0 0 .795.404l6.067-4.424a.5.5 0 0 0 .2-.336l3.708-27.034zm-20.857-.531a.5.5 0 0 0-.683.531l3.708 27.034a.5.5 0 0 0 .2.336l6.067 4.424a.5.5 0 0 0 .795-.404V29.535a.5.5 0 0 0-.312-.463l-9.775-3.96z"></path>
				</g>
			</symbol>
			<symbol id="icon-square-postel1" viewBox="0 0 62 62">
				<g fill="none" fill-rule="evenodd">
					<path stroke="#D6D6D6" d="M9.5 34.5h43V14a1.5 1.5 0 0 0-1.5-1.5H11A1.5 1.5 0 0 0 9.5 14v20.5z"></path>
					<path stroke="#D6D6D6" d="M14.5 34.5h15V27a1.5 1.5 0 0 0-1.5-1.5H16a1.5 1.5 0 0 0-1.5 1.5v7.5zm18 0h15V27a1.5 1.5 0 0 0-1.5-1.5H34a1.5 1.5 0 0 0-1.5 1.5v7.5z"></path>
					<path fill="#C8A86B" d="M5 55h52v1H5z"></path>
					<path fill="#DCBE84" fill-opacity=".2" stroke="#C8A86B" d="M5.5 40.5V48A1.5 1.5 0 0 0 7 49.5h48a1.5 1.5 0 0 0 1.5-1.5v-7.5h-51zm0 0h51V36a1.5 1.5 0 0 0-1.5-1.5H7A1.5 1.5 0 0 0 5.5 36v4.5z"></path>
					<path fill="#C8A86B" d="M5 55.5L8 53v5zm52 0L54 53v5z"></path>
				</g>
			</symbol>
			<symbol id="icon-square-postel2" viewBox="0 0 62 62">
				<g fill="none" fill-rule="evenodd">
					<path stroke="#D6D6D6" d="M5.5 40.5V48A1.5 1.5 0 0 0 7 49.5h48a1.5 1.5 0 0 0 1.5-1.5v-7.5h-51z"></path>
					<path fill="#DCBE84" fill-opacity=".2" stroke="#C8A86B" d="M9.5 34.5h43V14a1.5 1.5 0 0 0-1.5-1.5H11A1.5 1.5 0 0 0 9.5 14v20.5z"></path>
					<path stroke="#C8A86B" d="M14.5 34.5h15V27a1.5 1.5 0 0 0-1.5-1.5H16a1.5 1.5 0 0 0-1.5 1.5v7.5zm18 0h15V27a1.5 1.5 0 0 0-1.5-1.5H34a1.5 1.5 0 0 0-1.5 1.5v7.5z"></path>
					<path fill="#C8A86B" d="M2 12h1v22H2z"></path>
					<path stroke="#D6D6D6" d="M5.5 40.5h51V36a1.5 1.5 0 0 0-1.5-1.5H7A1.5 1.5 0 0 0 5.5 36v4.5z"></path>
					<path fill="#C8A86B" d="M2.5 12L5 15H0zm0 22L5 31H0zM9 34h44v1H9z"></path>
				</g>
			</symbol>
			<symbol id="icon-square-postel3" viewBox="0 0 62 62">
				<g fill="none" fill-rule="evenodd">
					<path stroke="#D6D6D6" d="M5.5 40.5V48A1.5 1.5 0 0 0 7 49.5h48a1.5 1.5 0 0 0 1.5-1.5v-7.5h-51z"></path>
					<path fill="#DCBE84" fill-opacity=".2" stroke="#C8A86B" d="M9.5 34.5h43V14a1.5 1.5 0 0 0-1.5-1.5H11A1.5 1.5 0 0 0 9.5 14v20.5z"></path>
					<path fill="#C8A86B" d="M9 6h44v1H9z"></path>
					<path fill="#C8A86B" d="M9 6.5L12 4v5zm44 0L50 4v5z"></path>
					<path stroke="#D6D6D6" d="M5.5 40.5h51V36a1.5 1.5 0 0 0-1.5-1.5H7A1.5 1.5 0 0 0 5.5 36v4.5z"></path>
					<path fill="#C8A86B" d="M9 34h44v1H9z"></path>
					<path stroke="#C8A86B" d="M14.5 34.5h15V27a1.5 1.5 0 0 0-1.5-1.5H16a1.5 1.5 0 0 0-1.5 1.5v7.5zm18 0h15V27a1.5 1.5 0 0 0-1.5-1.5H34a1.5 1.5 0 0 0-1.5 1.5v7.5z"></path>
				</g>
			</symbol>
			<symbol id="icon-square-postel4" viewBox="0 0 62 62">
				<g fill="none" fill-rule="evenodd">
					<path stroke="#CDCDCD" d="M19.5 34.5h15V27a1.5 1.5 0 0 0-1.5-1.5H21a1.5 1.5 0 0 0-1.5 1.5v7.5zm18 0h15V27a1.5 1.5 0 0 0-1.5-1.5H39a1.5 1.5 0 0 0-1.5 1.5v7.5z"></path>
					<path stroke="#C8A86B" d="M19.5 34.5h15V27a1.5 1.5 0 0 0-1.5-1.5H21a1.5 1.5 0 0 0-1.5 1.5v7.5z"></path>
					<path stroke="#D6D6D6" d="M14.5 49.5h5V52a1.5 1.5 0 0 1-1.5 1.5h-2a1.5 1.5 0 0 1-1.5-1.5v-2.5zm38 0h5V52a1.5 1.5 0 0 1-1.5 1.5h-2a1.5 1.5 0 0 1-1.5-1.5v-2.5z"></path>
					<path stroke="#C8A86B" d="M37.5 34.5h15V27a1.5 1.5 0 0 0-1.5-1.5H39a1.5 1.5 0 0 0-1.5 1.5v7.5z"></path>
					<path fill="#DCBE84" fill-opacity=".2" stroke="#C8A86B" d="M10.5 40.5h51V36a1.5 1.5 0 0 0-1.5-1.5H12a1.5 1.5 0 0 0-1.5 1.5v4.5z"></path>
					<path fill="#C8A86B" d="M4 12h1v38H4z"></path>
					<path fill="#C8A86B" d="M4.5 12L7 15H2zm0 38L7 47H2z"></path>
					<path fill="#DCBE84" fill-opacity=".2" stroke="#C8A86B" d="M10.5 40.5V48a1.5 1.5 0 0 0 1.5 1.5h48a1.5 1.5 0 0 0 1.5-1.5v-7.5h-51zm4-6h43V14a1.5 1.5 0 0 0-1.5-1.5H16a1.5 1.5 0 0 0-1.5 1.5v20.5z"></path>
				</g>
			</symbol>
			<symbol id="icon-square-slozeni" viewBox="0 0 62 62">
				<g fill="none" fill-rule="evenodd">
					<g stroke="#C8A86B">
						<path d="M61.5 2.302l-30 17.022-31-17.59V59.5h61V2.302z" transform="translate(0 2)"></path>
						<path d="M61.5 20.302l-30 17.022-31-17.59V59.5h61V20.302z" transform="translate(0 2)"></path>
						<path d="M61.5 36.302l-30 17.022-31-17.59V59.5h61V36.302z" transform="translate(0 2)"></path>
						<path d="M61.5 52.302L48.814 59.5H61.5v-7.198zM14.186 59.5L.5 51.735V59.5h13.686z" transform="translate(0 2)"></path>
					</g>
					<path stroke="#C8A86B" d="M.5.5h61v61H.5z"></path>
					<path fill="#C8A86B" d="M5 11h1v1H5zm19 9h1v1h-1zm19-3h1v1h-1zM9 16h1v1H9zm23 14h1v1h-1zm-17-9h1v1h-1zm12 4h1v1h-1zm17-3h1v1h-1zM5 19h1v1H5zm19 9h1v1h-1zm19-1h1v1h-1zM14 16h1v1h-1zm24 10h1v1h-1zm-19-7h1v1h-1zm14 6h1v1h-1zm16-2h1v1h-1zm-29 2h1v1h-1zm18-5h1v1h-1zm-3 12h1v1h-1zm19-13h1v1h-1zm3-6h1v1h-1zM11 23h1v1h-1zm17 8h1v1h-1zm21-13h1v1h-1zm3-4h1v1h-1zM5 45h1v1H5zm19 9h1v1h-1zm19-3h1v1h-1zM9 50h1v1H9zm6 5h1v1h-1zm12 4h1v1h-1zm17-3h1v1h-1zM5 53h1v1H5zm38 8h1v1h-1zM14 50h1v1h-1zm24 10h1v1h-1zm-19-7h1v1h-1zm14 6h1v1h-1zm16-2h1v1h-1zm-29 2h1v1h-1zm18-5h1v1h-1zm16-1h1v1h-1zm3-6h1v1h-1zM11 57h1v1h-1zm38-5h1v1h-1zm3-4h1v1h-1z"></path>
				</g>
			</symbol>
			</svg>