<svg width="20" height="20" viewBox="0 0 1521 1642" fill="none" xmlns="http://www.w3.org/2000/svg">
<path fill="white" fill-rule="nonzero" d="M1349 160c-40,-38 -201,-157 -559,-159 0,0 -17,-1 -46,-1l-11 0c-122,0 -413,18 -573,169 -114,117 -155,289 -159,502 -1,24 -1,49 -1,76 0,222 32,549 367,646l1 0 0 165c0,0 -3,67 40,81 52,16 83,-35 133,-90 27,-30 65,-74 93,-108 257,22 455,-28 478,-36 52,-17 346,-55 394,-455 49,-412 -24,-673 -157,-790zm45 760c-41,334 -279,355 -323,369 -19,7 -193,51 -411,36l-237 263 0 -303 -2 0c-319,-91 -308,-430 -304,-608 3,-178 36,-324 133,-422 175,-162 534,-138 534,-138 303,1 449,95 482,126 112,98 169,333 128,677zm-274 50c0,0 -48,-41 -72,-59 -22,-17 -57,-39 -77,-50 -36,-21 -72,-8 -87,12l-31 40c-16,20 -40,17 -47,15 -46,-11 -94,-40 -144,-88 -51,-49 -81,-100 -92,-153l-1 -3c-3,-22 1,-32 9,-47l2 -1c21,-20 60,-44 65,-66 15,-39 -51,-121 -60,-136 0,0 -49,-64 -66,-76 -18,-15 -47,-24 -76,-6l-1 1c-83,56 -114,88 -105,137l4 19c42,133 123,275 245,401 120,124 250,199 378,251 33,11 68,1 103,-29l1 0c27,-26 48,-53 64,-82l0 0c16,-31 11,-60 -12,-80zm-200 -291c-5,0 -9,-4 -9,-9 -2,-35 -11,-61 -28,-79 -16,-17 -41,-27 -73,-29 -6,0 -10,-5 -9,-10 0,-6 4,-10 10,-9 37,2 66,13 86,35 20,21 31,51 33,91 0,5 -4,10 -9,10l-1 0zm95 32l0 0c-5,0 -10,-4 -9,-10 1,-66 -18,-122 -58,-166 -20,-22 -43,-39 -71,-52 -28,-12 -60,-20 -96,-22 -5,-1 -9,-5 -8,-11 0,-5 5,-9 10,-9 76,6 137,33 179,81 43,48 64,108 63,180 0,5 -5,9 -10,9zm97 39c-5,0 -9,-4 -9,-9 -1,-59 -10,-112 -27,-158 -17,-45 -42,-85 -75,-119 -34,-33 -72,-59 -114,-75 -41,-17 -88,-26 -138,-26 -5,0 -9,-5 -9,-10 0,-6 4,-10 10,-10l0 0c104,1 193,37 264,107 35,36 62,78 80,126 18,48 27,104 28,164 0,6 -4,10 -10,10l0 0z"></path>
</svg>


