<?xml version="1.0" encoding="utf-8"?>
<!-- Generator: Adobe Illustrator 16.2.0, SVG Export Plug-In . SVG Version: 6.00 Build 0)  -->
<!DOCTYPE svg PUBLIC "-//W3C//DTD SVG 1.1//EN" "http://www.w3.org/Graphics/SVG/1.1/DTD/svg11.dtd">
<svg version="1.1" id="Layer_1" xmlns="http://www.w3.org/2000/svg" xmlns:xlink="http://www.w3.org/1999/xlink" x="0px" y="0px"
	 width="30px" height="30px" viewBox="0 0 30 30" enable-background="new 0 0 30 30" xml:space="preserve">
<g id="yellow">
	<path fill="#B39253" d="M28.821,9.162c-0.755-1.787-1.837-3.391-3.214-4.768s-2.981-2.459-4.768-3.215C18.99,0.397,17.025,0,15,0
		c-2.024,0-3.989,0.396-5.838,1.179C7.375,1.935,5.771,3.016,4.394,4.393C3.017,5.771,1.935,7.375,1.179,9.161
		C0.397,11.01,0,12.975,0,14.999s0.396,3.989,1.179,5.839c0.755,1.787,1.837,3.391,3.214,4.768c1.377,1.378,2.981,2.459,4.768,3.215
		C11.01,29.604,12.975,30,15,30l0,0c2.025,0,3.988-0.396,5.839-1.179c1.786-0.756,3.39-1.837,4.768-3.214
		c1.377-1.378,2.458-2.982,3.214-4.768c0.783-1.85,1.18-3.814,1.18-5.839C30,12.976,29.604,11.012,28.821,9.162z M15,28.604
		L15,28.604c-3.634,0-7.05-1.416-9.62-3.984c-2.569-2.57-3.984-5.986-3.984-9.62c0-7.5,6.103-13.603,13.604-13.603
		c3.634,0,7.05,1.416,9.618,3.985c2.57,2.57,3.984,5.986,3.984,9.62C28.604,22.502,22.5,28.604,15,28.604z"/>
	<path id="Vk_1_" fill="#B39253" d="M4.526,11.699c0.226,0.589,0.504,1.156,0.791,1.717c0.682,1.333,1.384,2.626,2.326,3.798
		c0.951,1.184,2.075,2.33,3.398,3.096c0.368,0.213,0.755,0.393,1.158,0.529c1.555,0.527,3.261,0.477,3.787,0.125
		c0.527-0.351-0.1-2.658,0.377-2.934c0.477-0.276,1.328,0.326,1.956,0.877c0.627,0.553,1.104,1.029,1.454,1.404
		c0.221,0.236,0.375,0.518,0.662,0.686c0.475,0.277,1.105,0.247,1.635,0.248c0.295,0.002,0.59,0.002,0.885-0.002
		c0.199-0.002,0.398,0.004,0.598-0.005c0.328-0.017,0.756-0.146,0.73-0.555c-0.006-0.097-0.027-0.212-0.065-0.302
		c-0.083-0.192-0.199-0.392-0.324-0.559c-0.652-0.871-1.085-1.316-1.411-1.668s-1.668-1.618-1.756-1.869
		c-0.088-0.25-0.115-0.361,0.134-0.7s0.794-1.193,1.222-1.808c0.267-0.385,0.51-0.788,0.75-1.191
		c0.283-0.475,0.549-0.961,0.775-1.466c0.102-0.226,0.193-0.431,0.131-0.684c-0.042-0.169-0.137-0.318-0.314-0.36
		c-0.097-0.023-0.203-0.025-0.302-0.025c-0.37,0-1.335,0-1.335,0c-0.175,0-0.35-0.002-0.523-0.002c-0.18,0-0.36-0.001-0.539,0.014
		c-0.254,0.021-0.409,0.217-0.537,0.415c-0.156,0.241-0.298,0.493-0.449,0.737c-0.104,0.167-0.205,0.335-0.305,0.505
		c-0.156,0.265-0.316,0.526-0.477,0.789c-0.066,0.109-0.133,0.217-0.199,0.327c-0.188,0.313-1.818,2.458-2.145,2.546
		s-0.438,0.063-0.438-0.602s0-4.439,0-4.439s-0.024-0.291-0.301-0.291s-1.556,0-1.556,0h-2.64c0,0-0.621,0.002-0.401,0.561
		c0.22,0.558,0.869,0.728,0.869,1.659s0,3.649,0,3.649s-0.11,0.817-0.818,0.141c-0.558-0.533-1.019-1.165-1.425-1.818
		c-0.423-0.68-0.763-1.387-1.066-2.127c-0.087-0.212-0.173-0.424-0.262-0.635c-0.093-0.22-0.185-0.44-0.274-0.662
		c-0.104-0.257-0.214-0.594-0.494-0.712c-0.14-0.06-0.295-0.057-0.445-0.057c-0.555,0-1.11,0.001-1.665,0c-0.163,0-0.326,0-0.489,0
		c-0.384,0.001-0.863-0.01-0.954,0.47c-0.053,0.277,0.052,0.572,0.139,0.831C4.433,11.47,4.482,11.583,4.526,11.699z"/>
</g>
</svg>
