<?xml version="1.0" standalone="no"?>
<!DOCTYPE svg PUBLIC "-//W3C//DTD SVG 1.1//EN" "http://www.w3.org/Graphics/SVG/1.1/DTD/svg11.dtd" >
<svg xmlns="http://www.w3.org/2000/svg" xmlns:xlink="http://www.w3.org/1999/xlink" version="1.1">
<metadata>
Created by FontForge 20170910 at Tue May 22 12:26:30 2018
 By Jimmy Wärting
Copyright (c) 2015, 2018 by Jakob Runge, under exclusive license to TypeMates. All rights reserved.
</metadata>
<defs>
<font id="CeraPro-Bold" horiz-adv-x="560" >
  <font-face 
    font-family="Cera Pro"
    font-weight="700"
    font-stretch="normal"
    units-per-em="1000"
    panose-1="0 0 8 0 0 0 0 0 0 0"
    ascent="808"
    descent="-192"
    x-height="495"
    cap-height="660"
    bbox="-475 -246 1372 1000"
    underline-thickness="87"
    underline-position="-272"
    unicode-range="U+0020-FB02"
  />
<missing-glyph horiz-adv-x="713" 
d="M637 660v-660h-561v660h561zM545 576h-379l379 -499v499z" />
    <glyph glyph-name="fi" unicode="fi" horiz-adv-x="626" 
d="M247 623.5q-22 -17.5 -22 -59.5v-69h109v-114h-109v-381h-135v381h-70v114h70v81q0 93 51 139.5t140 46.5q39 0 74 -11v-113q-22 3 -40 3q-46 0 -68 -17.5zM424 495h135v-495h-135v495zM430 616q-25 24 -25 59q0 36 25 60t61 24t61.5 -24t25.5 -60q0 -35 -25.5 -59
t-61.5 -24t-61 24z" />
    <glyph glyph-name="fl" unicode="fl" horiz-adv-x="626" 
d="M247 623.5q-22 -17.5 -22 -59.5v-69h109v-114h-109v-381h-135v381h-70v114h70v81q0 93 51 139.5t140 46.5q39 0 74 -11v-113q-22 3 -40 3q-46 0 -68 -17.5zM424 750h135v-750h-135v750z" />
    <glyph glyph-name=".notdef" horiz-adv-x="713" 
d="M637 660v-660h-561v660h561zM545 576h-379l379 -499v499z" />
    <glyph glyph-name=".null" horiz-adv-x="0" 
 />
    <glyph glyph-name="nonmarkingreturn" horiz-adv-x="333" 
 />
    <glyph glyph-name="space" unicode=" " horiz-adv-x="280" 
 />
    <glyph glyph-name="exclam" unicode="!" horiz-adv-x="347" 
d="M92 660h161l-25 -418h-110zM107.5 14.5q-26.5 26.5 -26.5 66.5q0 39 26.5 66t67.5 27q39 0 65.5 -27t26.5 -66q0 -40 -26.5 -66.5t-65.5 -26.5q-41 0 -67.5 26.5z" />
    <glyph glyph-name="quotedbl" unicode="&#x22;" horiz-adv-x="538" 
d="M88 660h154l-56 -278h-103zM325 660h154l-56 -278h-103z" />
    <glyph glyph-name="numbersign" unicode="#" horiz-adv-x="631" 
d="M508 395l-17 -130h92v-113h-108l-20 -152h-109l20 152h-149l-20 -152h-109l20 152h-81v113h96l18 130h-93v113h108l20 152h110l-20 -152h148l20 152h110l-20 -152h81v-113h-97zM381 259l18 142h-148l-19 -142h149z" />
    <glyph glyph-name="dollar" unicode="$" horiz-adv-x="538" 
d="M447.5 83.5q-45.5 -46.5 -120.5 -58.5v-122h-118v124q-58 13 -103.5 47.5t-73.5 87.5l91 68q58 -91 151 -91q39 0 63 15t24 44q0 24 -18.5 38.5t-58.5 30.5l-68 25q-70 26 -109.5 69.5t-39.5 104.5t39 104.5t103 58.5v120h118v-118q99 -21 149 -115l-90 -68
q-24 35 -52 51.5t-63 16.5q-31 0 -51.5 -12.5t-20.5 -38.5q0 -22 16.5 -35.5t50.5 -27.5l75 -26q76 -28 114 -71.5t38 -104.5q0 -70 -45.5 -116.5z" />
    <glyph glyph-name="percent" unicode="%" horiz-adv-x="861" 
d="M141 364.5q-39 21.5 -62 59.5t-23 84t23 83.5t62 59t86 21.5q46 0 85 -21.5t62 -59t23 -83.5t-23 -84t-62 -59.5t-85 -21.5q-47 0 -86 21.5zM566 660h109l-380 -660h-108zM274.5 456q18.5 20 18.5 52q0 31 -18.5 51t-46.5 20q-30 0 -48.5 -20t-18.5 -51q0 -32 18 -52
t49 -20q28 0 46.5 20zM549 10.5q-39 21.5 -62 59.5t-23 84t23 83.5t62 59t85 21.5t85.5 -21.5t62.5 -59t23 -83.5t-23 -84t-62 -59.5t-86 -21.5q-46 0 -85 21.5zM681.5 103q18.5 20 18.5 51t-18.5 51t-46.5 20q-31 0 -49 -19.5t-18 -51.5t18 -51.5t49 -19.5q28 0 46.5 20z
" />
    <glyph glyph-name="ampersand" unicode="&#x26;" horiz-adv-x="674" 
d="M617 256q-62 -89 -88 -121l111 -135h-158l-40 49q-80 -61 -179 -61q-64 0 -113 23t-76.5 65t-27.5 96q0 53 29.5 96.5t103.5 101.5q-30 39 -44 73.5t-14 70.5q0 71 47 114.5t124 43.5q73 0 119 -40.5t46 -104.5q0 -47 -25.5 -87.5t-82.5 -87.5l97 -117q31 44 57 82
q18 24 36 51l104 -74zM255 545q-13 -12 -13 -33q0 -17 8.5 -33.5t30.5 -43.5l2 1q29 23 41 40.5t12 37.5t-12 31.5t-34 11.5t-35 -12zM364 144l-114 138q-41 -34 -55 -53.5t-14 -43.5q0 -35 25 -56.5t65 -21.5q48 0 93 37z" />
    <glyph glyph-name="quotesingle" unicode="'" horiz-adv-x="301" 
d="M88 660h154l-56 -278h-103z" />
    <glyph glyph-name="parenleft" unicode="(" horiz-adv-x="365" 
d="M129 19.5q-61 108.5 -61 283.5q0 176 61 284.5t157 151.5l53 -81q-69 -46 -111 -129.5t-42 -225.5q0 -141 42 -224.5t111 -129.5l-53 -81q-96 43 -157 151.5z" />
    <glyph glyph-name="parenright" unicode=")" horiz-adv-x="365" 
d="M26 -51q69 46 111.5 129.5t42.5 224.5q0 142 -42 225.5t-112 129.5l54 81q95 -43 156 -151.5t61 -284.5q0 -175 -61 -283.5t-156 -151.5z" />
    <glyph glyph-name="asterisk" unicode="*" horiz-adv-x="467" 
d="M337 548l91 -68l-39 -67l-104 45l-13 -112h-77l-13 112l-104 -45l-39 67l91 68l-91 67l39 67l104 -45l13 112h77l13 -112l104 45l39 -67z" />
    <glyph glyph-name="plus" unicode="+" 
d="M217 263h-172v115h172v176h129v-176h170v-115h-170v-177h-129v177z" />
    <glyph glyph-name="comma" unicode="," horiz-adv-x="280" 
d="M70 123h154l-53 -301h-107z" />
    <glyph glyph-name="hyphen" unicode="-" horiz-adv-x="342" 
d="M45 377h252v-113h-252v113z" />
    <glyph glyph-name="period" unicode="." horiz-adv-x="280" 
d="M74 14.5q-27 26.5 -27 66.5q0 39 27 66t67 27q39 0 65.5 -27t26.5 -66q0 -40 -26 -66.5t-66 -26.5t-67 26.5z" />
    <glyph glyph-name="slash" unicode="/" horiz-adv-x="672" 
d="M526 780h143l-523 -901h-143z" />
    <glyph glyph-name="zero" unicode="0" horiz-adv-x="635" 
d="M173 34q-59 46 -88 124.5t-29 176.5q0 151 67 244t195 93t194.5 -93t66.5 -244q0 -98 -29 -176.5t-87.5 -124.5t-144.5 -46t-145 46zM440 334q0 105 -29.5 159t-92.5 54q-64 0 -93.5 -54t-29.5 -159q0 -221 123 -221q122 0 122 221z" />
    <glyph glyph-name="one" unicode="1" horiz-adv-x="401" 
d="M310 660v-660h-135v500l-125 -40l-32 119l247 81h45z" />
    <glyph glyph-name="two" unicode="2" horiz-adv-x="584" 
d="M532 115v-115l-487 -1v29l236 256q49 53 71 91t22 75q0 43 -25 70t-67 27t-67.5 -28t-25.5 -73q0 -18 5 -48h-136q-7 27 -7 56q0 56 28.5 106t81.5 81t123 31q65 0 117.5 -27.5t82 -75.5t29.5 -108q0 -67 -36 -124.5t-106 -131.5l-85 -90h246z" />
    <glyph glyph-name="three" unicode="3" horiz-adv-x="549" 
d="M458 347q46 -53 46 -131q0 -66 -33.5 -118t-90.5 -81t-125 -29q-82 0 -144 41t-96 109l94 66q30 -45 63 -68t79 -23q50 0 82.5 27.5t32.5 74.5q0 46 -34.5 70.5t-100.5 24.5h-83v35l138 193h-220v122h425v-36l-146 -206q67 -18 113 -71z" />
    <glyph glyph-name="four" unicode="4" horiz-adv-x="577" 
d="M563 108h-84v-108h-135v108h-328v36l204 516h139l-175 -438h160v185h135v-185h84v-114z" />
    <glyph glyph-name="five" unicode="5" horiz-adv-x="564" 
d="M404 402q51 -24 83 -71.5t32 -113.5q0 -67 -33.5 -119t-91.5 -81t-128 -29q-84 0 -147.5 41t-97.5 109l94 66q29 -45 64 -68t83 -23q51 0 84.5 27.5t33.5 74.5t-34.5 71t-100.5 24h-154v350h390v-122h-260v-120q38 8 75 8q57 0 108 -24z" />
    <glyph glyph-name="six" unicode="6" horiz-adv-x="562" 
d="M411.5 419.5q50.5 -28.5 81.5 -80t31 -115.5q0 -67 -33.5 -121t-89.5 -84.5t-120 -30.5t-120 30.5t-89 84.5t-33 122q0 39 11 72t28.5 61t50.5 74l165 228h159l-152 -212h4q56 0 106.5 -28.5zM358.5 144q31.5 32 31.5 80t-31.5 79.5t-77.5 31.5t-77.5 -32t-31.5 -79
t31.5 -79.5t77.5 -32.5t77.5 32z" />
    <glyph glyph-name="seven" unicode="7" horiz-adv-x="525" 
d="M502 660v-36l-302 -624h-147l268 538h-283v122h464z" />
    <glyph glyph-name="eight" unicode="8" horiz-adv-x="588" 
d="M541 176q0 -57 -31.5 -99.5t-87.5 -65.5t-128 -23t-128.5 23t-88 65.5t-31.5 99.5q0 114 130 166q-100 58 -100 155q0 82 61.5 128.5t156.5 46.5t156.5 -46.5t61.5 -128.5q0 -98 -99 -155q128 -53 128 -166zM228 544q-26 -19 -26 -53q0 -30 22.5 -50t69.5 -42
q47 22 69.5 42t22.5 51q0 33 -26 52t-66 19t-66 -19zM378 121q29 23 29 60q0 38 -28 61t-85 43q-57 -21 -85 -44t-28 -60t29 -60t84 -23t84 23z" />
    <glyph glyph-name="nine" unicode="9" horiz-adv-x="562" 
d="M401.5 641.5q55.5 -30.5 89 -84.5t33.5 -122q0 -55 -21.5 -98t-69.5 -109l-164 -228h-160l153 212h-5q-55 0 -105.5 28.5t-81.5 80t-31 115.5q0 67 33 121t89 84.5t120 30.5q65 0 120.5 -30.5zM358.5 357q31.5 32 31.5 79t-31.5 79.5t-77.5 32.5q-45 0 -77 -32t-32 -80
q0 -47 32 -79t77 -32q46 0 77.5 32z" />
    <glyph glyph-name="colon" unicode=":" horiz-adv-x="280" 
d="M74 344.5q-27 26.5 -27 66.5q0 39 27 66t67 27q39 0 65.5 -27t26.5 -66q0 -40 -26 -66.5t-66 -26.5t-67 26.5zM74 14.5q-27 26.5 -27 66.5q0 39 27 66t67 27q39 0 65.5 -27t26.5 -66q0 -40 -26 -66.5t-66 -26.5t-67 26.5z" />
    <glyph glyph-name="semicolon" unicode=";" horiz-adv-x="280" 
d="M74 344.5q-27 26.5 -27 66.5q0 39 27 66t67 27q39 0 65.5 -27t26.5 -66q0 -40 -26 -66.5t-66 -26.5t-67 26.5zM70 123h154l-53 -301h-107z" />
    <glyph glyph-name="less" unicode="&#x3c;" 
d="M501 427l-248 -106l248 -106v-118l-464 205v37l464 205v-117z" />
    <glyph glyph-name="equal" unicode="=" 
d="M55 485h451v-114h-451v114zM55 270h451v-114h-451v114z" />
    <glyph glyph-name="greater" unicode="&#x3e;" 
d="M523 339v-37l-464 -205v118l248 106l-248 106v117z" />
    <glyph glyph-name="question" unicode="?" horiz-adv-x="452" 
d="M142 290q0 28 19.5 54.5t59.5 58.5q34 28 46.5 44.5t12.5 39.5q0 27 -18 44t-45 17q-54 0 -83 -76l-110 48q21 75 73 113.5t124 38.5q55 0 100 -22t71 -61.5t26 -91.5q0 -42 -19.5 -75t-63.5 -71q-41 -36 -55.5 -52t-14.5 -36q0 -9 2 -21h-114q-11 24 -11 48zM147 14.5
q-27 26.5 -27 66.5q0 39 27 66t67 27t66.5 -27t26.5 -66q0 -40 -26.5 -66.5t-66.5 -26.5t-67 26.5z" />
    <glyph glyph-name="at" unicode="@" horiz-adv-x="953" 
d="M707 614.5q97 -51.5 152 -139.5t55 -193q0 -125 -78 -188.5t-208 -63.5h-49v50q-21 -29 -55.5 -45t-76.5 -16q-58 0 -103.5 28t-71.5 78t-26 112t26 111.5t71.5 77.5t103.5 28q41 0 74.5 -14.5t54.5 -41.5v47h113v-310q117 8 117 147q0 82 -38.5 145.5t-109.5 99.5
t-165 36q-100 0 -179 -40.5t-123 -114t-44 -168.5q0 -94 42.5 -167t118.5 -113.5t172 -40.5q51 0 119 16l21 -94q-68 -25 -154 -25q-117 0 -215 54.5t-155.5 151t-57.5 216.5q0 122 60.5 220t164 153t227.5 55q120 0 217 -51.5zM540 158q29 27 29 79q0 51 -28.5 78.5
t-68.5 27.5q-42 0 -71.5 -29t-29.5 -77t29 -77t71 -29q40 0 69 27z" />
    <glyph glyph-name="A" unicode="A" horiz-adv-x="661" 
d="M465 86h-270l-37 -86h-145l295 672h45l294 -672h-145zM330 420l-88 -223h176z" />
    <glyph glyph-name="B" unicode="B" horiz-adv-x="621" 
d="M556 295.5q31 -41.5 31 -101.5q0 -56 -27.5 -100.5t-77 -69t-112.5 -24.5h-294v660h234q60 0 108 -23.5t74.5 -65t26.5 -95.5q0 -72 -49 -119q55 -20 86 -61.5zM206 544v-151h93q41 0 63.5 20.5t22.5 55.5t-22.5 55t-63.5 20h-93zM429 138q25 22 25 61q0 38 -25 60.5
t-69 22.5h-154v-166h154q44 0 69 22z" />
    <glyph glyph-name="C" unicode="C" horiz-adv-x="720" 
d="M211.5 33q-80.5 45 -127 123.5t-46.5 173.5t47 173.5t127.5 123.5t177.5 45q94 0 170.5 -43.5t120.5 -120.5l-102 -72q-70 111 -189 111q-61 0 -109.5 -28t-76 -77.5t-27.5 -112.5t27.5 -112t76 -76.5t109.5 -27.5q119 0 189 111l102 -72q-43 -77 -120 -120.5t-172 -43.5
q-97 0 -177.5 45z" />
    <glyph glyph-name="D" unicode="D" horiz-adv-x="690" 
d="M76 660h216q105 0 187 -41t127.5 -115t45.5 -172q0 -96 -45.5 -171.5t-127.5 -118t-187 -42.5h-216v660zM291 122q66 0 116.5 26t78 73.5t27.5 110.5q0 96 -60.5 151t-161.5 55h-80v-416h80z" />
    <glyph glyph-name="E" unicode="E" horiz-adv-x="573" 
d="M76 660h444v-122h-309v-134h227v-115h-227v-167h321v-122h-456v660z" />
    <glyph glyph-name="F" unicode="F" horiz-adv-x="535" 
d="M76 660h434v-122h-299v-165h245v-122h-245v-251h-135v660z" />
    <glyph glyph-name="G" unicode="G" horiz-adv-x="747" 
d="M212.5 33q-80.5 45 -127.5 123.5t-47 173.5q0 96 46.5 174t127.5 123t179 45q87 0 158.5 -37.5t119.5 -105.5l-96 -79q-70 97 -184 97q-63 0 -111 -28t-74.5 -77t-26.5 -112q0 -64 27.5 -114t77.5 -78.5t115 -28.5q57 0 101.5 22t72.5 60v54h-182v117h317v-195
q-45 -80 -128.5 -129.5t-186.5 -49.5q-98 0 -178.5 45z" />
    <glyph glyph-name="H" unicode="H" horiz-adv-x="713" 
d="M76 660h135v-253h292v253h135v-660h-135v285h-292v-285h-135v660z" />
    <glyph glyph-name="I" unicode="I" horiz-adv-x="286" 
d="M76 660h135v-660h-135v660z" />
    <glyph glyph-name="J" unicode="J" horiz-adv-x="389" 
d="M17 0v115q54 -4 66 -4q49 0 72 18t23 61v470h135v-484q0 -94 -52 -141t-149 -47q-47 0 -95 12z" />
    <glyph glyph-name="K" unicode="K" horiz-adv-x="670" 
d="M494 0l-283 344v-344h-135v660h135v-306l252 306h161l-253 -311l286 -349h-163z" />
    <glyph glyph-name="L" unicode="L" horiz-adv-x="524" 
d="M76 660h135v-538h289v-122h-424v660z" />
    <glyph glyph-name="M" unicode="M" horiz-adv-x="798" 
d="M722 672v-672h-135v352l-166 -208h-44l-166 208v-352h-135v672h44l279 -357l279 357h44z" />
    <glyph glyph-name="N" unicode="N" horiz-adv-x="713" 
d="M638 660v-672h-45l-382 408v-396h-135v672h44l383 -406v394h135z" />
    <glyph glyph-name="O" unicode="O" horiz-adv-x="778" 
d="M212 33q-80 45 -127 123.5t-47 173.5t47 173.5t127 123.5t176 45t176.5 -45t128 -123.5t47.5 -173.5t-47.5 -173.5t-128 -123.5t-176.5 -45t-176 45zM497.5 140.5q48.5 27.5 76 77t27.5 112.5q0 62 -27.5 111.5t-76 77.5t-108.5 28q-61 0 -109 -27.5t-75.5 -77
t-27.5 -112.5t27.5 -112.5t75.5 -77t109 -27.5q60 0 108.5 27.5z" />
    <glyph glyph-name="P" unicode="P" horiz-adv-x="594" 
d="M76 660h248q69 0 123 -26.5t84.5 -75t30.5 -111.5t-30.5 -111.5t-84.5 -75.5t-123 -27h-113v-233h-135v660zM324 351q47 0 73.5 26.5t26.5 69.5q0 42 -27 68t-73 26h-113v-190h113z" />
    <glyph glyph-name="Q" unicode="Q" horiz-adv-x="778" 
d="M1057 -102v-106q-52 -13 -118 -13q-134 0 -247.5 57t-192.5 169q-54 -17 -111 -17q-96 0 -176 45t-127 123.5t-47 173.5t47 173.5t127 123.5t176 45t176.5 -45t128 -123.5t47.5 -173.5q0 -81 -34.5 -150t-94.5 -116q67 -87 152 -128.5t202 -41.5q20 0 92 4zM204.5 217.5
q27.5 -49.5 75.5 -77t109 -27.5q60 0 108.5 27.5t76 77t27.5 112.5q0 62 -27.5 111.5t-76 77.5t-108.5 28q-61 0 -109 -27.5t-75.5 -77t-27.5 -112.5t27.5 -112.5z" />
    <glyph glyph-name="R" unicode="R" horiz-adv-x="640" 
d="M481 0l-171 233h-99v-233h-135v660h248q69 0 123 -26.5t84.5 -75t30.5 -111.5t-31 -112t-85 -76l187 -259h-152zM211 352h113q47 0 73.5 26t26.5 69q0 42 -27 68t-73 26h-113v-189z" />
    <glyph glyph-name="S" unicode="S" horiz-adv-x="559" 
d="M134.5 27.5q-66.5 39.5 -104.5 106.5l93 70q32 -44 70 -70t92 -26q44 0 69 19.5t25 53.5q0 29 -18.5 44.5t-65.5 37.5l-71 32q-76 34 -118 79t-42 111q0 56 28.5 98.5t78.5 65.5t112 23q76 0 131.5 -34t86.5 -91l-92 -71q-51 76 -126 76q-35 0 -58.5 -16.5t-23.5 -47.5
q0 -26 17.5 -41.5t59.5 -34.5l75 -33q83 -37 123 -81.5t40 -111.5q0 -60 -30 -105t-82.5 -69t-118.5 -24q-84 0 -150.5 39.5z" />
    <glyph glyph-name="T" unicode="T" horiz-adv-x="585" 
d="M225 538h-211v122h558v-122h-212v-538h-135v538z" />
    <glyph glyph-name="U" unicode="U" horiz-adv-x="700" 
d="M205.5 22.5q-63.5 34.5 -99.5 99t-36 151.5v387h135v-397q0 -72 40.5 -111t104.5 -39q65 0 105 39t40 111v397h135v-387q0 -87 -36.5 -151.5t-100 -99t-143.5 -34.5q-81 0 -144.5 34.5z" />
    <glyph glyph-name="V" unicode="V" horiz-adv-x="661" 
d="M647 660l-294 -672h-45l-295 672h153l165 -400l164 400h152z" />
    <glyph glyph-name="W" unicode="W" horiz-adv-x="1035" 
d="M1010 660l-264 -672h-44l-184 414l-185 -414h-44l-264 672h150l147 -390l173 402h45l173 -400l147 388h150z" />
    <glyph glyph-name="X" unicode="X" horiz-adv-x="614" 
d="M447 0l-140 219l-140 -219h-154l219 336l-206 324h154l127 -208l126 208h153l-203 -324l217 -336h-153z" />
    <glyph glyph-name="Y" unicode="Y" horiz-adv-x="624" 
d="M380 260v-260h-135v259l-228 401h150l146 -262l145 262h149z" />
    <glyph glyph-name="Z" unicode="Z" horiz-adv-x="588" 
d="M560 122v-122h-540v36l331 502h-288v122h496v-36l-331 -502h332z" />
    <glyph glyph-name="bracketleft" unicode="[" horiz-adv-x="357" 
d="M90 730h229v-109h-114v-642h114v-109h-229v860z" />
    <glyph glyph-name="backslash" unicode="\" horiz-adv-x="672" 
d="M3 780h143l523 -901h-143z" />
    <glyph glyph-name="bracketright" unicode="]" horiz-adv-x="357" 
d="M38 -21h114v642h-114v109h230v-860h-230v109z" />
    <glyph glyph-name="asciicircum" unicode="^" horiz-adv-x="536" 
d="M357 276l-89 184l-90 -184h-129l197 394h44l196 -394h-129z" />
    <glyph glyph-name="underscore" unicode="_" horiz-adv-x="502" 
d="M35 -65h432v-106h-432v106z" />
    <glyph glyph-name="grave" unicode="`" horiz-adv-x="600" 
d="M182 756v24h162l73 -209h-98z" />
    <glyph glyph-name="a" unicode="a" horiz-adv-x="545" 
d="M424.5 451.5q57.5 -54.5 57.5 -157.5v-294h-124v48q-27 -28 -65.5 -44t-85.5 -16q-79 0 -125 41.5t-46 106.5q0 67 50.5 105.5t136.5 38.5h124v22q0 41 -23.5 64t-68.5 23q-38 0 -68 -16.5t-63 -51.5l-70 83q86 102 216 102q97 0 154.5 -54.5zM317 114.5q30 27.5 30 70.5
v6h-106q-33 0 -51 -12.5t-18 -37.5t19.5 -39.5t51.5 -14.5q44 0 74 27.5z" />
    <glyph glyph-name="b" unicode="b" horiz-adv-x="629" 
d="M473.5 472.5q54.5 -33.5 85.5 -92.5t31 -133t-31 -133t-85.5 -92.5t-123.5 -33.5q-51 0 -92 19t-67 54v-61h-124v750h135v-303q54 59 148 59q69 0 123.5 -33.5zM416.5 148.5q36.5 37.5 36.5 99.5q0 61 -37 98.5t-91 37.5q-52 0 -88.5 -35.5t-36.5 -101.5q0 -67 37 -101.5
t88 -34.5q55 0 91.5 37.5z" />
    <glyph glyph-name="c" unicode="c" horiz-adv-x="552" 
d="M170.5 22.5q-60.5 34.5 -96 94t-35.5 131.5t35.5 131t96 93t133.5 34t128 -32.5t87 -89.5l-94 -73q-23 34 -51.5 53t-67.5 19q-57 0 -93.5 -38.5t-36.5 -96.5q0 -59 36.5 -97.5t93.5 -38.5q38 0 66.5 18.5t52.5 52.5l94 -72q-32 -57 -87.5 -90t-127.5 -33
q-73 0 -133.5 34.5z" />
    <glyph glyph-name="d" unicode="d" horiz-adv-x="629" 
d="M562 750v-750h-124v61q-25 -35 -66.5 -54t-92.5 -19q-69 0 -123.5 33.5t-85.5 92.5t-31 133t31 133t85.5 92.5t123.5 33.5q94 0 148 -59v303h135zM392 145.5q37 34.5 37 101.5q0 66 -37 101.5t-88 35.5q-54 0 -91 -37.5t-37 -98.5q0 -62 36.5 -99.5t91.5 -37.5
q51 0 88 34.5z" />
    <glyph glyph-name="e" unicode="e" horiz-adv-x="569" 
d="M522 202h-347q12 -47 48.5 -72.5t90.5 -25.5q73 0 138 50l56 -92q-88 -74 -198 -74q-77 0 -139 34t-97 93.5t-35 131.5t34 131.5t93.5 93.5t131.5 34q68 0 121 -30.5t82.5 -83t29.5 -116.5q0 -36 -9 -74zM218 370q-32 -27 -43 -73h225q-1 46 -32 73t-75 27q-43 0 -75 -27
z" />
    <glyph glyph-name="f" unicode="f" horiz-adv-x="342" 
d="M247 623.5q-22 -17.5 -22 -59.5v-69h109v-114h-109v-381h-135v381h-70v114h70v81q0 93 51 139.5t140 46.5q39 0 74 -11v-113q-22 3 -40 3q-46 0 -68 -17.5z" />
    <glyph glyph-name="g" unicode="g" horiz-adv-x="631" 
d="M564 495v-440q0 -121 -70 -184t-186 -63q-140 0 -243 92l71 94q41 -31 78.5 -47.5t82.5 -16.5q60 0 96 29.5t36 87.5v27q-27 -29 -65.5 -44t-85.5 -15q-68 0 -122 31t-84.5 87t-30.5 128q0 73 31 128.5t85 86t121 30.5q53 0 94.5 -19t67.5 -54v62h124zM394 164
q37 35 37 99t-36.5 96t-88.5 32q-55 0 -91.5 -34.5t-36.5 -94.5t37 -96.5t91 -36.5q51 0 88 35z" />
    <glyph glyph-name="h" unicode="h" horiz-adv-x="585" 
d="M472 451.5q50 -54.5 50 -144.5v-307h-134v288q0 43 -25.5 69.5t-66.5 26.5t-67.5 -26.5t-26.5 -69.5v-288h-135v750h135v-297q25 25 60 39t76 14q84 0 134 -54.5z" />
    <glyph glyph-name="i" unicode="i" horiz-adv-x="269" 
d="M67 495h135v-495h-135v495zM73 616q-25 24 -25 59q0 36 25 60t61 24t61.5 -24t25.5 -60q0 -35 -25.5 -59t-61.5 -24t-61 24z" />
    <glyph glyph-name="j" unicode="j" horiz-adv-x="269" 
d="M-63 -181v113q24 -3 41 -3q45 0 67 18t22 59v489h135v-501q0 -93 -51 -139.5t-139 -46.5q-40 0 -75 11zM73 616q-25 24 -25 59q0 36 25 60t61 24t61.5 -24t25.5 -60q0 -35 -25.5 -59t-61.5 -24t-61 24z" />
    <glyph glyph-name="k" unicode="k" 
d="M401 0l-199 274v-274h-135v750h135v-466l178 211h160l-186 -219l201 -276h-154z" />
    <glyph glyph-name="l" unicode="l" horiz-adv-x="269" 
d="M67 750h135v-750h-135v750z" />
    <glyph glyph-name="m" unicode="m" horiz-adv-x="892" 
d="M780 451.5q50 -54.5 50 -144.5v-307h-135v288q0 44 -24 70t-64 26t-65.5 -26t-25.5 -67v-291h-135v288q0 44 -24 70t-64 26q-41 0 -66 -26t-25 -70v-288h-135v495h124v-44q25 26 61 40.5t79 14.5q98 0 147 -71q29 33 71.5 52t93.5 19q87 0 137 -54.5z" />
    <glyph glyph-name="n" unicode="n" horiz-adv-x="585" 
d="M472 451.5q50 -54.5 50 -144.5v-307h-134v289q0 43 -25.5 69.5t-66.5 26.5t-67.5 -26.5t-26.5 -69.5v-289h-135v495h124v-45q26 26 63.5 41t81.5 15q86 0 136 -54.5z" />
    <glyph glyph-name="o" unicode="o" horiz-adv-x="608" 
d="M169.5 23.5q-60.5 34.5 -95.5 94t-35 130.5t35 130.5t96 93.5t134 34t134 -34.5t96.5 -93.5t35.5 -130t-35.5 -130.5t-97 -94t-134.5 -34.5t-133.5 34.5zM395.5 151q36.5 38 36.5 96t-36.5 97t-91.5 39q-56 0 -92 -38.5t-36 -97.5q0 -58 36 -96t92 -38q55 0 91.5 38z" />
    <glyph glyph-name="p" unicode="p" horiz-adv-x="629" 
d="M473.5 472.5q54.5 -33.5 85.5 -92t31 -132.5t-31 -133t-85.5 -93t-123.5 -34q-45 0 -83 15.5t-65 44.5v-228h-135v675h124v-62q25 35 66.5 54t92.5 19q69 0 123.5 -33.5zM416 148.5q37 37.5 37 98.5q0 62 -36.5 99.5t-91.5 37.5q-51 0 -88 -34.5t-37 -101.5
q0 -66 36.5 -101.5t88.5 -35.5q54 0 91 37.5z" />
    <glyph glyph-name="q" unicode="q" horiz-adv-x="629" 
d="M562 495v-675h-135v228q-27 -29 -65 -44.5t-83 -15.5q-69 0 -123.5 34t-85.5 93t-31 133t31 132.5t85.5 92t123.5 33.5q51 0 92.5 -19t66.5 -54v62h124zM392 146.5q37 35.5 37 101.5q0 67 -37 101.5t-88 34.5q-55 0 -91.5 -37.5t-36.5 -99.5q0 -61 37 -98.5t91 -37.5
q51 0 88 35.5z" />
    <glyph glyph-name="r" unicode="r" horiz-adv-x="388" 
d="M371 495v-119h-36q-61 0 -97 -32.5t-36 -96.5v-247h-135v495h124v-59q25 31 60 48t76 17q25 0 44 -6z" />
    <glyph glyph-name="s" unicode="s" horiz-adv-x="455" 
d="M109 13.5q-53 25.5 -87 70.5l68 82q65 -67 139 -67q27 0 45 10.5t18 30.5q0 16 -11.5 24.5t-39.5 20.5l-53 22q-68 28 -101.5 62t-33.5 89q0 70 50.5 109t131.5 39q111 0 178 -74l-68 -83q-50 47 -111 47q-25 0 -39 -9t-14 -26q0 -14 11.5 -23t40.5 -21l48 -20
q72 -29 105.5 -62.5t33.5 -88.5q0 -74 -54.5 -116t-138.5 -42q-65 0 -118 25.5z" />
    <glyph glyph-name="t" unicode="t" horiz-adv-x="416" 
d="M385 113v-113q-48 -12 -93 -12q-94 0 -146 46.5t-52 139.5v207h-78v114h78v125h135v-125h140v-114h-140v-195q0 -42 22 -59.5t70 -17.5q12 0 64 4z" />
    <glyph glyph-name="u" unicode="u" horiz-adv-x="580" 
d="M173.5 16.5q-52.5 28.5 -82 80.5t-29.5 121v277h135v-288q0 -43 26.5 -69t67.5 -26q39 0 65.5 26t26.5 69v288h135v-277q0 -69 -29.5 -121t-81.5 -80.5t-116 -28.5q-65 0 -117.5 28.5z" />
    <glyph glyph-name="v" unicode="v" horiz-adv-x="559" 
d="M547 495l-245 -507h-45l-245 507h142l125 -280l125 280h143z" />
    <glyph glyph-name="w" unicode="w" horiz-adv-x="857" 
d="M845 495l-230 -507h-44l-142 288l-143 -288h-44l-230 507h142l117 -282l135 293h45l137 -287l115 276h142z" />
    <glyph glyph-name="x" unicode="x" horiz-adv-x="531" 
d="M372 0l-106 158l-107 -158h-151l181 255l-169 240h151l95 -143l94 143h151l-170 -239l182 -256h-151z" />
    <glyph glyph-name="y" unicode="y" horiz-adv-x="559" 
d="M547 495l-237 -538q-34 -77 -81 -113t-116 -36q-42 0 -87 12v113q46 -4 58 -4q36 0 61 14t42 53l15 34l-190 465h143l121 -325l129 325h142z" />
    <glyph glyph-name="z" unicode="z" horiz-adv-x="468" 
d="M452 114v-114h-435v36l237 345h-214v114h410v-36l-235 -345h237z" />
    <glyph glyph-name="braceleft" unicode="{" horiz-adv-x="413" 
d="M255 556q0 -19 10 -79q12 -64 12 -91q0 -36 -17.5 -57t-53.5 -30q37 -9 54 -29.5t17 -56.5q0 -22 -5 -52.5t-6 -36.5q-11 -57 -11 -81q0 -32 16 -48.5t46 -16.5h58v-108h-81q-154 0 -154 140q0 32 13 108q9 50 9 72q0 27 -13.5 39.5t-41.5 12.5h-62v115h62
q28 0 41.5 12.5t13.5 39.5q0 21 -9 73q-5 27 -9 56t-4 51q0 141 154 141h81v-109h-58q-62 0 -62 -65z" />
    <glyph glyph-name="bar" unicode="|" horiz-adv-x="332" 
d="M110 780h112v-901h-112v901z" />
    <glyph glyph-name="braceright" unicode="}" horiz-adv-x="413" 
d="M367 357v-115h-61q-28 0 -41.5 -12.5t-13.5 -39.5q0 -22 9 -72q13 -76 13 -108q0 -140 -154 -140h-81v108h57q30 0 46.5 16.5t16.5 48.5q0 24 -11 81q-1 6 -6 36.5t-5 52.5q0 36 17 56.5t53 29.5q-36 9 -53 30t-17 57q0 27 12 91q10 60 10 79q0 65 -63 65h-57v109h81
q154 0 154 -141q0 -22 -4 -51t-9 -56q-9 -52 -9 -73q0 -27 13.5 -39.5t41.5 -12.5h61z" />
    <glyph glyph-name="asciitilde" unicode="~" 
d="M318 234l-88 53q-18 12 -31 17.5t-24 5.5q-16 0 -24.5 -10.5t-8.5 -28.5v-19h-103q-2 26 -2 37q0 62 34.5 102.5t85.5 40.5q19 0 42 -7t43 -19l88 -54q21 -12 32.5 -17t22.5 -5q16 0 25 11t9 27v20h102q3 -19 3 -37q0 -63 -35 -103t-86 -40q-43 0 -85 26z" />
    <glyph glyph-name="uni00A0" unicode="&#xa0;" horiz-adv-x="280" 
 />
    <glyph glyph-name="exclamdown" unicode="&#xa1;" horiz-adv-x="347" 
d="M107.5 347.5q-26.5 26.5 -26.5 66.5t26.5 66t67.5 26q39 0 65.5 -26t26.5 -66t-26.5 -66.5t-65.5 -26.5q-41 0 -67.5 26.5zM119 252h110l25 -432h-161z" />
    <glyph glyph-name="cent" unicode="&#xa2;" horiz-adv-x="557" 
d="M367.5 209.5q28.5 18.5 52.5 52.5l93 -72q-27 -49 -72 -80.5t-103 -39.5v-167h-118v175q-83 24 -135 92t-52 156t52 156t135 92v175h118v-167q58 -8 103 -39.5t73 -80.5l-94 -72q-24 34 -52.5 52.5t-67.5 18.5q-57 0 -93 -38.5t-36 -96.5t36 -96.5t93 -38.5
q39 0 67.5 18.5z" />
    <glyph glyph-name="sterling" unicode="&#xa3;" horiz-adv-x="569" 
d="M276 114h249v-114h-483v29q66 48 99 91.5t33 96.5v10h-122v114h79q-21 40 -32 70.5t-11 67.5q0 58 28.5 101.5t78 67.5t111.5 24q84 0 144.5 -46t84.5 -135l-113 -41q-31 97 -107 97q-42 0 -66 -25t-24 -65q0 -28 10.5 -52t33.5 -64h161v-114h-122v-8q0 -61 -32 -105z
" />
    <glyph glyph-name="currency" unicode="&#xa4;" horiz-adv-x="657" 
d="M532 203l108 -110l-80 -80l-112 114q-56 -31 -123 -31q-66 0 -121 30l-106 -113l-81 80l103 109q-39 56 -39 128q0 70 39 126l-103 105l81 81l106 -109q54 31 121 31q66 0 125 -32l109 110l81 -81l-107 -105q38 -57 38 -126q0 -71 -39 -127zM403 251q30 31 30 79
t-30.5 79t-76.5 31q-48 0 -77.5 -31t-29.5 -79t29.5 -79t77.5 -31q47 0 77 31z" />
    <glyph glyph-name="yen" unicode="&#xa5;" horiz-adv-x="599" 
d="M398 375h150v-109h-180v-62h180v-109h-180v-95h-135v95h-181v109h181v62h-181v109h150l-197 285h150l145 -212l145 212h149z" />
    <glyph glyph-name="brokenbar" unicode="&#xa6;" horiz-adv-x="332" 
d="M110 780h112v-300h-112v300zM110 179h112v-300h-112v300z" />
    <glyph glyph-name="section" unicode="&#xa7;" horiz-adv-x="602" 
d="M541.5 106q-31.5 -37 -84.5 -53q2 -16 2 -25q0 -72 -51 -116.5t-136 -44.5q-65 0 -116.5 28t-81.5 79l85 69q47 -63 113 -63q29 0 44.5 12t15.5 36t-16 40t-59 45l-91 61q-71 45 -104 84.5t-33 91.5q0 53 31.5 90t84.5 53q-2 16 -2 25q0 72 51 116.5t136 44.5
q65 0 116 -28t81 -79l-85 -69q-23 31 -50 47t-63 16q-29 0 -44.5 -12t-15.5 -36t16 -39.5t60 -45.5l90 -61q71 -45 104.5 -84t33.5 -92t-31.5 -90zM411 138q35 20 35 54q0 20 -16 38t-61 48l-98 65q-56 37 -82 64q-34 -19 -34 -53q0 -20 16 -37.5t62 -48.5l90 -61
q60 -38 88 -69z" />
    <glyph glyph-name="dieresis" unicode="&#xa8;" horiz-adv-x="600" 
d="M124 621q-24 23 -24 55t24 55t58 23q32 0 56 -23t24 -55t-24 -55t-56 -23q-34 0 -58 23zM362 621q-24 23 -24 55t24 55t58 23q32 0 56 -23t24 -55t-24 -55t-56 -23q-34 0 -58 23z" />
    <glyph glyph-name="copyright" unicode="&#xa9;" horiz-adv-x="778" 
d="M213.5 33q-80.5 45 -128 123t-47.5 173q0 96 48 174.5t128.5 123.5t174.5 45t174.5 -45t128.5 -123.5t48 -173.5t-48 -173.5t-129 -123.5t-175 -45t-174.5 45zM517.5 100q60.5 32 97.5 91.5t37 137.5t-36.5 138t-97.5 92.5t-130 32.5q-70 0 -130 -32.5t-96 -92.5
t-36 -138t36 -137.5t96 -91.5t130 -32q69 0 129.5 32zM300 169q-43 24 -68 66.5t-25 94.5t25 94.5t68 67t96 24.5q46 0 84.5 -21t66.5 -58l-70 -61q-16 22 -35.5 34t-44.5 12q-38 0 -62 -26t-24 -66q0 -39 24 -65t62 -26q26 0 45 11.5t35 33.5l70 -61q-28 -37 -67 -57.5
t-85 -20.5q-52 0 -95 24z" />
    <glyph glyph-name="ordfeminine" unicode="&#xaa;" horiz-adv-x="366" 
d="M282 530q38 -35 38 -102v-184h-95v24q-34 -32 -90 -32q-51 0 -79.5 28t-28.5 70q0 44 32.5 68t89.5 24h67v11q0 42 -50 42q-21 0 -40 -8t-43 -25l-42 67q58 52 137 52q66 0 104 -35zM202 323q14 13 14 35v9h-49q-17 0 -26 -8t-9 -21t9.5 -20.5t25.5 -7.5q21 0 35 13z" />
    <glyph glyph-name="guillemotleft" unicode="&#xab;" horiz-adv-x="597" 
d="M29 254v36l195 210l86 -75l-135 -152l135 -153l-86 -75zM286 254v36l195 210l86 -75l-135 -152l135 -153l-86 -75z" />
    <glyph glyph-name="logicalnot" unicode="&#xac;" 
d="M358 263h-315v115h441v-275h-126v160z" />
    <glyph glyph-name="uni00AD" unicode="&#xad;" horiz-adv-x="342" 
d="M45 377h252v-113h-252v113z" />
    <glyph glyph-name="registered" unicode="&#xae;" horiz-adv-x="574" 
d="M414.5 657.5q58.5 -34.5 92.5 -93.5t34 -128q0 -70 -34 -129t-92.5 -93.5t-126.5 -34.5q-69 0 -127.5 34.5t-93 93.5t-34.5 129q0 69 34.5 128t93 93.5t127.5 34.5q68 0 126.5 -34.5zM382 267.5q43 25.5 68 70t25 98.5t-25 98t-68 69.5t-94 25.5q-52 0 -95 -25.5
t-68 -69.5t-25 -98t25 -98.5t68 -70t95 -25.5q51 0 94 25.5zM419 310h-77l-58 75h-27v-75h-70v251h104q44 0 72.5 -24t28.5 -64q0 -46 -39 -72zM257 445h34q13 0 21 7.5t8 19.5q0 13 -8 20.5t-21 7.5h-34v-55z" />
    <glyph glyph-name="macron" unicode="&#xaf;" horiz-adv-x="600" 
d="M149 728h302v-106h-302v106z" />
    <glyph glyph-name="degree" unicode="&#xb0;" horiz-adv-x="361" 
d="M102 385q-36 21 -57 56.5t-21 76.5t21 76.5t57 56.5t79 21t78.5 -20.5t56.5 -56t21 -77.5t-21 -77.5t-56.5 -56t-78.5 -20.5t-79 21zM229 469.5q19 19.5 19 47.5q0 29 -19 48.5t-48 19.5t-48 -19.5t-19 -48.5q0 -28 19 -47.5t48 -19.5t48 19.5z" />
    <glyph glyph-name="plusminus" unicode="&#xb1;" 
d="M216 315h-161v109h161v134h129v-134h161v-109h-161v-141h-129v141zM55 108h451v-108h-451v108z" />
    <glyph glyph-name="uni00B2" unicode="&#xb2;" horiz-adv-x="385" 
d="M346 454v-90l-313 -1v21l149 162q27 31 39.5 52.5t12.5 44.5q0 24 -13 38.5t-35 14.5t-35.5 -14.5t-13.5 -40.5q0 -5 2 -29h-99q-4 17 -4 35q0 36 18.5 68.5t53 52.5t79.5 20q64 0 107 -38.5t43 -97.5q0 -43 -23 -80.5t-68 -83.5l-32 -34h132z" />
    <glyph glyph-name="uni00B3" unicode="&#xb3;" horiz-adv-x="360" 
d="M299.5 582q26.5 -33 26.5 -80q0 -42 -21.5 -75t-58 -52t-80.5 -19q-53 0 -93.5 26.5t-61.5 71.5l69 49q19 -28 38 -41.5t45 -13.5t43 14.5t17 39.5q0 48 -76 48h-48v25l78 115h-133v90h275v-27l-84 -125q38 -13 64.5 -46z" />
    <glyph glyph-name="acute" unicode="&#xb4;" horiz-adv-x="600" 
d="M255 780h162v-24l-137 -185h-98z" />
    <glyph glyph-name="uni00B5" unicode="&#xb5;" horiz-adv-x="613" 
d="M595 112v-112q-33 -10 -72 -10q-75 0 -106 52q-20 -25 -49 -39.5t-63 -14.5q-31 0 -57.5 12t-45.5 33v-213h-135v675h135v-285q0 -44 25.5 -72t66.5 -28q42 0 68 28t26 72v285h134v-323q0 -32 11 -46.5t35 -14.5z" />
    <glyph glyph-name="paragraph" unicode="&#xb6;" horiz-adv-x="613" 
d="M153.5 245q-56.5 28 -89 78.5t-32.5 116.5t32 116t88.5 77t127.5 27h58v-443h-58q-70 0 -126.5 28zM246 -180v115q54 -4 64 -4q48 0 70.5 18t22.5 62v649h135v-663q0 -95 -52 -142t-147 -47q-47 0 -93 12z" />
    <glyph glyph-name="periodcentered" unicode="&#xb7;" horiz-adv-x="280" 
d="M74 253.5q-27 26.5 -27 66.5q0 39 27 66t67 27q39 0 65.5 -27t26.5 -66q0 -40 -26 -66.5t-66 -26.5t-67 26.5z" />
    <glyph glyph-name="cedilla" unicode="&#xb8;" horiz-adv-x="600" 
d="M185 -182v89q26 -2 60 -2q29 0 45.5 14.5t16.5 42.5q0 26 -13 58l53 24q32 -18 49.5 -45.5t17.5 -63.5q0 -55 -41.5 -91t-113.5 -36q-39 0 -74 10z" />
    <glyph glyph-name="uni00B9" unicode="&#xb9;" horiz-adv-x="370" 
d="M42 454h103v236h-94v90h195v-326h86v-90h-290v90z" />
    <glyph glyph-name="ordmasculine" unicode="&#xba;" horiz-adv-x="399" 
d="M114 257.5q-39 21.5 -62 59.5t-23 84t23 83.5t62 59t85 21.5t85.5 -21.5t62.5 -59t23 -83.5t-23 -84t-62 -59.5t-86 -21.5q-46 0 -85 21.5zM247.5 350q18.5 20 18.5 51q0 32 -18.5 51.5t-48.5 19.5t-48 -19.5t-18 -51.5t18 -51.5t48 -19.5t48.5 20z" />
    <glyph glyph-name="guillemotright" unicode="&#xbb;" horiz-adv-x="597" 
d="M31 120l134 153l-134 152l86 75l194 -210v-36l-194 -209zM288 120l134 153l-134 152l86 75l194 -210v-36l-194 -209z" />
    <glyph glyph-name="onequarter" unicode="&#xbc;" horiz-adv-x="937" 
d="M42 334h103v236h-94v90h195v-326h86v-90h-290v90zM631 660h109l-380 -660h-109zM926 64h-50v-64h-91v64h-212v26l124 326h103l-104 -270h89l1 109h90v-109h50v-82z" />
    <glyph glyph-name="onehalf" unicode="&#xbd;" horiz-adv-x="971" 
d="M42 334h103v236h-94v90h195v-326h86v-90h-290v90zM631 660h109l-380 -660h-109zM932 90v-90l-313 -1v21l149 162q27 31 39.5 52.5t12.5 44.5q0 24 -13 38.5t-35 14.5t-35.5 -14.5t-13.5 -40.5q0 -5 2 -29h-99q-4 17 -4 35q0 36 18.5 68.5t53 52.5t79.5 20q64 0 107 -38.5
t43 -97.5q0 -43 -23 -80.5t-68 -83.5l-32 -34h132z" />
    <glyph glyph-name="threequarters" unicode="&#xbe;" horiz-adv-x="892" 
d="M299.5 462q26.5 -33 26.5 -80q0 -42 -21.5 -75t-58 -52t-80.5 -19q-53 0 -93.5 26.5t-61.5 71.5l69 49q19 -28 38 -41.5t45 -13.5t43 14.5t17 39.5q0 48 -76 48h-48v25l78 115h-133v90h275v-27l-84 -125q38 -13 64.5 -46zM586 660h109l-380 -660h-109zM881 64h-50v-64
h-91v64h-212v26l124 326h103l-104 -270h89l1 109h90v-109h50v-82z" />
    <glyph glyph-name="questiondown" unicode="&#xbf;" horiz-adv-x="451" 
d="M170.5 347.5q-26.5 26.5 -26.5 66.5t26.5 66t66.5 26t66.5 -26t26.5 -66t-26.5 -66.5t-66.5 -26.5t-66.5 26.5zM132 -169q-45 23 -71.5 64t-26.5 94q0 49 21 82t61 68q40 36 55 54t15 39l-1 20h114q11 -29 11 -47q0 -33 -20 -57.5t-59 -59.5q-32 -29 -45.5 -48t-13.5 -42
q0 -29 19 -47t45 -18q27 0 47 18.5t34 56.5l111 -48q-21 -75 -73 -113.5t-123 -38.5q-55 0 -100 23z" />
    <glyph glyph-name="Agrave" unicode="&#xc0;" horiz-adv-x="661" 
d="M465 86h-270l-37 -86h-145l295 672h45l294 -672h-145zM330 420l-88 -223h176zM145 886v24h162l73 -186h-98z" />
    <glyph glyph-name="Aacute" unicode="&#xc1;" horiz-adv-x="661" 
d="M465 86h-270l-37 -86h-145l295 672h45l294 -672h-145zM330 420l-88 -223h176zM351 910h162v-24l-137 -162h-98z" />
    <glyph glyph-name="Acircumflex" unicode="&#xc2;" horiz-adv-x="661" 
d="M465 86h-270l-37 -86h-145l295 672h45l294 -672h-145zM330 420l-88 -223h176zM420 724l-90 80l-90 -80h-102l148 186h89l148 -186h-103z" />
    <glyph glyph-name="Atilde" unicode="&#xc3;" horiz-adv-x="661" 
d="M465 86h-270l-37 -86h-145l295 672h45l294 -672h-145zM330 420l-88 -223h176zM339 747l-30 16q-28 17 -44 17q-14 0 -21 -9.5t-7 -23.5v-12h-103q-2 22 -2 34q0 60 33.5 97t82.5 37q35 0 74 -21l30 -18q3 -2 12.5 -7t17.5 -7.5t15 -2.5q14 0 21 9.5t7 24.5v12h103
q2 -22 2 -33q0 -61 -33.5 -98t-81.5 -37q-35 0 -76 22z" />
    <glyph glyph-name="Adieresis" unicode="&#xc4;" horiz-adv-x="661" 
d="M465 86h-270l-37 -86h-145l295 672h45l294 -672h-145zM330 420l-88 -223h176zM145.5 760.5q-24.5 23.5 -24.5 53.5q0 33 24 55.5t56 22.5q34 0 58 -22.5t24 -55.5q0 -31 -24 -54t-58 -23q-31 0 -55.5 23.5zM404 759.5q-25 23.5 -25 53.5q0 33 24.5 56t56.5 23
q33 0 57 -23t24 -56q0 -31 -24 -54t-57 -23q-31 0 -56 23.5z" />
    <glyph glyph-name="Aring" unicode="&#xc5;" horiz-adv-x="661" 
d="M465 86h-270l-37 -86h-145l295 672h45l294 -672h-145zM330 420l-88 -223h176zM240 710.5q-36 35.5 -36 87.5q0 51 36 86t90 35q55 0 91 -35t36 -86q0 -52 -36 -87.5t-91 -35.5q-54 0 -90 35.5zM360 768q12 12 12 30q0 17 -12 29t-29 12q-18 0 -29.5 -12t-11.5 -29
q0 -18 11.5 -30t29.5 -12q17 0 29 12z" />
    <glyph glyph-name="AE" unicode="&#xc6;" horiz-adv-x="852" 
d="M812 122v-122h-355l-15 86h-247l-45 -86h-145l338 660h457v-122h-301l22 -134h198v-115h-179l28 -167h244zM251 197h172l-43 269z" />
    <glyph glyph-name="Ccedilla" unicode="&#xc7;" horiz-adv-x="720" 
d="M211.5 33q-80.5 45 -127 123.5t-46.5 173.5t47 173.5t127.5 123.5t177.5 45q94 0 170.5 -43.5t120.5 -120.5l-102 -72q-70 111 -189 111q-61 0 -109.5 -28t-76 -77.5t-27.5 -112.5t27.5 -112t76 -76.5t109.5 -27.5q119 0 189 111l102 -72q-43 -77 -120 -120.5t-172 -43.5
q-97 0 -177.5 45zM254 -182v89q26 -2 60 -2q29 0 45.5 14.5t16.5 42.5q0 26 -13 58l53 24q32 -18 49.5 -45.5t17.5 -63.5q0 -55 -41.5 -91t-113.5 -36q-39 0 -74 10z" />
    <glyph glyph-name="Egrave" unicode="&#xc8;" horiz-adv-x="573" 
d="M76 660h444v-122h-309v-134h227v-115h-227v-167h321v-122h-456v660zM109 886v24h162l73 -186h-98z" />
    <glyph glyph-name="Eacute" unicode="&#xc9;" horiz-adv-x="573" 
d="M76 660h444v-122h-309v-134h227v-115h-227v-167h321v-122h-456v660zM315 910h162v-24l-137 -162h-98z" />
    <glyph glyph-name="Ecircumflex" unicode="&#xca;" horiz-adv-x="573" 
d="M76 660h444v-122h-309v-134h227v-115h-227v-167h321v-122h-456v660zM384 724l-90 80l-90 -80h-102l148 186h89l148 -186h-103z" />
    <glyph glyph-name="Edieresis" unicode="&#xcb;" horiz-adv-x="573" 
d="M76 660h444v-122h-309v-134h227v-115h-227v-167h321v-122h-456v660zM109.5 760.5q-24.5 23.5 -24.5 53.5q0 33 24 55.5t56 22.5q34 0 58 -22.5t24 -55.5q0 -31 -24 -54t-58 -23q-31 0 -55.5 23.5zM368 759.5q-25 23.5 -25 53.5q0 33 24.5 56t56.5 23q33 0 57 -23t24 -56
q0 -31 -24 -54t-57 -23q-31 0 -56 23.5z" />
    <glyph glyph-name="Igrave" unicode="&#xcc;" horiz-adv-x="286" 
d="M76 660h135v-660h-135v660zM-42 886v24h162l73 -186h-98z" />
    <glyph glyph-name="Iacute" unicode="&#xcd;" horiz-adv-x="286" 
d="M76 660h135v-660h-135v660zM164 910h162v-24l-137 -162h-98z" />
    <glyph glyph-name="Icircumflex" unicode="&#xce;" horiz-adv-x="286" 
d="M76 660h135v-660h-135v660zM233 724l-90 80l-90 -80h-102l148 186h89l148 -186h-103z" />
    <glyph glyph-name="Idieresis" unicode="&#xcf;" horiz-adv-x="286" 
d="M76 660h135v-660h-135v660zM-41.5 760.5q-24.5 23.5 -24.5 53.5q0 33 24 55.5t56 22.5q34 0 58 -22.5t24 -55.5q0 -31 -24 -54t-58 -23q-31 0 -55.5 23.5zM217 759.5q-25 23.5 -25 53.5q0 33 24.5 56t56.5 23q33 0 57 -23t24 -56q0 -31 -24 -54t-57 -23q-31 0 -56 23.5z
" />
    <glyph glyph-name="Eth" unicode="&#xd0;" horiz-adv-x="690" 
d="M479 619q82 -41 127.5 -115t45.5 -172q0 -96 -45.5 -171.5t-127.5 -118t-187 -42.5h-216v257h-84v113h84v290h216q105 0 187 -41zM407.5 148q50.5 26 78 73.5t27.5 110.5q0 96 -60.5 151t-161.5 55h-80v-168h108v-113h-108v-135h80q66 0 116.5 26z" />
    <glyph glyph-name="Ntilde" unicode="&#xd1;" horiz-adv-x="713" 
d="M638 660v-672h-45l-382 408v-396h-135v672h44l383 -406v394h135zM365 747l-30 16q-28 17 -44 17q-14 0 -21 -9.5t-7 -23.5v-12h-103q-2 22 -2 34q0 60 33.5 97t82.5 37q35 0 74 -21l30 -18q3 -2 12.5 -7t17.5 -7.5t15 -2.5q14 0 21 9.5t7 24.5v12h103q2 -22 2 -33
q0 -61 -33.5 -98t-81.5 -37q-35 0 -76 22z" />
    <glyph glyph-name="Ograve" unicode="&#xd2;" horiz-adv-x="778" 
d="M212 33q-80 45 -127 123.5t-47 173.5t47 173.5t127 123.5t176 45t176.5 -45t128 -123.5t47.5 -173.5t-47.5 -173.5t-128 -123.5t-176.5 -45t-176 45zM497.5 140.5q48.5 27.5 76 77t27.5 112.5q0 62 -27.5 111.5t-76 77.5t-108.5 28q-61 0 -109 -27.5t-75.5 -77
t-27.5 -112.5t27.5 -112.5t75.5 -77t109 -27.5q60 0 108.5 27.5zM203 886v24h162l73 -186h-98z" />
    <glyph glyph-name="Oacute" unicode="&#xd3;" horiz-adv-x="778" 
d="M212 33q-80 45 -127 123.5t-47 173.5t47 173.5t127 123.5t176 45t176.5 -45t128 -123.5t47.5 -173.5t-47.5 -173.5t-128 -123.5t-176.5 -45t-176 45zM497.5 140.5q48.5 27.5 76 77t27.5 112.5q0 62 -27.5 111.5t-76 77.5t-108.5 28q-61 0 -109 -27.5t-75.5 -77
t-27.5 -112.5t27.5 -112.5t75.5 -77t109 -27.5q60 0 108.5 27.5zM409 910h162v-24l-137 -162h-98z" />
    <glyph glyph-name="Ocircumflex" unicode="&#xd4;" horiz-adv-x="778" 
d="M212 33q-80 45 -127 123.5t-47 173.5t47 173.5t127 123.5t176 45t176.5 -45t128 -123.5t47.5 -173.5t-47.5 -173.5t-128 -123.5t-176.5 -45t-176 45zM497.5 140.5q48.5 27.5 76 77t27.5 112.5q0 62 -27.5 111.5t-76 77.5t-108.5 28q-61 0 -109 -27.5t-75.5 -77
t-27.5 -112.5t27.5 -112.5t75.5 -77t109 -27.5q60 0 108.5 27.5zM478 724l-90 80l-90 -80h-102l148 186h89l148 -186h-103z" />
    <glyph glyph-name="Otilde" unicode="&#xd5;" horiz-adv-x="778" 
d="M212 33q-80 45 -127 123.5t-47 173.5t47 173.5t127 123.5t176 45t176.5 -45t128 -123.5t47.5 -173.5t-47.5 -173.5t-128 -123.5t-176.5 -45t-176 45zM497.5 140.5q48.5 27.5 76 77t27.5 112.5q0 62 -27.5 111.5t-76 77.5t-108.5 28q-61 0 -109 -27.5t-75.5 -77
t-27.5 -112.5t27.5 -112.5t75.5 -77t109 -27.5q60 0 108.5 27.5zM397 747l-30 16q-28 17 -44 17q-14 0 -21 -9.5t-7 -23.5v-12h-103q-2 22 -2 34q0 60 33.5 97t82.5 37q35 0 74 -21l30 -18q3 -2 12.5 -7t17.5 -7.5t15 -2.5q14 0 21 9.5t7 24.5v12h103q2 -22 2 -33
q0 -61 -33.5 -98t-81.5 -37q-35 0 -76 22z" />
    <glyph glyph-name="Odieresis" unicode="&#xd6;" horiz-adv-x="778" 
d="M212 33q-80 45 -127 123.5t-47 173.5t47 173.5t127 123.5t176 45t176.5 -45t128 -123.5t47.5 -173.5t-47.5 -173.5t-128 -123.5t-176.5 -45t-176 45zM497.5 140.5q48.5 27.5 76 77t27.5 112.5q0 62 -27.5 111.5t-76 77.5t-108.5 28q-61 0 -109 -27.5t-75.5 -77
t-27.5 -112.5t27.5 -112.5t75.5 -77t109 -27.5q60 0 108.5 27.5zM203.5 760.5q-24.5 23.5 -24.5 53.5q0 33 24 55.5t56 22.5q34 0 58 -22.5t24 -55.5q0 -31 -24 -54t-58 -23q-31 0 -55.5 23.5zM462 759.5q-25 23.5 -25 53.5q0 33 24.5 56t56.5 23q33 0 57 -23t24 -56
q0 -31 -24 -54t-57 -23q-31 0 -56 23.5z" />
    <glyph glyph-name="multiply" unicode="&#xd7;" 
d="M52 176l147 147l-147 147l80 80l148 -147l147 147l80 -80l-147 -147l147 -147l-80 -81l-148 147l-147 -147z" />
    <glyph glyph-name="Oslash" unicode="&#xd8;" horiz-adv-x="778" 
d="M672 533q33 -43 50.5 -94.5t17.5 -108.5q0 -95 -47.5 -173.5t-128 -123.5t-176.5 -45q-109 0 -200 59l-76 -76l-81 81l74 74q-67 91 -67 204q0 95 47 173.5t127 123.5t176 45q111 0 201 -60l77 77l81 -81zM277 524.5q-50 -28.5 -78 -79.5t-28 -115q0 -62 26 -111l305 304
q-52 30 -113 30q-62 0 -112 -28.5zM500 135.5q50 28.5 78.5 79.5t28.5 115q0 60 -27 111l-304 -305q50 -29 113 -29q61 0 111 28.5z" />
    <glyph glyph-name="Ugrave" unicode="&#xd9;" horiz-adv-x="700" 
d="M205.5 22.5q-63.5 34.5 -99.5 99t-36 151.5v387h135v-397q0 -72 40.5 -111t104.5 -39q65 0 105 39t40 111v397h135v-387q0 -87 -36.5 -151.5t-100 -99t-143.5 -34.5q-81 0 -144.5 34.5zM164 886v24h162l73 -186h-98z" />
    <glyph glyph-name="Uacute" unicode="&#xda;" horiz-adv-x="700" 
d="M205.5 22.5q-63.5 34.5 -99.5 99t-36 151.5v387h135v-397q0 -72 40.5 -111t104.5 -39q65 0 105 39t40 111v397h135v-387q0 -87 -36.5 -151.5t-100 -99t-143.5 -34.5q-81 0 -144.5 34.5zM370 910h162v-24l-137 -162h-98z" />
    <glyph glyph-name="Ucircumflex" unicode="&#xdb;" horiz-adv-x="700" 
d="M205.5 22.5q-63.5 34.5 -99.5 99t-36 151.5v387h135v-397q0 -72 40.5 -111t104.5 -39q65 0 105 39t40 111v397h135v-387q0 -87 -36.5 -151.5t-100 -99t-143.5 -34.5q-81 0 -144.5 34.5zM439 724l-90 80l-90 -80h-102l148 186h89l148 -186h-103z" />
    <glyph glyph-name="Udieresis" unicode="&#xdc;" horiz-adv-x="700" 
d="M205.5 22.5q-63.5 34.5 -99.5 99t-36 151.5v387h135v-397q0 -72 40.5 -111t104.5 -39q65 0 105 39t40 111v397h135v-387q0 -87 -36.5 -151.5t-100 -99t-143.5 -34.5q-81 0 -144.5 34.5zM164.5 760.5q-24.5 23.5 -24.5 53.5q0 33 24 55.5t56 22.5q34 0 58 -22.5t24 -55.5
q0 -31 -24 -54t-58 -23q-31 0 -55.5 23.5zM423 759.5q-25 23.5 -25 53.5q0 33 24.5 56t56.5 23q33 0 57 -23t24 -56q0 -31 -24 -54t-57 -23q-31 0 -56 23.5z" />
    <glyph glyph-name="Yacute" unicode="&#xdd;" horiz-adv-x="624" 
d="M380 260v-260h-135v259l-228 401h150l146 -262l145 262h149zM331 910h162v-24l-137 -162h-98z" />
    <glyph glyph-name="Thorn" unicode="&#xde;" horiz-adv-x="594" 
d="M76 660h135v-101h113q69 0 123 -26.5t84.5 -75.5t30.5 -113t-30.5 -113t-84.5 -76t-123 -27h-113v-128h-135v660zM324 246q47 0 73.5 27t26.5 70q0 44 -26.5 70.5t-73.5 26.5h-113v-194h113z" />
    <glyph glyph-name="germandbls" unicode="&#xdf;" horiz-adv-x="650" 
d="M338 5q-45 17 -77 44l51 95q29 -19 62 -30.5t63 -11.5q26 0 41.5 10.5t15.5 31.5q0 19 -14 31t-64 41q-52 31 -77 58.5t-25 63.5q0 26 18 73l34 87q14 33 14 66q0 35 -20 55.5t-58 20.5q-44 0 -73 -30.5t-29 -93.5v-516h-133v522q0 113 64.5 176.5t176.5 63.5
q95 0 151.5 -44.5t56.5 -117.5q0 -38 -17 -83l-36 -93q-16 -37 -16 -55q0 -16 9.5 -29t29 -25.5t41.5 -25.5q49 -30 73.5 -62t24.5 -81q0 -72 -51.5 -115t-136.5 -43q-54 0 -99 17z" />
    <glyph glyph-name="agrave" unicode="&#xe0;" horiz-adv-x="545" 
d="M424.5 451.5q57.5 -54.5 57.5 -157.5v-294h-124v48q-27 -28 -65.5 -44t-85.5 -16q-79 0 -125 41.5t-46 106.5q0 67 50.5 105.5t136.5 38.5h124v22q0 41 -23.5 64t-68.5 23q-38 0 -68 -16.5t-63 -51.5l-70 83q86 102 216 102q97 0 154.5 -54.5zM317 114.5q30 27.5 30 70.5
v6h-106q-33 0 -51 -12.5t-18 -37.5t19.5 -39.5t51.5 -14.5q44 0 74 27.5zM85 756v24h162l73 -209h-98z" />
    <glyph glyph-name="aacute" unicode="&#xe1;" horiz-adv-x="545" 
d="M424.5 451.5q57.5 -54.5 57.5 -157.5v-294h-124v48q-27 -28 -65.5 -44t-85.5 -16q-79 0 -125 41.5t-46 106.5q0 67 50.5 105.5t136.5 38.5h124v22q0 41 -23.5 64t-68.5 23q-38 0 -68 -16.5t-63 -51.5l-70 83q86 102 216 102q97 0 154.5 -54.5zM317 114.5q30 27.5 30 70.5
v6h-106q-33 0 -51 -12.5t-18 -37.5t19.5 -39.5t51.5 -14.5q44 0 74 27.5zM294 780h162v-24l-137 -185h-98z" />
    <glyph glyph-name="acircumflex" unicode="&#xe2;" horiz-adv-x="545" 
d="M424.5 451.5q57.5 -54.5 57.5 -157.5v-294h-124v48q-27 -28 -65.5 -44t-85.5 -16q-79 0 -125 41.5t-46 106.5q0 67 50.5 105.5t136.5 38.5h124v22q0 41 -23.5 64t-68.5 23q-38 0 -68 -16.5t-63 -51.5l-70 83q86 102 216 102q97 0 154.5 -54.5zM317 114.5q30 27.5 30 70.5
v6h-106q-33 0 -51 -12.5t-18 -37.5t19.5 -39.5t51.5 -14.5q44 0 74 27.5zM350 571l-80 92l-80 -92h-99l135 209h89l134 -209h-99z" />
    <glyph glyph-name="atilde" unicode="&#xe3;" horiz-adv-x="545" 
d="M424.5 451.5q57.5 -54.5 57.5 -157.5v-294h-124v48q-27 -28 -65.5 -44t-85.5 -16q-79 0 -125 41.5t-46 106.5q0 67 50.5 105.5t136.5 38.5h124v22q0 41 -23.5 64t-68.5 23q-38 0 -68 -16.5t-63 -51.5l-70 83q86 102 216 102q97 0 154.5 -54.5zM317 114.5q30 27.5 30 70.5
v6h-106q-33 0 -51 -12.5t-18 -37.5t19.5 -39.5t51.5 -14.5q44 0 74 27.5zM278 601l-28 17q-4 3 -12 8.5t-14.5 8t-13.5 2.5q-28 0 -28 -35v-12h-103q-2 11 -2 33q0 62 32.5 99t80.5 37q37 0 72 -22l28 -18q13 -10 21.5 -14t18.5 -4q28 0 28 35v12h102q3 -18 3 -34
q0 -61 -32.5 -98t-81.5 -37q-37 0 -71 22z" />
    <glyph glyph-name="adieresis" unicode="&#xe4;" horiz-adv-x="545" 
d="M424.5 451.5q57.5 -54.5 57.5 -157.5v-294h-124v48q-27 -28 -65.5 -44t-85.5 -16q-79 0 -125 41.5t-46 106.5q0 67 50.5 105.5t136.5 38.5h124v22q0 41 -23.5 64t-68.5 23q-38 0 -68 -16.5t-63 -51.5l-70 83q86 102 216 102q97 0 154.5 -54.5zM317 114.5q30 27.5 30 70.5
v6h-106q-33 0 -51 -12.5t-18 -37.5t19.5 -39.5t51.5 -14.5q44 0 74 27.5zM94 621q-24 23 -24 55t24 55t58 23q32 0 56 -23t24 -55t-24 -55t-56 -23q-34 0 -58 23zM332 621q-24 23 -24 55t24 55t58 23q32 0 56 -23t24 -55t-24 -55t-56 -23q-34 0 -58 23z" />
    <glyph glyph-name="aring" unicode="&#xe5;" horiz-adv-x="545" 
d="M424.5 451.5q57.5 -54.5 57.5 -157.5v-294h-124v48q-27 -28 -65.5 -44t-85.5 -16q-79 0 -125 41.5t-46 106.5q0 67 50.5 105.5t136.5 38.5h124v22q0 41 -23.5 64t-68.5 23q-38 0 -68 -16.5t-63 -51.5l-70 83q86 102 216 102q97 0 154.5 -54.5zM317 114.5q30 27.5 30 70.5
v6h-106q-33 0 -51 -12.5t-18 -37.5t19.5 -39.5t51.5 -14.5q44 0 74 27.5zM179 583q-36 35 -36 88q0 52 36 87t90 35q55 0 91 -34.5t36 -87.5t-36 -88t-91 -35q-54 0 -90 35zM299 642q12 12 12 29q0 18 -12 29.5t-29 11.5t-29 -11.5t-12 -29.5t11.5 -29.5t29.5 -11.5
q17 0 29 12z" />
    <glyph glyph-name="ae" unicode="&#xe6;" horiz-adv-x="878" 
d="M830 197h-345q13 -45 49.5 -69t88.5 -24q73 0 137 50l56 -92q-86 -74 -196 -74q-67 0 -120.5 26.5t-87.5 73.5q-29 -49 -79.5 -74.5t-115.5 -25.5q-87 0 -134 42t-47 107q0 69 50.5 109t136.5 40h124v16q0 41 -23.5 64t-67.5 23q-37 0 -68 -17t-64 -51l-69 83
q86 102 215 102q111 0 163 -73q33 35 77.5 54t97.5 19q67 0 120 -30.5t82.5 -83t29.5 -116.5q0 -43 -10 -79zM524 367q-33 -30 -43 -81h228q1 51 -29 81t-77 30q-46 0 -79 -30zM316.5 115q30.5 27 30.5 69v13h-106q-33 0 -51 -13.5t-18 -38.5q0 -27 19 -42t51 -15
q44 0 74.5 27z" />
    <glyph glyph-name="ccedilla" unicode="&#xe7;" horiz-adv-x="552" 
d="M170.5 22.5q-60.5 34.5 -96 94t-35.5 131.5t35.5 131t96 93t133.5 34t128 -32.5t87 -89.5l-94 -73q-23 34 -51.5 53t-67.5 19q-57 0 -93.5 -38.5t-36.5 -96.5q0 -59 36.5 -97.5t93.5 -38.5q38 0 66.5 18.5t52.5 52.5l94 -72q-32 -57 -87.5 -90t-127.5 -33
q-73 0 -133.5 34.5zM162 -182v89q26 -2 60 -2q29 0 45.5 14.5t16.5 42.5q0 26 -13 58l53 24q32 -18 49.5 -45.5t17.5 -63.5q0 -55 -41.5 -91t-113.5 -36q-39 0 -74 10z" />
    <glyph glyph-name="egrave" unicode="&#xe8;" horiz-adv-x="569" 
d="M522 202h-347q12 -47 48.5 -72.5t90.5 -25.5q73 0 138 50l56 -92q-88 -74 -198 -74q-77 0 -139 34t-97 93.5t-35 131.5t34 131.5t93.5 93.5t131.5 34q68 0 121 -30.5t82.5 -83t29.5 -116.5q0 -36 -9 -74zM218 370q-32 -27 -43 -73h225q-1 46 -32 73t-75 27q-43 0 -75 -27
zM112 756v24h162l73 -209h-98z" />
    <glyph glyph-name="eacute" unicode="&#xe9;" horiz-adv-x="569" 
d="M522 202h-347q12 -47 48.5 -72.5t90.5 -25.5q73 0 138 50l56 -92q-88 -74 -198 -74q-77 0 -139 34t-97 93.5t-35 131.5t34 131.5t93.5 93.5t131.5 34q68 0 121 -30.5t82.5 -83t29.5 -116.5q0 -36 -9 -74zM218 370q-32 -27 -43 -73h225q-1 46 -32 73t-75 27q-43 0 -75 -27
zM322 780h162v-24l-137 -185h-98z" />
    <glyph glyph-name="ecircumflex" unicode="&#xea;" horiz-adv-x="569" 
d="M522 202h-347q12 -47 48.5 -72.5t90.5 -25.5q73 0 138 50l56 -92q-88 -74 -198 -74q-77 0 -139 34t-97 93.5t-35 131.5t34 131.5t93.5 93.5t131.5 34q68 0 121 -30.5t82.5 -83t29.5 -116.5q0 -36 -9 -74zM218 370q-32 -27 -43 -73h225q-1 46 -32 73t-75 27q-43 0 -75 -27
zM378 571l-80 92l-80 -92h-99l135 209h89l134 -209h-99z" />
    <glyph glyph-name="edieresis" unicode="&#xeb;" horiz-adv-x="569" 
d="M522 202h-347q12 -47 48.5 -72.5t90.5 -25.5q73 0 138 50l56 -92q-88 -74 -198 -74q-77 0 -139 34t-97 93.5t-35 131.5t34 131.5t93.5 93.5t131.5 34q68 0 121 -30.5t82.5 -83t29.5 -116.5q0 -36 -9 -74zM218 370q-32 -27 -43 -73h225q-1 46 -32 73t-75 27q-43 0 -75 -27
zM122 621q-24 23 -24 55t24 55t58 23q32 0 56 -23t24 -55t-24 -55t-56 -23q-34 0 -58 23zM360 621q-24 23 -24 55t24 55t58 23q32 0 56 -23t24 -55t-24 -55t-56 -23q-34 0 -58 23z" />
    <glyph glyph-name="igrave" unicode="&#xec;" horiz-adv-x="269" 
d="M67 495h135v-495h-135v495zM-19 756v24h162l43 -209h-98z" />
    <glyph glyph-name="iacute" unicode="&#xed;" horiz-adv-x="269" 
d="M67 495h135v-495h-135v495zM128 780h162v-24l-107 -185h-98z" />
    <glyph glyph-name="icircumflex" unicode="&#xee;" horiz-adv-x="269" 
d="M67 495h135v-495h-135v495zM215 571l-80 92l-80 -92h-99l135 209h89l134 -209h-99z" />
    <glyph glyph-name="idieresis" unicode="&#xef;" horiz-adv-x="269" 
d="M67 495h135v-495h-135v495zM-31.5 621.5q-24.5 23.5 -24.5 53.5q0 33 24 56t56 23q34 0 58 -23t24 -56q0 -31 -24 -54t-58 -23q-31 0 -55.5 23.5zM189 621.5q-25 23.5 -25 53.5q0 33 24.5 56t56.5 23q33 0 57 -23t24 -56q0 -31 -24 -54t-57 -23q-31 0 -56 23.5z" />
    <glyph glyph-name="eth" unicode="&#xf0;" horiz-adv-x="573" 
d="M478.5 394.5q22.5 -34.5 39 -78t16.5 -89.5q0 -68 -32 -122.5t-88.5 -85.5t-125.5 -31q-72 0 -128.5 30.5t-88.5 83.5t-32 118t31 116t84 80t117 29h10l-61 83l-136 -67l-47 96l119 59l-53 72l101 74l67 -89l156 77l48 -95l-138 -69l79 -104q40 -53 62.5 -87.5z
M366.5 140q31.5 32 31.5 81t-31.5 80.5t-80.5 31.5t-80 -31.5t-31 -81.5q0 -49 31 -80.5t80 -31.5t80.5 32z" />
    <glyph glyph-name="ntilde" unicode="&#xf1;" horiz-adv-x="585" 
d="M472 451.5q50 -54.5 50 -144.5v-307h-134v289q0 43 -25.5 69.5t-66.5 26.5t-67.5 -26.5t-26.5 -69.5v-289h-135v495h124v-45q26 26 63.5 41t81.5 15q86 0 136 -54.5zM289 601l-28 17q-4 3 -12 8.5t-14.5 8t-13.5 2.5q-28 0 -28 -35v-12h-103q-2 11 -2 33q0 62 32.5 99
t80.5 37q37 0 72 -22l28 -18q13 -10 21.5 -14t18.5 -4q28 0 28 35v12h102q3 -18 3 -34q0 -61 -32.5 -98t-81.5 -37q-37 0 -71 22z" />
    <glyph glyph-name="ograve" unicode="&#xf2;" horiz-adv-x="608" 
d="M169.5 23.5q-60.5 34.5 -95.5 94t-35 130.5t35 130.5t96 93.5t134 34t134 -34.5t96.5 -93.5t35.5 -130t-35.5 -130.5t-97 -94t-134.5 -34.5t-133.5 34.5zM395.5 151q36.5 38 36.5 96t-36.5 97t-91.5 39q-56 0 -92 -38.5t-36 -97.5q0 -58 36 -96t92 -38q55 0 91.5 38z
M119 756v24h162l73 -209h-98z" />
    <glyph glyph-name="oacute" unicode="&#xf3;" horiz-adv-x="608" 
d="M169.5 23.5q-60.5 34.5 -95.5 94t-35 130.5t35 130.5t96 93.5t134 34t134 -34.5t96.5 -93.5t35.5 -130t-35.5 -130.5t-97 -94t-134.5 -34.5t-133.5 34.5zM395.5 151q36.5 38 36.5 96t-36.5 97t-91.5 39q-56 0 -92 -38.5t-36 -97.5q0 -58 36 -96t92 -38q55 0 91.5 38z
M328 780h162v-24l-137 -185h-98z" />
    <glyph glyph-name="ocircumflex" unicode="&#xf4;" horiz-adv-x="608" 
d="M169.5 23.5q-60.5 34.5 -95.5 94t-35 130.5t35 130.5t96 93.5t134 34t134 -34.5t96.5 -93.5t35.5 -130t-35.5 -130.5t-97 -94t-134.5 -34.5t-133.5 34.5zM395.5 151q36.5 38 36.5 96t-36.5 97t-91.5 39q-56 0 -92 -38.5t-36 -97.5q0 -58 36 -96t92 -38q55 0 91.5 38z
M384 571l-80 92l-80 -92h-99l135 209h89l134 -209h-99z" />
    <glyph glyph-name="otilde" unicode="&#xf5;" horiz-adv-x="608" 
d="M169.5 23.5q-60.5 34.5 -95.5 94t-35 130.5t35 130.5t96 93.5t134 34t134 -34.5t96.5 -93.5t35.5 -130t-35.5 -130.5t-97 -94t-134.5 -34.5t-133.5 34.5zM395.5 151q36.5 38 36.5 96t-36.5 97t-91.5 39q-56 0 -92 -38.5t-36 -97.5q0 -58 36 -96t92 -38q55 0 91.5 38z
M312 601l-28 17q-4 3 -12 8.5t-14.5 8t-13.5 2.5q-28 0 -28 -35v-12h-103q-2 11 -2 33q0 62 32.5 99t80.5 37q37 0 72 -22l28 -18q13 -10 21.5 -14t18.5 -4q28 0 28 35v12h102q3 -18 3 -34q0 -61 -32.5 -98t-81.5 -37q-37 0 -71 22z" />
    <glyph glyph-name="odieresis" unicode="&#xf6;" horiz-adv-x="608" 
d="M169.5 23.5q-60.5 34.5 -95.5 94t-35 130.5t35 130.5t96 93.5t134 34t134 -34.5t96.5 -93.5t35.5 -130t-35.5 -130.5t-97 -94t-134.5 -34.5t-133.5 34.5zM395.5 151q36.5 38 36.5 96t-36.5 97t-91.5 39q-56 0 -92 -38.5t-36 -97.5q0 -58 36 -96t92 -38q55 0 91.5 38z
M128 621q-24 23 -24 55t24 55t58 23q32 0 56 -23t24 -55t-24 -55t-56 -23q-34 0 -58 23zM366 621q-24 23 -24 55t24 55t58 23q32 0 56 -23t24 -55t-24 -55t-56 -23q-34 0 -58 23z" />
    <glyph glyph-name="divide" unicode="&#xf7;" 
d="M221 452.5q-24 22.5 -24 55.5q0 32 24 54t58 22q33 0 57 -22t24 -54q0 -33 -24 -55.5t-57 -22.5q-34 0 -58 22.5zM44 378h471v-115h-471v115zM221 77.5q-24 22.5 -24 54.5q0 33 24 55t58 22q33 0 57 -22t24 -55q0 -32 -24 -54.5t-57 -22.5q-34 0 -58 22.5z" />
    <glyph glyph-name="oslash" unicode="&#xf8;" horiz-adv-x="612" 
d="M529 390q43 -65 43 -143q0 -72 -36 -131t-97 -93.5t-134 -34.5q-75 0 -140 38l-54 -55l-81 81l53 53q-42 62 -42 142q0 72 35.5 131.5t96 93.5t133.5 34q75 0 140 -38l55 55l81 -80zM206 351.5q-39 -40.5 -39 -104.5q0 -35 12 -62l191 192q-29 15 -64 15
q-61 0 -100 -40.5zM405.5 142.5q39.5 40.5 39.5 104.5q0 35 -12 62l-193 -192q29 -15 65 -15q61 0 100.5 40.5z" />
    <glyph glyph-name="ugrave" unicode="&#xf9;" horiz-adv-x="580" 
d="M173.5 16.5q-52.5 28.5 -82 80.5t-29.5 121v277h135v-288q0 -43 26.5 -69t67.5 -26q39 0 65.5 26t26.5 69v288h135v-277q0 -69 -29.5 -121t-81.5 -80.5t-116 -28.5q-65 0 -117.5 28.5zM105 756v24h162l73 -209h-98z" />
    <glyph glyph-name="uacute" unicode="&#xfa;" horiz-adv-x="580" 
d="M173.5 16.5q-52.5 28.5 -82 80.5t-29.5 121v277h135v-288q0 -43 26.5 -69t67.5 -26q39 0 65.5 26t26.5 69v288h135v-277q0 -69 -29.5 -121t-81.5 -80.5t-116 -28.5q-65 0 -117.5 28.5zM314 780h162v-24l-137 -185h-98z" />
    <glyph glyph-name="ucircumflex" unicode="&#xfb;" horiz-adv-x="580" 
d="M173.5 16.5q-52.5 28.5 -82 80.5t-29.5 121v277h135v-288q0 -43 26.5 -69t67.5 -26q39 0 65.5 26t26.5 69v288h135v-277q0 -69 -29.5 -121t-81.5 -80.5t-116 -28.5q-65 0 -117.5 28.5zM370 571l-80 92l-80 -92h-99l135 209h89l134 -209h-99z" />
    <glyph glyph-name="udieresis" unicode="&#xfc;" horiz-adv-x="580" 
d="M173.5 16.5q-52.5 28.5 -82 80.5t-29.5 121v277h135v-288q0 -43 26.5 -69t67.5 -26q39 0 65.5 26t26.5 69v288h135v-277q0 -69 -29.5 -121t-81.5 -80.5t-116 -28.5q-65 0 -117.5 28.5zM114 621q-24 23 -24 55t24 55t58 23q32 0 56 -23t24 -55t-24 -55t-56 -23
q-34 0 -58 23zM352 621q-24 23 -24 55t24 55t58 23q32 0 56 -23t24 -55t-24 -55t-56 -23q-34 0 -58 23z" />
    <glyph glyph-name="yacute" unicode="&#xfd;" horiz-adv-x="559" 
d="M547 495l-237 -538q-34 -77 -81 -113t-116 -36q-42 0 -87 12v113q46 -4 58 -4q36 0 61 14t42 53l15 34l-190 465h143l121 -325l129 325h142zM303 780h162v-24l-137 -185h-98z" />
    <glyph glyph-name="thorn" unicode="&#xfe;" horiz-adv-x="629" 
d="M473.5 472.5q54.5 -33.5 85.5 -92t31 -132.5t-31 -133t-85.5 -93t-123.5 -34q-45 0 -83 15.5t-65 44.5v-228h-135v930h135v-303q54 59 148 59q69 0 123.5 -33.5zM416 148.5q37 37.5 37 98.5q0 62 -36.5 99.5t-91.5 37.5q-51 0 -88 -34.5t-37 -101.5q0 -66 36.5 -101.5
t88.5 -35.5q54 0 91 37.5z" />
    <glyph glyph-name="ydieresis" unicode="&#xff;" horiz-adv-x="559" 
d="M547 495l-237 -538q-34 -77 -81 -113t-116 -36q-42 0 -87 12v113q46 -4 58 -4q36 0 61 14t42 53l15 34l-190 465h143l121 -325l129 325h142zM103 621q-24 23 -24 55t24 55t58 23q32 0 56 -23t24 -55t-24 -55t-56 -23q-34 0 -58 23zM341 621q-24 23 -24 55t24 55t58 23
q32 0 56 -23t24 -55t-24 -55t-56 -23q-34 0 -58 23z" />
    <glyph glyph-name="Amacron" unicode="&#x100;" horiz-adv-x="661" 
d="M465 86h-270l-37 -86h-145l295 672h45l294 -672h-145zM330 420l-88 -223h176zM170 861h322v-106h-322v106z" />
    <glyph glyph-name="amacron" unicode="&#x101;" horiz-adv-x="545" 
d="M424.5 451.5q57.5 -54.5 57.5 -157.5v-294h-124v48q-27 -28 -65.5 -44t-85.5 -16q-79 0 -125 41.5t-46 106.5q0 67 50.5 105.5t136.5 38.5h124v22q0 41 -23.5 64t-68.5 23q-38 0 -68 -16.5t-63 -51.5l-70 83q86 102 216 102q97 0 154.5 -54.5zM317 114.5q30 27.5 30 70.5
v6h-106q-33 0 -51 -12.5t-18 -37.5t19.5 -39.5t51.5 -14.5q44 0 74 27.5zM119 728h302v-106h-302v106z" />
    <glyph glyph-name="Abreve" unicode="&#x102;" horiz-adv-x="661" 
d="M465 86h-270l-37 -86h-145l295 672h45l294 -672h-145zM330 420l-88 -223h176zM206 768q-48 49 -48 127v15h106v-15q0 -34 18 -54.5t49 -20.5t49 20t18 55v15h105v-15q0 -51 -22 -91t-61 -62.5t-89 -22.5q-77 0 -125 49z" />
    <glyph glyph-name="abreve" unicode="&#x103;" horiz-adv-x="545" 
d="M424.5 451.5q57.5 -54.5 57.5 -157.5v-294h-124v48q-27 -28 -65.5 -44t-85.5 -16q-79 0 -125 41.5t-46 106.5q0 67 50.5 105.5t136.5 38.5h124v22q0 41 -23.5 64t-68.5 23q-38 0 -68 -16.5t-63 -51.5l-70 83q86 102 216 102q97 0 154.5 -54.5zM317 114.5q30 27.5 30 70.5
v6h-106q-33 0 -51 -12.5t-18 -37.5t19.5 -39.5t51.5 -14.5q44 0 74 27.5zM180.5 593q-39.5 22 -61.5 62t-22 90v28h106v-27q0 -35 18 -55t49 -20t49 20t18 55v27h105v-28q0 -77 -48 -125.5t-124 -48.5q-50 0 -89.5 22z" />
    <glyph glyph-name="Aogonek" unicode="&#x104;" horiz-adv-x="661" 
d="M465 86h-270l-37 -86h-145l295 672h45l294 -672h-145zM330 420l-88 -223h176zM472.5 -164q-32.5 28 -32.5 72t36 78t116 68l55 -54l-40 -25q-20 -12 -29 -20.5t-9 -20.5q0 -14 9 -21.5t27 -7.5q10 0 42 6v-88q-45 -15 -86 -15q-56 0 -88.5 28z" />
    <glyph glyph-name="aogonek" unicode="&#x105;" horiz-adv-x="545" 
d="M424.5 451.5q57.5 -54.5 57.5 -157.5v-294h-124v48q-27 -28 -65.5 -44t-85.5 -16q-79 0 -125 41.5t-46 106.5q0 67 50.5 105.5t136.5 38.5h124v22q0 41 -23.5 64t-68.5 23q-38 0 -68 -16.5t-63 -51.5l-70 83q86 102 216 102q97 0 154.5 -54.5zM317 114.5q30 27.5 30 70.5
v6h-106q-33 0 -51 -12.5t-18 -37.5t19.5 -39.5t51.5 -14.5q44 0 74 27.5zM307.5 -164q-32.5 28 -32.5 72t36 78t116 68l55 -54l-40 -25q-20 -12 -29 -20.5t-9 -20.5q0 -14 9 -21.5t27 -7.5q10 0 42 6v-88q-45 -15 -86 -15q-56 0 -88.5 28z" />
    <glyph glyph-name="Cacute" unicode="&#x106;" horiz-adv-x="720" 
d="M211.5 33q-80.5 45 -127 123.5t-46.5 173.5t47 173.5t127.5 123.5t177.5 45q94 0 170.5 -43.5t120.5 -120.5l-102 -72q-70 111 -189 111q-61 0 -109.5 -28t-76 -77.5t-27.5 -112.5t27.5 -112t76 -76.5t109.5 -27.5q119 0 189 111l102 -72q-43 -77 -120 -120.5t-172 -43.5
q-97 0 -177.5 45zM411 910h162v-24l-137 -162h-98z" />
    <glyph glyph-name="cacute" unicode="&#x107;" horiz-adv-x="552" 
d="M170.5 22.5q-60.5 34.5 -96 94t-35.5 131.5t35.5 131t96 93t133.5 34t128 -32.5t87 -89.5l-94 -73q-23 34 -51.5 53t-67.5 19q-57 0 -93.5 -38.5t-36.5 -96.5q0 -59 36.5 -97.5t93.5 -38.5q38 0 66.5 18.5t52.5 52.5l94 -72q-32 -57 -87.5 -90t-127.5 -33
q-73 0 -133.5 34.5zM327 780h162v-24l-137 -185h-98z" />
    <glyph glyph-name="Ccircumflex" unicode="&#x108;" horiz-adv-x="720" 
d="M211.5 33q-80.5 45 -127 123.5t-46.5 173.5t47 173.5t127.5 123.5t177.5 45q94 0 170.5 -43.5t120.5 -120.5l-102 -72q-70 111 -189 111q-61 0 -109.5 -28t-76 -77.5t-27.5 -112.5t27.5 -112t76 -76.5t109.5 -27.5q119 0 189 111l102 -72q-43 -77 -120 -120.5t-172 -43.5
q-97 0 -177.5 45zM479 724l-90 80l-90 -80h-102l148 186h89l148 -186h-103z" />
    <glyph glyph-name="ccircumflex" unicode="&#x109;" horiz-adv-x="552" 
d="M170.5 22.5q-60.5 34.5 -96 94t-35.5 131.5t35.5 131t96 93t133.5 34t128 -32.5t87 -89.5l-94 -73q-23 34 -51.5 53t-67.5 19q-57 0 -93.5 -38.5t-36.5 -96.5q0 -59 36.5 -97.5t93.5 -38.5q38 0 66.5 18.5t52.5 52.5l94 -72q-32 -57 -87.5 -90t-127.5 -33
q-73 0 -133.5 34.5zM383 571l-80 92l-80 -92h-99l135 209h89l134 -209h-99z" />
    <glyph glyph-name="Cdotaccent" unicode="&#x10a;" horiz-adv-x="720" 
d="M211.5 33q-80.5 45 -127 123.5t-46.5 173.5t47 173.5t127.5 123.5t177.5 45q94 0 170.5 -43.5t120.5 -120.5l-102 -72q-70 111 -189 111q-61 0 -109.5 -28t-76 -77.5t-27.5 -112.5t27.5 -112t76 -76.5t109.5 -27.5q119 0 189 111l102 -72q-43 -77 -120 -120.5t-172 -43.5
q-97 0 -177.5 45zM328 755.5q-25 24.5 -25 59.5t25 59.5t61 24.5t61.5 -24.5t25.5 -59.5t-25.5 -59.5t-61.5 -24.5t-61 24.5z" />
    <glyph glyph-name="cdotaccent" unicode="&#x10b;" horiz-adv-x="552" 
d="M170.5 22.5q-60.5 34.5 -96 94t-35.5 131.5t35.5 131t96 93t133.5 34t128 -32.5t87 -89.5l-94 -73q-23 34 -51.5 53t-67.5 19q-57 0 -93.5 -38.5t-36.5 -96.5q0 -59 36.5 -97.5t93.5 -38.5q38 0 66.5 18.5t52.5 52.5l94 -72q-32 -57 -87.5 -90t-127.5 -33
q-73 0 -133.5 34.5zM241 616q-25 24 -25 59q0 36 25 60t61 24t61.5 -24t25.5 -60q0 -35 -25.5 -59t-61.5 -24t-61 24z" />
    <glyph glyph-name="Ccaron" unicode="&#x10c;" horiz-adv-x="720" 
d="M211.5 33q-80.5 45 -127 123.5t-46.5 173.5t47 173.5t127.5 123.5t177.5 45q94 0 170.5 -43.5t120.5 -120.5l-102 -72q-70 111 -189 111q-61 0 -109.5 -28t-76 -77.5t-27.5 -112.5t27.5 -112t76 -76.5t109.5 -27.5q119 0 189 111l102 -72q-43 -77 -120 -120.5t-172 -43.5
q-97 0 -177.5 45zM582 910l-148 -186h-89l-148 186h102l90 -80l90 80h103z" />
    <glyph glyph-name="ccaron" unicode="&#x10d;" horiz-adv-x="552" 
d="M170.5 22.5q-60.5 34.5 -96 94t-35.5 131.5t35.5 131t96 93t133.5 34t128 -32.5t87 -89.5l-94 -73q-23 34 -51.5 53t-67.5 19q-57 0 -93.5 -38.5t-36.5 -96.5q0 -59 36.5 -97.5t93.5 -38.5q38 0 66.5 18.5t52.5 52.5l94 -72q-32 -57 -87.5 -90t-127.5 -33
q-73 0 -133.5 34.5zM482 780l-134 -209h-89l-135 209h99l80 -92l80 92h99z" />
    <glyph glyph-name="Dcaron" unicode="&#x10e;" horiz-adv-x="690" 
d="M76 660h216q105 0 187 -41t127.5 -115t45.5 -172q0 -96 -45.5 -171.5t-127.5 -118t-187 -42.5h-216v660zM291 122q66 0 116.5 26t78 73.5t27.5 110.5q0 96 -60.5 151t-161.5 55h-80v-416h80zM472 910l-148 -186h-89l-148 186h102l90 -80l90 80h103z" />
    <glyph glyph-name="dcaron" unicode="&#x10f;" horiz-adv-x="794" 
d="M562 750v-750h-124v61q-25 -35 -66.5 -54t-92.5 -19q-69 0 -123.5 33.5t-85.5 92.5t-31 133t31 133t85.5 92.5t123.5 33.5q94 0 148 -59v303h135zM392 145.5q37 34.5 37 101.5q0 66 -37 101.5t-88 35.5q-54 0 -91 -37.5t-37 -98.5q0 -62 36.5 -99.5t91.5 -37.5
q51 0 88 34.5zM655 750h139l-49 -206h-95z" />
    <glyph glyph-name="Dcroat" unicode="&#x110;" horiz-adv-x="690" 
d="M479 619q82 -41 127.5 -115t45.5 -172q0 -96 -45.5 -171.5t-127.5 -118t-187 -42.5h-216v257h-84v113h84v290h216q105 0 187 -41zM407.5 148q50.5 26 78 73.5t27.5 110.5q0 96 -60.5 151t-161.5 55h-80v-168h108v-113h-108v-135h80q66 0 116.5 26z" />
    <glyph glyph-name="dcroat" unicode="&#x111;" horiz-adv-x="636" 
d="M640 553h-79v-553h-123v63q-27 -36 -68.5 -55.5t-94.5 -19.5q-67 0 -121 31t-85 86.5t-31 126.5q0 70 31 126t85 87.5t120 31.5q48 0 87 -16.5t66 -47.5v140h-204v109h204v88h134v-88h79v-109zM392 134.5q37 32.5 37 96.5t-37 98t-89 34q-53 0 -90 -36t-37 -95
t36.5 -94.5t90.5 -35.5q52 0 89 32.5z" />
    <glyph glyph-name="Emacron" unicode="&#x112;" horiz-adv-x="573" 
d="M76 660h444v-122h-309v-134h227v-115h-227v-167h321v-122h-456v660zM134 861h322v-106h-322v106z" />
    <glyph glyph-name="emacron" unicode="&#x113;" horiz-adv-x="569" 
d="M522 202h-347q12 -47 48.5 -72.5t90.5 -25.5q73 0 138 50l56 -92q-88 -74 -198 -74q-77 0 -139 34t-97 93.5t-35 131.5t34 131.5t93.5 93.5t131.5 34q68 0 121 -30.5t82.5 -83t29.5 -116.5q0 -36 -9 -74zM218 370q-32 -27 -43 -73h225q-1 46 -32 73t-75 27q-43 0 -75 -27
zM147 728h302v-106h-302v106z" />
    <glyph glyph-name="Ebreve" unicode="&#x114;" horiz-adv-x="573" 
d="M76 660h444v-122h-309v-134h227v-115h-227v-167h321v-122h-456v660zM170 768q-48 49 -48 127v15h106v-15q0 -34 18 -54.5t49 -20.5t49 20t18 55v15h105v-15q0 -51 -22 -91t-61 -62.5t-89 -22.5q-77 0 -125 49z" />
    <glyph glyph-name="ebreve" unicode="&#x115;" horiz-adv-x="569" 
d="M522 202h-347q12 -47 48.5 -72.5t90.5 -25.5q73 0 138 50l56 -92q-88 -74 -198 -74q-77 0 -139 34t-97 93.5t-35 131.5t34 131.5t93.5 93.5t131.5 34q68 0 121 -30.5t82.5 -83t29.5 -116.5q0 -36 -9 -74zM218 370q-32 -27 -43 -73h225q-1 46 -32 73t-75 27q-43 0 -75 -27
zM208.5 593q-39.5 22 -61.5 62t-22 90v28h106v-27q0 -35 18 -55t49 -20t49 20t18 55v27h105v-28q0 -77 -48 -125.5t-124 -48.5q-50 0 -89.5 22z" />
    <glyph glyph-name="Edotaccent" unicode="&#x116;" horiz-adv-x="573" 
d="M76 660h444v-122h-309v-134h227v-115h-227v-167h321v-122h-456v660zM233 755.5q-25 24.5 -25 59.5t25 59.5t61 24.5t61.5 -24.5t25.5 -59.5t-25.5 -59.5t-61.5 -24.5t-61 24.5z" />
    <glyph glyph-name="edotaccent" unicode="&#x117;" horiz-adv-x="569" 
d="M522 202h-347q12 -47 48.5 -72.5t90.5 -25.5q73 0 138 50l56 -92q-88 -74 -198 -74q-77 0 -139 34t-97 93.5t-35 131.5t34 131.5t93.5 93.5t131.5 34q68 0 121 -30.5t82.5 -83t29.5 -116.5q0 -36 -9 -74zM218 370q-32 -27 -43 -73h225q-1 46 -32 73t-75 27q-43 0 -75 -27
zM236 616q-25 24 -25 59q0 36 25 60t61 24t61.5 -24t25.5 -60q0 -35 -25.5 -59t-61.5 -24t-61 24z" />
    <glyph glyph-name="Eogonek" unicode="&#x118;" horiz-adv-x="573" 
d="M76 660h444v-122h-309v-134h227v-115h-227v-167h321v-122h-456v660zM357.5 -164q-32.5 28 -32.5 72t36 78t116 68l55 -54l-40 -25q-20 -12 -29 -20.5t-9 -20.5q0 -14 9 -21.5t27 -7.5q10 0 42 6v-88q-45 -15 -86 -15q-56 0 -88.5 28z" />
    <glyph glyph-name="eogonek" unicode="&#x119;" horiz-adv-x="569" 
d="M522 202h-347q12 -47 48.5 -72.5t90.5 -25.5q73 0 138 50l56 -92q-88 -74 -198 -74q-77 0 -139 34t-97 93.5t-35 131.5t34 131.5t93.5 93.5t131.5 34q68 0 121 -30.5t82.5 -83t29.5 -116.5q0 -36 -9 -74zM218 370q-32 -27 -43 -73h225q-1 46 -32 73t-75 27q-43 0 -75 -27
zM303 -165q-33 27 -33 73q0 25 9 44.5t33 44t73 65.5h122l-82 -83q-14 -14 -20 -24t-6 -21q0 -29 36 -29q8 0 42 6v-88q-42 -15 -86 -15q-55 0 -88 27z" />
    <glyph glyph-name="Ecaron" unicode="&#x11a;" horiz-adv-x="573" 
d="M76 660h444v-122h-309v-134h227v-115h-227v-167h321v-122h-456v660zM487 910l-148 -186h-89l-148 186h102l90 -80l90 80h103z" />
    <glyph glyph-name="ecaron" unicode="&#x11b;" horiz-adv-x="569" 
d="M522 202h-347q12 -47 48.5 -72.5t90.5 -25.5q73 0 138 50l56 -92q-88 -74 -198 -74q-77 0 -139 34t-97 93.5t-35 131.5t34 131.5t93.5 93.5t131.5 34q68 0 121 -30.5t82.5 -83t29.5 -116.5q0 -36 -9 -74zM218 370q-32 -27 -43 -73h225q-1 46 -32 73t-75 27q-43 0 -75 -27
zM477 780l-134 -209h-89l-135 209h99l80 -92l80 92h99z" />
    <glyph glyph-name="Gcircumflex" unicode="&#x11c;" horiz-adv-x="747" 
d="M212.5 33q-80.5 45 -127.5 123.5t-47 173.5q0 96 46.5 174t127.5 123t179 45q87 0 158.5 -37.5t119.5 -105.5l-96 -79q-70 97 -184 97q-63 0 -111 -28t-74.5 -77t-26.5 -112q0 -64 27.5 -114t77.5 -78.5t115 -28.5q57 0 101.5 22t72.5 60v54h-182v117h317v-195
q-45 -80 -128.5 -129.5t-186.5 -49.5q-98 0 -178.5 45zM481 724l-90 80l-90 -80h-102l148 186h89l148 -186h-103z" />
    <glyph glyph-name="gcircumflex" unicode="&#x11d;" horiz-adv-x="631" 
d="M564 495v-440q0 -121 -70 -184t-186 -63q-140 0 -243 92l71 94q41 -31 78.5 -47.5t82.5 -16.5q60 0 96 29.5t36 87.5v27q-27 -29 -65.5 -44t-85.5 -15q-68 0 -122 31t-84.5 87t-30.5 128q0 73 31 128.5t85 86t121 30.5q53 0 94.5 -19t67.5 -54v62h124zM394 164
q37 35 37 99t-36.5 96t-88.5 32q-55 0 -91.5 -34.5t-36.5 -94.5t37 -96.5t91 -36.5q51 0 88 35zM393 571l-80 92l-80 -92h-99l135 209h89l134 -209h-99z" />
    <glyph glyph-name="Gbreve" unicode="&#x11e;" horiz-adv-x="747" 
d="M212.5 33q-80.5 45 -127.5 123.5t-47 173.5q0 96 46.5 174t127.5 123t179 45q87 0 158.5 -37.5t119.5 -105.5l-96 -79q-70 97 -184 97q-63 0 -111 -28t-74.5 -77t-26.5 -112q0 -64 27.5 -114t77.5 -78.5t115 -28.5q57 0 101.5 22t72.5 60v54h-182v117h317v-195
q-45 -80 -128.5 -129.5t-186.5 -49.5q-98 0 -178.5 45zM267 768q-48 49 -48 127v15h106v-15q0 -34 18 -54.5t49 -20.5t49 20t18 55v15h105v-15q0 -51 -22 -91t-61 -62.5t-89 -22.5q-77 0 -125 49z" />
    <glyph glyph-name="gbreve" unicode="&#x11f;" horiz-adv-x="631" 
d="M564 495v-440q0 -121 -70 -184t-186 -63q-140 0 -243 92l71 94q41 -31 78.5 -47.5t82.5 -16.5q60 0 96 29.5t36 87.5v27q-27 -29 -65.5 -44t-85.5 -15q-68 0 -122 31t-84.5 87t-30.5 128q0 73 31 128.5t85 86t121 30.5q53 0 94.5 -19t67.5 -54v62h124zM394 164
q37 35 37 99t-36.5 96t-88.5 32q-55 0 -91.5 -34.5t-36.5 -94.5t37 -96.5t91 -36.5q51 0 88 35zM223.5 593q-39.5 22 -61.5 62t-22 90v28h106v-27q0 -35 18 -55t49 -20t49 20t18 55v27h105v-28q0 -77 -48 -125.5t-124 -48.5q-50 0 -89.5 22z" />
    <glyph glyph-name="Gdotaccent" unicode="&#x120;" horiz-adv-x="747" 
d="M212.5 33q-80.5 45 -127.5 123.5t-47 173.5q0 96 46.5 174t127.5 123t179 45q87 0 158.5 -37.5t119.5 -105.5l-96 -79q-70 97 -184 97q-63 0 -111 -28t-74.5 -77t-26.5 -112q0 -64 27.5 -114t77.5 -78.5t115 -28.5q57 0 101.5 22t72.5 60v54h-182v117h317v-195
q-45 -80 -128.5 -129.5t-186.5 -49.5q-98 0 -178.5 45zM330 755.5q-25 24.5 -25 59.5t25 59.5t61 24.5t61.5 -24.5t25.5 -59.5t-25.5 -59.5t-61.5 -24.5t-61 24.5z" />
    <glyph glyph-name="gdotaccent" unicode="&#x121;" horiz-adv-x="631" 
d="M564 495v-440q0 -121 -70 -184t-186 -63q-140 0 -243 92l71 94q41 -31 78.5 -47.5t82.5 -16.5q60 0 96 29.5t36 87.5v27q-27 -29 -65.5 -44t-85.5 -15q-68 0 -122 31t-84.5 87t-30.5 128q0 73 31 128.5t85 86t121 30.5q53 0 94.5 -19t67.5 -54v62h124zM394 164
q37 35 37 99t-36.5 96t-88.5 32q-55 0 -91.5 -34.5t-36.5 -94.5t37 -96.5t91 -36.5q51 0 88 35zM251 616q-25 24 -25 59q0 36 25 60t61 24t61.5 -24t25.5 -60q0 -35 -25.5 -59t-61.5 -24t-61 24z" />
    <glyph glyph-name="uni0122" unicode="&#x122;" horiz-adv-x="747" 
d="M212.5 33q-80.5 45 -127.5 123.5t-47 173.5q0 96 46.5 174t127.5 123t179 45q87 0 158.5 -37.5t119.5 -105.5l-96 -79q-70 97 -184 97q-63 0 -111 -28t-74.5 -77t-26.5 -112q0 -64 27.5 -114t77.5 -78.5t115 -28.5q57 0 101.5 22t72.5 60v54h-182v117h317v-195
q-45 -80 -128.5 -129.5t-186.5 -49.5q-98 0 -178.5 45zM330 -46h125l-26 -174h-102z" />
    <glyph glyph-name="uni0123" unicode="&#x123;" horiz-adv-x="631" 
d="M564 495v-440q0 -121 -70 -184t-186 -63q-140 0 -243 92l71 94q41 -31 78.5 -47.5t82.5 -16.5q60 0 96 29.5t36 87.5v27q-27 -29 -65.5 -44t-85.5 -15q-68 0 -122 31t-84.5 87t-30.5 128q0 73 31 128.5t85 86t121 30.5q53 0 94.5 -19t67.5 -54v62h124zM394 164
q37 35 37 99t-36.5 96t-88.5 32q-55 0 -91.5 -34.5t-36.5 -94.5t37 -96.5t91 -36.5q51 0 88 35zM280 780h98l-5 -209h-127z" />
    <glyph glyph-name="Hcircumflex" unicode="&#x124;" horiz-adv-x="713" 
d="M76 660h135v-253h292v253h135v-660h-135v285h-292v-285h-135v660zM446 724l-90 80l-90 -80h-102l148 186h89l148 -186h-103z" />
    <glyph glyph-name="hcircumflex" unicode="&#x125;" horiz-adv-x="585" 
d="M472 451.5q50 -54.5 50 -144.5v-307h-134v288q0 43 -25.5 69.5t-66.5 26.5t-67.5 -26.5t-26.5 -69.5v-288h-135v750h135v-297q25 25 60 39t76 14q84 0 134 -54.5zM291 814l-90 80l-90 -80h-102l148 186h89l148 -186h-103z" />
    <glyph glyph-name="Hbar" unicode="&#x126;" horiz-adv-x="732" 
d="M85 436h-93v113h93v111h135v-111h292v111h135v-111h92v-113h-92v-436h-135v214h-292v-214h-135v436zM512 330v106h-292v-106h292z" />
    <glyph glyph-name="hbar" unicode="&#x127;" horiz-adv-x="593" 
d="M479.5 422.5q50.5 -54.5 50.5 -144.5v-278h-135v259q0 43 -25 69.5t-66 26.5q-42 0 -68.5 -26.5t-26.5 -69.5v-259h-134v551h-79v111h79v88h134v-88h191v-111h-191v-128q25 26 60 40t76 14q84 0 134.5 -54.5z" />
    <glyph glyph-name="Itilde" unicode="&#x128;" horiz-adv-x="286" 
d="M76 660h135v-660h-135v660zM152 747l-30 16q-28 17 -44 17q-14 0 -21 -9.5t-7 -23.5v-12h-103q-2 22 -2 34q0 60 33.5 97t82.5 37q35 0 74 -21l30 -18q3 -2 12.5 -7t17.5 -7.5t15 -2.5q14 0 21 9.5t7 24.5v12h103q2 -22 2 -33q0 -61 -33.5 -98t-81.5 -37q-35 0 -76 22z
" />
    <glyph glyph-name="itilde" unicode="&#x129;" horiz-adv-x="269" 
d="M67 495h135v-495h-135v495zM170.5 585.5q-15.5 6.5 -33.5 19.5l-19 15q-9 8 -17 12.5t-15 4.5q-13 0 -19.5 -9.5t-6.5 -25.5v-12h-103q-3 15 -3 33q0 61 31.5 98.5t80.5 37.5q33 0 68 -26l19 -16q10 -7 17.5 -11.5t14.5 -4.5q25 0 25 35v12h103q2 -20 2 -34
q0 -61 -30.5 -98t-79.5 -37q-19 0 -34.5 6.5z" />
    <glyph glyph-name="Imacron" unicode="&#x12a;" horiz-adv-x="286" 
d="M76 660h135v-660h-135v660zM-17 861h322v-106h-322v106z" />
    <glyph glyph-name="imacron" unicode="&#x12b;" horiz-adv-x="269" 
d="M67 495h135v-495h-135v495zM7 729h256v-107h-256v107z" />
    <glyph glyph-name="Ibreve" unicode="&#x12c;" horiz-adv-x="286" 
d="M76 660h135v-660h-135v660zM19 768q-48 49 -48 127v15h106v-15q0 -34 18 -54.5t49 -20.5t49 20t18 55v15h105v-15q0 -51 -22 -91t-61 -62.5t-89 -22.5q-77 0 -125 49z" />
    <glyph glyph-name="ibreve" unicode="&#x12d;" horiz-adv-x="269" 
d="M67 495h135v-495h-135v495zM45.5 593q-39.5 22 -61.5 62t-22 90v28h106v-27q0 -35 18 -55t49 -20t49 20t18 55v27h105v-28q0 -77 -48 -125.5t-124 -48.5q-50 0 -89.5 22z" />
    <glyph glyph-name="Iogonek" unicode="&#x12e;" horiz-adv-x="286" 
d="M76 660h135v-660h-135v660zM36.5 -164q-32.5 28 -32.5 72t36 78t116 68l55 -54l-40 -25q-20 -12 -29 -20.5t-9 -20.5q0 -14 9 -21.5t27 -7.5q10 0 42 6v-88q-45 -15 -86 -15q-56 0 -88.5 28z" />
    <glyph glyph-name="iogonek" unicode="&#x12f;" horiz-adv-x="269" 
d="M67 495h135v-495h-135v495zM73 616q-25 24 -25 59q0 36 25 60t61 24t61.5 -24t25.5 -60q0 -35 -25.5 -59t-61.5 -24t-61 24zM27.5 -164q-32.5 28 -32.5 72t36 78t116 68l55 -54l-40 -25q-20 -12 -29 -20.5t-9 -20.5q0 -14 9 -21.5t27 -7.5q10 0 42 6v-88q-45 -15 -86 -15
q-56 0 -88.5 28z" />
    <glyph glyph-name="Idotaccent" unicode="&#x130;" horiz-adv-x="286" 
d="M76 660h135v-660h-135v660zM82 755.5q-25 24.5 -25 59.5t25 59.5t61 24.5t61.5 -24.5t25.5 -59.5t-25.5 -59.5t-61.5 -24.5t-61 24.5z" />
    <glyph glyph-name="dotlessi" unicode="&#x131;" horiz-adv-x="269" 
d="M67 495h135v-495h-135v495z" />
    <glyph glyph-name="IJ" unicode="&#x132;" horiz-adv-x="675" 
d="M76 660h135v-660h-135v660zM303 0v115q54 -4 66 -4q49 0 72 18t23 61v470h135v-484q0 -94 -52 -141t-149 -47q-47 0 -95 12z" />
    <glyph glyph-name="ij" unicode="&#x133;" horiz-adv-x="538" 
d="M67 495h135v-495h-135v495zM73 616q-25 24 -25 59q0 36 25 60t61 24t61.5 -24t25.5 -60q0 -35 -25.5 -59t-61.5 -24t-61 24zM206 -181v113q24 -3 41 -3q45 0 67 18t22 59v489h135v-501q0 -93 -51 -139.5t-139 -46.5q-40 0 -75 11zM342 616q-25 24 -25 59q0 36 25 60
t61 24t61.5 -24t25.5 -60q0 -35 -25.5 -59t-61.5 -24t-61 24z" />
    <glyph glyph-name="Jcircumflex" unicode="&#x134;" horiz-adv-x="389" 
d="M17 0v115q54 -4 66 -4q49 0 72 18t23 61v470h135v-484q0 -94 -52 -141t-149 -47q-47 0 -95 12zM317 724l-90 80l-90 -80h-102l148 186h89l148 -186h-103z" />
    <glyph glyph-name="jcircumflex" unicode="&#x135;" horiz-adv-x="269" 
d="M-63 -181v113q24 -3 41 -3q45 0 67 18t22 59v489h135v-501q0 -93 -51 -139.5t-139 -46.5q-40 0 -75 11zM215 571l-80 92l-80 -92h-99l135 209h89l134 -209h-99z" />
    <glyph glyph-name="uni0136" unicode="&#x136;" horiz-adv-x="670" 
d="M494 0l-283 344v-344h-135v660h135v-306l252 306h161l-253 -311l286 -349h-163zM258 -46h125l-26 -174h-102z" />
    <glyph glyph-name="uni0137" unicode="&#x137;" 
d="M401 0l-199 274v-274h-135v750h135v-466l178 211h160l-186 -219l201 -276h-154zM222 -46h125l-26 -174h-102z" />
    <glyph glyph-name="Lacute" unicode="&#x139;" horiz-adv-x="524" 
d="M76 660h135v-538h289v-122h-424v660zM163 910h162v-24l-137 -162h-98z" />
    <glyph glyph-name="lacute" unicode="&#x13a;" horiz-adv-x="269" 
d="M67 750h135v-750h-135v750zM155 1000h162v-24l-137 -162h-98z" />
    <glyph glyph-name="uni013B" unicode="&#x13b;" horiz-adv-x="524" 
d="M76 660h135v-538h289v-122h-424v660zM221 -46h125l-26 -174h-102z" />
    <glyph glyph-name="uni013C" unicode="&#x13c;" horiz-adv-x="269" 
d="M67 750h135v-750h-135v750zM73 -46h125l-26 -174h-102z" />
    <glyph glyph-name="Lcaron" unicode="&#x13d;" horiz-adv-x="524" 
d="M76 660h135v-538h289v-122h-424v660zM365 720h139l-49 -206h-95z" />
    <glyph glyph-name="lcaron" unicode="&#x13e;" horiz-adv-x="434" 
d="M67 750h135v-750h-135v750zM295 750h139l-49 -206h-95z" />
    <glyph glyph-name="Ldot" unicode="&#x13f;" horiz-adv-x="524" 
d="M76 660h135v-538h289v-122h-424v660zM343 311.5q-27 26.5 -27 66.5q0 39 27 66t67 27q39 0 65.5 -27t26.5 -66q0 -40 -26 -66.5t-66 -26.5t-67 26.5z" />
    <glyph glyph-name="ldot" unicode="&#x140;" horiz-adv-x="406" 
d="M67 750h135v-750h-135v750zM271 253.5q-27 26.5 -27 66.5q0 39 27 66t67 27q39 0 65.5 -27t26.5 -66q0 -40 -26 -66.5t-66 -26.5t-67 26.5z" />
    <glyph glyph-name="Lslash" unicode="&#x141;" horiz-adv-x="524" 
d="M500 122v-122h-424v205l-72 -33v124l72 33v331h135v-277l199 90v-125l-199 -90v-136h289z" />
    <glyph glyph-name="lslash" unicode="&#x142;" horiz-adv-x="331" 
d="M310 342l-80 -37v-305h-135v253l-76 -35v125l76 35v372h135v-320l80 37v-125z" />
    <glyph glyph-name="Nacute" unicode="&#x143;" horiz-adv-x="713" 
d="M638 660v-672h-45l-382 408v-396h-135v672h44l383 -406v394h135zM377 910h162v-24l-137 -162h-98z" />
    <glyph glyph-name="nacute" unicode="&#x144;" horiz-adv-x="585" 
d="M472 451.5q50 -54.5 50 -144.5v-307h-134v289q0 43 -25.5 69.5t-66.5 26.5t-67.5 -26.5t-26.5 -69.5v-289h-135v495h124v-45q26 26 63.5 41t81.5 15q86 0 136 -54.5zM305 780h162v-24l-137 -185h-98z" />
    <glyph glyph-name="uni0145" unicode="&#x145;" horiz-adv-x="713" 
d="M638 660v-672h-45l-382 408v-396h-135v672h44l383 -406v394h135zM295 -46h125l-26 -174h-102z" />
    <glyph glyph-name="uni0146" unicode="&#x146;" horiz-adv-x="585" 
d="M472 451.5q50 -54.5 50 -144.5v-307h-134v289q0 43 -25.5 69.5t-66.5 26.5t-67.5 -26.5t-26.5 -69.5v-289h-135v495h124v-45q26 26 63.5 41t81.5 15q86 0 136 -54.5zM235 -46h125l-26 -174h-102z" />
    <glyph glyph-name="Ncaron" unicode="&#x147;" horiz-adv-x="713" 
d="M638 660v-672h-45l-382 408v-396h-135v672h44l383 -406v394h135zM549 910l-148 -186h-89l-148 186h102l90 -80l90 80h103z" />
    <glyph glyph-name="ncaron" unicode="&#x148;" horiz-adv-x="585" 
d="M472 451.5q50 -54.5 50 -144.5v-307h-134v289q0 43 -25.5 69.5t-66.5 26.5t-67.5 -26.5t-26.5 -69.5v-289h-135v495h124v-45q26 26 63.5 41t81.5 15q86 0 136 -54.5zM460 780l-134 -209h-89l-135 209h99l80 -92l80 92h99z" />
    <glyph glyph-name="Eng" unicode="&#x14a;" horiz-adv-x="713" 
d="M638 660v-666q0 -93 -51 -139.5t-140 -46.5q-39 0 -74 11v113q24 -3 41 -3q45 0 67 18t22 59v16l-292 350v-372h-135v672h44l383 -453v441h135z" />
    <glyph glyph-name="eng" unicode="&#x14b;" horiz-adv-x="585" 
d="M472 451.5q50 -54.5 50 -144.5v-313q0 -93 -50.5 -139.5t-139.5 -46.5q-39 0 -74 11v113q23 -3 40 -3q46 0 68 17.5t22 59.5v282q0 43 -25.5 69.5t-66.5 26.5t-67.5 -26.5t-26.5 -69.5v-288h-135v495h124v-45q26 26 63.5 41t81.5 15q86 0 136 -54.5z" />
    <glyph glyph-name="Omacron" unicode="&#x14c;" horiz-adv-x="778" 
d="M212 33q-80 45 -127 123.5t-47 173.5t47 173.5t127 123.5t176 45t176.5 -45t128 -123.5t47.5 -173.5t-47.5 -173.5t-128 -123.5t-176.5 -45t-176 45zM497.5 140.5q48.5 27.5 76 77t27.5 112.5q0 62 -27.5 111.5t-76 77.5t-108.5 28q-61 0 -109 -27.5t-75.5 -77
t-27.5 -112.5t27.5 -112.5t75.5 -77t109 -27.5q60 0 108.5 27.5zM228 861h322v-106h-322v106z" />
    <glyph glyph-name="omacron" unicode="&#x14d;" horiz-adv-x="608" 
d="M169.5 23.5q-60.5 34.5 -95.5 94t-35 130.5t35 130.5t96 93.5t134 34t134 -34.5t96.5 -93.5t35.5 -130t-35.5 -130.5t-97 -94t-134.5 -34.5t-133.5 34.5zM395.5 151q36.5 38 36.5 96t-36.5 97t-91.5 39q-56 0 -92 -38.5t-36 -97.5q0 -58 36 -96t92 -38q55 0 91.5 38z
M153 728h302v-106h-302v106z" />
    <glyph glyph-name="Obreve" unicode="&#x14e;" horiz-adv-x="778" 
d="M212 33q-80 45 -127 123.5t-47 173.5t47 173.5t127 123.5t176 45t176.5 -45t128 -123.5t47.5 -173.5t-47.5 -173.5t-128 -123.5t-176.5 -45t-176 45zM497.5 140.5q48.5 27.5 76 77t27.5 112.5q0 62 -27.5 111.5t-76 77.5t-108.5 28q-61 0 -109 -27.5t-75.5 -77
t-27.5 -112.5t27.5 -112.5t75.5 -77t109 -27.5q60 0 108.5 27.5zM264 768q-48 49 -48 127v15h106v-15q0 -34 18 -54.5t49 -20.5t49 20t18 55v15h105v-15q0 -51 -22 -91t-61 -62.5t-89 -22.5q-77 0 -125 49z" />
    <glyph glyph-name="obreve" unicode="&#x14f;" horiz-adv-x="608" 
d="M169.5 23.5q-60.5 34.5 -95.5 94t-35 130.5t35 130.5t96 93.5t134 34t134 -34.5t96.5 -93.5t35.5 -130t-35.5 -130.5t-97 -94t-134.5 -34.5t-133.5 34.5zM395.5 151q36.5 38 36.5 96t-36.5 97t-91.5 39q-56 0 -92 -38.5t-36 -97.5q0 -58 36 -96t92 -38q55 0 91.5 38z
M214.5 593q-39.5 22 -61.5 62t-22 90v28h106v-27q0 -35 18 -55t49 -20t49 20t18 55v27h105v-28q0 -77 -48 -125.5t-124 -48.5q-50 0 -89.5 22z" />
    <glyph glyph-name="Ohungarumlaut" unicode="&#x150;" horiz-adv-x="778" 
d="M212 33q-80 45 -127 123.5t-47 173.5t47 173.5t127 123.5t176 45t176.5 -45t128 -123.5t47.5 -173.5t-47.5 -173.5t-128 -123.5t-176.5 -45t-176 45zM497.5 140.5q48.5 27.5 76 77t27.5 112.5q0 62 -27.5 111.5t-76 77.5t-108.5 28q-61 0 -109 -27.5t-75.5 -77
t-27.5 -112.5t27.5 -112.5t75.5 -77t109 -27.5q60 0 108.5 27.5zM286 910h140v-24l-122 -162h-91zM523 910h140v-24l-122 -162h-91z" />
    <glyph glyph-name="ohungarumlaut" unicode="&#x151;" horiz-adv-x="608" 
d="M169.5 23.5q-60.5 34.5 -95.5 94t-35 130.5t35 130.5t96 93.5t134 34t134 -34.5t96.5 -93.5t35.5 -130t-35.5 -130.5t-97 -94t-134.5 -34.5t-133.5 34.5zM395.5 151q36.5 38 36.5 96t-36.5 97t-91.5 39q-56 0 -92 -38.5t-36 -97.5q0 -58 36 -96t92 -38q55 0 91.5 38z
M219 780h140v-24l-122 -185h-91zM436 780h140v-24l-122 -185h-91z" />
    <glyph glyph-name="OE" unicode="&#x152;" horiz-adv-x="1098" 
d="M1057 122v-122h-456v69q-39 -39 -94.5 -60t-119.5 -21q-97 0 -177 45t-126 123t-46 174t46 174t126 123t178 45q65 0 120 -21.5t93 -59.5v69h444v-122h-309v-134h228v-115h-228v-167h321zM497 140.5q49 27.5 76.5 77t27.5 111.5q0 63 -27.5 112.5t-76.5 77.5t-109 28
t-108.5 -28t-75.5 -77.5t-27 -112.5t27 -112t75.5 -76.5t108.5 -27.5t109 27.5z" />
    <glyph glyph-name="oe" unicode="&#x153;" horiz-adv-x="942" 
d="M895 201h-342q12 -47 47 -72t88 -25q73 0 137 50l56 -92q-42 -36 -92 -55t-104 -19q-62 0 -113 24t-85 67q-32 -43 -79.5 -67t-106.5 -24q-71 0 -131 34.5t-95.5 93.5t-35.5 131t35.5 131.5t95.5 93.5t131 34q58 0 106 -23.5t79 -66.5q33 42 81.5 66t106.5 24
q66 0 118.5 -31t82 -83.5t29.5 -115.5q0 -37 -9 -75zM593 370q-31 -27 -41 -74h221q-1 46 -31.5 73.5t-74.5 27.5q-43 0 -74 -27zM391 150.5q34 38.5 34 96.5q0 59 -34 97.5t-88 38.5q-55 0 -91 -38.5t-36 -97.5t36 -97t91 -38q54 0 88 38.5z" />
    <glyph glyph-name="Racute" unicode="&#x154;" horiz-adv-x="640" 
d="M481 0l-171 233h-99v-233h-135v660h248q69 0 123 -26.5t84.5 -75t30.5 -111.5t-31 -112t-85 -76l187 -259h-152zM211 352h113q47 0 73.5 26t26.5 69q0 42 -27 68t-73 26h-113v-189zM285 910h162v-24l-137 -162h-98z" />
    <glyph glyph-name="racute" unicode="&#x155;" horiz-adv-x="388" 
d="M371 495v-119h-36q-61 0 -97 -32.5t-36 -96.5v-247h-135v495h124v-59q25 31 60 48t76 17q25 0 44 -6zM215 780h162v-24l-137 -185h-98z" />
    <glyph glyph-name="uni0156" unicode="&#x156;" horiz-adv-x="640" 
d="M481 0l-171 233h-99v-233h-135v660h248q69 0 123 -26.5t84.5 -75t30.5 -111.5t-31 -112t-85 -76l187 -259h-152zM211 352h113q47 0 73.5 26t26.5 69q0 42 -27 68t-73 26h-113v-189zM265 -46h125l-26 -174h-102z" />
    <glyph glyph-name="uni0157" unicode="&#x157;" horiz-adv-x="388" 
d="M371 495v-119h-36q-61 0 -97 -32.5t-36 -96.5v-247h-135v495h124v-59q25 31 60 48t76 17q25 0 44 -6zM73 -46h125l-26 -174h-102z" />
    <glyph glyph-name="Rcaron" unicode="&#x158;" horiz-adv-x="640" 
d="M481 0l-171 233h-99v-233h-135v660h248q69 0 123 -26.5t84.5 -75t30.5 -111.5t-31 -112t-85 -76l187 -259h-152zM211 352h113q47 0 73.5 26t26.5 69q0 42 -27 68t-73 26h-113v-189zM456 910l-148 -186h-89l-148 186h102l90 -80l90 80h103z" />
    <glyph glyph-name="rcaron" unicode="&#x159;" horiz-adv-x="388" 
d="M371 495v-119h-36q-61 0 -97 -32.5t-36 -96.5v-247h-135v495h124v-59q25 31 60 48t76 17q25 0 44 -6zM370 780l-134 -209h-89l-135 209h99l80 -92l80 92h99z" />
    <glyph glyph-name="Sacute" unicode="&#x15a;" horiz-adv-x="559" 
d="M134.5 27.5q-66.5 39.5 -104.5 106.5l93 70q32 -44 70 -70t92 -26q44 0 69 19.5t25 53.5q0 29 -18.5 44.5t-65.5 37.5l-71 32q-76 34 -118 79t-42 111q0 56 28.5 98.5t78.5 65.5t112 23q76 0 131.5 -34t86.5 -91l-92 -71q-51 76 -126 76q-35 0 -58.5 -16.5t-23.5 -47.5
q0 -26 17.5 -41.5t59.5 -34.5l75 -33q83 -37 123 -81.5t40 -111.5q0 -60 -30 -105t-82.5 -69t-118.5 -24q-84 0 -150.5 39.5zM301 910h162v-24l-137 -162h-98z" />
    <glyph glyph-name="sacute" unicode="&#x15b;" horiz-adv-x="455" 
d="M109 13.5q-53 25.5 -87 70.5l68 82q65 -67 139 -67q27 0 45 10.5t18 30.5q0 16 -11.5 24.5t-39.5 20.5l-53 22q-68 28 -101.5 62t-33.5 89q0 70 50.5 109t131.5 39q111 0 178 -74l-68 -83q-50 47 -111 47q-25 0 -39 -9t-14 -26q0 -14 11.5 -23t40.5 -21l48 -20
q72 -29 105.5 -62.5t33.5 -88.5q0 -74 -54.5 -116t-138.5 -42q-65 0 -118 25.5zM256 780h162v-24l-137 -185h-98z" />
    <glyph glyph-name="Scircumflex" unicode="&#x15c;" horiz-adv-x="559" 
d="M134.5 27.5q-66.5 39.5 -104.5 106.5l93 70q32 -44 70 -70t92 -26q44 0 69 19.5t25 53.5q0 29 -18.5 44.5t-65.5 37.5l-71 32q-76 34 -118 79t-42 111q0 56 28.5 98.5t78.5 65.5t112 23q76 0 131.5 -34t86.5 -91l-92 -71q-51 76 -126 76q-35 0 -58.5 -16.5t-23.5 -47.5
q0 -26 17.5 -41.5t59.5 -34.5l75 -33q83 -37 123 -81.5t40 -111.5q0 -60 -30 -105t-82.5 -69t-118.5 -24q-84 0 -150.5 39.5zM370 724l-90 80l-90 -80h-102l148 186h89l148 -186h-103z" />
    <glyph glyph-name="scircumflex" unicode="&#x15d;" horiz-adv-x="455" 
d="M109 13.5q-53 25.5 -87 70.5l68 82q65 -67 139 -67q27 0 45 10.5t18 30.5q0 16 -11.5 24.5t-39.5 20.5l-53 22q-68 28 -101.5 62t-33.5 89q0 70 50.5 109t131.5 39q111 0 178 -74l-68 -83q-50 47 -111 47q-25 0 -39 -9t-14 -26q0 -14 11.5 -23t40.5 -21l48 -20
q72 -29 105.5 -62.5t33.5 -88.5q0 -74 -54.5 -116t-138.5 -42q-65 0 -118 25.5zM312 571l-80 92l-80 -92h-99l135 209h89l134 -209h-99z" />
    <glyph glyph-name="Scedilla" unicode="&#x15e;" horiz-adv-x="559" 
d="M134.5 27.5q-66.5 39.5 -104.5 106.5l93 70q32 -44 70 -70t92 -26q44 0 69 19.5t25 53.5q0 29 -18.5 44.5t-65.5 37.5l-71 32q-76 34 -118 79t-42 111q0 56 28.5 98.5t78.5 65.5t112 23q76 0 131.5 -34t86.5 -91l-92 -71q-51 76 -126 76q-35 0 -58.5 -16.5t-23.5 -47.5
q0 -26 17.5 -41.5t59.5 -34.5l75 -33q83 -37 123 -81.5t40 -111.5q0 -60 -30 -105t-82.5 -69t-118.5 -24q-84 0 -150.5 39.5zM144 -182v89q26 -2 60 -2q29 0 45.5 14.5t16.5 42.5q0 26 -13 58l53 24q32 -18 49.5 -45.5t17.5 -63.5q0 -55 -41.5 -91t-113.5 -36q-39 0 -74 10z
" />
    <glyph glyph-name="scedilla" unicode="&#x15f;" horiz-adv-x="455" 
d="M109 13.5q-53 25.5 -87 70.5l68 82q65 -67 139 -67q27 0 45 10.5t18 30.5q0 16 -11.5 24.5t-39.5 20.5l-53 22q-68 28 -101.5 62t-33.5 89q0 70 50.5 109t131.5 39q111 0 178 -74l-68 -83q-50 47 -111 47q-25 0 -39 -9t-14 -26q0 -14 11.5 -23t40.5 -21l48 -20
q72 -29 105.5 -62.5t33.5 -88.5q0 -74 -54.5 -116t-138.5 -42q-65 0 -118 25.5zM99 -182v89q26 -2 60 -2q29 0 45.5 14.5t16.5 42.5q0 26 -13 58l53 24q32 -18 49.5 -45.5t17.5 -63.5q0 -55 -41.5 -91t-113.5 -36q-39 0 -74 10z" />
    <glyph glyph-name="Scaron" unicode="&#x160;" horiz-adv-x="559" 
d="M134.5 27.5q-66.5 39.5 -104.5 106.5l93 70q32 -44 70 -70t92 -26q44 0 69 19.5t25 53.5q0 29 -18.5 44.5t-65.5 37.5l-71 32q-76 34 -118 79t-42 111q0 56 28.5 98.5t78.5 65.5t112 23q76 0 131.5 -34t86.5 -91l-92 -71q-51 76 -126 76q-35 0 -58.5 -16.5t-23.5 -47.5
q0 -26 17.5 -41.5t59.5 -34.5l75 -33q83 -37 123 -81.5t40 -111.5q0 -60 -30 -105t-82.5 -69t-118.5 -24q-84 0 -150.5 39.5zM473 910l-148 -186h-89l-148 186h102l90 -80l90 80h103z" />
    <glyph glyph-name="scaron" unicode="&#x161;" horiz-adv-x="455" 
d="M109 13.5q-53 25.5 -87 70.5l68 82q65 -67 139 -67q27 0 45 10.5t18 30.5q0 16 -11.5 24.5t-39.5 20.5l-53 22q-68 28 -101.5 62t-33.5 89q0 70 50.5 109t131.5 39q111 0 178 -74l-68 -83q-50 47 -111 47q-25 0 -39 -9t-14 -26q0 -14 11.5 -23t40.5 -21l48 -20
q72 -29 105.5 -62.5t33.5 -88.5q0 -74 -54.5 -116t-138.5 -42q-65 0 -118 25.5zM411 780l-134 -209h-89l-135 209h99l80 -92l80 92h99z" />
    <glyph glyph-name="uni0162" unicode="&#x162;" horiz-adv-x="585" 
d="M225 538h-211v122h558v-122h-212v-538h-135v538zM152 -182v89q26 -2 60 -2q29 0 45.5 14.5t16.5 42.5q0 26 -13 58l53 24q32 -18 49.5 -45.5t17.5 -63.5q0 -55 -41.5 -91t-113.5 -36q-39 0 -74 10z" />
    <glyph glyph-name="uni0163" unicode="&#x163;" horiz-adv-x="416" 
d="M385 113v-113q-48 -12 -93 -12q-94 0 -146 46.5t-52 139.5v207h-78v114h78v125h135v-125h140v-114h-140v-195q0 -42 22 -59.5t70 -17.5q12 0 64 4zM89 -182v89q26 -2 60 -2q29 0 45.5 14.5t16.5 42.5q0 26 -13 58l53 24q32 -18 49.5 -45.5t17.5 -63.5q0 -55 -41.5 -91
t-113.5 -36q-39 0 -74 10z" />
    <glyph glyph-name="Tcaron" unicode="&#x164;" horiz-adv-x="585" 
d="M225 538h-211v122h558v-122h-212v-538h-135v538zM485 910l-148 -186h-89l-148 186h102l90 -80l90 80h103z" />
    <glyph glyph-name="tcaron" unicode="&#x165;" horiz-adv-x="416" 
d="M385 113v-113q-48 -12 -93 -12q-94 0 -146 46.5t-52 139.5v207h-78v114h78v125h135v-125h140v-114h-140v-195q0 -42 22 -59.5t70 -17.5q12 0 64 4zM320 750h139l-49 -206h-95z" />
    <glyph glyph-name="Tbar" unicode="&#x166;" horiz-adv-x="585" 
d="M225 227h-176v113h176v198h-211v122h558v-122h-212v-198h176v-113h-176v-227h-135v227z" />
    <glyph glyph-name="tbar" unicode="&#x167;" horiz-adv-x="431" 
d="M394 113v-113q-46 -12 -92 -12q-94 0 -146 46.5t-52 139.5v23h-79v108h79v82h-79v108h79v125h134v-125h141v-108h-141v-82h141v-108h-141v-11q0 -42 22 -59.5t70 -17.5q12 0 64 4z" />
    <glyph glyph-name="Utilde" unicode="&#x168;" horiz-adv-x="700" 
d="M205.5 22.5q-63.5 34.5 -99.5 99t-36 151.5v387h135v-397q0 -72 40.5 -111t104.5 -39q65 0 105 39t40 111v397h135v-387q0 -87 -36.5 -151.5t-100 -99t-143.5 -34.5q-81 0 -144.5 34.5zM358 747l-30 16q-28 17 -44 17q-14 0 -21 -9.5t-7 -23.5v-12h-103q-2 22 -2 34
q0 60 33.5 97t82.5 37q35 0 74 -21l30 -18q3 -2 12.5 -7t17.5 -7.5t15 -2.5q14 0 21 9.5t7 24.5v12h103q2 -22 2 -33q0 -61 -33.5 -98t-81.5 -37q-35 0 -76 22z" />
    <glyph glyph-name="utilde" unicode="&#x169;" horiz-adv-x="580" 
d="M173.5 16.5q-52.5 28.5 -82 80.5t-29.5 121v277h135v-288q0 -43 26.5 -69t67.5 -26q39 0 65.5 26t26.5 69v288h135v-277q0 -69 -29.5 -121t-81.5 -80.5t-116 -28.5q-65 0 -117.5 28.5zM298 601l-28 17q-4 3 -12 8.5t-14.5 8t-13.5 2.5q-28 0 -28 -35v-12h-103
q-2 11 -2 33q0 62 32.5 99t80.5 37q37 0 72 -22l28 -18q13 -10 21.5 -14t18.5 -4q28 0 28 35v12h102q3 -18 3 -34q0 -61 -32.5 -98t-81.5 -37q-37 0 -71 22z" />
    <glyph glyph-name="Umacron" unicode="&#x16a;" horiz-adv-x="700" 
d="M205.5 22.5q-63.5 34.5 -99.5 99t-36 151.5v387h135v-397q0 -72 40.5 -111t104.5 -39q65 0 105 39t40 111v397h135v-387q0 -87 -36.5 -151.5t-100 -99t-143.5 -34.5q-81 0 -144.5 34.5zM189 861h322v-106h-322v106z" />
    <glyph glyph-name="umacron" unicode="&#x16b;" horiz-adv-x="580" 
d="M173.5 16.5q-52.5 28.5 -82 80.5t-29.5 121v277h135v-288q0 -43 26.5 -69t67.5 -26q39 0 65.5 26t26.5 69v288h135v-277q0 -69 -29.5 -121t-81.5 -80.5t-116 -28.5q-65 0 -117.5 28.5zM139 728h302v-106h-302v106z" />
    <glyph glyph-name="Ubreve" unicode="&#x16c;" horiz-adv-x="700" 
d="M205.5 22.5q-63.5 34.5 -99.5 99t-36 151.5v387h135v-397q0 -72 40.5 -111t104.5 -39q65 0 105 39t40 111v397h135v-387q0 -87 -36.5 -151.5t-100 -99t-143.5 -34.5q-81 0 -144.5 34.5zM225 768q-48 49 -48 127v15h106v-15q0 -34 18 -54.5t49 -20.5t49 20t18 55v15h105
v-15q0 -51 -22 -91t-61 -62.5t-89 -22.5q-77 0 -125 49z" />
    <glyph glyph-name="ubreve" unicode="&#x16d;" horiz-adv-x="580" 
d="M173.5 16.5q-52.5 28.5 -82 80.5t-29.5 121v277h135v-288q0 -43 26.5 -69t67.5 -26q39 0 65.5 26t26.5 69v288h135v-277q0 -69 -29.5 -121t-81.5 -80.5t-116 -28.5q-65 0 -117.5 28.5zM200.5 593q-39.5 22 -61.5 62t-22 90v28h106v-27q0 -35 18 -55t49 -20t49 20t18 55
v27h105v-28q0 -77 -48 -125.5t-124 -48.5q-50 0 -89.5 22z" />
    <glyph glyph-name="Uring" unicode="&#x16e;" horiz-adv-x="700" 
d="M205.5 22.5q-63.5 34.5 -99.5 99t-36 151.5v387h135v-397q0 -72 40.5 -111t104.5 -39q65 0 105 39t40 111v397h135v-387q0 -87 -36.5 -151.5t-100 -99t-143.5 -34.5q-81 0 -144.5 34.5zM259 710.5q-36 35.5 -36 87.5q0 51 36 86t90 35q55 0 91 -35t36 -86
q0 -52 -36 -87.5t-91 -35.5q-54 0 -90 35.5zM379 768q12 12 12 30q0 17 -12 29t-29 12q-18 0 -29.5 -12t-11.5 -29q0 -18 11.5 -30t29.5 -12q17 0 29 12z" />
    <glyph glyph-name="uring" unicode="&#x16f;" horiz-adv-x="580" 
d="M173.5 16.5q-52.5 28.5 -82 80.5t-29.5 121v277h135v-288q0 -43 26.5 -69t67.5 -26q39 0 65.5 26t26.5 69v288h135v-277q0 -69 -29.5 -121t-81.5 -80.5t-116 -28.5q-65 0 -117.5 28.5zM199 583q-36 35 -36 88q0 52 36 87t90 35q55 0 91 -34.5t36 -87.5t-36 -88t-91 -35
q-54 0 -90 35zM319 642q12 12 12 29q0 18 -12 29.5t-29 11.5t-29 -11.5t-12 -29.5t11.5 -29.5t29.5 -11.5q17 0 29 12z" />
    <glyph glyph-name="Uhungarumlaut" unicode="&#x170;" horiz-adv-x="700" 
d="M205.5 22.5q-63.5 34.5 -99.5 99t-36 151.5v387h135v-397q0 -72 40.5 -111t104.5 -39q65 0 105 39t40 111v397h135v-387q0 -87 -36.5 -151.5t-100 -99t-143.5 -34.5q-81 0 -144.5 34.5zM247 910h140v-24l-122 -162h-91zM484 910h140v-24l-122 -162h-91z" />
    <glyph glyph-name="uhungarumlaut" unicode="&#x171;" horiz-adv-x="580" 
d="M173.5 16.5q-52.5 28.5 -82 80.5t-29.5 121v277h135v-288q0 -43 26.5 -69t67.5 -26q39 0 65.5 26t26.5 69v288h135v-277q0 -69 -29.5 -121t-81.5 -80.5t-116 -28.5q-65 0 -117.5 28.5zM205 780h140v-24l-122 -185h-91zM422 780h140v-24l-122 -185h-91z" />
    <glyph glyph-name="Uogonek" unicode="&#x172;" horiz-adv-x="700" 
d="M205.5 22.5q-63.5 34.5 -99.5 99t-36 151.5v387h135v-397q0 -72 40.5 -111t104.5 -39q65 0 105 39t40 111v397h135v-387q0 -87 -36.5 -151.5t-100 -99t-143.5 -34.5q-81 0 -144.5 34.5zM342 -165q-33 27 -33 73q0 25 9 44.5t33 44t73 65.5h122l-82 -83q-14 -14 -20 -24
t-6 -21q0 -29 36 -29q8 0 42 6v-88q-42 -15 -86 -15q-55 0 -88 27z" />
    <glyph glyph-name="uogonek" unicode="&#x173;" horiz-adv-x="580" 
d="M518 495v-277q0 -51 -13 -86.5t-38 -64t-77 -76.5q-17 -15 -25 -27t-8 -26q0 -16 10 -25t28 -9q10 0 42 6v-86q-48 -16 -89 -16q-55 0 -86 24t-31 69q0 49 42 88q-61 3 -109 32.5t-75 80t-27 116.5v277h135v-288q0 -43 26.5 -69t67.5 -26q39 0 65.5 26t26.5 69v288h135z
" />
    <glyph glyph-name="Wcircumflex" unicode="&#x174;" horiz-adv-x="1035" 
d="M1010 660l-264 -672h-44l-184 414l-185 -414h-44l-264 672h150l147 -390l173 402h45l173 -400l147 388h150zM607 724l-90 80l-90 -80h-102l148 186h89l148 -186h-103z" />
    <glyph glyph-name="wcircumflex" unicode="&#x175;" horiz-adv-x="857" 
d="M845 495l-230 -507h-44l-142 288l-143 -288h-44l-230 507h142l117 -282l135 293h45l137 -287l115 276h142zM508 571l-80 92l-80 -92h-99l135 209h89l134 -209h-99z" />
    <glyph glyph-name="Ycircumflex" unicode="&#x176;" horiz-adv-x="624" 
d="M380 260v-260h-135v259l-228 401h150l146 -262l145 262h149zM400 724l-90 80l-90 -80h-102l148 186h89l148 -186h-103z" />
    <glyph glyph-name="ycircumflex" unicode="&#x177;" horiz-adv-x="559" 
d="M547 495l-237 -538q-34 -77 -81 -113t-116 -36q-42 0 -87 12v113q46 -4 58 -4q36 0 61 14t42 53l15 34l-190 465h143l121 -325l129 325h142zM359 571l-80 92l-80 -92h-99l135 209h89l134 -209h-99z" />
    <glyph glyph-name="Ydieresis" unicode="&#x178;" horiz-adv-x="624" 
d="M380 260v-260h-135v259l-228 401h150l146 -262l145 262h149zM125.5 760.5q-24.5 23.5 -24.5 53.5q0 33 24 55.5t56 22.5q34 0 58 -22.5t24 -55.5q0 -31 -24 -54t-58 -23q-31 0 -55.5 23.5zM384 759.5q-25 23.5 -25 53.5q0 33 24.5 56t56.5 23q33 0 57 -23t24 -56
q0 -31 -24 -54t-57 -23q-31 0 -56 23.5z" />
    <glyph glyph-name="Zacute" unicode="&#x179;" horiz-adv-x="588" 
d="M560 122v-122h-540v36l331 502h-288v122h496v-36l-331 -502h332zM320 910h162v-24l-137 -162h-98z" />
    <glyph glyph-name="zacute" unicode="&#x17a;" horiz-adv-x="468" 
d="M452 114v-114h-435v36l237 345h-214v114h410v-36l-235 -345h237zM262 780h162v-24l-137 -185h-98z" />
    <glyph glyph-name="Zdotaccent" unicode="&#x17b;" horiz-adv-x="588" 
d="M560 122v-122h-540v36l331 502h-288v122h496v-36l-331 -502h332zM237 755.5q-25 24.5 -25 59.5t25 59.5t61 24.5t61.5 -24.5t25.5 -59.5t-25.5 -59.5t-61.5 -24.5t-61 24.5z" />
    <glyph glyph-name="zdotaccent" unicode="&#x17c;" horiz-adv-x="468" 
d="M452 114v-114h-435v36l237 345h-214v114h410v-36l-235 -345h237zM176 616q-25 24 -25 59q0 36 25 60t61 24t61.5 -24t25.5 -60q0 -35 -25.5 -59t-61.5 -24t-61 24z" />
    <glyph glyph-name="Zcaron" unicode="&#x17d;" horiz-adv-x="588" 
d="M560 122v-122h-540v36l331 502h-288v122h496v-36l-331 -502h332zM491 910l-148 -186h-89l-148 186h102l90 -80l90 80h103z" />
    <glyph glyph-name="zcaron" unicode="&#x17e;" horiz-adv-x="468" 
d="M452 114v-114h-435v36l237 345h-214v114h410v-36l-235 -345h237zM417 780l-134 -209h-89l-135 209h99l80 -92l80 92h99z" />
    <glyph glyph-name="uni018F" unicode="&#x18f;" horiz-adv-x="733" 
d="M529 627q77 -45 121 -123t44 -173t-45.5 -173.5t-123.5 -124t-172 -45.5q-88 0 -160 38.5t-113.5 107.5t-41.5 156q0 44 9 87h506q-13 78 -66 124.5t-131 46.5q-116 0 -191 -102l-91 79q48 68 120 107.5t162 39.5q96 0 173 -45zM481 155q52 42 69 112h-381
q1 -49 27.5 -84t69 -52.5t90.5 -17.5q73 0 125 42z" />
    <glyph glyph-name="florin" unicode="&#x192;" horiz-adv-x="451" 
d="M454 661v-112q-32 2 -46 2q-42 0 -64 -18t-26 -59l-8 -68h91v-115h-106l-29 -239q-11 -93 -61 -139t-135 -46q-42 0 -72 10l-1 113l45 -2q43 0 65 18t26 58l28 227h-87v115h101l10 80q11 92 61 139t135 47q40 0 73 -11z" />
    <glyph glyph-name="uni01D4" unicode="&#x1d4;" horiz-adv-x="580" 
d="M173.5 16.5q-52.5 28.5 -82 80.5t-29.5 121v277h135v-288q0 -43 26.5 -69t67.5 -26q39 0 65.5 26t26.5 69v288h135v-277q0 -69 -29.5 -121t-81.5 -80.5t-116 -28.5q-65 0 -117.5 28.5zM469 780l-134 -209h-89l-135 209h99l80 -92l80 92h99z" />
    <glyph glyph-name="AEacute" unicode="&#x1fc;" horiz-adv-x="852" 
d="M812 122v-122h-355l-15 86h-247l-45 -86h-145l338 660h457v-122h-301l22 -134h198v-115h-179l28 -167h244zM251 197h172l-43 269zM441 910h162v-24l-137 -162h-98z" />
    <glyph glyph-name="aeacute" unicode="&#x1fd;" horiz-adv-x="878" 
d="M830 197h-345q13 -45 49.5 -69t88.5 -24q73 0 137 50l56 -92q-86 -74 -196 -74q-67 0 -120.5 26.5t-87.5 73.5q-29 -49 -79.5 -74.5t-115.5 -25.5q-87 0 -134 42t-47 107q0 69 50.5 109t136.5 40h124v16q0 41 -23.5 64t-67.5 23q-37 0 -68 -17t-64 -51l-69 83
q86 102 215 102q111 0 163 -73q33 35 77.5 54t97.5 19q67 0 120 -30.5t82.5 -83t29.5 -116.5q0 -43 -10 -79zM524 367q-33 -30 -43 -81h228q1 51 -29 81t-77 30q-46 0 -79 -30zM316.5 115q30.5 27 30.5 69v13h-106q-33 0 -51 -13.5t-18 -38.5q0 -27 19 -42t51 -15
q44 0 74.5 27zM456 780h162v-24l-137 -185h-98z" />
    <glyph glyph-name="Oslashacute" unicode="&#x1fe;" horiz-adv-x="778" 
d="M672 533q33 -43 50.5 -94.5t17.5 -108.5q0 -95 -47.5 -173.5t-128 -123.5t-176.5 -45q-109 0 -200 59l-76 -76l-81 81l74 74q-67 91 -67 204q0 95 47 173.5t127 123.5t176 45q111 0 201 -60l77 77l81 -81zM277 524.5q-50 -28.5 -78 -79.5t-28 -115q0 -62 26 -111l305 304
q-52 30 -113 30q-62 0 -112 -28.5zM500 135.5q50 28.5 78.5 79.5t28.5 115q0 60 -27 111l-304 -305q50 -29 113 -29q61 0 111 28.5zM409 910h162v-24l-137 -162h-98z" />
    <glyph glyph-name="oslashacute" unicode="&#x1ff;" horiz-adv-x="612" 
d="M529 390q43 -65 43 -143q0 -72 -36 -131t-97 -93.5t-134 -34.5q-75 0 -140 38l-54 -55l-81 81l53 53q-42 62 -42 142q0 72 35.5 131.5t96 93.5t133.5 34q75 0 140 -38l55 55l81 -80zM206 351.5q-39 -40.5 -39 -104.5q0 -35 12 -62l191 192q-29 15 -64 15
q-61 0 -100 -40.5zM405.5 142.5q39.5 40.5 39.5 104.5q0 35 -12 62l-193 -192q29 -15 65 -15q61 0 100.5 40.5zM331 780h162v-24l-137 -185h-98z" />
    <glyph glyph-name="uni0218" unicode="&#x218;" horiz-adv-x="559" 
d="M134.5 27.5q-66.5 39.5 -104.5 106.5l93 70q32 -44 70 -70t92 -26q44 0 69 19.5t25 53.5q0 29 -18.5 44.5t-65.5 37.5l-71 32q-76 34 -118 79t-42 111q0 56 28.5 98.5t78.5 65.5t112 23q76 0 131.5 -34t86.5 -91l-92 -71q-51 76 -126 76q-35 0 -58.5 -16.5t-23.5 -47.5
q0 -26 17.5 -41.5t59.5 -34.5l75 -33q83 -37 123 -81.5t40 -111.5q0 -60 -30 -105t-82.5 -69t-118.5 -24q-84 0 -150.5 39.5zM223 -46h125l-26 -174h-102z" />
    <glyph glyph-name="uni0219" unicode="&#x219;" horiz-adv-x="455" 
d="M109 13.5q-53 25.5 -87 70.5l68 82q65 -67 139 -67q27 0 45 10.5t18 30.5q0 16 -11.5 24.5t-39.5 20.5l-53 22q-68 28 -101.5 62t-33.5 89q0 70 50.5 109t131.5 39q111 0 178 -74l-68 -83q-50 47 -111 47q-25 0 -39 -9t-14 -26q0 -14 11.5 -23t40.5 -21l48 -20
q72 -29 105.5 -62.5t33.5 -88.5q0 -74 -54.5 -116t-138.5 -42q-65 0 -118 25.5zM178 -46h125l-26 -174h-102z" />
    <glyph glyph-name="uni021A" unicode="&#x21a;" horiz-adv-x="585" 
d="M225 538h-211v122h558v-122h-212v-538h-135v538zM231 -46h125l-26 -174h-102z" />
    <glyph glyph-name="uni021B" unicode="&#x21b;" horiz-adv-x="416" 
d="M385 113v-113q-48 -12 -93 -12q-94 0 -146 46.5t-52 139.5v207h-78v114h78v125h135v-125h140v-114h-140v-195q0 -42 22 -59.5t70 -17.5q12 0 64 4zM168 -46h125l-26 -174h-102z" />
    <glyph glyph-name="uni0237" unicode="&#x237;" horiz-adv-x="269" 
d="M-63 -181v113q24 -3 41 -3q45 0 67 18t22 59v489h135v-501q0 -93 -51 -139.5t-139 -46.5q-40 0 -75 11z" />
    <glyph glyph-name="uni0259" unicode="&#x259;" horiz-adv-x="569" 
d="M400.5 472q61.5 -34 96 -93t34.5 -131t-34 -131.5t-92.5 -94t-130.5 -34.5q-69 0 -122.5 30.5t-83 83.5t-29.5 117q0 43 9 74h347q-12 47 -47.5 72t-89.5 25q-76 0 -141 -49l-56 92q87 73 201 73q77 0 138.5 -34zM353.5 124.5q31.5 26.5 42.5 73.5h-227q2 -46 33 -73
t77 -27q43 0 74.5 26.5z" />
    <glyph glyph-name="circumflex" unicode="&#x2c6;" horiz-adv-x="600" 
d="M380 571l-80 92l-80 -92h-99l135 209h89l134 -209h-99z" />
    <glyph glyph-name="caron" unicode="&#x2c7;" horiz-adv-x="600" 
d="M479 780l-134 -209h-89l-135 209h99l80 -92l80 92h99z" />
    <glyph glyph-name="breve" unicode="&#x2d8;" horiz-adv-x="600" 
d="M210.5 593q-39.5 22 -61.5 62t-22 90v28h106v-27q0 -35 18 -55t49 -20t49 20t18 55v27h105v-28q0 -77 -48 -125.5t-124 -48.5q-50 0 -89.5 22z" />
    <glyph glyph-name="dotaccent" unicode="&#x2d9;" horiz-adv-x="600" 
d="M238 616q-25 24 -25 59q0 36 25 60t61 24t61.5 -24t25.5 -60q0 -35 -25.5 -59t-61.5 -24t-61 24z" />
    <glyph glyph-name="ring" unicode="&#x2da;" horiz-adv-x="600" 
d="M209 583q-36 35 -36 88q0 52 36 87t90 35q55 0 91 -34.5t36 -87.5t-36 -88t-91 -35q-54 0 -90 35zM329 642q12 12 12 29q0 18 -12 29.5t-29 11.5t-29 -11.5t-12 -29.5t11.5 -29.5t29.5 -11.5q17 0 29 12z" />
    <glyph glyph-name="ogonek" unicode="&#x2db;" horiz-adv-x="600" 
d="M228.5 -164q-32.5 28 -32.5 72t36 78t116 68l55 -54l-40 -25q-20 -12 -29 -20.5t-9 -20.5q0 -14 9 -21.5t27 -7.5q10 0 42 6v-88q-45 -15 -86 -15q-56 0 -88.5 28z" />
    <glyph glyph-name="tilde" unicode="&#x2dc;" horiz-adv-x="600" 
d="M308 601l-28 17q-4 3 -12 8.5t-14.5 8t-13.5 2.5q-28 0 -28 -35v-12h-103q-2 11 -2 33q0 62 32.5 99t80.5 37q37 0 72 -22l28 -18q13 -10 21.5 -14t18.5 -4q28 0 28 35v12h102q3 -18 3 -34q0 -61 -32.5 -98t-81.5 -37q-37 0 -71 22z" />
    <glyph glyph-name="hungarumlaut" unicode="&#x2dd;" horiz-adv-x="600" 
d="M158 780h140v-24l-122 -185h-91zM375 780h140v-24l-122 -185h-91z" />
    <glyph glyph-name="gravecomb" unicode="&#x300;" horiz-adv-x="0" 
d="M-368 756v24h162l73 -209h-98z" />
    <glyph glyph-name="acutecomb" unicode="&#x301;" horiz-adv-x="0" 
d="M-295 780h162v-24l-137 -185h-98z" />
    <glyph glyph-name="uni0302" unicode="&#x302;" horiz-adv-x="0" 
d="M-170 571l-80 92l-80 -92h-99l135 209h89l134 -209h-99z" />
    <glyph glyph-name="tildecomb" unicode="&#x303;" horiz-adv-x="0" 
d="M-242 601l-28 17q-4 3 -12 8.5t-14.5 8t-13.5 2.5q-28 0 -28 -35v-12h-103q-2 11 -2 33q0 62 32.5 99t80.5 37q37 0 72 -22l28 -18q13 -10 21.5 -14t18.5 -4q28 0 28 35v12h102q3 -18 3 -34q0 -61 -32.5 -98t-81.5 -37q-37 0 -71 22z" />
    <glyph glyph-name="uni0304" unicode="&#x304;" horiz-adv-x="0" 
d="M-401 728h302v-106h-302v106z" />
    <glyph glyph-name="uni0306" unicode="&#x306;" horiz-adv-x="0" 
d="M-339.5 593q-39.5 22 -61.5 62t-22 90v28h106v-27q0 -35 18 -55t49 -20t49 20t18 55v27h105v-28q0 -77 -48 -125.5t-124 -48.5q-50 0 -89.5 22z" />
    <glyph glyph-name="uni0307" unicode="&#x307;" horiz-adv-x="0" 
d="M-312 616q-25 24 -25 59q0 36 25 60t61 24t61.5 -24t25.5 -60q0 -35 -25.5 -59t-61.5 -24t-61 24z" />
    <glyph glyph-name="uni0308" unicode="&#x308;" horiz-adv-x="0" 
d="M-426 621q-24 23 -24 55t24 55t58 23q32 0 56 -23t24 -55t-24 -55t-56 -23q-34 0 -58 23zM-188 621q-24 23 -24 55t24 55t58 23q32 0 56 -23t24 -55t-24 -55t-56 -23q-34 0 -58 23z" />
    <glyph glyph-name="uni030A" unicode="&#x30a;" horiz-adv-x="0" 
d="M-341 583q-36 35 -36 88q0 52 36 87t90 35q55 0 91 -34.5t36 -87.5t-36 -88t-91 -35q-54 0 -90 35zM-221 642q12 12 12 29q0 18 -12 29.5t-29 11.5t-29 -11.5t-12 -29.5t11.5 -29.5t29.5 -11.5q17 0 29 12z" />
    <glyph glyph-name="uni030B" unicode="&#x30b;" horiz-adv-x="0" 
d="M-392 780h140v-24l-122 -185h-91zM-175 780h140v-24l-122 -185h-91z" />
    <glyph glyph-name="uni030C" unicode="&#x30c;" horiz-adv-x="0" 
d="M-71 780l-134 -209h-89l-135 209h99l80 -92l80 92h99z" />
    <glyph glyph-name="uni0326" unicode="&#x326;" horiz-adv-x="0" 
d="M-311 -46h125l-26 -174h-102z" />
    <glyph glyph-name="uni0327" unicode="&#x327;" horiz-adv-x="0" 
d="M-365 -182v89q26 -2 60 -2q29 0 45.5 14.5t16.5 42.5q0 26 -13 58l53 24q32 -18 49.5 -45.5t17.5 -63.5q0 -55 -41.5 -91t-113.5 -36q-39 0 -74 10z" />
    <glyph glyph-name="uni0328" unicode="&#x328;" horiz-adv-x="0" 
d="M-321.5 -164q-32.5 28 -32.5 72t36 78t116 68l55 -54l-40 -25q-20 -12 -29 -20.5t-9 -20.5q0 -14 9 -21.5t27 -7.5q10 0 42 6v-88q-45 -15 -86 -15q-56 0 -88.5 28z" />
    <glyph glyph-name="tonos" unicode="&#x384;" horiz-adv-x="500" 
d="M188 780h160v-24l-97 -185h-99z" />
    <glyph glyph-name="dieresistonos" unicode="&#x385;" horiz-adv-x="500" 
d="M201 780h154v-24l-101 -185h-93zM4.5 621.5q-24.5 23.5 -24.5 53.5q0 33 24.5 56t54.5 23q33 0 56.5 -23t23.5 -56q0 -31 -23.5 -54t-56.5 -23q-30 0 -54.5 23.5zM385 621.5q-25 23.5 -25 53.5q0 33 24.5 56t55.5 23q33 0 56.5 -23t23.5 -56q0 -31 -24 -54t-56 -23
q-30 0 -55 23.5z" />
    <glyph glyph-name="Alphatonos" unicode="&#x386;" horiz-adv-x="661" 
d="M465 86h-270l-37 -86h-145l295 672h45l294 -672h-145zM330 420l-88 -223h176zM-3 660h139l-49 -206h-95z" />
    <glyph glyph-name="anoteleia" unicode="&#x387;" horiz-adv-x="280" 
d="M74 253.5q-27 26.5 -27 66.5q0 39 27 66t67 27q39 0 65.5 -27t26.5 -66q0 -40 -26 -66.5t-66 -26.5t-67 26.5z" />
    <glyph glyph-name="Epsilontonos" unicode="&#x388;" horiz-adv-x="573" 
d="M76 660h444v-122h-309v-134h227v-115h-227v-167h321v-122h-456v660zM-139 660h139l-49 -206h-95z" />
    <glyph glyph-name="Etatonos" unicode="&#x389;" horiz-adv-x="713" 
d="M76 660h135v-253h292v253h135v-660h-135v285h-292v-285h-135v660zM-139 660h139l-49 -206h-95z" />
    <glyph glyph-name="Iotatonos" unicode="&#x38a;" horiz-adv-x="286" 
d="M76 660h135v-660h-135v660zM-139 660h139l-49 -206h-95z" />
    <glyph glyph-name="Omicrontonos" unicode="&#x38c;" horiz-adv-x="778" 
d="M212 33q-80 45 -127 123.5t-47 173.5t47 173.5t127 123.5t176 45t176.5 -45t128 -123.5t47.5 -173.5t-47.5 -173.5t-128 -123.5t-176.5 -45t-176 45zM497.5 140.5q48.5 27.5 76 77t27.5 112.5q0 62 -27.5 111.5t-76 77.5t-108.5 28q-61 0 -109 -27.5t-75.5 -77
t-27.5 -112.5t27.5 -112.5t75.5 -77t109 -27.5q60 0 108.5 27.5zM-101 660h139l-49 -206h-95z" />
    <glyph glyph-name="Upsilontonos" unicode="&#x38e;" horiz-adv-x="624" 
d="M380 260v-260h-135v259l-228 401h150l146 -262l145 262h149zM-160 660h139l-49 -206h-95z" />
    <glyph glyph-name="Omegatonos" unicode="&#x38f;" horiz-adv-x="788" 
d="M716 224q-29 -55 -88 -102h107v-122h-284v122q76 36 115.5 91.5t39.5 126.5q0 60 -27.5 107t-76 73.5t-109.5 26.5q-62 0 -110 -26t-74.5 -72.5t-26.5 -106.5q0 -72 39.5 -128t115.5 -92v-122h-284v122h101q-111 90 -111 225q0 90 46.5 164.5t127 117.5t176.5 43
t177 -43.5t128 -118t47 -163.5q0 -68 -29 -123zM-77 660h139l-49 -206h-95z" />
    <glyph glyph-name="iotadieresistonos" unicode="&#x390;" horiz-adv-x="324" 
d="M65 166v329h134v-309q0 -41 15.5 -59t49.5 -18q11 0 49 4v-113q-38 -12 -82 -12q-166 0 -166 178zM98 780h154v-24l-101 -185h-93zM-98.5 621.5q-24.5 23.5 -24.5 53.5q0 33 24.5 56t54.5 23q33 0 56.5 -23t23.5 -56q0 -31 -23.5 -54t-56.5 -23q-30 0 -54.5 23.5z
M282 621.5q-25 23.5 -25 53.5q0 33 24.5 56t55.5 23q33 0 56.5 -23t23.5 -56q0 -31 -24 -54t-56 -23q-30 0 -55 23.5z" />
    <glyph glyph-name="Alpha" unicode="&#x391;" horiz-adv-x="661" 
d="M465 86h-270l-37 -86h-145l295 672h45l294 -672h-145zM330 420l-88 -223h176z" />
    <glyph glyph-name="Beta" unicode="&#x392;" horiz-adv-x="621" 
d="M556 295.5q31 -41.5 31 -101.5q0 -56 -27.5 -100.5t-77 -69t-112.5 -24.5h-294v660h234q60 0 108 -23.5t74.5 -65t26.5 -95.5q0 -72 -49 -119q55 -20 86 -61.5zM206 544v-151h93q41 0 63.5 20.5t22.5 55.5t-22.5 55t-63.5 20h-93zM429 138q25 22 25 61q0 38 -25 60.5
t-69 22.5h-154v-166h154q44 0 69 22z" />
    <glyph glyph-name="Gamma" unicode="&#x393;" horiz-adv-x="524" 
d="M76 660h424v-122h-289v-538h-135v660z" />
    <glyph glyph-name="uni0394" unicode="&#x394;" horiz-adv-x="661" 
d="M631 36v-36h-602v36l279 636h45zM331 401l-120 -279h239z" />
    <glyph glyph-name="Epsilon" unicode="&#x395;" horiz-adv-x="573" 
d="M76 660h444v-122h-309v-134h227v-115h-227v-167h321v-122h-456v660z" />
    <glyph glyph-name="Zeta" unicode="&#x396;" horiz-adv-x="588" 
d="M560 122v-122h-540v36l331 502h-288v122h496v-36l-331 -502h332z" />
    <glyph glyph-name="Eta" unicode="&#x397;" horiz-adv-x="713" 
d="M76 660h135v-253h292v253h135v-660h-135v285h-292v-285h-135v660z" />
    <glyph glyph-name="Theta" unicode="&#x398;" horiz-adv-x="778" 
d="M212 33q-80 45 -127 123.5t-47 173.5t47 173.5t127 123.5t176 45t176.5 -45t128 -123.5t47.5 -173.5t-47.5 -173.5t-128 -123.5t-176.5 -45t-176 45zM500.5 133.5q50.5 28.5 79.5 80t29 115.5q0 65 -28.5 116.5t-79 80.5t-113.5 29t-113 -29t-78 -80t-28 -117
q0 -65 28.5 -116t78.5 -79.5t112 -28.5t112.5 28.5zM248 384h282v-111h-282v111z" />
    <glyph glyph-name="Iota" unicode="&#x399;" horiz-adv-x="286" 
d="M76 660h135v-660h-135v660z" />
    <glyph glyph-name="Kappa" unicode="&#x39a;" horiz-adv-x="670" 
d="M494 0l-283 344v-344h-135v660h135v-306l252 306h161l-253 -311l286 -349h-163z" />
    <glyph glyph-name="Lambda" unicode="&#x39b;" horiz-adv-x="661" 
d="M502 0l-172 401l-172 -401h-145l295 672h45l294 -672h-145z" />
    <glyph glyph-name="Mu" unicode="&#x39c;" horiz-adv-x="798" 
d="M722 672v-672h-135v352l-166 -208h-44l-166 208v-352h-135v672h44l279 -357l279 357h44z" />
    <glyph glyph-name="Nu" unicode="&#x39d;" horiz-adv-x="713" 
d="M638 660v-672h-45l-382 408v-396h-135v672h44l383 -406v394h135z" />
    <glyph glyph-name="Xi" unicode="&#x39e;" horiz-adv-x="630" 
d="M41 660h549v-122h-549v122zM111 388h409v-122h-409v122zM41 122h549v-122h-549v122z" />
    <glyph glyph-name="Omicron" unicode="&#x39f;" horiz-adv-x="778" 
d="M212 33q-80 45 -127 123.5t-47 173.5t47 173.5t127 123.5t176 45t176.5 -45t128 -123.5t47.5 -173.5t-47.5 -173.5t-128 -123.5t-176.5 -45t-176 45zM497.5 140.5q48.5 27.5 76 77t27.5 112.5q0 62 -27.5 111.5t-76 77.5t-108.5 28q-61 0 -109 -27.5t-75.5 -77
t-27.5 -112.5t27.5 -112.5t75.5 -77t109 -27.5q60 0 108.5 27.5z" />
    <glyph glyph-name="Pi" unicode="&#x3a0;" horiz-adv-x="691" 
d="M76 660h539v-660h-135v538h-269v-538h-135v660z" />
    <glyph glyph-name="Rho" unicode="&#x3a1;" horiz-adv-x="594" 
d="M76 660h248q69 0 123 -26.5t84.5 -75t30.5 -111.5t-30.5 -111.5t-84.5 -75.5t-123 -27h-113v-233h-135v660zM324 351q47 0 73.5 26.5t26.5 69.5q0 42 -27 68t-73 26h-113v-190h113z" />
    <glyph glyph-name="Sigma" unicode="&#x3a3;" horiz-adv-x="570" 
d="M529 122v-122h-494v36l210 302l-210 286v36h482v-122h-273l141 -190v-19l-146 -207h290z" />
    <glyph glyph-name="Tau" unicode="&#x3a4;" horiz-adv-x="585" 
d="M225 538h-211v122h558v-122h-212v-538h-135v538z" />
    <glyph glyph-name="Upsilon" unicode="&#x3a5;" horiz-adv-x="624" 
d="M380 260v-260h-135v259l-228 401h150l146 -262l145 262h149z" />
    <glyph glyph-name="Phi" unicode="&#x3a6;" horiz-adv-x="838" 
d="M758.5 173q-40.5 -70 -111.5 -111.5t-161 -45.5v-59h-135v60q-90 4 -161 45t-111.5 111.5t-40.5 158.5q0 87 40.5 156t112 109.5t160.5 44.5v60h135v-59q90 -4 161 -44t111.5 -109.5t40.5 -157.5q0 -89 -40.5 -159zM221.5 191.5q50.5 -53.5 129.5 -58.5v394
q-51 -3 -92 -29.5t-64.5 -70.5t-23.5 -99q0 -83 50.5 -136.5zM616 191.5q51 53.5 51 136.5q0 55 -23.5 99t-65 70.5t-92.5 29.5v-394q79 5 130 58.5z" />
    <glyph glyph-name="Chi" unicode="&#x3a7;" horiz-adv-x="614" 
d="M447 0l-140 219l-140 -219h-154l219 336l-206 324h154l127 -208l126 208h153l-203 -324l217 -336h-153z" />
    <glyph glyph-name="Psi" unicode="&#x3a8;" horiz-adv-x="807" 
d="M336 145q-128 7 -200.5 81t-72.5 203v231h135v-223q0 -76 37.5 -121.5t100.5 -47.5v392h135v-392q63 2 101 48t38 121v223h135v-231q0 -129 -73 -203t-201 -81v-145h-135v145z" />
    <glyph glyph-name="uni03A9" unicode="&#x3a9;" horiz-adv-x="788" 
d="M716 224q-29 -55 -88 -102h107v-122h-284v122q76 36 115.5 91.5t39.5 126.5q0 60 -27.5 107t-76 73.5t-109.5 26.5q-62 0 -110 -26t-74.5 -72.5t-26.5 -106.5q0 -72 39.5 -128t115.5 -92v-122h-284v122h101q-111 90 -111 225q0 90 46.5 164.5t127 117.5t176.5 43
t177 -43.5t128 -118t47 -163.5q0 -68 -29 -123z" />
    <glyph glyph-name="Iotadieresis" unicode="&#x3aa;" horiz-adv-x="286" 
d="M76 660h135v-660h-135v660zM-41.5 760.5q-24.5 23.5 -24.5 53.5q0 33 24 55.5t56 22.5q34 0 58 -22.5t24 -55.5q0 -31 -24 -54t-58 -23q-31 0 -55.5 23.5zM217 759.5q-25 23.5 -25 53.5q0 33 24.5 56t56.5 23q33 0 57 -23t24 -56q0 -31 -24 -54t-57 -23q-31 0 -56 23.5z
" />
    <glyph glyph-name="Upsilondieresis" unicode="&#x3ab;" horiz-adv-x="624" 
d="M380 260v-260h-135v259l-228 401h150l146 -262l145 262h149zM126.5 760.5q-24.5 23.5 -24.5 53.5q0 33 24 55.5t56 22.5q34 0 58 -22.5t24 -55.5q0 -31 -24 -54t-58 -23q-31 0 -55.5 23.5zM385 759.5q-25 23.5 -25 53.5q0 33 24.5 56t56.5 23q33 0 57 -23t24 -56
q0 -31 -24 -54t-57 -23q-31 0 -56 23.5z" />
    <glyph glyph-name="alphatonos" unicode="&#x3ac;" horiz-adv-x="644" 
d="M627 112v-112q-33 -10 -74 -10q-91 0 -118 77q-25 -38 -67 -58.5t-94 -20.5q-67 0 -121 33.5t-84 92.5t-30 133q0 73 30 132t84 93t121 34q54 0 96 -21t66 -59q2 49 4 69h124q-10 -150 -10 -232v-91q0 -31 10.5 -46t33.5 -15zM385 146q36 35 36 101q0 65 -36 101t-87 36
q-52 0 -87 -37.5t-35 -98.5q0 -62 35 -99.5t87 -37.5q51 0 87 35zM264 780h160v-24l-97 -185h-99z" />
    <glyph glyph-name="epsilontonos" unicode="&#x3ad;" horiz-adv-x="513" 
d="M480 81q-73 -93 -220 -93q-104 0 -161.5 38.5t-57.5 107.5q0 39 23 69.5t64 47.5q-33 19 -50 46.5t-17 62.5q0 68 55 107t151 39q69 0 122.5 -22t87.5 -63l-76 -81q-45 50 -132 50q-76 0 -76 -47q0 -21 15 -32.5t45 -11.5h90v-100h-95q-39 0 -57 -11t-18 -34
q0 -26 20.5 -38t66.5 -12q93 0 144 57zM233 780h160v-24l-97 -185h-99z" />
    <glyph glyph-name="etatonos" unicode="&#x3ae;" horiz-adv-x="608" 
d="M493 452q52 -54 52 -145v-487h-134v468q0 43 -25.5 69.5t-66.5 26.5t-68 -26.5t-27 -69.5v-288h-134v323q0 61 -45 61l-28 -1v112q33 10 74 10q40 0 67 -13.5t43 -43.5q28 27 68 42.5t86 15.5q86 0 138 -54zM286 780h160v-24l-97 -185h-99z" />
    <glyph glyph-name="iotatonos" unicode="&#x3af;" horiz-adv-x="324" 
d="M65 166v329h134v-309q0 -41 15.5 -59t49.5 -18q11 0 49 4v-113q-38 -12 -82 -12q-166 0 -166 178zM100 780h160v-24l-97 -185h-99z" />
    <glyph glyph-name="upsilondieresistonos" unicode="&#x3b0;" horiz-adv-x="588" 
d="M172.5 17q-52.5 29 -81.5 81.5t-29 121.5v275h135v-287q0 -43 27 -70.5t70 -27.5t70 27t27 71v287h135v-275q0 -69 -29 -121.5t-81.5 -81.5t-121.5 -29t-121.5 29zM257 780h154v-24l-101 -185h-93zM60.5 621.5q-24.5 23.5 -24.5 53.5q0 33 24.5 56t54.5 23q33 0 56.5 -23
t23.5 -56q0 -31 -23.5 -54t-56.5 -23q-30 0 -54.5 23.5zM441 621.5q-25 23.5 -25 53.5q0 33 24.5 56t55.5 23q33 0 56.5 -23t23.5 -56q0 -31 -24 -54t-56 -23q-30 0 -55 23.5z" />
    <glyph glyph-name="alpha" unicode="&#x3b1;" horiz-adv-x="644" 
d="M627 112v-112q-33 -10 -74 -10q-91 0 -118 77q-25 -38 -67 -58.5t-94 -20.5q-67 0 -121 33.5t-84 92.5t-30 133q0 73 30 132t84 93t121 34q54 0 96 -21t66 -59q2 49 4 69h124q-10 -150 -10 -232v-91q0 -31 10.5 -46t33.5 -15zM385 146q36 35 36 101q0 65 -36 101t-87 36
q-52 0 -87 -37.5t-35 -98.5q0 -62 35 -99.5t87 -37.5q51 0 87 35z" />
    <glyph glyph-name="beta" unicode="&#x3b2;" horiz-adv-x="621" 
d="M548.5 346q33.5 -52 33.5 -122q0 -67 -31 -121t-85.5 -84.5t-123.5 -30.5q-79 0 -140 46v-214h-135v711q0 67 30.5 119.5t85 82t123.5 29.5q64 0 115 -24.5t80 -68.5t29 -99q0 -48 -19.5 -85.5t-55.5 -61.5q60 -25 93.5 -77zM412.5 143.5q33.5 31.5 33.5 84.5
q0 55 -33 87.5t-89 32.5h-60v114h37q40 0 64 24t24 65q0 39 -24 63.5t-64 24.5q-45 0 -72 -30t-27 -80v-370q56 -47 122 -47q55 0 88.5 31.5z" />
    <glyph glyph-name="gamma" unicode="&#x3b3;" horiz-adv-x="561" 
d="M348 -9v-171h-134v168l-202 507h142l126 -352l126 352h143z" />
    <glyph glyph-name="delta" unicode="&#x3b4;" horiz-adv-x="604" 
d="M540 356q26 -53 26 -109q0 -72 -35 -131.5t-95.5 -93.5t-133.5 -34q-74 0 -134.5 33t-94.5 90.5t-34 129.5q0 65 28.5 119t80 88t116.5 42l-214 224v36h492v-122h-241l155 -160q58 -59 84 -112zM393 149.5q35 36.5 35 93.5q0 58 -36 96t-91 38t-90 -37.5t-35 -95.5
t35 -94.5t91 -37.5q56 1 91 37.5z" />
    <glyph glyph-name="epsilon" unicode="&#x3b5;" horiz-adv-x="513" 
d="M480 81q-73 -93 -220 -93q-104 0 -161.5 38.5t-57.5 107.5q0 39 23 69.5t64 47.5q-33 19 -50 46.5t-17 62.5q0 68 55 107t151 39q69 0 122.5 -22t87.5 -63l-76 -81q-45 50 -132 50q-76 0 -76 -47q0 -21 15 -32.5t45 -11.5h90v-100h-95q-39 0 -57 -11t-18 -34
q0 -26 20.5 -38t66.5 -12q93 0 144 57z" />
    <glyph glyph-name="zeta" unicode="&#x3b6;" horiz-adv-x="474" 
d="M260 387q-50 -72 -68 -105t-18 -63q0 -40 25 -63.5t86 -39.5l49 -14q65 -18 98 -59.5t33 -100.5q0 -63 -30 -122h-132q26 49 26 89q0 37 -18.5 57t-60.5 32l-49 15q-81 24 -121.5 72.5t-40.5 116.5q0 47 25.5 99.5t93.5 151.5l120 175h-225v122h430v-36z" />
    <glyph glyph-name="eta" unicode="&#x3b7;" horiz-adv-x="608" 
d="M493 452q52 -54 52 -145v-487h-134v468q0 43 -25.5 69.5t-66.5 26.5t-68 -26.5t-27 -69.5v-288h-134v323q0 61 -45 61l-28 -1v112q33 10 74 10q40 0 67 -13.5t43 -43.5q28 27 68 42.5t86 15.5q86 0 138 -54z" />
    <glyph glyph-name="theta" unicode="&#x3b8;" horiz-adv-x="641" 
d="M522 662.5q72 -99.5 72 -284.5q0 -187 -72.5 -288.5t-201.5 -101.5t-201 101.5t-72 288.5q0 185 72 284.5t201 99.5q130 0 202 -99.5zM226 588q-33 -50 -39 -156h267q-6 106 -39.5 156t-94.5 50t-94 -50zM413.5 161.5q33.5 49.5 40.5 154.5h-267q7 -105 40.5 -154.5
t92.5 -49.5q60 0 93.5 49.5z" />
    <glyph glyph-name="iota" unicode="&#x3b9;" horiz-adv-x="324" 
d="M65 166v329h134v-309q0 -41 15.5 -59t49.5 -18q11 0 49 4v-113q-38 -12 -82 -12q-166 0 -166 178z" />
    <glyph glyph-name="kappa" unicode="&#x3ba;" horiz-adv-x="561" 
d="M403 0l-201 259v-259h-135v495h135v-228l187 228h160l-192 -233l199 -262h-153z" />
    <glyph glyph-name="lambda" unicode="&#x3bb;" horiz-adv-x="572" 
d="M566 113v-113q-32 -10 -60 -10q-49 0 -78 25t-49 82l-89 250l-151 -347h-142l227 502l-21 64q-14 40 -33.5 57.5t-56.5 17.5q-19 0 -52 -3v113q33 11 75 11q72 0 115.5 -38.5t70.5 -112.5l170 -457q15 -41 50 -41h24z" />
    <glyph glyph-name="uni03BC" unicode="&#x3bc;" horiz-adv-x="613" 
d="M595 112v-112q-33 -10 -72 -10q-75 0 -106 52q-20 -25 -49 -39.5t-63 -14.5q-31 0 -57.5 12t-45.5 33v-213h-135v675h135v-285q0 -44 25.5 -72t66.5 -28q42 0 68 28t26 72v285h134v-323q0 -32 11 -46.5t35 -14.5z" />
    <glyph glyph-name="nu" unicode="&#x3bd;" horiz-adv-x="559" 
d="M547 495l-245 -507h-45l-245 507h142l125 -280l125 280h143z" />
    <glyph glyph-name="xi" unicode="&#x3be;" horiz-adv-x="487" 
d="M432 45.5q32 -41.5 32 -103.5t-29 -122h-131q24 48 24 89q0 38 -17 57.5t-58 28.5l-34 7q-82 17 -128 70t-46 130q0 60 27.5 108t77.5 75q-41 21 -61 54.5t-20 75.5q0 32 15 61.5t43 51.5h-76v122h411v-122h-157q-48 0 -75 -28t-27 -66t26 -66t71 -28h118v-115h-123
q-52 0 -82.5 -27.5t-30.5 -75.5q0 -45 28 -71.5t93 -41.5l32 -7q65 -15 97 -56.5z" />
    <glyph glyph-name="omicron" unicode="&#x3bf;" horiz-adv-x="608" 
d="M169.5 23.5q-60.5 34.5 -95.5 94t-35 130.5t35 130.5t96 93.5t134 34t134 -34.5t96.5 -93.5t35.5 -130t-35.5 -130.5t-97 -94t-134.5 -34.5t-133.5 34.5zM395.5 151q36.5 38 36.5 96t-36.5 97t-91.5 39q-56 0 -92 -38.5t-36 -97.5q0 -58 36 -96t92 -38q55 0 91.5 38z" />
    <glyph glyph-name="pi" unicode="&#x3c0;" horiz-adv-x="593" 
d="M79 373h-70v122h574v-122h-69v-373h-134v373h-167v-373h-134v373z" />
    <glyph glyph-name="rho" unicode="&#x3c1;" horiz-adv-x="617" 
d="M454 473.5q59 -32.5 92 -91t33 -135.5q0 -74 -30.5 -133t-84.5 -92.5t-122 -33.5q-45 0 -82 15t-63 43v-226h-135v423q0 79 32 138.5t90 92t135 32.5q76 0 135 -32.5zM406.5 149.5q34.5 38.5 34.5 97.5q0 61 -35 99t-90 38t-88.5 -37.5t-33.5 -99.5q0 -61 34 -98.5
t89 -37.5t89.5 38.5z" />
    <glyph glyph-name="uni03C2" unicode="&#x3c2;" horiz-adv-x="531" 
d="M342 -91q0 36 -16.5 55.5t-55.5 32.5l-43 13q-97 32 -142.5 90.5t-45.5 146.5q0 76 32.5 134.5t90.5 91.5t133 33q72 0 128 -32t89 -92l-94 -72q-26 37 -55 55t-65 18q-53 0 -87.5 -36.5t-34.5 -92.5q0 -55 30 -86t96 -51l53 -17q61 -19 92 -59t31 -99q0 -58 -28 -122
h-132q24 46 24 89z" />
    <glyph glyph-name="sigma" unicode="&#x3c3;" horiz-adv-x="646" 
d="M627 373h-120q26 -28 40.5 -63.5t14.5 -74.5q0 -70 -34.5 -126t-94.5 -88.5t-134 -32.5q-73 0 -132.5 33.5t-93.5 92.5t-34 131q0 74 33.5 130.5t94.5 88t140 31.5h320v-122zM389 150q35 38 35 97q0 58 -34.5 95t-89.5 37t-89.5 -37t-34.5 -95q0 -59 35 -97t89 -38t89 38
z" />
    <glyph glyph-name="tau" unicode="&#x3c4;" horiz-adv-x="498" 
d="M295 373v-187q0 -41 21.5 -59t70.5 -18q12 0 64 4v-113q-46 -12 -93 -12q-96 0 -146.5 48t-50.5 138v199h-148v122h453v-122h-171z" />
    <glyph glyph-name="upsilon" unicode="&#x3c5;" horiz-adv-x="588" 
d="M172.5 17q-52.5 29 -81.5 81.5t-29 121.5v275h135v-287q0 -43 27 -70.5t70 -27.5t70 27t27 71v287h135v-275q0 -69 -29 -121.5t-81.5 -81.5t-121.5 -29t-121.5 29z" />
    <glyph glyph-name="phi" unicode="&#x3c6;" horiz-adv-x="774" 
d="M699 115.5q-36 -57.5 -100 -90.5t-145 -36v-169h-134v168q-81 4 -145 37t-100 90.5t-36 132.5t36 132t99.5 89.5t145.5 36.5v154h134v-154q82 -4 145.5 -36.5t99.5 -89.5t36 -132t-36 -132.5zM211.5 144.5q41.5 -37.5 111.5 -41.5v288q-69 -4 -111 -41.5t-42 -102.5
t41.5 -102.5zM562 144.5q42 37.5 42 102.5t-42 102.5t-112 41.5v-288q70 4 112 41.5z" />
    <glyph glyph-name="chi" unicode="&#x3c7;" horiz-adv-x="536" 
d="M540 -67v-113q-30 -10 -71 -10q-44 0 -74 22t-56 73l-71 142l-111 -227h-149l185 350l-86 172q-11 21 -25 31t-37 10q-25 0 -36 -1v113q27 9 72 9q47 0 76 -22.5t54 -72.5l60 -123l103 209h149l-178 -333l97 -189q12 -23 25.5 -32t36.5 -9q26 0 36 1z" />
    <glyph glyph-name="psi" unicode="&#x3c8;" horiz-adv-x="794" 
d="M330 -12q-79 0 -139.5 32.5t-94.5 91.5t-34 136v247h135v-236q0 -65 38 -107t95 -42v550h134v-550q37 0 68 19t48.5 53t17.5 77v236h134v-247q0 -77 -33.5 -136t-94.5 -91.5t-140 -32.5v-168h-134v168z" />
    <glyph glyph-name="omega" unicode="&#x3c9;" horiz-adv-x="800" 
d="M714.5 409.5q46.5 -68.5 46.5 -168.5q0 -76 -26.5 -133t-76 -88.5t-114.5 -31.5q-93 0 -144 66q-24 -32 -61 -49t-83 -17q-65 0 -114.5 31.5t-76 88.5t-26.5 133q0 100 46.5 168.5t130.5 91.5l45 -115q-87 -44 -87 -148q0 -59 24 -93.5t65 -34.5q34 0 53.5 24t19.5 67
v141h127v-141q0 -43 19.5 -67t54.5 -24q41 0 65 34.5t24 93.5q0 104 -86 148l44 115q84 -23 130.5 -91.5z" />
    <glyph glyph-name="iotadieresis" unicode="&#x3ca;" horiz-adv-x="324" 
d="M65 166v329h134v-309q0 -41 15.5 -59t49.5 -18q11 0 49 4v-113q-38 -12 -82 -12q-166 0 -166 178zM-34.5 621.5q-24.5 23.5 -24.5 53.5q0 33 24 56t56 23q34 0 58 -23t24 -56q0 -31 -24 -54t-58 -23q-31 0 -55.5 23.5zM186 621.5q-25 23.5 -25 53.5q0 33 24.5 56t56.5 23
q33 0 57 -23t24 -56q0 -31 -24 -54t-57 -23q-31 0 -56 23.5z" />
    <glyph glyph-name="upsilondieresis" unicode="&#x3cb;" horiz-adv-x="588" 
d="M172.5 17q-52.5 29 -81.5 81.5t-29 121.5v275h135v-287q0 -43 27 -70.5t70 -27.5t70 27t27 71v287h135v-275q0 -69 -29 -121.5t-81.5 -81.5t-121.5 -29t-121.5 29zM115 621q-24 23 -24 55t24 55t58 23q32 0 56 -23t24 -55t-24 -55t-56 -23q-34 0 -58 23zM353 621
q-24 23 -24 55t24 55t58 23q32 0 56 -23t24 -55t-24 -55t-56 -23q-34 0 -58 23z" />
    <glyph glyph-name="omicrontonos" unicode="&#x3cc;" horiz-adv-x="608" 
d="M169.5 23.5q-60.5 34.5 -95.5 94t-35 130.5t35 130.5t96 93.5t134 34t134 -34.5t96.5 -93.5t35.5 -130t-35.5 -130.5t-97 -94t-134.5 -34.5t-133.5 34.5zM395.5 151q36.5 38 36.5 96t-36.5 97t-91.5 39q-56 0 -92 -38.5t-36 -97.5q0 -58 36 -96t92 -38q55 0 91.5 38z
M272 780h160v-24l-97 -185h-99z" />
    <glyph glyph-name="upsilontonos" unicode="&#x3cd;" horiz-adv-x="588" 
d="M172.5 17q-52.5 29 -81.5 81.5t-29 121.5v275h135v-287q0 -43 27 -70.5t70 -27.5t70 27t27 71v287h135v-275q0 -69 -29 -121.5t-81.5 -81.5t-121.5 -29t-121.5 29zM259 780h160v-24l-97 -185h-99z" />
    <glyph glyph-name="omegatonos" unicode="&#x3ce;" horiz-adv-x="800" 
d="M714.5 409.5q46.5 -68.5 46.5 -168.5q0 -76 -26.5 -133t-76 -88.5t-114.5 -31.5q-93 0 -144 66q-24 -32 -61 -49t-83 -17q-65 0 -114.5 31.5t-76 88.5t-26.5 133q0 100 46.5 168.5t130.5 91.5l45 -115q-87 -44 -87 -148q0 -59 24 -93.5t65 -34.5q34 0 53.5 24t19.5 67
v141h127v-141q0 -43 19.5 -67t54.5 -24q41 0 65 34.5t24 93.5q0 104 -86 148l44 115q84 -23 130.5 -91.5zM368 780h160v-24l-97 -185h-99z" />
    <glyph glyph-name="uni0400" unicode="&#x400;" horiz-adv-x="573" 
d="M76 660h444v-122h-309v-134h227v-115h-227v-167h321v-122h-456v660zM109 886v24h162l73 -186h-98z" />
    <glyph glyph-name="uni0401" unicode="&#x401;" horiz-adv-x="573" 
d="M76 660h444v-122h-309v-134h227v-115h-227v-167h321v-122h-456v660zM109.5 760.5q-24.5 23.5 -24.5 53.5q0 33 24 55.5t56 22.5q34 0 58 -22.5t24 -55.5q0 -31 -24 -54t-58 -23q-31 0 -55.5 23.5zM368 759.5q-25 23.5 -25 53.5q0 33 24.5 56t56.5 23q33 0 57 -23t24 -56
q0 -31 -24 -54t-57 -23q-31 0 -56 23.5z" />
    <glyph glyph-name="uni0402" unicode="&#x402;" horiz-adv-x="752" 
d="M454 102q57 8 89 29.5t32 68.5q0 42 -28.5 65t-79.5 23q-35 0 -68 -7t-57 -17v-264h-135v538h-193v122h550v-122h-222v-155q25 10 60 16.5t72 6.5q68 0 122 -24t85.5 -70t31.5 -110q0 -102 -65.5 -155.5t-166.5 -64.5z" />
    <glyph glyph-name="uni0403" unicode="&#x403;" horiz-adv-x="524" 
d="M76 660h424v-122h-289v-538h-135v660zM300 910h162v-24l-137 -162h-98z" />
    <glyph glyph-name="uni0404" unicode="&#x404;" horiz-adv-x="720" 
d="M579 224l102 -72q-43 -77 -120 -120.5t-172 -43.5q-97 0 -177.5 45t-127 123.5t-46.5 173.5t47 173.5t127.5 123.5t177.5 45q94 0 170.5 -43.5t120.5 -120.5l-102 -72q-70 111 -189 111q-76 0 -131.5 -42.5t-73.5 -113.5h279v-115h-281q16 -74 72.5 -118.5t134.5 -44.5
q119 0 189 111z" />
    <glyph glyph-name="uni0405" unicode="&#x405;" horiz-adv-x="559" 
d="M134.5 27.5q-66.5 39.5 -104.5 106.5l93 70q32 -44 70 -70t92 -26q44 0 69 19.5t25 53.5q0 29 -18.5 44.5t-65.5 37.5l-71 32q-76 34 -118 79t-42 111q0 56 28.5 98.5t78.5 65.5t112 23q76 0 131.5 -34t86.5 -91l-92 -71q-51 76 -126 76q-35 0 -58.5 -16.5t-23.5 -47.5
q0 -26 17.5 -41.5t59.5 -34.5l75 -33q83 -37 123 -81.5t40 -111.5q0 -60 -30 -105t-82.5 -69t-118.5 -24q-84 0 -150.5 39.5z" />
    <glyph glyph-name="uni0406" unicode="&#x406;" horiz-adv-x="286" 
d="M76 660h135v-660h-135v660z" />
    <glyph glyph-name="uni0407" unicode="&#x407;" horiz-adv-x="286" 
d="M76 660h135v-660h-135v660zM-42.5 760.5q-24.5 23.5 -24.5 53.5q0 33 24 55.5t56 22.5q34 0 58 -22.5t24 -55.5q0 -31 -24 -54t-58 -23q-31 0 -55.5 23.5zM216 759.5q-25 23.5 -25 53.5q0 33 24.5 56t56.5 23q33 0 57 -23t24 -56q0 -31 -24 -54t-57 -23q-31 0 -56 23.5z
" />
    <glyph glyph-name="uni0408" unicode="&#x408;" horiz-adv-x="389" 
d="M17 0v115q54 -4 66 -4q49 0 72 18t23 61v470h135v-484q0 -94 -52 -141t-149 -47q-47 0 -95 12z" />
    <glyph glyph-name="uni0409" unicode="&#x409;" horiz-adv-x="971" 
d="M816 405.5q55 -27.5 85.5 -76.5t30.5 -112q0 -65 -30.5 -114t-85.5 -76t-125 -27h-255v538h-167q-2 -210 -26 -329.5t-69 -169t-117 -49.5q-29 0 -57 10v115q6 -2 27 -2q40 0 64.5 45t36 137.5t13.5 242.5l1 122h429v-227h120q70 0 125 -27.5zM767 145.5q27 26.5 27 70.5
q0 45 -27 72t-76 27h-120v-196h120q49 0 76 26.5z" />
    <glyph glyph-name="uni040A" unicode="&#x40a;" horiz-adv-x="993" 
d="M76 660h135v-236h246v236h135v-236h121q70 0 124.5 -27t85.5 -75t31 -110q0 -63 -30.5 -111t-85.5 -74.5t-125 -26.5h-256v302h-246v-302h-135v660zM713 119q48 0 75.5 25.5t27.5 66.5q0 42 -27.5 68t-75.5 26h-121v-186h121z" />
    <glyph glyph-name="uni040B" unicode="&#x40b;" horiz-adv-x="780" 
d="M598.5 376.5q56.5 -29.5 88 -86.5t31.5 -139v-151h-135v138q0 71 -33.5 107.5t-92.5 36.5q-64 0 -115 -23v-259h-135v538h-193v122h550v-122h-222v-155q64 23 127 23q73 0 129.5 -29.5z" />
    <glyph glyph-name="uni040C" unicode="&#x40c;" horiz-adv-x="670" 
d="M494 0l-283 344v-344h-135v660h135v-306l252 306h161l-253 -311l286 -349h-163zM356 910h162v-24l-137 -162h-98z" />
    <glyph glyph-name="uni040D" unicode="&#x40d;" horiz-adv-x="717" 
d="M642 672v-672h-135v409l-387 -421h-44v672h135v-405l386 417h45zM192 886v24h162l73 -186h-98z" />
    <glyph glyph-name="uni040E" unicode="&#x40e;" horiz-adv-x="648" 
d="M635 660l-225 -494q-29 -62 -55.5 -99t-65.5 -57.5t-97 -20.5q-39 0 -75 11v115q25 -3 53 -3q60 0 93 42l-246 506h151l168 -359l155 359h144zM214 768q-48 49 -48 127v15h108v-19q0 -36 17 -56t48 -20t48 20t17 56v19h107v-15q0 -78 -48 -127t-124 -49q-77 0 -125 49z
" />
    <glyph glyph-name="uni040F" unicode="&#x40f;" horiz-adv-x="697" 
d="M622 0h-208v-141h-130v141h-208v660h135v-538h276v538h135v-660z" />
    <glyph glyph-name="uni0410" unicode="&#x410;" horiz-adv-x="661" 
d="M465 86h-270l-37 -86h-145l295 672h45l294 -672h-145zM330 420l-88 -223h176z" />
    <glyph glyph-name="uni0411" unicode="&#x411;" horiz-adv-x="606" 
d="M76 660h440v-122h-305v-137h139q65 0 115.5 -24.5t78.5 -69t28 -104.5t-28 -106t-78.5 -71.5t-115.5 -25.5h-274v660zM343 116q45 0 70 23.5t25 63.5t-25 63.5t-70 23.5h-132v-174h132z" />
    <glyph glyph-name="uni0412" unicode="&#x412;" horiz-adv-x="621" 
d="M556 295.5q31 -41.5 31 -101.5q0 -56 -27.5 -100.5t-77 -69t-112.5 -24.5h-294v660h234q60 0 108 -23.5t74.5 -65t26.5 -95.5q0 -72 -49 -119q55 -20 86 -61.5zM206 544v-151h93q41 0 63.5 20.5t22.5 55.5t-22.5 55t-63.5 20h-93zM429 138q25 22 25 61q0 38 -25 60.5
t-69 22.5h-154v-166h154q44 0 69 22z" />
    <glyph glyph-name="uni0413" unicode="&#x413;" horiz-adv-x="524" 
d="M76 660h424v-122h-289v-538h-135v660z" />
    <glyph glyph-name="uni0414" unicode="&#x414;" horiz-adv-x="721" 
d="M697 122v-263h-135v141h-411v-141h-135v263h53q43 35 62 139.5t19 289.5v109h459v-538h88zM260.5 282.5q-14.5 -102.5 -44.5 -160.5h258v416h-197q-2 -153 -16.5 -255.5z" />
    <glyph glyph-name="uni0415" unicode="&#x415;" horiz-adv-x="573" 
d="M76 660h444v-122h-309v-134h227v-115h-227v-167h321v-122h-456v660z" />
    <glyph glyph-name="uni0416" unicode="&#x416;" horiz-adv-x="991" 
d="M814 0l-251 344v-344h-135v345l-252 -345h-163l268 348l-247 312h161l233 -307v307h135v-306l232 306h161l-246 -312l267 -348h-163z" />
    <glyph glyph-name="uni0417" unicode="&#x417;" horiz-adv-x="588" 
d="M525 286q25 -39 25 -91q0 -62 -31 -108.5t-87.5 -72.5t-132.5 -26q-88 0 -156 41t-104 112l94 68q64 -96 165 -96q51 0 85 24t34 65q0 36 -27 58t-80 22h-87v111h77q42 0 65 21t23 55q0 35 -24.5 56.5t-68.5 21.5q-87 0 -137 -86l-94 67q34 68 95 106t143 38
q101 0 160 -51.5t59 -140.5q0 -40 -17.5 -74t-48.5 -59q45 -22 70 -61z" />
    <glyph glyph-name="uni0418" unicode="&#x418;" horiz-adv-x="717" 
d="M642 672v-672h-135v409l-387 -421h-44v672h135v-405l386 417h45z" />
    <glyph glyph-name="uni0419" unicode="&#x419;" horiz-adv-x="717" 
d="M642 672v-672h-135v409l-387 -421h-44v672h135v-405l386 417h45zM253 768q-48 49 -48 127v15h108v-19q0 -36 17 -56t48 -20t48 20t17 56v19h107v-15q0 -78 -48 -127t-124 -49q-77 0 -125 49z" />
    <glyph glyph-name="uni041A" unicode="&#x41a;" horiz-adv-x="670" 
d="M494 0l-283 344v-344h-135v660h135v-306l252 306h161l-253 -311l286 -349h-163z" />
    <glyph glyph-name="uni041B" unicode="&#x41b;" horiz-adv-x="671" 
d="M595 660v-660h-135v538h-190q-3 -211 -27.5 -330.5t-69.5 -168.5t-116 -49q-29 0 -57 10v115q6 -2 27 -2q40 0 64.5 45t36 137.5t13.5 242.5l1 122h453z" />
    <glyph glyph-name="uni041C" unicode="&#x41c;" horiz-adv-x="798" 
d="M722 672v-672h-135v352l-166 -208h-44l-166 208v-352h-135v672h44l279 -357l279 357h44z" />
    <glyph glyph-name="uni041D" unicode="&#x41d;" horiz-adv-x="713" 
d="M76 660h135v-253h292v253h135v-660h-135v285h-292v-285h-135v660z" />
    <glyph glyph-name="uni041E" unicode="&#x41e;" horiz-adv-x="778" 
d="M212 33q-80 45 -127 123.5t-47 173.5t47 173.5t127 123.5t176 45t176.5 -45t128 -123.5t47.5 -173.5t-47.5 -173.5t-128 -123.5t-176.5 -45t-176 45zM497.5 140.5q48.5 27.5 76 77t27.5 112.5q0 62 -27.5 111.5t-76 77.5t-108.5 28q-61 0 -109 -27.5t-75.5 -77
t-27.5 -112.5t27.5 -112.5t75.5 -77t109 -27.5q60 0 108.5 27.5z" />
    <glyph glyph-name="uni041F" unicode="&#x41f;" horiz-adv-x="703" 
d="M76 660h552v-660h-135v538h-282v-538h-135v660z" />
    <glyph glyph-name="uni0420" unicode="&#x420;" horiz-adv-x="594" 
d="M76 660h248q69 0 123 -26.5t84.5 -75t30.5 -111.5t-30.5 -111.5t-84.5 -75.5t-123 -27h-113v-233h-135v660zM324 351q47 0 73.5 26.5t26.5 69.5q0 42 -27 68t-73 26h-113v-190h113z" />
    <glyph glyph-name="uni0421" unicode="&#x421;" horiz-adv-x="720" 
d="M211.5 33q-80.5 45 -127 123.5t-46.5 173.5t47 173.5t127.5 123.5t177.5 45q94 0 170.5 -43.5t120.5 -120.5l-102 -72q-70 111 -189 111q-61 0 -109.5 -28t-76 -77.5t-27.5 -112.5t27.5 -112t76 -76.5t109.5 -27.5q119 0 189 111l102 -72q-43 -77 -120 -120.5t-172 -43.5
q-97 0 -177.5 45z" />
    <glyph glyph-name="uni0422" unicode="&#x422;" horiz-adv-x="585" 
d="M225 538h-211v122h558v-122h-212v-538h-135v538z" />
    <glyph glyph-name="uni0423" unicode="&#x423;" horiz-adv-x="648" 
d="M635 660l-225 -494q-29 -62 -55.5 -99t-65.5 -57.5t-97 -20.5q-39 0 -75 11v115q25 -3 53 -3q60 0 93 42l-246 506h151l168 -359l155 359h144z" />
    <glyph glyph-name="uni0424" unicode="&#x424;" horiz-adv-x="839" 
d="M762.5 189.5q-40.5 -60.5 -112 -93t-164.5 -36.5v-80h-135v80q-93 4 -164 37.5t-111 94.5t-40 144q0 124 86.5 194.5t228.5 76.5v73h135v-73q93 -4 164.5 -36.5t112 -93.5t40.5 -144t-40.5 -143.5zM621 219.5q49 41.5 49 115.5t-48.5 114t-135.5 43v-316q86 2 135 43.5z
M217 219.5q48 -39.5 134 -43.5v316q-85 -4 -133.5 -45.5t-48.5 -114.5t48 -112.5z" />
    <glyph glyph-name="uni0425" unicode="&#x425;" horiz-adv-x="614" 
d="M447 0l-140 219l-140 -219h-154l219 336l-206 324h154l127 -208l126 208h153l-203 -324l217 -336h-153z" />
    <glyph glyph-name="uni0426" unicode="&#x426;" horiz-adv-x="734" 
d="M581 0h-505v660h135v-538h276v538h135v-538h88v-263h-129v141z" />
    <glyph glyph-name="uni0427" unicode="&#x427;" horiz-adv-x="659" 
d="M583 660v-660h-135v243q-61 -23 -137 -23q-124 0 -193.5 67t-69.5 194v179h135v-166q0 -77 36.5 -114t113.5 -37q67 0 115 20v297h135z" />
    <glyph glyph-name="uni0428" unicode="&#x428;" horiz-adv-x="990" 
d="M76 660h135v-538h217v538h135v-538h217v538h135v-660h-839v660z" />
    <glyph glyph-name="uni0429" unicode="&#x429;" horiz-adv-x="1026" 
d="M873 0h-797v660h135v-538h217v538h135v-538h217v538h135v-538h87v-263h-129v141z" />
    <glyph glyph-name="uni042A" unicode="&#x42a;" horiz-adv-x="699" 
d="M164 538h-150v122h285v-227h120q70 0 124.5 -27.5t85.5 -76.5t31 -112q0 -65 -30.5 -114t-85.5 -76t-125 -27h-255v538zM419 119q48 0 75.5 26.5t27.5 70.5t-27.5 71.5t-75.5 27.5h-120v-196h120z" />
    <glyph glyph-name="uni042B" unicode="&#x42b;" horiz-adv-x="887" 
d="M76 660h135v-227h120q70 0 125 -27.5t85.5 -76.5t30.5 -112q0 -65 -30.5 -114t-85.5 -76t-125 -27h-255v660zM331 119q48 0 75.5 26.5t27.5 70.5t-27.5 71.5t-75.5 27.5h-120v-196h120zM677 660h135v-660h-135v660z" />
    <glyph glyph-name="uni042C" unicode="&#x42c;" horiz-adv-x="611" 
d="M76 660h135v-227h120q70 0 125 -27.5t85.5 -76.5t30.5 -112q0 -65 -30.5 -114t-85.5 -76t-125 -27h-255v660zM331 119q48 0 75.5 26.5t27.5 70.5t-27.5 71.5t-75.5 27.5h-120v-196h120z" />
    <glyph glyph-name="uni042D" unicode="&#x42d;" horiz-adv-x="720" 
d="M507.5 627q80.5 -45 127 -123.5t46.5 -173.5t-46.5 -173.5t-127 -123.5t-176.5 -45q-95 0 -172 43.5t-120 120.5l102 72q70 -111 189 -111q78 0 134.5 44.5t72.5 118.5h-260v115h258q-18 71 -74 113.5t-131 42.5q-119 0 -189 -111l-102 72q44 77 120.5 120.5t170.5 43.5
q97 0 177.5 -45z" />
    <glyph glyph-name="uni042E" unicode="&#x42e;" horiz-adv-x="1007" 
d="M799.5 627q78.5 -45 124 -123.5t45.5 -173.5t-46 -173.5t-124 -123.5t-171 -45q-87 0 -159 38.5t-118 106t-56 152.5h-84v-285h-135v660h135v-253h89q16 77 62.5 137.5t115.5 94t150 33.5q93 0 171.5 -45zM732 141q46 28 72 77t26 112t-26 112t-72 77t-104 28
t-104.5 -27.5t-72.5 -77t-26 -112.5t26 -112.5t72.5 -77t104.5 -27.5t104 28z" />
    <glyph glyph-name="uni042F" unicode="&#x42f;" horiz-adv-x="632" 
d="M556 660v-660h-135v219h-86l-154 -219h-145l169 242q-63 27 -99.5 79t-36.5 119q0 65 32 115t89.5 77.5t132.5 27.5h233zM421 541h-102q-50 0 -81 -28t-31 -74t31 -73.5t81 -27.5h102v203z" />
    <glyph glyph-name="uni0430" unicode="&#x430;" horiz-adv-x="545" 
d="M424.5 451.5q57.5 -54.5 57.5 -157.5v-294h-124v48q-27 -28 -65.5 -44t-85.5 -16q-79 0 -125 41.5t-46 106.5q0 67 50.5 105.5t136.5 38.5h124v22q0 41 -23.5 64t-68.5 23q-38 0 -68 -16.5t-63 -51.5l-70 83q86 102 216 102q97 0 154.5 -54.5zM317 114.5q30 27.5 30 70.5
v6h-106q-33 0 -51 -12.5t-18 -37.5t19.5 -39.5t51.5 -14.5q44 0 74 27.5z" />
    <glyph glyph-name="uni0431" unicode="&#x431;" horiz-adv-x="617" 
d="M465 455.5q53 -32.5 83.5 -89.5t30.5 -127q0 -72 -34 -129t-94 -89t-135 -32q-80 0 -140 36.5t-93 103.5t-33 155v75q0 114 27 189t100.5 122t208.5 63q62 8 100 16t49 12v-123q-38 -15 -148 -25q-87 -9 -132.5 -34t-62.5 -66t-19 -110q29 41 74 63t100 22
q65 0 118 -32.5zM404.5 149q36.5 37 36.5 90t-36.5 89.5t-90.5 36.5q-53 0 -89.5 -36.5t-36.5 -89.5t36.5 -90t89.5 -37q54 0 90.5 37z" />
    <glyph glyph-name="uni0432" unicode="&#x432;" horiz-adv-x="553" 
d="M490.5 220q20.5 -29 20.5 -69q0 -44 -23 -78.5t-63.5 -53.5t-91.5 -19h-263v495h230q76 0 125 -37.5t49 -101.5q0 -54 -40 -91q36 -16 56.5 -45zM198 302h94q60 0 60 46q0 24 -15 35t-45 11h-94v-92zM368.5 115q18.5 15 18.5 40t-18.5 39t-50.5 14h-120v-108h120
q32 0 50.5 15z" />
    <glyph glyph-name="uni0433" unicode="&#x433;" horiz-adv-x="453" 
d="M70 495h364v-114h-230v-381h-134v495z" />
    <glyph glyph-name="uni0434" unicode="&#x434;" horiz-adv-x="636" 
d="M604 114v-255h-129v141h-338v-141h-129v255h53q30 29 43.5 90t17.5 168l4 123h396v-381h82zM199 114h189v267h-142l-1 -29q-4 -155 -46 -238z" />
    <glyph glyph-name="uni0435" unicode="&#x435;" horiz-adv-x="569" 
d="M522 202h-347q12 -47 48.5 -72.5t90.5 -25.5q73 0 138 50l56 -92q-88 -74 -198 -74q-77 0 -139 34t-97 93.5t-35 131.5t34 131.5t93.5 93.5t131.5 34q68 0 121 -30.5t82.5 -83t29.5 -116.5q0 -36 -9 -74zM218 370q-32 -27 -43 -73h225q-1 46 -32 73t-75 27q-43 0 -75 -27
z" />
    <glyph glyph-name="uni0436" unicode="&#x436;" horiz-adv-x="841" 
d="M672 0l-188 258v-258h-134v259l-189 -259h-153l191 262l-181 233h159l173 -228v228h134v-227l173 227h158l-176 -229l194 -266h-161z" />
    <glyph glyph-name="uni0437" unicode="&#x437;" horiz-adv-x="491" 
d="M431 209.5q18 -29.5 18 -64.5q0 -76 -52 -116.5t-151 -40.5q-141 0 -213 93l76 80q50 -57 129 -57q39 0 59.5 14t20.5 38q0 22 -18 35t-52 13h-64v100h58q26 0 40.5 11.5t14.5 31.5t-15.5 31.5t-45.5 11.5q-71 0 -117 -50l-77 81q35 41 87 63t115 22q87 0 135.5 -38
t48.5 -107q0 -64 -49 -104q34 -18 52 -47.5z" />
    <glyph glyph-name="uni0438" unicode="&#x438;" horiz-adv-x="595" 
d="M525 506v-506h-135v268l-276 -280h-44v507h134v-270l277 281h44z" />
    <glyph glyph-name="uni0439" unicode="&#x439;" horiz-adv-x="595" 
d="M525 506v-506h-135v268l-276 -280h-44v507h134v-270l277 281h44zM184 619.5q-48 48.5 -48 125.5v28h108v-27q0 -38 17 -58.5t48 -20.5t48 20.5t17 58.5v27h107v-28q0 -77 -48 -125.5t-124 -48.5q-77 0 -125 48.5z" />
    <glyph glyph-name="uni043A" unicode="&#x43a;" horiz-adv-x="568" 
d="M400 0l-196 262v-262h-134v495h134v-231l187 231h153l-187 -226l203 -269h-160z" />
    <glyph glyph-name="uni043B" unicode="&#x43b;" horiz-adv-x="574" 
d="M504 495v-495h-134v381h-133l-1 -38q-3 -127 -20 -203t-53.5 -112.5t-98.5 -36.5q-29 0 -51 9v111q8 -2 19 -2q28 0 44.5 27t24.5 85t9 156l1 118h393z" />
    <glyph glyph-name="uni043C" unicode="&#x43c;" horiz-adv-x="693" 
d="M70 506h44l232 -259l234 259h43v-506h-135v238l-120 -135h-45l-119 134v-237h-134v506z" />
    <glyph glyph-name="uni043D" unicode="&#x43d;" horiz-adv-x="591" 
d="M70 495h134v-181h183v181h134v-495h-134v199h-183v-199h-134v495z" />
    <glyph glyph-name="uni043E" unicode="&#x43e;" horiz-adv-x="608" 
d="M169.5 23.5q-60.5 34.5 -95.5 94t-35 130.5t35 130.5t96 93.5t134 34t134 -34.5t96.5 -93.5t35.5 -130t-35.5 -130.5t-97 -94t-134.5 -34.5t-133.5 34.5zM395.5 151q36.5 38 36.5 96t-36.5 97t-91.5 39q-56 0 -92 -38.5t-36 -97.5q0 -58 36 -96t92 -38q55 0 91.5 38z" />
    <glyph glyph-name="uni043F" unicode="&#x43f;" horiz-adv-x="585" 
d="M70 495h445v-495h-135v381h-176v-381h-134v495z" />
    <glyph glyph-name="uni0440" unicode="&#x440;" horiz-adv-x="629" 
d="M473.5 472.5q54.5 -33.5 85.5 -92t31 -132.5t-31 -133t-85.5 -93t-123.5 -34q-45 0 -83 15.5t-65 44.5v-228h-135v675h124v-62q25 35 66.5 54t92.5 19q69 0 123.5 -33.5zM416 148.5q37 37.5 37 98.5q0 62 -36.5 99.5t-91.5 37.5q-51 0 -88 -34.5t-37 -101.5
q0 -66 36.5 -101.5t88.5 -35.5q54 0 91 37.5z" />
    <glyph glyph-name="uni0441" unicode="&#x441;" horiz-adv-x="552" 
d="M170.5 22.5q-60.5 34.5 -96 94t-35.5 131.5t35.5 131t96 93t133.5 34t128 -32.5t87 -89.5l-94 -73q-23 34 -51.5 53t-67.5 19q-57 0 -93.5 -38.5t-36.5 -96.5q0 -59 36.5 -97.5t93.5 -38.5q38 0 66.5 18.5t52.5 52.5l94 -72q-32 -57 -87.5 -90t-127.5 -33
q-73 0 -133.5 34.5z" />
    <glyph glyph-name="uni0442" unicode="&#x442;" horiz-adv-x="467" 
d="M166 381h-152v114h439v-114h-153v-381h-134v381z" />
    <glyph glyph-name="uni0443" unicode="&#x443;" horiz-adv-x="559" 
d="M547 495l-237 -538q-34 -77 -81 -113t-116 -36q-42 0 -87 12v113q46 -4 58 -4q36 0 61 14t42 53l15 34l-190 465h143l121 -325l129 325h142z" />
    <glyph glyph-name="uni0444" unicode="&#x444;" horiz-adv-x="774" 
d="M698.5 112.5q-36.5 -56.5 -100 -87t-144.5 -34.5v-171h-134v171q-81 5 -144.5 36t-100 87.5t-36.5 133.5q0 79 36.5 136t100 87.5t144.5 34.5v244h134v-244q81 -5 144.5 -36.5t100 -88t36.5 -133.5q0 -79 -36.5 -135.5zM213.5 146.5q40.5 -36.5 109.5 -41.5v286
q-70 -4 -110 -40.5t-40 -103.5q0 -64 40.5 -100.5zM561 146q40 37 40 104q0 64 -40.5 101.5t-109.5 39.5v-286q70 4 110 41z" />
    <glyph glyph-name="uni0445" unicode="&#x445;" horiz-adv-x="531" 
d="M372 0l-106 158l-107 -158h-151l181 255l-169 240h151l95 -143l94 143h151l-170 -239l182 -256h-151z" />
    <glyph glyph-name="uni0446" unicode="&#x446;" horiz-adv-x="622" 
d="M461 0h-391v495h134v-381h170v381h134v-381h82v-255h-129v141z" />
    <glyph glyph-name="uni0447" unicode="&#x447;" horiz-adv-x="554" 
d="M484 495v-495h-135v174q-41 -16 -107 -16q-95 0 -149 56.5t-54 158.5v122h134v-112q0 -105 97 -105q46 0 79 13v204h135z" />
    <glyph glyph-name="uni0448" unicode="&#x448;" horiz-adv-x="859" 
d="M70 495h134v-381h159v381h134v-381h159v381h134v-495h-720v495z" />
    <glyph glyph-name="uni0449" unicode="&#x449;" horiz-adv-x="903" 
d="M743 0h-673v495h134v-381h159v381h134v-381h159v381h134v-381h81v-255h-128v141z" />
    <glyph glyph-name="uni044A" unicode="&#x44a;" horiz-adv-x="602" 
d="M134 381h-120v114h254v-143h90q90 0 148 -47t58 -128q0 -82 -58 -129.5t-148 -47.5h-224v381zM354 114q34 0 53.5 15.5t19.5 45.5q0 29 -20 46t-53 17h-86v-124h86z" />
    <glyph glyph-name="uni044B" unicode="&#x44b;" horiz-adv-x="760" 
d="M70 495h134v-143h90q90 0 148 -47t58 -128q0 -83 -58 -130t-148 -47h-224v495zM556 495h134v-495h-134v495zM290 114q35 0 54 15.5t19 45.5t-19.5 46.5t-53.5 16.5h-86v-124h86z" />
    <glyph glyph-name="uni044C" unicode="&#x44c;" horiz-adv-x="539" 
d="M70 495h134v-143h90q91 0 148.5 -47t57.5 -128q0 -82 -57.5 -129.5t-148.5 -47.5h-224v495zM290 114q34 0 53.5 15.5t19.5 45.5q0 29 -20 46t-53 17h-86v-124h86z" />
    <glyph glyph-name="uni044D" unicode="&#x44d;" horiz-adv-x="552" 
d="M382 472q61 -34 96.5 -93t35.5 -131t-35.5 -131.5t-96.5 -94t-135 -34.5q-138 0 -214 123l90 69q25 -35 55 -54t69 -19q46 0 80.5 26.5t46.5 68.5h-162v96h161q-15 40 -48 64.5t-78 24.5q-72 0 -124 -72l-90 69q75 122 214 122q74 0 135 -34z" />
    <glyph glyph-name="uni044E" unicode="&#x44e;" horiz-adv-x="814" 
d="M647 471.5q59 -34.5 93.5 -93.5t34.5 -130t-34.5 -130.5t-93.5 -94t-129 -34.5q-62 0 -114.5 27t-87.5 74.5t-46 108.5h-66v-199h-134v495h134v-181h70q20 85 87.5 138.5t156.5 53.5q70 0 129 -34.5zM604.5 151q35.5 38 35.5 96t-35.5 97t-88.5 39q-55 0 -90 -38.5
t-35 -97.5q0 -58 35.5 -96t88.5 -38q54 0 89.5 38z" />
    <glyph glyph-name="uni044F" unicode="&#x44f;" horiz-adv-x="555" 
d="M485 495v-495h-134v152h-53l-122 -152h-152l140 171q-50 20 -77.5 60t-27.5 93q0 78 55 124.5t147 46.5h224zM351 381h-85q-32 0 -51 -16t-19 -43q0 -28 19 -44.5t51 -16.5h85v120z" />
    <glyph glyph-name="uni0450" unicode="&#x450;" horiz-adv-x="569" 
d="M522 202h-347q12 -47 48.5 -72.5t90.5 -25.5q73 0 138 50l56 -92q-88 -74 -198 -74q-77 0 -139 34t-97 93.5t-35 131.5t34 131.5t93.5 93.5t131.5 34q68 0 121 -30.5t82.5 -83t29.5 -116.5q0 -36 -9 -74zM218 370q-32 -27 -43 -73h225q-1 46 -32 73t-75 27q-43 0 -75 -27
zM112 756v24h162l73 -209h-98z" />
    <glyph glyph-name="uni0451" unicode="&#x451;" horiz-adv-x="569" 
d="M522 202h-347q12 -47 48.5 -72.5t90.5 -25.5q73 0 138 50l56 -92q-88 -74 -198 -74q-77 0 -139 34t-97 93.5t-35 131.5t34 131.5t93.5 93.5t131.5 34q68 0 121 -30.5t82.5 -83t29.5 -116.5q0 -36 -9 -74zM218 370q-32 -27 -43 -73h225q-1 46 -32 73t-75 27q-43 0 -75 -27
zM122 621q-24 23 -24 55t24 55t58 23q32 0 56 -23t24 -55t-24 -55t-56 -23q-34 0 -58 23zM360 621q-24 23 -24 55t24 55t58 23q32 0 56 -23t24 -55t-24 -55t-56 -23q-34 0 -58 23z" />
    <glyph glyph-name="uni0452" unicode="&#x452;" horiz-adv-x="593" 
d="M479.5 422.5q50.5 -54.5 50.5 -144.5v-284q0 -93 -51 -139.5t-140 -46.5q-39 0 -74 11v113q24 -3 41 -3q46 0 67.5 17.5t21.5 59.5v253q0 43 -25 69.5t-66 26.5q-42 0 -68.5 -26.5t-26.5 -69.5v-259h-134v552h-79v111h79v87h134v-87h191v-111h-191v-129q25 26 60 40
t76 14q84 0 134.5 -54.5z" />
    <glyph glyph-name="uni0453" unicode="&#x453;" horiz-adv-x="453" 
d="M70 495h364v-114h-230v-381h-134v495zM269 780h162v-24l-137 -185h-98z" />
    <glyph glyph-name="uni0454" unicode="&#x454;" horiz-adv-x="552" 
d="M374 126q30 19 55 54l90 -69q-76 -123 -213 -123q-74 0 -135.5 34.5t-96.5 94t-35 131.5t35 131t96.5 93t135.5 34q69 0 122.5 -30.5t90.5 -91.5l-90 -69q-50 72 -124 72q-45 0 -78 -24.5t-47 -64.5h160v-96h-161q12 -42 46 -68.5t80 -26.5q39 0 69 19z" />
    <glyph glyph-name="uni0455" unicode="&#x455;" horiz-adv-x="455" 
d="M109 13.5q-53 25.5 -87 70.5l68 82q65 -67 139 -67q27 0 45 10.5t18 30.5q0 16 -11.5 24.5t-39.5 20.5l-53 22q-68 28 -101.5 62t-33.5 89q0 70 50.5 109t131.5 39q111 0 178 -74l-68 -83q-50 47 -111 47q-25 0 -39 -9t-14 -26q0 -14 11.5 -23t40.5 -21l48 -20
q72 -29 105.5 -62.5t33.5 -88.5q0 -74 -54.5 -116t-138.5 -42q-65 0 -118 25.5z" />
    <glyph glyph-name="uni0456" unicode="&#x456;" horiz-adv-x="278" 
d="M77.5 616q-25.5 24 -25.5 59q0 36 25.5 60t61.5 24t61 -24t25 -60q0 -35 -25 -59t-61 -24t-61.5 24zM72 495h134v-495h-134v495z" />
    <glyph glyph-name="uni0457" unicode="&#x457;" horiz-adv-x="269" 
d="M18.5 614.5q-17.5 22.5 -17.5 60.5q0 39 17.5 61.5t47.5 22.5q29 0 46.5 -22.5t17.5 -61.5t-17 -61t-47 -22t-47.5 22.5zM159.5 614.5q-17.5 22.5 -17.5 60.5q0 39 17.5 61.5t47.5 22.5q29 0 46.5 -22.5t17.5 -61.5t-17.5 -61t-46.5 -22q-30 0 -47.5 22.5zM67 495h135
v-495h-135v495z" />
    <glyph glyph-name="uni0458" unicode="&#x458;" horiz-adv-x="269" 
d="M-63 -181v113q24 -3 41 -3q45 0 67 18t22 59v489h135v-501q0 -93 -51 -139.5t-139 -46.5q-40 0 -75 11zM73 616q-25 24 -25 59q0 36 25 60t61 24t61.5 -24t25.5 -60q0 -35 -25.5 -59t-61.5 -24t-61 24z" />
    <glyph glyph-name="uni0459" unicode="&#x459;" horiz-adv-x="825" 
d="M728.5 306q57.5 -46 57.5 -126q0 -84 -57.5 -132t-148.5 -48h-223v381h-120l-1 -38q-3 -127 -20 -203t-53.5 -112.5t-98.5 -36.5q-29 0 -51 9v111q8 -2 19 -2q28 0 44.5 27t24.5 85t9 156l1 118h380v-143h89q91 0 148.5 -46zM629 130.5q20 16.5 20 47.5q0 27 -20.5 43.5
t-52.5 16.5h-85v-124h85q33 0 53 16.5z" />
    <glyph glyph-name="uni045A" unicode="&#x45a;" horiz-adv-x="837" 
d="M740 292.5q58 -44.5 58 -123.5q0 -80 -58 -124.5t-150 -44.5h-224v223h-162v-223h-134v495h134v-158h162v158h134v-158h90q92 0 150 -44.5zM641.5 126q19.5 15 19.5 43q0 26 -20 41.5t-52 15.5h-89v-115h89q33 0 52.5 15z" />
    <glyph glyph-name="uni045B" unicode="&#x45b;" horiz-adv-x="593" 
d="M479.5 422.5q50.5 -54.5 50.5 -144.5v-278h-135v259q0 43 -25 69.5t-66 26.5q-42 0 -68.5 -26.5t-26.5 -69.5v-259h-134v551h-79v111h79v88h134v-88h191v-111h-191v-128q25 26 60 40t76 14q84 0 134.5 -54.5z" />
    <glyph glyph-name="uni045C" unicode="&#x45c;" horiz-adv-x="568" 
d="M400 0l-196 262v-262h-134v495h134v-231l187 231h153l-187 -226l203 -269h-160zM319 780h162v-24l-137 -185h-98z" />
    <glyph glyph-name="uni045D" unicode="&#x45d;" horiz-adv-x="595" 
d="M525 506v-506h-135v268l-276 -280h-44v507h134v-270l277 281h44zM123 756v24h162l73 -209h-98z" />
    <glyph glyph-name="uni045E" unicode="&#x45e;" horiz-adv-x="559" 
d="M547 495l-237 -538q-34 -77 -81 -113t-116 -36q-42 0 -87 12v113q46 -4 58 -4q36 0 61 14t42 53l15 34l-190 465h143l121 -325l129 325h142zM154 619.5q-48 48.5 -48 125.5v28h108v-27q0 -38 17 -58.5t48 -20.5t48 20.5t17 58.5v27h107v-28q0 -77 -48 -125.5t-124 -48.5
q-77 0 -125 48.5z" />
    <glyph glyph-name="uni045F" unicode="&#x45f;" horiz-adv-x="578" 
d="M509 0h-155v-141h-129v141h-155v495h134v-381h171v381h134v-495z" />
    <glyph glyph-name="uni0462" unicode="&#x462;" horiz-adv-x="699" 
d="M164 484h-150v110h150v78h135v-78h191v-110h-191v-84h124q110 0 173.5 -54.5t63.5 -146.5t-64 -145.5t-175 -53.5h-257v484zM424 119q46 0 72 22t26 59t-26 60t-72 23h-125v-164h125z" />
    <glyph glyph-name="uni0463" unicode="&#x463;" horiz-adv-x="596" 
d="M127 389h-131v106h131v255h135v-255h163v-106h-163v-71h102q85 0 139 -43t54 -115q0 -74 -54 -117t-139 -43h-237v389zM354 106q32 0 49 14t17 39t-17.5 39t-49.5 14h-91v-106h92z" />
    <glyph glyph-name="uni0472" unicode="&#x472;" horiz-adv-x="778" 
d="M564.5 627q80.5 -45 128 -123.5t47.5 -173.5t-47.5 -173.5t-128 -123.5t-176.5 -45t-176 45t-127 123.5t-47 173.5t47 173.5t127 123.5t176 45t176.5 -45zM251 503.5q-57 -46.5 -72 -123.5q53 25 109 25q26 0 47.5 -4t54.5 -12q59 -17 101 -17q52 0 104 23
q-19 71 -75 113t-132 42q-80 0 -137 -46.5zM525.5 156q57.5 46 73.5 122q-52 -24 -108 -24q-26 0 -46.5 4t-56.5 13q-59 17 -100 17q-54 0 -106 -24q19 -70 74.5 -112t131.5 -42q80 0 137.5 46z" />
    <glyph glyph-name="uni0473" unicode="&#x473;" horiz-adv-x="608" 
d="M438 472q61 -34 96.5 -93t35.5 -131t-35.5 -131.5t-97 -93.5t-134.5 -34t-133.5 34t-95.5 93.5t-35 131.5t35.5 131t96 93t133.5 34t134 -34zM221 364.5q-35 -26.5 -48 -71.5q31 14 60 14t72 -13q4 -1 25.5 -7t45.5 -6q26 0 58 13q-13 44 -48 70.5t-82 26.5
q-48 0 -83 -26.5zM389.5 133.5q36.5 28.5 47.5 75.5q-34 -14 -62 -14q-31 0 -72 13q-44 12 -70 12q-28 0 -61 -14q11 -46 46.5 -73.5t84.5 -27.5q50 0 86.5 28.5z" />
    <glyph glyph-name="uni0474" unicode="&#x474;" horiz-adv-x="680" 
d="M680 659v-116q-21 3 -35 3q-27 0 -44 -14.5t-31 -46.5l-217 -497h-45l-295 672h153l165 -402l119 288q25 64 63.5 93.5t100.5 29.5q30 0 66 -10z" />
    <glyph glyph-name="uni0475" unicode="&#x475;" horiz-adv-x="558" 
d="M558 495v-113l-29 1q-23 0 -35.5 -10.5t-23.5 -32.5l-168 -352h-45l-245 507h142l126 -281l80 181q25 55 56 82t81 27q30 0 61 -9z" />
    <glyph glyph-name="uni0490" unicode="&#x490;" horiz-adv-x="499" 
d="M76 660h270v141h129v-263h-264v-538h-135v660z" />
    <glyph glyph-name="uni0491" unicode="&#x491;" horiz-adv-x="453" 
d="M70 495h235v141h129v-255h-230v-381h-134v495z" />
    <glyph glyph-name="uni0492" unicode="&#x492;" horiz-adv-x="518" 
d="M220 538v-174h155v-113h-155v-251h-135v251h-83v113h83v296h409v-122h-274z" />
    <glyph glyph-name="uni0493" unicode="&#x493;" horiz-adv-x="453" 
d="M204 381v-102h124v-109h-124v-170h-134v170h-74v109h74v216h364v-114h-230z" />
    <glyph glyph-name="uni0496" unicode="&#x496;" horiz-adv-x="994" 
d="M988 122v-263h-129v141h-45l-251 344v-344h-135v345l-252 -345h-163l268 348l-247 312h161l233 -307v307h135v-306l232 306h161l-246 -312l173 -226h105z" />
    <glyph glyph-name="uni0497" unicode="&#x497;" horiz-adv-x="877" 
d="M845 114v-255h-129v141h-33l-195 265v-265h-134v264l-194 -264h-152l194 267l-180 228h159l173 -221v221h134v-222l173 222h158l-179 -226l113 -155h92z" />
    <glyph glyph-name="uni0498" unicode="&#x498;" horiz-adv-x="588" 
d="M525 286q25 -39 25 -91q0 -62 -31 -108.5t-87.5 -72.5t-132.5 -26q-88 0 -156 41t-104 112l94 68q64 -96 165 -96q51 0 85 24t34 65q0 36 -27 58t-80 22h-87v111h77q42 0 65 21t23 55q0 35 -24.5 56.5t-68.5 21.5q-87 0 -137 -86l-94 67q34 68 95 106t143 38
q101 0 160 -51.5t59 -140.5q0 -40 -17.5 -74t-48.5 -59q45 -22 70 -61zM164 -182v89q26 -2 60 -2q29 0 45.5 14.5t16.5 42.5q0 26 -13 58l53 24q32 -18 49.5 -45.5t17.5 -63.5q0 -55 -41.5 -91t-113.5 -36q-39 0 -74 10z" />
    <glyph glyph-name="uni0499" unicode="&#x499;" horiz-adv-x="491" 
d="M431 209.5q18 -29.5 18 -64.5q0 -76 -52 -116.5t-151 -40.5q-141 0 -213 93l76 80q50 -57 129 -57q39 0 59.5 14t20.5 38q0 22 -18 35t-52 13h-64v100h58q26 0 40.5 11.5t14.5 31.5t-15.5 31.5t-45.5 11.5q-71 0 -117 -50l-77 81q35 41 87 63t115 22q87 0 135.5 -38
t48.5 -107q0 -64 -49 -104q34 -18 52 -47.5zM119 -182v89q26 -2 60 -2q29 0 45.5 14.5t16.5 42.5q0 26 -13 58l53 24q32 -18 49.5 -45.5t17.5 -63.5q0 -55 -41.5 -91t-113.5 -36q-39 0 -74 10z" />
    <glyph glyph-name="uni049A" unicode="&#x49a;" horiz-adv-x="673" 
d="M667 122v-263h-129v141h-44l-283 344v-344h-135v660h135v-306l252 306h161l-252 -310l187 -228h108z" />
    <glyph glyph-name="uni049B" unicode="&#x49b;" horiz-adv-x="598" 
d="M566 114v-255h-129v141h-33l-200 265v-265h-134v495h134v-222l184 222h154l-189 -224l120 -157h93z" />
    <glyph glyph-name="uni04A0" unicode="&#x4a0;" horiz-adv-x="840" 
d="M663 0l-283 344v-344h-135v538h-231v122h366v-306l252 306h161l-253 -311l286 -349h-163z" />
    <glyph glyph-name="uni04A1" unicode="&#x4a1;" horiz-adv-x="696" 
d="M534 0l-202 268v-268h-135v381h-183v114h318v-225l186 225h154l-189 -224l205 -271h-154z" />
    <glyph glyph-name="uni04A2" unicode="&#x4a2;" horiz-adv-x="750" 
d="M596 0h-93v285h-292v-285h-135v660h135v-253h292v253h135v-538h88v-263h-130v141z" />
    <glyph glyph-name="uni04A3" unicode="&#x4a3;" horiz-adv-x="629" 
d="M469 0h-82v199h-183v-199h-134v495h134v-181h183v181h134v-381h76v-255h-128v141z" />
    <glyph glyph-name="uni04AA" unicode="&#x4aa;" horiz-adv-x="720" 
d="M211.5 33q-80.5 45 -127 123.5t-46.5 173.5t47 173.5t127.5 123.5t177.5 45q94 0 170.5 -43.5t120.5 -120.5l-102 -72q-70 111 -189 111q-61 0 -109.5 -28t-76 -77.5t-27.5 -112.5t27.5 -112t76 -76.5t109.5 -27.5q119 0 189 111l102 -72q-43 -77 -120 -120.5t-172 -43.5
q-97 0 -177.5 45zM254 -182v89q26 -2 60 -2q29 0 45.5 14.5t16.5 42.5q0 26 -13 58l53 24q32 -18 49.5 -45.5t17.5 -63.5q0 -55 -41.5 -91t-113.5 -36q-39 0 -74 10z" />
    <glyph glyph-name="uni04AB" unicode="&#x4ab;" horiz-adv-x="552" 
d="M170.5 22.5q-60.5 34.5 -96 94t-35.5 131.5t35.5 131t96 93t133.5 34t128 -32.5t87 -89.5l-94 -73q-23 34 -51.5 53t-67.5 19q-57 0 -93.5 -38.5t-36.5 -96.5q0 -59 36.5 -97.5t93.5 -38.5q38 0 66.5 18.5t52.5 52.5l94 -72q-32 -57 -87.5 -90t-127.5 -33
q-73 0 -133.5 34.5zM162 -182v89q26 -2 60 -2q29 0 45.5 14.5t16.5 42.5q0 26 -13 58l53 24q32 -18 49.5 -45.5t17.5 -63.5q0 -55 -41.5 -91t-113.5 -36q-39 0 -74 10z" />
    <glyph glyph-name="uni04AE" unicode="&#x4ae;" horiz-adv-x="624" 
d="M380 260v-260h-135v259l-228 401h150l146 -262l145 262h149z" />
    <glyph glyph-name="uni04AF" unicode="&#x4af;" horiz-adv-x="559" 
d="M346 -1v-179h-134v177l-200 498h142l126 -361l124 361h143z" />
    <glyph glyph-name="uni04B0" unicode="&#x4b0;" horiz-adv-x="624" 
d="M382 264h142v-113h-144v-151h-135v151h-144v113h141l-225 396h150l146 -262l145 262h149z" />
    <glyph glyph-name="uni04B1" unicode="&#x4b1;" horiz-adv-x="559" 
d="M349 0h123v-108h-126v-72h-134v72h-125v108h123l-198 495h142l126 -362l124 362h143z" />
    <glyph glyph-name="uni04B2" unicode="&#x4b2;" horiz-adv-x="627" 
d="M621 122v-263h-129v141h-45l-140 219l-140 -219h-154l219 336l-206 324h154l127 -208l126 208h153l-203 -324l139 -214h99z" />
    <glyph glyph-name="uni04B3" unicode="&#x4b3;" horiz-adv-x="566" 
d="M534 114v-255h-129v141h-33l-107 157l-107 -157h-150l182 256l-170 239h150l95 -142l96 142h150l-171 -239l102 -142h92z" />
    <glyph glyph-name="uni04B6" unicode="&#x4b6;" horiz-adv-x="695" 
d="M671 122v-263h-129v141h-94v243q-61 -23 -137 -23q-124 0 -193.5 67t-69.5 194v179h135v-166q0 -77 36.5 -114t113.5 -37q67 0 115 20v297h135v-538h88z" />
    <glyph glyph-name="uni04B7" unicode="&#x4b7;" horiz-adv-x="598" 
d="M566 114v-255h-128v141h-88v181q-48 -23 -108 -23q-95 0 -149 56.5t-54 158.5v122h134v-112q0 -105 91 -105q46 0 86 19v198h134v-381h82z" />
    <glyph glyph-name="uni04BA" unicode="&#x4ba;" horiz-adv-x="659" 
d="M541.5 373q69.5 -67 69.5 -194v-179h-135v166q0 77 -36.5 114t-113.5 37q-67 0 -115 -20v-297h-135v660h135v-243q61 23 137 23q124 0 193.5 -67z" />
    <glyph glyph-name="uni04BB" unicode="&#x4bb;" horiz-adv-x="585" 
d="M472 451.5q50 -54.5 50 -144.5v-307h-134v288q0 43 -25.5 69.5t-66.5 26.5t-67.5 -26.5t-26.5 -69.5v-288h-135v750h135v-297q25 25 60 39t76 14q84 0 134 -54.5z" />
    <glyph glyph-name="uni04C0" unicode="&#x4c0;" horiz-adv-x="286" 
d="M76 660h135v-660h-135v660z" />
    <glyph glyph-name="uni04C1" unicode="&#x4c1;" horiz-adv-x="991" 
d="M814 0l-251 344v-344h-135v345l-252 -345h-163l268 348l-247 312h161l233 -307v307h135v-306l232 306h161l-246 -312l267 -348h-163zM370 768q-48 49 -48 127v15h108v-19q0 -36 17 -56t48 -20t48 20t17 56v19h107v-15q0 -78 -48 -127t-124 -49q-77 0 -125 49z" />
    <glyph glyph-name="uni04C2" unicode="&#x4c2;" horiz-adv-x="841" 
d="M672 0l-188 258v-258h-134v259l-189 -259h-153l191 262l-181 233h159l173 -228v228h134v-227l173 227h158l-176 -229l194 -266h-161zM292 619.5q-48 48.5 -48 125.5v28h108v-27q0 -38 17 -58.5t48 -20.5t48 20.5t17 58.5v27h107v-28q0 -77 -48 -125.5t-124 -48.5
q-77 0 -125 48.5z" />
    <glyph glyph-name="uni04CF" unicode="&#x4cf;" horiz-adv-x="274" 
d="M70 750h134v-750h-134v750z" />
    <glyph glyph-name="uni04D0" unicode="&#x4d0;" horiz-adv-x="661" 
d="M465 86h-270l-37 -86h-145l295 672h45l294 -672h-145zM330 420l-88 -223h176zM206 768q-48 49 -48 127v15h108v-19q0 -36 17 -56t48 -20t48 20t17 56v19h107v-15q0 -78 -48 -127t-124 -49q-77 0 -125 49z" />
    <glyph glyph-name="uni04D1" unicode="&#x4d1;" horiz-adv-x="545" 
d="M424.5 451.5q57.5 -54.5 57.5 -157.5v-294h-124v48q-27 -28 -65.5 -44t-85.5 -16q-79 0 -125 41.5t-46 106.5q0 67 50.5 105.5t136.5 38.5h124v22q0 41 -23.5 64t-68.5 23q-38 0 -68 -16.5t-63 -51.5l-70 83q86 102 216 102q97 0 154.5 -54.5zM317 114.5q30 27.5 30 70.5
v6h-106q-33 0 -51 -12.5t-18 -37.5t19.5 -39.5t51.5 -14.5q44 0 74 27.5zM146 619.5q-48 48.5 -48 125.5v28h108v-27q0 -38 17 -58.5t48 -20.5t48 20.5t17 58.5v27h107v-28q0 -77 -48 -125.5t-124 -48.5q-77 0 -125 48.5z" />
    <glyph glyph-name="uni04D4" unicode="&#x4d4;" horiz-adv-x="852" 
d="M812 122v-122h-355l-15 86h-247l-45 -86h-145l338 660h457v-122h-301l22 -134h198v-115h-179l28 -167h244zM251 197h172l-43 269z" />
    <glyph glyph-name="uni04D5" unicode="&#x4d5;" horiz-adv-x="878" 
d="M830 197h-345q13 -45 49.5 -69t88.5 -24q73 0 137 50l56 -92q-86 -74 -196 -74q-67 0 -120.5 26.5t-87.5 73.5q-29 -49 -79.5 -74.5t-115.5 -25.5q-87 0 -134 42t-47 107q0 69 50.5 109t136.5 40h124v16q0 41 -23.5 64t-67.5 23q-37 0 -68 -17t-64 -51l-69 83
q86 102 215 102q111 0 163 -73q33 35 77.5 54t97.5 19q67 0 120 -30.5t82.5 -83t29.5 -116.5q0 -43 -10 -79zM524 367q-33 -30 -43 -81h228q1 51 -29 81t-77 30q-46 0 -79 -30zM316.5 115q30.5 27 30.5 69v13h-106q-33 0 -51 -13.5t-18 -38.5q0 -27 19 -42t51 -15
q44 0 74.5 27z" />
    <glyph glyph-name="uni04D6" unicode="&#x4d6;" horiz-adv-x="573" 
d="M76 660h444v-122h-309v-134h227v-115h-227v-167h321v-122h-456v660zM162 768q-48 49 -48 127v15h108v-19q0 -36 17 -56t48 -20t48 20t17 56v19h107v-15q0 -78 -48 -127t-124 -49q-77 0 -125 49z" />
    <glyph glyph-name="uni04D7" unicode="&#x4d7;" horiz-adv-x="569" 
d="M522 202h-347q12 -47 48.5 -72.5t90.5 -25.5q73 0 138 50l56 -92q-88 -74 -198 -74q-77 0 -139 34t-97 93.5t-35 131.5t34 131.5t93.5 93.5t131.5 34q68 0 121 -30.5t82.5 -83t29.5 -116.5q0 -36 -9 -74zM218 370q-32 -27 -43 -73h225q-1 46 -32 73t-75 27q-43 0 -75 -27
zM160 619.5q-48 48.5 -48 125.5v28h108v-27q0 -38 17 -58.5t48 -20.5t48 20.5t17 58.5v27h107v-28q0 -77 -48 -125.5t-124 -48.5q-77 0 -125 48.5z" />
    <glyph glyph-name="uni04D8" unicode="&#x4d8;" horiz-adv-x="733" 
d="M529 627q77 -45 121 -123t44 -173t-45.5 -173.5t-123.5 -124t-172 -45.5q-88 0 -160 38.5t-113.5 107.5t-41.5 156q0 44 9 87h506q-13 78 -66 124.5t-131 46.5q-116 0 -191 -102l-91 79q48 68 120 107.5t162 39.5q96 0 173 -45zM481 155q52 42 69 112h-381
q1 -49 27.5 -84t69 -52.5t90.5 -17.5q73 0 125 42z" />
    <glyph glyph-name="uni04D9" unicode="&#x4d9;" horiz-adv-x="569" 
d="M400.5 472q61.5 -34 96 -93t34.5 -131t-34 -131.5t-92.5 -94t-130.5 -34.5q-69 0 -122.5 30.5t-83 83.5t-29.5 117q0 43 9 74h347q-12 47 -47.5 72t-89.5 25q-76 0 -141 -49l-56 92q87 73 201 73q77 0 138.5 -34zM353.5 124.5q31.5 26.5 42.5 73.5h-227q2 -46 33 -73
t77 -27q43 0 74.5 26.5z" />
    <glyph glyph-name="uni04E2" unicode="&#x4e2;" horiz-adv-x="717" 
d="M642 672v-672h-135v409l-387 -421h-44v672h135v-405l386 417h45zM217 861h322v-106h-322v106z" />
    <glyph glyph-name="uni04E3" unicode="&#x4e3;" horiz-adv-x="595" 
d="M525 506v-506h-135v268l-276 -280h-44v507h134v-270l277 281h44zM158 728h302v-106h-302v106z" />
    <glyph glyph-name="uni04E6" unicode="&#x4e6;" horiz-adv-x="778" 
d="M212 33q-80 45 -127 123.5t-47 173.5t47 173.5t127 123.5t176 45t176.5 -45t128 -123.5t47.5 -173.5t-47.5 -173.5t-128 -123.5t-176.5 -45t-176 45zM497.5 140.5q48.5 27.5 76 77t27.5 112.5q0 62 -27.5 111.5t-76 77.5t-108.5 28q-61 0 -109 -27.5t-75.5 -77
t-27.5 -112.5t27.5 -112.5t75.5 -77t109 -27.5q60 0 108.5 27.5zM203.5 760.5q-24.5 23.5 -24.5 53.5q0 33 24 55.5t56 22.5q34 0 58 -22.5t24 -55.5q0 -31 -24 -54t-58 -23q-31 0 -55.5 23.5zM462 759.5q-25 23.5 -25 53.5q0 33 24.5 56t56.5 23q33 0 57 -23t24 -56
q0 -31 -24 -54t-57 -23q-31 0 -56 23.5z" />
    <glyph glyph-name="uni04E7" unicode="&#x4e7;" horiz-adv-x="608" 
d="M169.5 23.5q-60.5 34.5 -95.5 94t-35 130.5t35 130.5t96 93.5t134 34t134 -34.5t96.5 -93.5t35.5 -130t-35.5 -130.5t-97 -94t-134.5 -34.5t-133.5 34.5zM395.5 151q36.5 38 36.5 96t-36.5 97t-91.5 39q-56 0 -92 -38.5t-36 -97.5q0 -58 36 -96t92 -38q55 0 91.5 38z
M128 621q-24 23 -24 55t24 55t58 23q32 0 56 -23t24 -55t-24 -55t-56 -23q-34 0 -58 23zM366 621q-24 23 -24 55t24 55t58 23q32 0 56 -23t24 -55t-24 -55t-56 -23q-34 0 -58 23z" />
    <glyph glyph-name="uni04E8" unicode="&#x4e8;" horiz-adv-x="778" 
d="M564.5 627q80.5 -45 128 -123.5t47.5 -173.5t-47.5 -173.5t-128 -123.5t-176.5 -45t-176 45t-127 123.5t-47 173.5t47 173.5t127 123.5t176 45t176.5 -45zM257.5 508q-55.5 -42 -74.5 -112h412q-19 70 -75 112t-131 42q-76 0 -131.5 -42zM526.5 157q57.5 47 72.5 124
h-420q14 -78 71.5 -124.5t138.5 -46.5q80 0 137.5 47z" />
    <glyph glyph-name="uni04E9" unicode="&#x4e9;" horiz-adv-x="608" 
d="M438 472q61 -34 96.5 -93t35.5 -131t-35.5 -131.5t-97 -93.5t-134.5 -34t-133.5 34t-95.5 93.5t-35 131.5t35.5 131t96 93t133.5 34t134 -34zM223 366q-34 -25 -48 -68h258q-14 43 -48.5 68t-80.5 25q-47 0 -81 -25zM386.5 131.5q35.5 26.5 48.5 70.5h-262
q13 -45 47.5 -71t82.5 -26t83.5 26.5z" />
    <glyph glyph-name="uni04EE" unicode="&#x4ee;" horiz-adv-x="648" 
d="M635 660l-225 -494q-29 -62 -55.5 -99t-65.5 -57.5t-97 -20.5q-39 0 -75 11v115q25 -3 53 -3q60 0 93 42l-246 506h151l168 -359l155 359h144zM178 861h322v-106h-322v106z" />
    <glyph glyph-name="uni04EF" unicode="&#x4ef;" horiz-adv-x="559" 
d="M547 495l-237 -538q-34 -77 -81 -113t-116 -36q-42 0 -87 12v113q46 -4 58 -4q36 0 61 14t42 53l15 34l-190 465h143l121 -325l129 325h142zM129 728h302v-106h-302v106z" />
    <glyph glyph-name="uni04F2" unicode="&#x4f2;" horiz-adv-x="648" 
d="M635 660l-225 -494q-29 -62 -55.5 -99t-65.5 -57.5t-97 -20.5q-39 0 -75 11v115q25 -3 53 -3q60 0 93 42l-246 506h151l168 -359l155 359h144zM236 910h140v-24l-122 -162h-91zM473 910h140v-24l-122 -162h-91z" />
    <glyph glyph-name="uni04F3" unicode="&#x4f3;" horiz-adv-x="559" 
d="M547 495l-237 -538q-34 -77 -81 -113t-116 -36q-42 0 -87 12v113q46 -4 58 -4q36 0 61 14t42 53l15 34l-190 465h143l121 -325l129 325h142zM194 780h140v-24l-122 -185h-91zM411 780h140v-24l-122 -185h-91z" />
    <glyph glyph-name="Wgrave" unicode="&#x1e80;" horiz-adv-x="1035" 
d="M1010 660l-264 -672h-44l-184 414l-185 -414h-44l-264 672h150l147 -390l173 402h45l173 -400l147 388h150zM332 886v24h162l73 -186h-98z" />
    <glyph glyph-name="wgrave" unicode="&#x1e81;" horiz-adv-x="857" 
d="M845 495l-230 -507h-44l-142 288l-143 -288h-44l-230 507h142l117 -282l135 293h45l137 -287l115 276h142zM243 756v24h162l73 -209h-98z" />
    <glyph glyph-name="Wacute" unicode="&#x1e82;" horiz-adv-x="1035" 
d="M1010 660l-264 -672h-44l-184 414l-185 -414h-44l-264 672h150l147 -390l173 402h45l173 -400l147 388h150zM538 910h162v-24l-137 -162h-98z" />
    <glyph glyph-name="wacute" unicode="&#x1e83;" horiz-adv-x="857" 
d="M845 495l-230 -507h-44l-142 288l-143 -288h-44l-230 507h142l117 -282l135 293h45l137 -287l115 276h142zM452 780h162v-24l-137 -185h-98z" />
    <glyph glyph-name="Wdieresis" unicode="&#x1e84;" horiz-adv-x="1035" 
d="M1010 660l-264 -672h-44l-184 414l-185 -414h-44l-264 672h150l147 -390l173 402h45l173 -400l147 388h150zM332.5 760.5q-24.5 23.5 -24.5 53.5q0 33 24 55.5t56 22.5q34 0 58 -22.5t24 -55.5q0 -31 -24 -54t-58 -23q-31 0 -55.5 23.5zM591 759.5q-25 23.5 -25 53.5
q0 33 24.5 56t56.5 23q33 0 57 -23t24 -56q0 -31 -24 -54t-57 -23q-31 0 -56 23.5z" />
    <glyph glyph-name="wdieresis" unicode="&#x1e85;" horiz-adv-x="857" 
d="M845 495l-230 -507h-44l-142 288l-143 -288h-44l-230 507h142l117 -282l135 293h45l137 -287l115 276h142zM252 621q-24 23 -24 55t24 55t58 23q32 0 56 -23t24 -55t-24 -55t-56 -23q-34 0 -58 23zM490 621q-24 23 -24 55t24 55t58 23q32 0 56 -23t24 -55t-24 -55
t-56 -23q-34 0 -58 23z" />
    <glyph glyph-name="uni1E9E" unicode="&#x1e9e;" horiz-adv-x="731" 
d="M646.5 345.5q46.5 -55.5 46.5 -137.5q0 -65 -31 -115.5t-83.5 -77.5t-114.5 -27q-55 0 -105.5 22t-89.5 61l72 96q53 -55 115 -55q45 0 72.5 27t27.5 72q0 49 -35.5 74.5t-101.5 25.5h-69v34l107 193h-246v-538h-135v660h566v-36l-112 -205q70 -18 116.5 -73.5z" />
    <glyph glyph-name="Ygrave" unicode="&#x1ef2;" horiz-adv-x="624" 
d="M380 260v-260h-135v259l-228 401h150l146 -262l145 262h149zM125 886v24h162l73 -186h-98z" />
    <glyph glyph-name="ygrave" unicode="&#x1ef3;" horiz-adv-x="559" 
d="M547 495l-237 -538q-34 -77 -81 -113t-116 -36q-42 0 -87 12v113q46 -4 58 -4q36 0 61 14t42 53l15 34l-190 465h143l121 -325l129 325h142zM94 756v24h162l73 -209h-98z" />
    <glyph glyph-name="uni2009" unicode="&#x2009;" horiz-adv-x="140" 
 />
    <glyph glyph-name="endash" unicode="&#x2013;" horiz-adv-x="502" 
d="M35 377h432v-113h-432v113z" />
    <glyph glyph-name="emdash" unicode="&#x2014;" horiz-adv-x="1000" 
d="M50 377h900v-113h-900v113z" />
    <glyph glyph-name="uni2015" unicode="&#x2015;" horiz-adv-x="1000" 
d="M50 377h900v-113h-900v113z" />
    <glyph glyph-name="quoteleft" unicode="&#x2018;" horiz-adv-x="301" 
d="M115 660h103l-5 -278h-154z" />
    <glyph glyph-name="quoteright" unicode="&#x2019;" horiz-adv-x="301" 
d="M88 660h154l-56 -278h-103z" />
    <glyph glyph-name="quotesinglbase" unicode="&#x201a;" horiz-adv-x="301" 
d="M88 123h154l-56 -278h-103z" />
    <glyph glyph-name="quotedblleft" unicode="&#x201c;" horiz-adv-x="538" 
d="M115 660h103l-5 -278h-154zM352 660h103l-5 -278h-154z" />
    <glyph glyph-name="quotedblright" unicode="&#x201d;" horiz-adv-x="538" 
d="M88 660h154l-56 -278h-103zM325 660h154l-56 -278h-103z" />
    <glyph glyph-name="quotedblbase" unicode="&#x201e;" horiz-adv-x="538" 
d="M88 123h154l-56 -278h-103zM325 123h154l-56 -278h-103z" />
    <glyph glyph-name="dagger" unicode="&#x2020;" horiz-adv-x="483" 
d="M174 491h-127v114h127v145h135v-145h127v-114h-127v-243h-135v243z" />
    <glyph glyph-name="daggerdbl" unicode="&#x2021;" horiz-adv-x="483" 
d="M174 280h-127v114h127v127h-127v114h127v115h135v-115h127v-114h-127v-127h127v-114h-127v-116h-135v116z" />
    <glyph glyph-name="bullet" unicode="&#x2022;" horiz-adv-x="427" 
d="M132.5 134q-37.5 21 -59.5 57t-22 80q0 45 22 81t59.5 57t81.5 21q45 0 82 -21t58.5 -57t21.5 -81q0 -44 -21.5 -80.5t-59 -57t-81.5 -20.5t-81.5 21z" />
    <glyph glyph-name="ellipsis" unicode="&#x2026;" horiz-adv-x="798" 
d="M333 14.5q-27 26.5 -27 66.5q0 39 27 66t67 27q39 0 65.5 -27t26.5 -66q0 -40 -26 -66.5t-66 -26.5t-67 26.5zM74 14.5q-27 26.5 -27 66.5q0 39 27 66t67 27q39 0 65.5 -27t26.5 -66q0 -40 -26 -66.5t-66 -26.5t-67 26.5zM592 14.5q-27 26.5 -27 66.5q0 39 27 66t67 27
q39 0 65.5 -27t26.5 -66q0 -40 -26 -66.5t-66 -26.5t-67 26.5z" />
    <glyph glyph-name="perthousand" unicode="&#x2030;" horiz-adv-x="1227" 
d="M141 364.5q-39 21.5 -62 59.5t-23 84t23 83.5t62 59t86 21.5q46 0 85 -21.5t62 -59t23 -83.5t-23 -84t-62 -59.5t-85 -21.5q-47 0 -86 21.5zM566 660h109l-380 -660h-108zM274.5 456q18.5 20 18.5 52q0 31 -18.5 51t-46.5 20q-30 0 -48.5 -20t-18.5 -51q0 -32 18 -52
t49 -20q28 0 46.5 20zM915 11.5q-39 21.5 -62 59.5t-23 84t23 83.5t62 59t85 21.5t85.5 -21.5t62.5 -59t23 -83.5t-23 -84t-62 -59.5t-86 -21.5q-46 0 -85 21.5zM549 10.5q-39 21.5 -62 59.5t-23 84t23 83.5t62 59t85 21.5t85.5 -21.5t62.5 -59t23 -83.5t-23 -84t-62 -59.5
t-86 -21.5q-46 0 -85 21.5zM1048.5 104q18.5 20 18.5 51t-18.5 51t-47.5 20q-30 0 -48.5 -19.5t-18.5 -51.5t18.5 -51.5t48.5 -19.5q29 0 47.5 20zM681.5 103q18.5 20 18.5 51t-18.5 51t-46.5 20q-31 0 -49 -19.5t-18 -51.5t18 -51.5t49 -19.5q28 0 46.5 20z" />
    <glyph glyph-name="minute" unicode="&#x2032;" horiz-adv-x="288" 
d="M102 660h154l-87 -284h-103z" />
    <glyph glyph-name="second" unicode="&#x2033;" horiz-adv-x="525" 
d="M102 660h154l-87 -284h-103zM339 660h154l-87 -284h-103z" />
    <glyph glyph-name="guilsinglleft" unicode="&#x2039;" horiz-adv-x="340" 
d="M29 254v36l195 210l86 -75l-135 -152l135 -153l-86 -75z" />
    <glyph glyph-name="guilsinglright" unicode="&#x203a;" horiz-adv-x="340" 
d="M31 120l134 153l-134 152l86 75l194 -210v-36l-194 -209z" />
    <glyph glyph-name="fraction" unicode="&#x2044;" horiz-adv-x="251" 
d="M261 660h109l-380 -660h-109z" />
    <glyph glyph-name="uni2070" unicode="&#x2070;" horiz-adv-x="421" 
d="M85.5 417.5q-43.5 61.5 -43.5 157.5q0 94 43 153.5t125 59.5q83 0 126.5 -59t43.5 -154q0 -96 -43.5 -157.5t-126.5 -61.5q-81 0 -124.5 61.5zM277 574q0 62 -16 92t-51 30q-34 0 -50 -30t-16 -92q0 -61 16.5 -93.5t49.5 -32.5q67 0 67 126z" />
    <glyph glyph-name="uni2074" unicode="&#x2074;" horiz-adv-x="376" 
d="M365 428h-50v-64h-91v64h-212v26l124 326h103l-104 -270h89l1 109h90v-109h50v-82z" />
    <glyph glyph-name="uni2075" unicode="&#x2075;" horiz-adv-x="371" 
d="M264.5 620.5q32.5 -15.5 52.5 -45.5t20 -71q0 -43 -21.5 -76.5t-59 -52.5t-83.5 -19q-54 0 -95 26.5t-63 71.5l70 49q18 -28 38 -41.5t46 -13.5q29 0 47 14t18 39q0 49 -76 49h-98v230h256v-90h-160v-59q23 5 40 5q36 0 68.5 -15.5z" />
    <glyph glyph-name="uni2076" unicode="&#x2076;" horiz-adv-x="372" 
d="M275 631q30 -19 49 -51t19 -72q0 -43 -22 -78t-58.5 -54.5t-77.5 -19.5t-77 19.5t-57.5 55t-21.5 79.5q0 34 13.5 62t43.5 67l103 141h117l-93 -128q32 -2 62 -21zM226.5 465q16.5 17 16.5 43t-16.5 43t-41.5 17q-24 0 -40.5 -17.5t-16.5 -42.5q0 -26 16.5 -43t40.5 -17
q25 0 41.5 17z" />
    <glyph glyph-name="uni2077" unicode="&#x2077;" horiz-adv-x="342" 
d="M324 780v-27l-180 -389h-108l156 326h-164v90h296z" />
    <glyph glyph-name="uni2078" unicode="&#x2078;" horiz-adv-x="388" 
d="M353 477q0 -56 -44.5 -88.5t-114.5 -32.5t-114.5 32.5t-44.5 88.5q0 70 74 102q-56 38 -56 96q0 53 39.5 83t101.5 30t101.5 -30t39.5 -83q0 -60 -57 -96q75 -33 75 -102zM159 697.5q-14 -10.5 -14 -27.5q0 -16 11.5 -26.5t37.5 -23.5q25 12 37 23t12 27q0 17 -14 27.5
t-35 10.5t-35 -10.5zM238.5 449q15.5 12 15.5 32t-15 32.5t-45 24.5q-31 -12 -46 -24.5t-15 -32.5t15.5 -32t45.5 -12q29 0 44.5 12z" />
    <glyph glyph-name="uni2079" unicode="&#x2079;" horiz-adv-x="372" 
d="M264 768.5q36 -19.5 57.5 -55t21.5 -79.5q0 -34 -13 -61t-44 -68l-104 -141h-117l94 128q-33 2 -63 21t-48.5 51t-18.5 72q0 43 22 78t58 54.5t77 19.5q42 0 78 -19.5zM227 593.5q17 17.5 17 42.5q0 26 -17 43t-41 17t-41 -17t-17 -43q0 -25 17 -42.5t41 -17.5t41 17.5z
" />
    <glyph glyph-name="uni207A" unicode="&#x207a;" horiz-adv-x="427" 
d="M162 527h-129v91h129v133h102v-133h129v-91h-129v-134h-102v134z" />
    <glyph glyph-name="uni207B" unicode="&#x207b;" horiz-adv-x="427" 
d="M33 617h360v-89h-360v89z" />
    <glyph glyph-name="uni207C" unicode="&#x207c;" horiz-adv-x="427" 
d="M41 700h345v-91h-345v91zM41 537h345v-92h-345v92z" />
    <glyph glyph-name="uni207D" unicode="&#x207d;" horiz-adv-x="275" 
d="M94.5 360.5q-46.5 81.5 -46.5 211.5q0 133 47 215.5t121 115.5l41 -63q-118 -76 -118 -268q0 -106 32.5 -170t85.5 -99l-41 -62q-75 38 -121.5 119.5z" />
    <glyph glyph-name="uni207E" unicode="&#x207e;" horiz-adv-x="275" 
d="M18 303q118 77 118 269q0 105 -32 168.5t-86 99.5l42 63q73 -33 120 -115.5t47 -215.5t-47 -216t-120 -115z" />
    <glyph glyph-name="uni2080" unicode="&#x2080;" horiz-adv-x="421" 
d="M85.5 -66.5q-43.5 61.5 -43.5 157.5q0 94 43 153.5t125 59.5q83 0 126.5 -59t43.5 -154q0 -96 -43.5 -157.5t-126.5 -61.5q-81 0 -124.5 61.5zM277 90q0 62 -16 92t-51 30q-34 0 -50 -30t-16 -92q0 -61 16.5 -93.5t49.5 -32.5q67 0 67 126z" />
    <glyph glyph-name="uni2081" unicode="&#x2081;" horiz-adv-x="370" 
d="M42 -30h103v236h-94v90h195v-326h86v-90h-290v90z" />
    <glyph glyph-name="uni2082" unicode="&#x2082;" horiz-adv-x="385" 
d="M346 -30v-90l-313 -1v21l149 162q27 31 39.5 52.5t12.5 44.5q0 24 -13 38.5t-35 14.5t-35.5 -14.5t-13.5 -40.5q0 -5 2 -29h-99q-4 17 -4 35q0 36 18.5 68.5t53 52.5t79.5 20q64 0 107 -38.5t43 -97.5q0 -43 -23 -80.5t-68 -83.5l-32 -34h132z" />
    <glyph glyph-name="uni2083" unicode="&#x2083;" horiz-adv-x="360" 
d="M299.5 98q26.5 -33 26.5 -80q0 -42 -21.5 -75t-58 -52t-80.5 -19q-53 0 -93.5 26.5t-61.5 71.5l69 49q19 -28 38 -41.5t45 -13.5t43 14.5t17 39.5q0 48 -76 48h-48v25l78 115h-133v90h275v-27l-84 -125q38 -13 64.5 -46z" />
    <glyph glyph-name="uni2084" unicode="&#x2084;" horiz-adv-x="376" 
d="M365 -56h-50v-64h-91v64h-212v26l124 326h103l-104 -270h89l1 109h90v-109h50v-82z" />
    <glyph glyph-name="uni2085" unicode="&#x2085;" horiz-adv-x="371" 
d="M264.5 136.5q32.5 -15.5 52.5 -45.5t20 -71q0 -43 -21.5 -76.5t-59 -52.5t-83.5 -19q-54 0 -95 26.5t-63 71.5l70 49q18 -28 38 -41.5t46 -13.5q29 0 47 14t18 39q0 49 -76 49h-98v230h256v-90h-160v-59q23 5 40 5q36 0 68.5 -15.5z" />
    <glyph glyph-name="uni2086" unicode="&#x2086;" horiz-adv-x="372" 
d="M275 147q30 -19 49 -51t19 -72q0 -43 -22 -78t-58.5 -54.5t-77.5 -19.5t-77 19.5t-57.5 55t-21.5 79.5q0 34 13.5 62t43.5 67l103 141h117l-93 -128q32 -2 62 -21zM226.5 -19q16.5 17 16.5 43t-16.5 43t-41.5 17q-24 0 -40.5 -17.5t-16.5 -42.5q0 -26 16.5 -43t40.5 -17
q25 0 41.5 17z" />
    <glyph glyph-name="uni2087" unicode="&#x2087;" horiz-adv-x="342" 
d="M324 296v-27l-180 -389h-108l156 326h-164v90h296z" />
    <glyph glyph-name="uni2088" unicode="&#x2088;" horiz-adv-x="388" 
d="M353 -7q0 -56 -44.5 -88.5t-114.5 -32.5t-114.5 32.5t-44.5 88.5q0 70 74 102q-56 38 -56 96q0 53 39.5 83t101.5 30t101.5 -30t39.5 -83q0 -60 -57 -96q75 -33 75 -102zM159 213.5q-14 -10.5 -14 -27.5q0 -16 11.5 -26.5t37.5 -23.5q25 12 37 23t12 27q0 17 -14 27.5
t-35 10.5t-35 -10.5zM238.5 -35q15.5 12 15.5 32t-15 32.5t-45 24.5q-31 -12 -46 -24.5t-15 -32.5t15.5 -32t45.5 -12q29 0 44.5 12z" />
    <glyph glyph-name="uni2089" unicode="&#x2089;" horiz-adv-x="372" 
d="M264 284.5q36 -19.5 57.5 -55t21.5 -79.5q0 -34 -13 -61t-44 -68l-104 -141h-117l94 128q-33 2 -63 21t-48.5 51t-18.5 72q0 43 22 78t58 54.5t77 19.5q42 0 78 -19.5zM227 109.5q17 17.5 17 42.5q0 26 -17 43t-41 17t-41 -17t-17 -43q0 -25 17 -42.5t41 -17.5t41 17.5z
" />
    <glyph glyph-name="uni208A" unicode="&#x208a;" horiz-adv-x="427" 
d="M162 42h-129v91h129v133h102v-133h129v-91h-129v-134h-102v134z" />
    <glyph glyph-name="uni208B" unicode="&#x208b;" horiz-adv-x="427" 
d="M33 132h360v-89h-360v89z" />
    <glyph glyph-name="uni208C" unicode="&#x208c;" horiz-adv-x="427" 
d="M41 215h345v-91h-345v91zM41 52h345v-92h-345v92z" />
    <glyph glyph-name="uni208D" unicode="&#x208d;" horiz-adv-x="275" 
d="M94.5 -124.5q-46.5 81.5 -46.5 211.5q0 133 47 215.5t121 115.5l41 -63q-118 -76 -118 -268q0 -106 32.5 -170t85.5 -99l-41 -62q-75 38 -121.5 119.5z" />
    <glyph glyph-name="uni208E" unicode="&#x208e;" horiz-adv-x="275" 
d="M18 -182q118 77 118 269q0 105 -32 168.5t-86 99.5l42 63q73 -33 120 -115.5t47 -215.5t-47 -216t-120 -115z" />
    <glyph glyph-name="lira" unicode="&#x20a4;" horiz-adv-x="569" 
d="M272 108h253v-108h-483v29q50 37 80.5 69.5t43.5 69.5h-114v91h116q-6 24 -24 59h-92v90h48q-12 36 -12 71q0 58 28.5 101.5t78 67.5t111.5 24q84 0 144.5 -46t84.5 -135l-113 -41q-31 97 -107 97q-42 0 -66 -25t-24 -65q0 -22 9 -49h177v-90h-130q16 -28 23 -59h107v-91
h-110q-9 -32 -29 -60z" />
    <glyph glyph-name="peseta" unicode="&#x20a7;" horiz-adv-x="626" 
d="M626 366h-79q-18 -85 -89 -135.5t-172 -50.5h-57v-180h-135v366h-78v109h78v185h192q102 0 172.5 -50t88.5 -135h79v-109zM229 547v-79h185q-12 39 -45.5 59t-82.5 20h-57zM369 313q34 20 46 60h-186v-80h57q49 0 83 20z" />
    <glyph glyph-name="Euro" unicode="&#x20ac;" horiz-adv-x="676" 
d="M482 132.5q37 19.5 61 52.5l94 -73q-34 -57 -97.5 -90.5t-144.5 -33.5q-107 0 -184.5 58t-109.5 156h-99v96h80q-1 11 -1 33q0 18 1 27h-79v96h96q31 100 109 159t187 59q81 0 144.5 -33.5t97.5 -90.5l-94 -73q-24 33 -61 52.5t-83 19.5q-52 0 -91 -24.5t-62 -68.5h236
l-26 -96h-236q-1 -9 -1 -28q0 -12 2 -32h217l-26 -96h-163q23 -42 61.5 -65.5t88.5 -23.5q46 0 83 19.5z" />
    <glyph glyph-name="uni20AE" unicode="&#x20ae;" horiz-adv-x="585" 
d="M360 538v-115l161 48v-113l-161 -48v-62l161 49v-114l-161 -48v-135h-135v103l-161 -48v114l161 47v62l-161 -48v114l161 47v147h-211v122h558v-122h-212z" />
    <glyph glyph-name="uni20B4" unicode="&#x20b4;" horiz-adv-x="540" 
d="M532 452v-95h-523v95h322q10 14 10 32q0 29 -21 46t-58 17q-34 0 -67.5 -14.5t-61.5 -42.5l-72 88q34 45 86 69.5t116 24.5t113 -23.5t76.5 -65.5t27.5 -97q0 -20 -6 -34h58zM9 298h523v-94h-345q-2 -14 -2 -20q0 -34 23 -52.5t66 -18.5q45 0 89.5 17.5t77.5 49.5l66 -89
q-42 -49 -103 -76t-130 -27q-104 0 -166 53.5t-62 142.5q0 13 2 20h-39v94z" />
    <glyph glyph-name="uni20B8" unicode="&#x20b8;" horiz-adv-x="585" 
d="M14 660h558v-122h-558v122zM225 357h-211v121h558v-121h-212v-357h-135v357z" />
    <glyph glyph-name="uni20B9" unicode="&#x20b9;" horiz-adv-x="537" 
d="M358 564q18 -25 28 -64h77v-97h-76q-12 -64 -54.5 -105t-109.5 -57l240 -241h-168l-233 233v102h77q41 0 68.5 18t38.5 50h-185v97h183q-26 60 -105 60h-77v100h401v-96h-105z" />
    <glyph glyph-name="uni20BA" unicode="&#x20ba;" horiz-adv-x="538" 
d="M511 239q0 -119 -92.5 -184.5t-258.5 -65.5h-63v224l-85 -39v113l85 39v62l-85 -39v113l85 39v159h135v-106l169 77v-113l-169 -78v-61l169 78v-114l-169 -77v-150q75 9 119 44.5t44 90.5q0 22 -3 47h111q8 -24 8 -59z" />
    <glyph glyph-name="uni20BD" unicode="&#x20bd;" horiz-adv-x="599" 
d="M94 103h-78v108h78v63h-78v114h78v272h253q94 0 153.5 -52t59.5 -141q0 -59 -27.5 -103t-76 -67t-109.5 -23h-118v-63h252v-108h-252v-103h-135v103zM338 388q39 0 63 20.5t24 57.5t-24 58.5t-63 21.5h-109v-158h109z" />
    <glyph glyph-name="uni20BF" unicode="&#x20bf;" horiz-adv-x="580" 
d="M501 103q-35 -44 -94 -61v-139h-101v130h-63v-130h-100v130h-67v595h67v121h100v-121h63v121h101v-144q42 -21 65 -58.5t23 -85.5q0 -34 -13 -63t-37 -49q43 -20 67 -56.5t24 -85.5q0 -60 -35 -104zM354 505q-20 17 -57 17h-103v-134h103q36 0 56.5 18t20.5 50t-20 49z
M393 157.5q22 19.5 22 54.5t-22 55t-61 20h-138v-149h138q39 0 61 19.5z" />
    <glyph glyph-name="uni2113" unicode="&#x2113;" horiz-adv-x="496" 
d="M267 130.5q23 -21.5 70 -21.5q24 0 98 10v-113q-67 -18 -124 -18q-92 0 -144 44.5t-57 131.5l-52 -34l-60 105l111 76v234q0 110 50.5 163.5t138.5 53.5q80 0 123.5 -43t43.5 -132q0 -93 -52 -173.5t-169 -170.5v-45q0 -46 23 -67.5zM260 625q-16 -23 -16 -74v-152
q56 50 80.5 91.5t24.5 90.5q0 67 -46 67q-27 0 -43 -23z" />
    <glyph glyph-name="uni2116" unicode="&#x2116;" horiz-adv-x="1123" 
d="M503 660h135v-672h-45l-382 408v-396h-135v672h44l383 -406v394zM828 257.5q-39 21.5 -61.5 59.5t-22.5 84t22.5 83.5t61.5 59t86 21.5q46 0 85 -21.5t62 -59t23 -83.5t-23 -84t-62 -59.5t-85 -21.5q-47 0 -86 21.5zM865 452q-19 -20 -19 -51t19 -51t49 -20t49 20t19 51
t-19 51t-49 20t-49 -20zM752 169h324v-85h-324v85z" />
    <glyph glyph-name="uni2117" unicode="&#x2117;" horiz-adv-x="778" 
d="M213.5 33q-80.5 45 -128 123t-47.5 173q0 96 48 174.5t128.5 123.5t173.5 45q94 0 175 -45t129 -123.5t48 -173.5t-48 -173.5t-129 -123.5t-175 -45t-174.5 45zM517.5 100q60.5 32 97.5 91.5t37 137.5t-36.5 138t-97.5 92.5t-130 32.5q-70 0 -130 -32.5t-96 -92.5
t-36 -138t36 -137.5t96 -91.5t130 -32q69 0 129.5 32zM267 504h150q61 0 101 -33.5t40 -89.5t-40 -89.5t-101 -33.5h-59v-104h-91v350zM417 338q22 0 35 11.5t13 31.5t-13 32t-35 12h-59v-87h59z" />
    <glyph glyph-name="trademark" unicode="&#x2122;" horiz-adv-x="966" 
d="M459 668h37l191 -237l191 237h35v-457h-112v202l-97 -122h-36l-96 122v-202h-113v457zM146 559h-137v101h386v-101h-137v-348h-112v348z" />
    <glyph glyph-name="uni2126" unicode="&#x2126;" horiz-adv-x="788" 
d="M716 224q-29 -55 -88 -102h107v-122h-284v122q76 36 115.5 91.5t39.5 126.5q0 60 -27.5 107t-76 73.5t-109.5 26.5q-62 0 -110 -26t-74.5 -72.5t-26.5 -106.5q0 -72 39.5 -128t115.5 -92v-122h-284v122h101q-111 90 -111 225q0 90 46.5 164.5t127 117.5t176.5 43
t177 -43.5t128 -118t47 -163.5q0 -68 -29 -123z" />
    <glyph glyph-name="estimated" unicode="&#x212e;" horiz-adv-x="795" 
d="M187 327v-198q35 -49 91 -76.5t128 -27.5q78 0 144 32t111 85l26 -23q-49 -60 -122 -94.5t-158 -34.5q-98 0 -177.5 45t-124.5 121.5t-45 169.5q0 95 47 174t125.5 124.5t169.5 45.5q82 0 159 -36.5t125.5 -103t48.5 -149.5q0 -30 -4 -54h-544zM280.5 606.5
q-56.5 -27.5 -93.5 -76.5v-168h421v183q-36 43 -87.5 66t-113.5 23q-70 0 -126.5 -27.5z" />
    <glyph glyph-name="uni2150" unicode="&#x2150;" horiz-adv-x="963" 
d="M42 334h103v236h-94v90h195v-326h86v-90h-290v90zM631 660h109l-380 -660h-109zM945 416v-27l-180 -389h-108l156 326h-164v90h296z" />
    <glyph glyph-name="uni2151" unicode="&#x2151;" horiz-adv-x="963" 
d="M42 334h103v236h-94v90h195v-326h86v-90h-290v90zM631 660h109l-380 -660h-109zM855 404.5q36 -19.5 57.5 -55t21.5 -79.5q0 -34 -13 -61t-44 -68l-104 -141h-117l94 128q-33 2 -63 21t-48.5 51t-18.5 72q0 43 22 78t58 54.5t77 19.5q42 0 78 -19.5zM818 229.5
q17 17.5 17 42.5q0 26 -17 43t-41 17t-41 -17t-17 -43q0 -25 17 -42.5t41 -17.5t41 17.5z" />
    <glyph glyph-name="uni2152" unicode="&#x2152;" horiz-adv-x="1413" 
d="M42 334h103v236h-94v90h195v-326h86v-90h-290v90zM631 660h109l-380 -660h-109zM663 90h103v236h-94v90h195v-326h86v-90h-290v90zM1077.5 53.5q-43.5 61.5 -43.5 157.5q0 94 43 153.5t125 59.5q83 0 126.5 -59t43.5 -154q0 -96 -43.5 -157.5t-126.5 -61.5
q-81 0 -124.5 61.5zM1269 210q0 62 -16 92t-51 30q-34 0 -50 -30t-16 -92q0 -61 16.5 -93.5t49.5 -32.5q67 0 67 126z" />
    <glyph glyph-name="uni2153" unicode="&#x2153;" horiz-adv-x="981" 
d="M42 334h103v236h-94v90h195v-326h86v-90h-290v90zM631 660h109l-380 -660h-109zM920.5 218q26.5 -33 26.5 -80q0 -42 -21.5 -75t-58 -52t-80.5 -19q-53 0 -93.5 26.5t-61.5 71.5l69 49q19 -28 38 -41.5t45 -13.5t43 14.5t17 39.5q0 48 -76 48h-48v25l78 115h-133v90h275
v-27l-84 -125q38 -13 64.5 -46z" />
    <glyph glyph-name="uni2154" unicode="&#x2154;" horiz-adv-x="996" 
d="M346 334v-90l-313 -1v21l149 162q27 31 39.5 52.5t12.5 44.5q0 24 -13 38.5t-35 14.5t-35.5 -14.5t-13.5 -40.5q0 -5 2 -29h-99q-4 17 -4 35q0 36 18.5 68.5t53 52.5t79.5 20q64 0 107 -38.5t43 -97.5q0 -43 -23 -80.5t-68 -83.5l-32 -34h132zM646 660h109l-380 -660
h-109zM935.5 218q26.5 -33 26.5 -80q0 -42 -21.5 -75t-58 -52t-80.5 -19q-53 0 -93.5 26.5t-61.5 71.5l69 49q19 -28 38 -41.5t45 -13.5t43 14.5t17 39.5q0 48 -76 48h-48v25l78 115h-133v90h275v-27l-84 -125q38 -13 64.5 -46z" />
    <glyph glyph-name="uni2155" unicode="&#x2155;" horiz-adv-x="984" 
d="M42 334h103v236h-94v90h195v-326h86v-90h-290v90zM631 660h109l-380 -660h-109zM877.5 256.5q32.5 -15.5 52.5 -45.5t20 -71q0 -43 -21.5 -76.5t-59 -52.5t-83.5 -19q-54 0 -95 26.5t-63 71.5l70 49q18 -28 38 -41.5t46 -13.5q29 0 47 14t18 39q0 49 -76 49h-98v230h256
v-90h-160v-59q23 5 40 5q36 0 68.5 -15.5z" />
    <glyph glyph-name="uni2156" unicode="&#x2156;" horiz-adv-x="998" 
d="M346 334v-90l-313 -1v21l149 162q27 31 39.5 52.5t12.5 44.5q0 24 -13 38.5t-35 14.5t-35.5 -14.5t-13.5 -40.5q0 -5 2 -29h-99q-4 17 -4 35q0 36 18.5 68.5t53 52.5t79.5 20q64 0 107 -38.5t43 -97.5q0 -43 -23 -80.5t-68 -83.5l-32 -34h132zM646 660h109l-380 -660
h-109zM892.5 256.5q32.5 -15.5 52.5 -45.5t20 -71q0 -43 -21.5 -76.5t-59 -52.5t-83.5 -19q-54 0 -95 26.5t-63 71.5l70 49q18 -28 38 -41.5t46 -13.5q29 0 47 14t18 39q0 49 -76 49h-98v230h256v-90h-160v-59q23 5 40 5q36 0 68.5 -15.5z" />
    <glyph glyph-name="uni2157" unicode="&#x2157;" horiz-adv-x="939" 
d="M299.5 462q26.5 -33 26.5 -80q0 -42 -21.5 -75t-58 -52t-80.5 -19q-53 0 -93.5 26.5t-61.5 71.5l69 49q19 -28 38 -41.5t45 -13.5t43 14.5t17 39.5q0 48 -76 48h-48v25l78 115h-133v90h275v-27l-84 -125q38 -13 64.5 -46zM586 660h109l-380 -660h-109zM832.5 256.5
q32.5 -15.5 52.5 -45.5t20 -71q0 -43 -21.5 -76.5t-59 -52.5t-83.5 -19q-54 0 -95 26.5t-63 71.5l70 49q18 -28 38 -41.5t46 -13.5q29 0 47 14t18 39q0 49 -76 49h-98v230h256v-90h-160v-59q23 5 40 5q36 0 68.5 -15.5z" />
    <glyph glyph-name="uni2158" unicode="&#x2158;" horiz-adv-x="999" 
d="M365 308h-50v-64h-91v64h-212v26l124 326h103l-104 -270h89l1 109h90v-109h50v-82zM647 660h109l-380 -660h-109zM893.5 256.5q32.5 -15.5 52.5 -45.5t20 -71q0 -43 -21.5 -76.5t-59 -52.5t-83.5 -19q-54 0 -95 26.5t-63 71.5l70 49q18 -28 38 -41.5t46 -13.5q29 0 47 14
t18 39q0 49 -76 49h-98v230h256v-90h-160v-59q23 5 40 5q36 0 68.5 -15.5z" />
    <glyph glyph-name="uni2159" unicode="&#x2159;" horiz-adv-x="913" 
d="M42 334h103v236h-94v90h195v-326h86v-90h-290v90zM631 660h109l-380 -660h-109zM816 267q30 -19 49 -51t19 -72q0 -43 -22 -78t-58.5 -54.5t-77.5 -19.5t-77 19.5t-57.5 55t-21.5 79.5q0 34 13.5 62t43.5 67l103 141h117l-93 -128q32 -2 62 -21zM767.5 101
q16.5 17 16.5 43t-16.5 43t-41.5 17q-24 0 -40.5 -17.5t-16.5 -42.5q0 -26 16.5 -43t40.5 -17q25 0 41.5 17z" />
    <glyph glyph-name="uni215A" unicode="&#x215a;" horiz-adv-x="878" 
d="M264.5 500.5q32.5 -15.5 52.5 -45.5t20 -71q0 -43 -21.5 -76.5t-59 -52.5t-83.5 -19q-54 0 -95 26.5t-63 71.5l70 49q18 -28 38 -41.5t46 -13.5q29 0 47 14t18 39q0 49 -76 49h-98v230h256v-90h-160v-59q23 5 40 5q36 0 68.5 -15.5zM597 660h109l-380 -660h-109zM782 267
q30 -19 49 -51t19 -72q0 -43 -22 -78t-58.5 -54.5t-77.5 -19.5t-77 19.5t-57.5 55t-21.5 79.5q0 34 13.5 62t43.5 67l103 141h117l-93 -128q32 -2 62 -21zM733.5 101q16.5 17 16.5 43t-16.5 43t-41.5 17q-24 0 -40.5 -17.5t-16.5 -42.5q0 -26 16.5 -43t40.5 -17
q25 0 41.5 17z" />
    <glyph glyph-name="oneeighth" unicode="&#x215b;" horiz-adv-x="964" 
d="M42 334h103v236h-94v90h195v-326h86v-90h-290v90zM631 660h109l-380 -660h-109zM929 113q0 -56 -44.5 -88.5t-114.5 -32.5t-114.5 32.5t-44.5 88.5q0 70 74 102q-56 38 -56 96q0 53 39.5 83t101.5 30t101.5 -30t39.5 -83q0 -60 -57 -96q75 -33 75 -102zM735 333.5
q-14 -10.5 -14 -27.5q0 -16 11.5 -26.5t37.5 -23.5q25 12 37 23t12 27q0 17 -14 27.5t-35 10.5t-35 -10.5zM814.5 85q15.5 12 15.5 32t-15 32.5t-45 24.5q-31 -12 -46 -24.5t-15 -32.5t15.5 -32t45.5 -12q29 0 44.5 12z" />
    <glyph glyph-name="threeeighths" unicode="&#x215c;" horiz-adv-x="919" 
d="M299.5 462q26.5 -33 26.5 -80q0 -42 -21.5 -75t-58 -52t-80.5 -19q-53 0 -93.5 26.5t-61.5 71.5l69 49q19 -28 38 -41.5t45 -13.5t43 14.5t17 39.5q0 48 -76 48h-48v25l78 115h-133v90h275v-27l-84 -125q38 -13 64.5 -46zM586 660h109l-380 -660h-109zM884 113
q0 -56 -44.5 -88.5t-114.5 -32.5t-114.5 32.5t-44.5 88.5q0 70 74 102q-56 38 -56 96q0 53 39.5 83t101.5 30t101.5 -30t39.5 -83q0 -60 -57 -96q75 -33 75 -102zM690 333.5q-14 -10.5 -14 -27.5q0 -16 11.5 -26.5t37.5 -23.5q25 12 37 23t12 27q0 17 -14 27.5t-35 10.5
t-35 -10.5zM769.5 85q15.5 12 15.5 32t-15 32.5t-45 24.5q-31 -12 -46 -24.5t-15 -32.5t15.5 -32t45.5 -12q29 0 44.5 12z" />
    <glyph glyph-name="fiveeighths" unicode="&#x215d;" horiz-adv-x="930" 
d="M264.5 500.5q32.5 -15.5 52.5 -45.5t20 -71q0 -43 -21.5 -76.5t-59 -52.5t-83.5 -19q-54 0 -95 26.5t-63 71.5l70 49q18 -28 38 -41.5t46 -13.5q29 0 47 14t18 39q0 49 -76 49h-98v230h256v-90h-160v-59q23 5 40 5q36 0 68.5 -15.5zM597 660h109l-380 -660h-109zM895 113
q0 -56 -44.5 -88.5t-114.5 -32.5t-114.5 32.5t-44.5 88.5q0 70 74 102q-56 38 -56 96q0 53 39.5 83t101.5 30t101.5 -30t39.5 -83q0 -60 -57 -96q75 -33 75 -102zM701 333.5q-14 -10.5 -14 -27.5q0 -16 11.5 -26.5t37.5 -23.5q25 12 37 23t12 27q0 17 -14 27.5t-35 10.5
t-35 -10.5zM780.5 85q15.5 12 15.5 32t-15 32.5t-45 24.5q-31 -12 -46 -24.5t-15 -32.5t15.5 -32t45.5 -12q29 0 44.5 12z" />
    <glyph glyph-name="seveneighths" unicode="&#x215e;" horiz-adv-x="838" 
d="M324 660v-27l-180 -389h-108l156 326h-164v90h296zM505 660h109l-380 -660h-109zM803 113q0 -56 -44.5 -88.5t-114.5 -32.5t-114.5 32.5t-44.5 88.5q0 70 74 102q-56 38 -56 96q0 53 39.5 83t101.5 30t101.5 -30t39.5 -83q0 -60 -57 -96q75 -33 75 -102zM609 333.5
q-14 -10.5 -14 -27.5q0 -16 11.5 -26.5t37.5 -23.5q25 12 37 23t12 27q0 17 -14 27.5t-35 10.5t-35 -10.5zM688.5 85q15.5 12 15.5 32t-15 32.5t-45 24.5q-31 -12 -46 -24.5t-15 -32.5t15.5 -32t45.5 -12q29 0 44.5 12z" />
    <glyph glyph-name="arrowleft" unicode="&#x2190;" horiz-adv-x="650" 
d="M308 264l-69 3l159 -159l-79 -79l-279 278v26l279 279l79 -80l-157 -157l67 3h297v-114h-297z" />
    <glyph glyph-name="arrowup" unicode="&#x2191;" horiz-adv-x="650" 
d="M536 244l-152 153l2 -64v-293h-122v293l2 64l-152 -153l-80 80l278 278h26l278 -278z" />
    <glyph glyph-name="arrowright" unicode="&#x2192;" horiz-adv-x="650" 
d="M610 333v-26l-279 -278l-79 79l159 159l-69 -3h-297v114h297l67 -3l-157 157l79 80z" />
    <glyph glyph-name="arrowdown" unicode="&#x2193;" horiz-adv-x="650" 
d="M616 318l-278 -279h-26l-278 279l80 79l152 -153l-2 64v294h122v-294l-2 -64l152 153z" />
    <glyph glyph-name="arrowboth" unicode="&#x2194;" horiz-adv-x="972" 
d="M922 333v-26l-279 -278l-79 79l159 159l-68 -3h-347l-69 3l159 -159l-79 -79l-279 278v26l279 279l79 -80l-157 -157l67 3h347l66 -3l-157 157l79 80z" />
    <glyph glyph-name="arrowupdn" unicode="&#x2195;" horiz-adv-x="650" 
d="M532 281l80 -79l-274 -275h-26l-274 275l80 79l148 -149l-2 64v268l2 64l-148 -149l-80 79l274 275h26l274 -275l-80 -79l-147 148l2 -63v-268l-2 -63z" />
    <glyph glyph-name="uni2196" unicode="&#x2196;" horiz-adv-x="650" 
d="M581 137l-83 -83l-236 236l-39 43v-231h-117v410l18 18h404v-113h-231l47 -43z" />
    <glyph glyph-name="uni2197" unicode="&#x2197;" horiz-adv-x="650" 
d="M544 512v-410h-117v231l-39 -43l-236 -236l-83 83l237 237l47 43h-231v113h404z" />
    <glyph glyph-name="uni2198" unicode="&#x2198;" horiz-adv-x="650" 
d="M544 520v-410l-18 -19h-404v114h231l-47 43l-237 237l83 83l236 -236l39 -43v231h117z" />
    <glyph glyph-name="uni2199" unicode="&#x2199;" horiz-adv-x="650" 
d="M297 205h231v-114h-404l-18 19v410h117v-231l39 43l236 236l83 -83l-237 -237z" />
    <glyph glyph-name="partialdiff" unicode="&#x2202;" horiz-adv-x="629" 
d="M453 635q58 -37 89 -107t31 -165q0 -107 -38.5 -192.5t-108 -134t-157.5 -48.5q-60 0 -111 23.5t-81 69.5t-30 111q0 63 30 112t86 76.5t133 27.5q66 0 138 -21q-3 83 -33.5 123t-90.5 40q-39 0 -68 -17t-58 -52l-85 72q34 56 88.5 87.5t128.5 31.5q79 0 137 -37z
M373.5 148.5q40.5 42.5 54.5 125.5q-73 17 -125 17q-61 0 -90 -26.5t-29 -67.5q0 -40 25.5 -65.5t69.5 -25.5q54 0 94.5 42.5z" />
    <glyph glyph-name="uni2206" unicode="&#x2206;" horiz-adv-x="661" 
d="M631 36v-36h-602v36l279 636h45zM331 401l-120 -279h239z" />
    <glyph glyph-name="product" unicode="&#x220f;" horiz-adv-x="701" 
d="M76 660h549v-781h-135v659h-279v-659h-135v781z" />
    <glyph glyph-name="summation" unicode="&#x2211;" horiz-adv-x="570" 
d="M529 1v-122h-494v30l210 371l-210 350v30h482v-122h-271l146 -242v-30l-150 -265h287z" />
    <glyph glyph-name="minus" unicode="&#x2212;" 
d="M44 378h471v-114h-471v114z" />
    <glyph glyph-name="uni2219" unicode="&#x2219;" horiz-adv-x="280" 
d="M74 253.5q-27 26.5 -27 66.5q0 39 27 66t67 27q39 0 65.5 -27t26.5 -66q0 -40 -26 -66.5t-66 -26.5t-67 26.5z" />
    <glyph glyph-name="radical" unicode="&#x221a;" horiz-adv-x="734" 
d="M731 750l-513 -883h-44v309h-164v108h273v-94l326 560h122z" />
    <glyph glyph-name="infinity" unicode="&#x221e;" horiz-adv-x="877" 
d="M761.5 490.5q47.5 -27.5 72.5 -73t25 -98.5t-25 -98t-72 -72.5t-109 -27.5q-67 0 -117.5 31t-97.5 85q-47 -54 -97.5 -85t-117.5 -31q-62 0 -108.5 27.5t-71.5 72.5t-25 98t25 98.5t71.5 73t109.5 27.5q67 0 117 -30t97 -83q47 53 97 83t116 30q63 0 110.5 -27.5z
M304.5 261q30.5 21 63.5 60q-34 38 -64 58t-66 20q-40 0 -64.5 -20.5t-24.5 -57.5t24.5 -59t65.5 -22q35 0 65.5 21zM703.5 262q24.5 22 24.5 59t-24.5 57.5t-65.5 20.5q-36 0 -66 -20t-63 -58q34 -39 64.5 -60t65.5 -21q40 0 64.5 22z" />
    <glyph glyph-name="integral" unicode="&#x222b;" horiz-adv-x="359" 
d="M2 -121v113l50 -2q92 0 92 98q0 31 -7.5 85t-23.5 146q-3 17 -14 85t-16.5 116.5t-5.5 77.5q0 95 52.5 143.5t146.5 48.5q44 0 81 -10v-113l-50 2q-92 0 -92 -98q0 -47 30 -218q18 -107 27.5 -178t9.5 -114q0 -95 -52.5 -143.5t-145.5 -48.5q-45 0 -82 10z" />
    <glyph glyph-name="approxequal" unicode="&#x2248;" 
d="M312 348l-88 53q-18 12 -31 17.5t-24 5.5q-16 0 -24.5 -10.5t-8.5 -28.5v-19h-103q-2 26 -2 37q0 62 34.5 102.5t85.5 40.5q19 0 42 -7t43 -19l88 -54q21 -12 32.5 -17t22.5 -5q16 0 25 11t9 27v20h102q3 -19 3 -37q0 -63 -35 -103t-86 -40q-43 0 -85 26zM312 119l-88 53
q-18 12 -31 17.5t-24 5.5q-16 0 -24.5 -10.5t-8.5 -28.5v-19h-103q-2 26 -2 37q0 62 34.5 102.5t85.5 40.5q19 0 42 -7t43 -19l88 -54q21 -12 32.5 -17t22.5 -5q16 0 25 11t9 27v20h102q3 -19 3 -37q0 -63 -35 -103t-86 -40q-43 0 -85 26z" />
    <glyph glyph-name="notequal" unicode="&#x2260;" 
d="M370 371l-60 -101h196v-114h-265l-60 -100h-119l60 100h-67v114h136l61 101h-197v114h266l59 98h118l-59 -98h67v-114h-136z" />
    <glyph glyph-name="lessequal" unicode="&#x2264;" 
d="M502 444l-229 -83l229 -83v-116l-464 181v36l464 181v-116zM51 108h451v-108h-451v108z" />
    <glyph glyph-name="greaterequal" unicode="&#x2265;" 
d="M522 379v-36l-464 -181v116l229 83l-229 83v116zM58 108h451v-108h-451v108z" />
    <glyph glyph-name="uni24EA" unicode="&#x24ea;" horiz-adv-x="978" 
d="M272 -44q-99 58 -157 157t-58 217t58 217t157 157t217 58q117 0 216 -58t157 -157.5t58 -216.5t-58 -216.5t-157 -157.5t-216 -58q-118 0 -217 58zM653.5 43q74.5 43 118 118.5t43.5 168.5t-43.5 168.5t-118 118.5t-164.5 43t-164.5 -43t-118 -118.5t-43.5 -168.5
t43.5 -168.5t118 -118.5t164.5 -43t164.5 43zM353 163.5q-47 66.5 -47 169.5q0 102 47 165.5t136 63.5t136 -63.5t47 -165.5q0 -103 -47 -169.5t-136 -66.5t-136 66.5zM562 332q0 130 -73 130q-37 0 -54.5 -32t-17.5 -98q0 -135 72 -135q73 0 73 135z" />
    <glyph glyph-name="uni24FF" unicode="&#x24ff;" horiz-adv-x="978" 
d="M272 -44q-99 58 -157 157t-58 217t58 217t157 157t217 58q117 0 216 -58t157 -157.5t58 -216.5t-58 -216.5t-157 -157.5t-216 -58q-118 0 -217 58zM625.5 163.5q47.5 66.5 47.5 169.5q0 102 -47 165.5t-137 63.5t-137 -63.5t-47 -165.5q0 -103 47 -169.5t137 -66.5
q89 0 136.5 66.5zM419 332q0 65 17 96.5t53 31.5t53.5 -31.5t17.5 -96.5q0 -133 -71 -133q-70 0 -70 133z" />
    <glyph glyph-name="filledbox" unicode="&#x25a0;" horiz-adv-x="730" 
d="M90 605h550v-550h-550v550z" />
    <glyph glyph-name="uni25A1" unicode="&#x25a1;" horiz-adv-x="730" 
d="M90 605h550v-550h-550v550zM523 167v326h-316v-326h316z" />
    <glyph glyph-name="uni25AA" unicode="&#x25aa;" horiz-adv-x="530" 
d="M74 438h381v-380h-381v380z" />
    <glyph glyph-name="uni25AB" unicode="&#x25ab;" horiz-adv-x="530" 
d="M74 438h381v-380h-381v380zM346 163v169h-163v-169h163z" />
    <glyph glyph-name="triagup" unicode="&#x25b2;" horiz-adv-x="730" 
d="M20 71l336 589h18l336 -589l-9 -16h-672z" />
    <glyph glyph-name="uni25B3" unicode="&#x25b3;" horiz-adv-x="730" 
d="M710 71l-9 -16h-672l-9 16l336 589h18zM365 443l-156 -273h312z" />
    <glyph glyph-name="uni25B4" unicode="&#x25b4;" horiz-adv-x="530" 
d="M26 74l230 403h18l230 -403l-9 -16h-460z" />
    <glyph glyph-name="uni25B5" unicode="&#x25b5;" horiz-adv-x="530" 
d="M504 74l-9 -16h-460l-9 16l230 403h18zM265 299l-87 -154h174z" />
    <glyph glyph-name="uni25B6" unicode="&#x25b6;" horiz-adv-x="730" 
d="M120 -3v666l16 9l516 -333v-18l-516 -333z" />
    <glyph glyph-name="uni25B7" unicode="&#x25b7;" horiz-adv-x="730" 
d="M652 339v-18l-516 -333l-16 9v666l16 9zM237 470v-281l218 141z" />
    <glyph glyph-name="uni25B8" unicode="&#x25b8;" horiz-adv-x="530" 
d="M110 21v454l16 9l353 -227v-18l-353 -226z" />
    <glyph glyph-name="uni25B9" unicode="&#x25b9;" horiz-adv-x="530" 
d="M479 257v-18l-353 -226l-16 8v454l16 9zM200 327v-157l123 78z" />
    <glyph glyph-name="triagrt" unicode="&#x25ba;" horiz-adv-x="961" 
d="M100 -3v666l16 9l825 -333v-18l-825 -333z" />
    <glyph glyph-name="uni25BB" unicode="&#x25bb;" horiz-adv-x="961" 
d="M941 339v-18l-825 -333l-16 9v666l16 9zM217 507v-354l438 177z" />
    <glyph glyph-name="triagdn" unicode="&#x25bc;" horiz-adv-x="730" 
d="M701 605l9 -16l-336 -589h-18l-336 589l9 16h672z" />
    <glyph glyph-name="uni25BD" unicode="&#x25bd;" horiz-adv-x="730" 
d="M710 589l-336 -589h-18l-336 589l9 16h672zM209 490l156 -273l156 273h-312z" />
    <glyph glyph-name="uni25BE" unicode="&#x25be;" horiz-adv-x="530" 
d="M26 422l9 16h460l9 -16l-230 -403h-18z" />
    <glyph glyph-name="uni25BF" unicode="&#x25bf;" horiz-adv-x="530" 
d="M504 422l-230 -403h-18l-230 403l9 16h460zM179 350l86 -153l87 153h-173z" />
    <glyph glyph-name="uni25C0" unicode="&#x25c0;" horiz-adv-x="730" 
d="M78 321v18l516 333l16 -9v-666l-16 -9z" />
    <glyph glyph-name="uni25C1" unicode="&#x25c1;" horiz-adv-x="730" 
d="M610 663v-666l-16 -9l-516 333v18l516 333zM275 330l218 -141v281z" />
    <glyph glyph-name="uni25C2" unicode="&#x25c2;" horiz-adv-x="530" 
d="M51 239v18l353 227l16 -9v-454l-16 -8z" />
    <glyph glyph-name="uni25C3" unicode="&#x25c3;" horiz-adv-x="530" 
d="M420 475v-454l-16 -8l-353 226v18l353 227zM330 327l-123 -79l123 -78v157z" />
    <glyph glyph-name="triaglf" unicode="&#x25c4;" horiz-adv-x="961" 
d="M20 321v18l825 333l16 -9v-666l-16 -9z" />
    <glyph glyph-name="uni25C5" unicode="&#x25c5;" horiz-adv-x="961" 
d="M861 663v-666l-16 -9l-825 333v18l825 333zM306 330l438 -177v354z" />
    <glyph glyph-name="lozenge" unicode="&#x25ca;" horiz-adv-x="665" 
d="M568 330l-213 -342h-45l-213 342l213 342h45zM336 166l99 164l-101 163l-102 -163z" />
    <glyph glyph-name="circle" unicode="&#x25cb;" horiz-adv-x="730" 
d="M202 45q-76 45 -121.5 121t-45.5 164t45 164t121 120.5t165 44.5q88 0 163.5 -44.5t120 -120t44.5 -163.5t-44.5 -164.5t-120 -121.5t-163.5 -45t-164 45zM472.5 142q48.5 29 77 79t28.5 110q0 59 -28.5 108.5t-77 78t-106.5 28.5q-59 0 -108.5 -29t-78 -78.5
t-28.5 -108.5t28.5 -109t77.5 -79t108 -29t107.5 29z" />
    <glyph glyph-name="uni25CF" unicode="&#x25cf;" horiz-adv-x="730" 
d="M202 45q-76 45 -121.5 121t-45.5 164t45 164t121 120.5t165 44.5q88 0 163.5 -44.5t120 -120t44.5 -163.5t-44.5 -164.5t-120 -121.5t-163.5 -45t-164 45z" />
    <glyph glyph-name="uni261C" unicode="&#x261c;" horiz-adv-x="1210" 
d="M1177 246l-88 -74l51 -177l-35 -24l-232 147q-95 -49 -190 -77.5t-168 -28.5q-61 0 -90.5 20t-29.5 54q0 22 13 37q-45 17 -45 58q0 30 25 48q-36 16 -36 53q0 20 11 34l-182 2q-82 1 -121.5 26t-39.5 78q0 58 46.5 78.5t147.5 20.5q70 0 163 -8q2 45 32 70.5t68 25.5
q18 0 39.5 -6t41.5 -19l248 -152q8 -3 28.5 -9t34.5 -12l236 149l35 -23l-51 -178l88 -74v-39zM473 502q55 -7 116 -18l-62 35q-15 9 -27 9q-23 0 -27 -26zM658.5 116q102.5 29 184.5 74v148q-113 47 -297.5 76t-374.5 29q-34 0 -47.5 -5t-13.5 -18q0 -12 11.5 -18t41.5 -7
l106 -2q171 -3 287 -10v-69l-110 1q-6 0 -10 -3.5t-4 -9.5t4 -10.5t9 -4.5h122v-68h-110q-5 0 -9 -4t-4 -10t3.5 -10t9.5 -4h121v-69q-46 -6 -80 -6h-8q-7 0 -10.5 -4t-3.5 -10q0 -15 22 -15q58 0 160.5 29zM927 176l101 -62l-28 94l74 58l-74 57l28 94l-101 -62v-179z" />
    <glyph glyph-name="uni261E" unicode="&#x261e;" horiz-adv-x="1210" 
d="M1143.5 500.5q46.5 -20.5 46.5 -78.5q0 -53 -40 -78t-121 -26l-182 -2q11 -14 11 -34q0 -37 -36 -53q25 -18 25 -48q0 -41 -45 -58q13 -15 13 -37q0 -34 -29.5 -54t-90.5 -20q-73 0 -168 28.5t-190 77.5l-232 -147l-35 24l51 177l-88 74v39l88 74l-51 178l35 23l236 -149
q14 6 34.5 12t28.5 9l248 152q20 13 41.5 19t39.5 6q38 0 68 -25.5t32 -70.5q93 8 163 8q101 0 147.5 -20.5zM621 484q61 11 116 18q-4 26 -27 26q-12 0 -27 -9zM1088.5 402q11.5 5 11.5 18t-13.5 18t-47.5 5q-190 0 -374.5 -29t-297.5 -76v-148q82 -45 184.5 -74t160.5 -29
q22 0 22 15q0 6 -3.5 10t-10.5 4h-8q-34 0 -80 6v69h121q6 0 9.5 4t3.5 10t-4 10t-9 4h-110v68h122q5 0 9 4.5t4 10.5t-4 9.5t-10 3.5l-110 -1v69q116 7 287 10l106 2q30 2 41.5 7zM283 355l-101 62l28 -94l-74 -57l74 -58l-28 -94l101 62v179z" />
    <glyph glyph-name="uni2661" unicode="&#x2661;" horiz-adv-x="860" 
d="M710.5 647q44.5 -25 70.5 -69.5t26 -101.5q0 -50 -24 -94.5t-83 -109.5l-260 -284h-20l-260 284q-60 64 -84 109t-24 95q0 57 26 101.5t70.5 69.5t96.5 25q64 0 113.5 -35.5t71.5 -92.5q22 57 71 92.5t113 35.5q52 0 96.5 -25zM650 406q16 26 16 58q0 37 -22 58.5
t-56 21.5q-47 0 -78.5 -42.5t-44.5 -108.5h-69q-14 66 -45.5 108.5t-78.5 42.5q-34 0 -56.5 -21.5t-22.5 -58.5q0 -32 16 -58.5t52 -65.5l169 -190l169 190q35 40 51 66z" />
    <glyph glyph-name="heart" unicode="&#x2665;" horiz-adv-x="860" 
d="M160 272q-60 64 -84 109t-24 95q0 57 26 101.5t70.5 69.5t96.5 25q64 0 113.5 -35.5t71.5 -92.5q22 57 71 92.5t113 35.5q52 0 96.5 -25t70.5 -69.5t26 -101.5q0 -50 -23.5 -94.5t-83.5 -109.5l-260 -284h-20z" />
    <glyph glyph-name="uni275B" unicode="&#x275b;" horiz-adv-x="670" 
d="M505 395.5q50 -29.5 79.5 -79.5t29.5 -110q0 -59 -28.5 -108.5t-81.5 -79t-125 -29.5q-88 0 -162 44.5t-117.5 121.5t-43.5 171q0 95 44 173.5t122 124.5t175 46q117 0 205 -70l-53 -86q-65 50 -145 50q-65 0 -118 -31t-83.5 -85t-30.5 -121q0 -37 11 -75q10 49 41 88.5
t75.5 62t96.5 22.5q59 0 109 -29.5z" />
    <glyph glyph-name="uni275C" unicode="&#x275c;" horiz-adv-x="670" 
d="M453 626.5q74 -44.5 117.5 -121.5t43.5 -171q0 -95 -44 -173.5t-122 -124.5t-175 -46q-117 0 -205 70l53 86q65 -50 145 -50q65 0 118 31t83.5 85t30.5 121q0 37 -11 75q-10 -49 -41 -88.5t-75.5 -62t-96.5 -22.5q-59 0 -109 29.5t-79.5 79.5t-29.5 110q0 59 28.5 108.5
t81.5 79t125 29.5q88 0 162 -44.5z" />
    <glyph glyph-name="uni275D" unicode="&#x275d;" horiz-adv-x="1284" 
d="M1119 395.5q50 -29.5 79.5 -79.5t29.5 -110q0 -59 -28.5 -108.5t-81.5 -79t-125 -29.5q-88 0 -162 44.5t-117.5 121.5t-43.5 171q0 95 44 173.5t122 124.5t175 46q117 0 205 -70l-53 -86q-65 50 -145 50q-65 0 -118 -31t-83.5 -85t-30.5 -121q0 -37 11 -75q10 49 41 88.5
t75.5 62t96.5 22.5q59 0 109 -29.5zM505 395.5q50 -29.5 79.5 -79.5t29.5 -110q0 -59 -28.5 -108.5t-81.5 -79t-125 -29.5q-88 0 -162 44.5t-117.5 121.5t-43.5 171q0 95 44 173.5t122 124.5t175 46q117 0 205 -70l-53 -86q-65 50 -145 50q-65 0 -118 -31t-83.5 -85
t-30.5 -121q0 -37 11 -75q10 49 41 88.5t75.5 62t96.5 22.5q59 0 109 -29.5z" />
    <glyph glyph-name="uni275E" unicode="&#x275e;" horiz-adv-x="1284" 
d="M447 626.5q74 -44.5 117.5 -121.5t43.5 -171q0 -95 -44 -173.5t-122 -124.5t-175 -46q-117 0 -205 70l53 86q65 -50 145 -50q65 0 118 31t83.5 85t30.5 121q0 37 -11 75q-10 -49 -41 -88.5t-75.5 -62t-96.5 -22.5q-59 0 -109 29.5t-79.5 79.5t-29.5 110q0 59 28.5 108.5
t81.5 79t125 29.5q88 0 162 -44.5zM1067 626.5q74 -44.5 117.5 -121.5t43.5 -171q0 -95 -44 -173.5t-122 -124.5t-175 -46q-117 0 -205 70l53 86q65 -50 145 -50q65 0 118 31t83.5 85t30.5 121q0 37 -11 75q-10 -49 -41 -88.5t-75.5 -62t-96.5 -22.5q-59 0 -109 29.5
t-79.5 79.5t-29.5 110q0 59 28.5 108.5t81.5 79t125 29.5q88 0 162 -44.5z" />
    <glyph glyph-name="uni2776" unicode="&#x2776;" horiz-adv-x="978" 
d="M272 -44q-99 58 -157 157t-58 217t58 217t157 157t217 58q117 0 216 -58t157 -157.5t58 -216.5t-58 -216.5t-157 -157.5t-216 -58q-118 0 -217 58zM634 105v93h-85v356h-198v-93h86v-263h-92v-93h289z" />
    <glyph glyph-name="uni2777" unicode="&#x2777;" horiz-adv-x="978" 
d="M272 -44q-99 58 -157 157t-58 217t58 217t157 157t217 58q117 0 216 -58t157 -157.5t58 -216.5t-58 -216.5t-157 -157.5t-216 -58q-118 0 -217 58zM662 104v94h-150l57 62q41 47 61 80t20 75t-21.5 75.5t-58.5 52.5t-84 19q-49 0 -87 -21.5t-59 -57t-21 -75.5
q0 -19 4 -38h101q-2 22 -2 29q0 27 15.5 44t42.5 17q26 0 41 -15t15 -40q0 -24 -13.5 -45t-45.5 -57l-156 -176v-23h341z" />
    <glyph glyph-name="uni2778" unicode="&#x2778;" horiz-adv-x="978" 
d="M272 -44q-99 58 -157 157t-58 217t58 217t157 157t217 58q117 0 216 -58t157 -157.5t58 -216.5t-58 -216.5t-157 -157.5t-216 -58q-118 0 -217 58zM564 117q40 20 63.5 56t23.5 81q0 51 -29 86t-73 49l94 136v29h-299v-100h134l-84 -122v-28h62q81 0 81 -51
q0 -25 -18.5 -39.5t-46.5 -14.5q-27 0 -47.5 14t-40.5 44l-77 -54q24 -49 68 -77.5t101 -28.5q48 0 88 20z" />
    <glyph glyph-name="uni2779" unicode="&#x2779;" horiz-adv-x="978" 
d="M272 -44q-99 58 -157 157t-58 217t58 217t157 157t217 58q117 0 216 -58t157 -157.5t58 -216.5t-58 -216.5t-157 -157.5t-216 -58q-118 0 -217 58zM620 105v67h54v97h-54v103h-111v-103h-91l111 285h-118l-127 -352v-30h225v-67h111z" />
    <glyph glyph-name="uni277A" unicode="&#x277a;" horiz-adv-x="978" 
d="M272 -44q-99 58 -157 157t-58 217t58 217t157 157t217 58q117 0 216 -58t157 -157.5t58 -216.5t-58 -216.5t-157 -157.5t-216 -58q-118 0 -217 58zM572 117.5q40 20.5 63.5 56.5t23.5 81t-22 77.5t-56.5 49.5t-72.5 17q-24 0 -44 -4v59h172v100h-278v-250h106
q81 0 81 -50q0 -26 -19 -41t-49 -15q-28 0 -49 14.5t-42 44.5l-77 -54q23 -49 68.5 -77.5t104.5 -28.5q50 0 90 20.5z" />
    </font>
</defs>
</svg>
